G04 #@! TF.GenerationSoftware,KiCad,Pcbnew,5.0.2+dfsg1-1*
G04 #@! TF.CreationDate,2021-01-22T13:52:48+01:00*
G04 #@! TF.ProjectId,wat,7761742e-6b69-4636-9164-5f7063625858,rev?*
G04 #@! TF.SameCoordinates,Original*
G04 #@! TF.FileFunction,Legend,Top*
G04 #@! TF.FilePolarity,Positive*
%FSLAX46Y46*%
G04 Gerber Fmt 4.6, Leading zero omitted, Abs format (unit mm)*
G04 Created by KiCad (PCBNEW 5.0.2+dfsg1-1) date vie 22 ene 2021 13:52:48 CET*
%MOMM*%
%LPD*%
G01*
G04 APERTURE LIST*
%ADD10C,0.200000*%
%ADD11C,0.120000*%
%ADD12C,0.150000*%
%ADD13C,0.010000*%
%ADD14C,0.100000*%
G04 APERTURE END LIST*
D10*
X66268600Y-53035200D02*
X66217800Y-53035200D01*
D11*
G04 #@! TO.C,C11*
X81010000Y-135640000D02*
X83010000Y-135640000D01*
X83010000Y-133600000D02*
X81010000Y-133600000D01*
G04 #@! TO.C,J4*
X63855600Y-83032600D02*
X94335600Y-83032600D01*
X63855600Y-75412600D02*
X94335600Y-75412600D01*
X63855600Y-81762600D02*
X94335600Y-81762600D01*
X94335600Y-83032600D02*
X94335600Y-75412600D01*
X63855600Y-75412600D02*
X63855600Y-83032600D01*
G04 #@! TO.C,C1*
X117729500Y-108888500D02*
X117729500Y-113488500D01*
X123189500Y-113488500D02*
X123189500Y-108888500D01*
G04 #@! TO.C,C2*
X107426000Y-99818000D02*
X105426000Y-99818000D01*
X105426000Y-101858000D02*
X107426000Y-101858000D01*
G04 #@! TO.C,C5*
X90916000Y-89404000D02*
X88916000Y-89404000D01*
X88916000Y-91444000D02*
X90916000Y-91444000D01*
G04 #@! TO.C,C6*
X86852000Y-85086000D02*
X84852000Y-85086000D01*
X84852000Y-87126000D02*
X86852000Y-87126000D01*
G04 #@! TO.C,C7*
X74660000Y-89404000D02*
X72660000Y-89404000D01*
X72660000Y-91444000D02*
X74660000Y-91444000D01*
G04 #@! TO.C,C8*
X70596000Y-85086000D02*
X68596000Y-85086000D01*
X68596000Y-87126000D02*
X70596000Y-87126000D01*
G04 #@! TO.C,C9*
X66786000Y-133600000D02*
X64786000Y-133600000D01*
X64786000Y-135640000D02*
X66786000Y-135640000D01*
G04 #@! TO.C,C10*
X72914000Y-135640000D02*
X74914000Y-135640000D01*
X74914000Y-133600000D02*
X72914000Y-133600000D01*
G04 #@! TO.C,C12*
X91170000Y-133600000D02*
X89170000Y-133600000D01*
X89170000Y-135640000D02*
X91170000Y-135640000D01*
G04 #@! TO.C,C13*
X99806000Y-133600000D02*
X97806000Y-133600000D01*
X97806000Y-135640000D02*
X99806000Y-135640000D01*
G04 #@! TO.C,C14*
X105934000Y-135640000D02*
X107934000Y-135640000D01*
X107934000Y-133600000D02*
X105934000Y-133600000D01*
G04 #@! TO.C,C15*
X116062000Y-133600000D02*
X114062000Y-133600000D01*
X114062000Y-135640000D02*
X116062000Y-135640000D01*
G04 #@! TO.C,C16*
X122190000Y-135640000D02*
X124190000Y-135640000D01*
X124190000Y-133600000D02*
X122190000Y-133600000D01*
G04 #@! TO.C,J1*
X77022000Y-95952000D02*
X77022000Y-97282000D01*
X75692000Y-95952000D02*
X77022000Y-95952000D01*
X77022000Y-98552000D02*
X77022000Y-101152000D01*
X74422000Y-98552000D02*
X77022000Y-98552000D01*
X74422000Y-95952000D02*
X74422000Y-98552000D01*
X77022000Y-101152000D02*
X64202000Y-101152000D01*
X74422000Y-95952000D02*
X64202000Y-95952000D01*
X64202000Y-95952000D02*
X64202000Y-101152000D01*
G04 #@! TO.C,J2*
X94386400Y-158724600D02*
X124866400Y-158724600D01*
X94386400Y-151104600D02*
X124866400Y-151104600D01*
X94386400Y-157454600D02*
X124866400Y-157454600D01*
X124866400Y-158724600D02*
X124866400Y-151104600D01*
X94386400Y-151104600D02*
X94386400Y-158724600D01*
G04 #@! TO.C,J3*
X94335600Y-83007200D02*
X94335600Y-75387200D01*
X109575600Y-83007200D02*
X109575600Y-75387200D01*
X94335600Y-81737200D02*
X109575600Y-81737200D01*
X94335600Y-75387200D02*
X109575600Y-75387200D01*
X94335600Y-83007200D02*
X109575600Y-83007200D01*
G04 #@! TO.C,J5*
X63931800Y-151130000D02*
X63931800Y-158750000D01*
X94411800Y-158750000D02*
X94411800Y-151130000D01*
X63931800Y-157480000D02*
X94411800Y-157480000D01*
X63931800Y-151130000D02*
X94411800Y-151130000D01*
X63931800Y-158750000D02*
X94411800Y-158750000D01*
G04 #@! TO.C,P1*
X124841000Y-75412600D02*
X114681000Y-75412600D01*
X124841000Y-83032600D02*
X124841000Y-75412600D01*
X114681000Y-83032600D02*
X124841000Y-83032600D01*
X114681000Y-75412600D02*
X114681000Y-83032600D01*
X114681000Y-76682600D02*
X124841000Y-76682600D01*
D12*
G04 #@! TO.C,R1*
X111490000Y-98103000D02*
X109490000Y-98103000D01*
X109490000Y-95953000D02*
X111490000Y-95953000D01*
G04 #@! TO.C,R3*
X97044000Y-89349000D02*
X99044000Y-89349000D01*
X99044000Y-91499000D02*
X97044000Y-91499000D01*
G04 #@! TO.C,R4*
X92980000Y-85031000D02*
X94980000Y-85031000D01*
X94980000Y-87181000D02*
X92980000Y-87181000D01*
G04 #@! TO.C,R5*
X80788000Y-89349000D02*
X82788000Y-89349000D01*
X82788000Y-91499000D02*
X80788000Y-91499000D01*
G04 #@! TO.C,R6*
X76724000Y-85031000D02*
X78724000Y-85031000D01*
X78724000Y-87181000D02*
X76724000Y-87181000D01*
G04 #@! TO.C,R7*
X64564000Y-89349000D02*
X66564000Y-89349000D01*
X66564000Y-91499000D02*
X64564000Y-91499000D01*
G04 #@! TO.C,R8*
X70299000Y-146542000D02*
X70299000Y-144542000D01*
X72449000Y-144542000D02*
X72449000Y-146542000D01*
G04 #@! TO.C,R9*
X75633000Y-146542000D02*
X75633000Y-144542000D01*
X77783000Y-144542000D02*
X77783000Y-146542000D01*
G04 #@! TO.C,R10*
X80713000Y-146542000D02*
X80713000Y-144542000D01*
X82863000Y-144542000D02*
X82863000Y-146542000D01*
G04 #@! TO.C,R11*
X87943000Y-144542000D02*
X87943000Y-146542000D01*
X85793000Y-146542000D02*
X85793000Y-144542000D01*
G04 #@! TO.C,R12*
X100779000Y-146542000D02*
X100779000Y-144542000D01*
X102929000Y-144542000D02*
X102929000Y-146542000D01*
G04 #@! TO.C,R13*
X108263000Y-144542000D02*
X108263000Y-146542000D01*
X106113000Y-146542000D02*
X106113000Y-144542000D01*
G04 #@! TO.C,R14*
X64786000Y-137355000D02*
X66786000Y-137355000D01*
X66786000Y-139505000D02*
X64786000Y-139505000D01*
G04 #@! TO.C,R15*
X72882000Y-137355000D02*
X74882000Y-137355000D01*
X74882000Y-139505000D02*
X72882000Y-139505000D01*
G04 #@! TO.C,R16*
X83010000Y-139505000D02*
X81010000Y-139505000D01*
X81010000Y-137355000D02*
X83010000Y-137355000D01*
G04 #@! TO.C,R17*
X91170000Y-139505000D02*
X89170000Y-139505000D01*
X89170000Y-137355000D02*
X91170000Y-137355000D01*
G04 #@! TO.C,R18*
X97806000Y-137355000D02*
X99806000Y-137355000D01*
X99806000Y-139505000D02*
X97806000Y-139505000D01*
G04 #@! TO.C,R19*
X107934000Y-139505000D02*
X105934000Y-139505000D01*
X105934000Y-137355000D02*
X107934000Y-137355000D01*
G04 #@! TO.C,R20*
X113343000Y-144542000D02*
X113343000Y-146542000D01*
X111193000Y-146542000D02*
X111193000Y-144542000D01*
G04 #@! TO.C,R21*
X118423000Y-144542000D02*
X118423000Y-146542000D01*
X116273000Y-146542000D02*
X116273000Y-144542000D01*
G04 #@! TO.C,R22*
X114062000Y-137355000D02*
X116062000Y-137355000D01*
X116062000Y-139505000D02*
X114062000Y-139505000D01*
G04 #@! TO.C,R23*
X122190000Y-137355000D02*
X124190000Y-137355000D01*
X124190000Y-139505000D02*
X122190000Y-139505000D01*
D11*
G04 #@! TO.C,C3*
X105172000Y-91444000D02*
X107172000Y-91444000D01*
X107172000Y-89404000D02*
X105172000Y-89404000D01*
G04 #@! TO.C,C4*
X101108000Y-87126000D02*
X103108000Y-87126000D01*
X103108000Y-85086000D02*
X101108000Y-85086000D01*
G04 #@! TO.C,D1*
X118509500Y-99027500D02*
X118509500Y-93417500D01*
X122409500Y-99027500D02*
X122409500Y-93417500D01*
X118509500Y-99027500D02*
X122409500Y-99027500D01*
D12*
G04 #@! TO.C,R2*
X109236000Y-85031000D02*
X111236000Y-85031000D01*
X111236000Y-87181000D02*
X109236000Y-87181000D01*
D13*
G04 #@! TO.C,U1*
X105156000Y-122428000D02*
G75*
G03X105156000Y-122428000I-1016000J0D01*
G01*
X105156000Y-107188000D02*
G75*
G03X105156000Y-107188000I-1016000J0D01*
G01*
X64516000Y-107188000D02*
G75*
G03X64516000Y-107188000I-1016000J0D01*
G01*
X64516000Y-122428000D02*
G75*
G03X64516000Y-122428000I-1016000J0D01*
G01*
D12*
X64770000Y-121158000D02*
X102870000Y-121158000D01*
X64770000Y-123698000D02*
X64770000Y-121158000D01*
X102870000Y-123698000D02*
X64770000Y-123698000D01*
X102870000Y-121158000D02*
X102870000Y-123698000D01*
X102870000Y-105918000D02*
X64770000Y-105918000D01*
X102870000Y-108458000D02*
X102870000Y-105918000D01*
X64770000Y-108458000D02*
X102870000Y-108458000D01*
X64770000Y-105918000D02*
X64770000Y-108458000D01*
D13*
X104775000Y-107188000D02*
X103505000Y-107188000D01*
X104140000Y-106553000D02*
X104140000Y-107823000D01*
X104775000Y-122428000D02*
X103505000Y-122428000D01*
X104140000Y-121793000D02*
X104140000Y-123063000D01*
X64135000Y-107188000D02*
X62865000Y-107188000D01*
X63500000Y-106553000D02*
X63500000Y-107823000D01*
X64135000Y-122428000D02*
X62865000Y-122428000D01*
X63500000Y-121793000D02*
X63500000Y-123063000D01*
D12*
X105410000Y-105918000D02*
X62230000Y-105918000D01*
X105410000Y-123698000D02*
X105410000Y-105918000D01*
X62230000Y-123698000D02*
X105410000Y-123698000D01*
X62230000Y-105918000D02*
X62230000Y-123698000D01*
D13*
X100203000Y-110998000D02*
X105283000Y-110998000D01*
X100203000Y-118618000D02*
X100203000Y-110998000D01*
X105283000Y-118618000D02*
X100203000Y-118618000D01*
X105283000Y-110998000D02*
X105283000Y-118618000D01*
X87122000Y-115316000D02*
G75*
G03X87122000Y-115316000I-762000J0D01*
G01*
X87630000Y-114046000D02*
X85090000Y-114046000D01*
X87630000Y-116586000D02*
X87630000Y-114046000D01*
X85090000Y-116586000D02*
X87630000Y-116586000D01*
X85090000Y-114046000D02*
X85090000Y-116586000D01*
X61849000Y-116713000D02*
X61849000Y-112903000D01*
X66421000Y-116713000D02*
X61849000Y-116713000D01*
X66421000Y-112903000D02*
X66421000Y-116713000D01*
X61849000Y-112903000D02*
X66421000Y-112903000D01*
G04 #@! TD*
D14*
X90702600Y-122072400D02*
X90702600Y-122783600D01*
X92177400Y-122072400D02*
X92177400Y-122783600D01*
X90702600Y-122783600D02*
G75*
G03X92177400Y-122783600I737400J0D01*
G01*
X92177400Y-122072400D02*
G75*
G03X90702600Y-122072400I-737400J0D01*
G01*
X88162600Y-122072400D02*
X88162600Y-122783600D01*
X89637400Y-122072400D02*
X89637400Y-122783600D01*
X88162600Y-122783600D02*
G75*
G03X89637400Y-122783600I737400J0D01*
G01*
X89637400Y-122072400D02*
G75*
G03X88162600Y-122072400I-737400J0D01*
G01*
X85622600Y-122072400D02*
X85622600Y-122783600D01*
X87097400Y-122072400D02*
X87097400Y-122783600D01*
X85622600Y-122783600D02*
G75*
G03X87097400Y-122783600I737400J0D01*
G01*
X87097400Y-122072400D02*
G75*
G03X85622600Y-122072400I-737400J0D01*
G01*
X83082600Y-122072400D02*
X83082600Y-122783600D01*
X84557400Y-122072400D02*
X84557400Y-122783600D01*
X83082600Y-122783600D02*
G75*
G03X84557400Y-122783600I737400J0D01*
G01*
X84557400Y-122072400D02*
G75*
G03X83082600Y-122072400I-737400J0D01*
G01*
X80542600Y-122072400D02*
X80542600Y-122783600D01*
X82017400Y-122072400D02*
X82017400Y-122783600D01*
X80542600Y-122783600D02*
G75*
G03X82017400Y-122783600I737400J0D01*
G01*
X82017400Y-122072400D02*
G75*
G03X80542600Y-122072400I-737400J0D01*
G01*
X78002600Y-122072400D02*
X78002600Y-122783600D01*
X79477400Y-122072400D02*
X79477400Y-122783600D01*
X78002600Y-122783600D02*
G75*
G03X79477400Y-122783600I737400J0D01*
G01*
X79477400Y-122072400D02*
G75*
G03X78002600Y-122072400I-737400J0D01*
G01*
X75462600Y-122072400D02*
X75462600Y-122783600D01*
X76937400Y-122072400D02*
X76937400Y-122783600D01*
X75462600Y-122783600D02*
G75*
G03X76937400Y-122783600I737400J0D01*
G01*
X76937400Y-122072400D02*
G75*
G03X75462600Y-122072400I-737400J0D01*
G01*
X65302600Y-122072400D02*
X65302600Y-122783600D01*
X66777400Y-122072400D02*
X66777400Y-122783600D01*
X65302600Y-122783600D02*
G75*
G03X66777400Y-122783600I737400J0D01*
G01*
X66777400Y-122072400D02*
G75*
G03X65302600Y-122072400I-737400J0D01*
G01*
X65302600Y-106832400D02*
X65302600Y-107543600D01*
X66777400Y-106832400D02*
X66777400Y-107543600D01*
X65302600Y-107543600D02*
G75*
G03X66777400Y-107543600I737400J0D01*
G01*
X66777400Y-106832400D02*
G75*
G03X65302600Y-106832400I-737400J0D01*
G01*
X67842600Y-106832400D02*
X67842600Y-107543600D01*
X69317400Y-106832400D02*
X69317400Y-107543600D01*
X67842600Y-107543600D02*
G75*
G03X69317400Y-107543600I737400J0D01*
G01*
X69317400Y-106832400D02*
G75*
G03X67842600Y-106832400I-737400J0D01*
G01*
X70382600Y-106832400D02*
X70382600Y-107543600D01*
X71857400Y-106832400D02*
X71857400Y-107543600D01*
X70382600Y-107543600D02*
G75*
G03X71857400Y-107543600I737400J0D01*
G01*
X71857400Y-106832400D02*
G75*
G03X70382600Y-106832400I-737400J0D01*
G01*
X72922600Y-106832400D02*
X72922600Y-107543600D01*
X74397400Y-106832400D02*
X74397400Y-107543600D01*
X72922600Y-107543600D02*
G75*
G03X74397400Y-107543600I737400J0D01*
G01*
X74397400Y-106832400D02*
G75*
G03X72922600Y-106832400I-737400J0D01*
G01*
X75462600Y-106832400D02*
X75462600Y-107543600D01*
X76937400Y-106832400D02*
X76937400Y-107543600D01*
X75462600Y-107543600D02*
G75*
G03X76937400Y-107543600I737400J0D01*
G01*
X76937400Y-106832400D02*
G75*
G03X75462600Y-106832400I-737400J0D01*
G01*
X78002600Y-106832400D02*
X78002600Y-107543600D01*
X79477400Y-106832400D02*
X79477400Y-107543600D01*
X78002600Y-107543600D02*
G75*
G03X79477400Y-107543600I737400J0D01*
G01*
X79477400Y-106832400D02*
G75*
G03X78002600Y-106832400I-737400J0D01*
G01*
X80542600Y-106832400D02*
X80542600Y-107543600D01*
X82017400Y-106832400D02*
X82017400Y-107543600D01*
X80542600Y-107543600D02*
G75*
G03X82017400Y-107543600I737400J0D01*
G01*
X82017400Y-106832400D02*
G75*
G03X80542600Y-106832400I-737400J0D01*
G01*
X83082600Y-106832400D02*
X83082600Y-107543600D01*
X84557400Y-106832400D02*
X84557400Y-107543600D01*
X83082600Y-107543600D02*
G75*
G03X84557400Y-107543600I737400J0D01*
G01*
X84557400Y-106832400D02*
G75*
G03X83082600Y-106832400I-737400J0D01*
G01*
X85622600Y-106832400D02*
X85622600Y-107543600D01*
X87097400Y-106832400D02*
X87097400Y-107543600D01*
X85622600Y-107543600D02*
G75*
G03X87097400Y-107543600I737400J0D01*
G01*
X87097400Y-106832400D02*
G75*
G03X85622600Y-106832400I-737400J0D01*
G01*
X88162600Y-106832400D02*
X88162600Y-107543600D01*
X89637400Y-106832400D02*
X89637400Y-107543600D01*
X88162600Y-107543600D02*
G75*
G03X89637400Y-107543600I737400J0D01*
G01*
X89637400Y-106832400D02*
G75*
G03X88162600Y-106832400I-737400J0D01*
G01*
X90702600Y-106832400D02*
X90702600Y-107543600D01*
X92177400Y-106832400D02*
X92177400Y-107543600D01*
X90702600Y-107543600D02*
G75*
G03X92177400Y-107543600I737400J0D01*
G01*
X92177400Y-106832400D02*
G75*
G03X90702600Y-106832400I-737400J0D01*
G01*
X100862600Y-106832400D02*
X100862600Y-107543600D01*
X102337400Y-106832400D02*
X102337400Y-107543600D01*
X100862600Y-107543600D02*
G75*
G03X102337400Y-107543600I737400J0D01*
G01*
X102337400Y-106832400D02*
G75*
G03X100862600Y-106832400I-737400J0D01*
G01*
X67842600Y-122072400D02*
X67842600Y-122783600D01*
X69317400Y-122072400D02*
X69317400Y-122783600D01*
X67842600Y-122783600D02*
G75*
G03X69317400Y-122783600I737400J0D01*
G01*
X69317400Y-122072400D02*
G75*
G03X67842600Y-122072400I-737400J0D01*
G01*
X70382600Y-122072400D02*
X70382600Y-122783600D01*
X71857400Y-122072400D02*
X71857400Y-122783600D01*
X70382600Y-122783600D02*
G75*
G03X71857400Y-122783600I737400J0D01*
G01*
X71857400Y-122072400D02*
G75*
G03X70382600Y-122072400I-737400J0D01*
G01*
X72922600Y-122072400D02*
X72922600Y-122783600D01*
X74397400Y-122072400D02*
X74397400Y-122783600D01*
X72922600Y-122783600D02*
G75*
G03X74397400Y-122783600I737400J0D01*
G01*
X74397400Y-122072400D02*
G75*
G03X72922600Y-122072400I-737400J0D01*
G01*
X93242600Y-122072400D02*
X93242600Y-122783600D01*
X94717400Y-122072400D02*
X94717400Y-122783600D01*
X93242600Y-122783600D02*
G75*
G03X94717400Y-122783600I737400J0D01*
G01*
X94717400Y-122072400D02*
G75*
G03X93242600Y-122072400I-737400J0D01*
G01*
X95782600Y-122072400D02*
X95782600Y-122783600D01*
X97257400Y-122072400D02*
X97257400Y-122783600D01*
X95782600Y-122783600D02*
G75*
G03X97257400Y-122783600I737400J0D01*
G01*
X97257400Y-122072400D02*
G75*
G03X95782600Y-122072400I-737400J0D01*
G01*
X98322600Y-122072400D02*
X98322600Y-122783600D01*
X99797400Y-122072400D02*
X99797400Y-122783600D01*
X98322600Y-122783600D02*
G75*
G03X99797400Y-122783600I737400J0D01*
G01*
X99797400Y-122072400D02*
G75*
G03X98322600Y-122072400I-737400J0D01*
G01*
X100862600Y-122072400D02*
X100862600Y-122783600D01*
X102337400Y-122072400D02*
X102337400Y-122783600D01*
X100862600Y-122783600D02*
G75*
G03X102337400Y-122783600I737400J0D01*
G01*
X102337400Y-122072400D02*
G75*
G03X100862600Y-122072400I-737400J0D01*
G01*
X93242600Y-106832400D02*
X93242600Y-107543600D01*
X94717400Y-106832400D02*
X94717400Y-107543600D01*
X93242600Y-107543600D02*
G75*
G03X94717400Y-107543600I737400J0D01*
G01*
X94717400Y-106832400D02*
G75*
G03X93242600Y-106832400I-737400J0D01*
G01*
X95782600Y-106832400D02*
X95782600Y-107543600D01*
X97257400Y-106832400D02*
X97257400Y-107543600D01*
X95782600Y-107543600D02*
G75*
G03X97257400Y-107543600I737400J0D01*
G01*
X97257400Y-106832400D02*
G75*
G03X95782600Y-106832400I-737400J0D01*
G01*
X98322600Y-106832400D02*
X98322600Y-107543600D01*
X99797400Y-106832400D02*
X99797400Y-107543600D01*
X98322600Y-107543600D02*
G75*
G03X99797400Y-107543600I737400J0D01*
G01*
X99797400Y-106832400D02*
G75*
G03X98322600Y-106832400I-737400J0D01*
G01*
G04 #@! TO.C,C11*
D12*
X79621142Y-130913142D02*
X79573523Y-130960761D01*
X79430666Y-131008380D01*
X79335428Y-131008380D01*
X79192571Y-130960761D01*
X79097333Y-130865523D01*
X79049714Y-130770285D01*
X79002095Y-130579809D01*
X79002095Y-130436952D01*
X79049714Y-130246476D01*
X79097333Y-130151238D01*
X79192571Y-130056000D01*
X79335428Y-130008380D01*
X79430666Y-130008380D01*
X79573523Y-130056000D01*
X79621142Y-130103619D01*
X80573523Y-131008380D02*
X80002095Y-131008380D01*
X80287809Y-131008380D02*
X80287809Y-130008380D01*
X80192571Y-130151238D01*
X80097333Y-130246476D01*
X80002095Y-130294095D01*
X81525904Y-131008380D02*
X80954476Y-131008380D01*
X81240190Y-131008380D02*
X81240190Y-130008380D01*
X81144952Y-130151238D01*
X81049714Y-130246476D01*
X80954476Y-130294095D01*
G04 #@! TO.C,J4*
X78712266Y-74124980D02*
X78712266Y-74839266D01*
X78664647Y-74982123D01*
X78569409Y-75077361D01*
X78426552Y-75124980D01*
X78331314Y-75124980D01*
X79617028Y-74458314D02*
X79617028Y-75124980D01*
X79378933Y-74077361D02*
X79140838Y-74791647D01*
X79759885Y-74791647D01*
G04 #@! TO.C,C1*
X124241642Y-113875166D02*
X124289261Y-113922785D01*
X124336880Y-114065642D01*
X124336880Y-114160880D01*
X124289261Y-114303738D01*
X124194023Y-114398976D01*
X124098785Y-114446595D01*
X123908309Y-114494214D01*
X123765452Y-114494214D01*
X123574976Y-114446595D01*
X123479738Y-114398976D01*
X123384500Y-114303738D01*
X123336880Y-114160880D01*
X123336880Y-114065642D01*
X123384500Y-113922785D01*
X123432119Y-113875166D01*
X124336880Y-112922785D02*
X124336880Y-113494214D01*
X124336880Y-113208500D02*
X123336880Y-113208500D01*
X123479738Y-113303738D01*
X123574976Y-113398976D01*
X123622595Y-113494214D01*
G04 #@! TO.C,C2*
X103973333Y-103227142D02*
X103925714Y-103274761D01*
X103782857Y-103322380D01*
X103687619Y-103322380D01*
X103544761Y-103274761D01*
X103449523Y-103179523D01*
X103401904Y-103084285D01*
X103354285Y-102893809D01*
X103354285Y-102750952D01*
X103401904Y-102560476D01*
X103449523Y-102465238D01*
X103544761Y-102370000D01*
X103687619Y-102322380D01*
X103782857Y-102322380D01*
X103925714Y-102370000D01*
X103973333Y-102417619D01*
X104354285Y-102417619D02*
X104401904Y-102370000D01*
X104497142Y-102322380D01*
X104735238Y-102322380D01*
X104830476Y-102370000D01*
X104878095Y-102417619D01*
X104925714Y-102512857D01*
X104925714Y-102608095D01*
X104878095Y-102750952D01*
X104306666Y-103322380D01*
X104925714Y-103322380D01*
G04 #@! TO.C,C5*
X87844333Y-92432142D02*
X87796714Y-92479761D01*
X87653857Y-92527380D01*
X87558619Y-92527380D01*
X87415761Y-92479761D01*
X87320523Y-92384523D01*
X87272904Y-92289285D01*
X87225285Y-92098809D01*
X87225285Y-91955952D01*
X87272904Y-91765476D01*
X87320523Y-91670238D01*
X87415761Y-91575000D01*
X87558619Y-91527380D01*
X87653857Y-91527380D01*
X87796714Y-91575000D01*
X87844333Y-91622619D01*
X88749095Y-91527380D02*
X88272904Y-91527380D01*
X88225285Y-92003571D01*
X88272904Y-91955952D01*
X88368142Y-91908333D01*
X88606238Y-91908333D01*
X88701476Y-91955952D01*
X88749095Y-92003571D01*
X88796714Y-92098809D01*
X88796714Y-92336904D01*
X88749095Y-92432142D01*
X88701476Y-92479761D01*
X88606238Y-92527380D01*
X88368142Y-92527380D01*
X88272904Y-92479761D01*
X88225285Y-92432142D01*
G04 #@! TO.C,C6*
X87590333Y-84812142D02*
X87542714Y-84859761D01*
X87399857Y-84907380D01*
X87304619Y-84907380D01*
X87161761Y-84859761D01*
X87066523Y-84764523D01*
X87018904Y-84669285D01*
X86971285Y-84478809D01*
X86971285Y-84335952D01*
X87018904Y-84145476D01*
X87066523Y-84050238D01*
X87161761Y-83955000D01*
X87304619Y-83907380D01*
X87399857Y-83907380D01*
X87542714Y-83955000D01*
X87590333Y-84002619D01*
X88447476Y-83907380D02*
X88257000Y-83907380D01*
X88161761Y-83955000D01*
X88114142Y-84002619D01*
X88018904Y-84145476D01*
X87971285Y-84335952D01*
X87971285Y-84716904D01*
X88018904Y-84812142D01*
X88066523Y-84859761D01*
X88161761Y-84907380D01*
X88352238Y-84907380D01*
X88447476Y-84859761D01*
X88495095Y-84812142D01*
X88542714Y-84716904D01*
X88542714Y-84478809D01*
X88495095Y-84383571D01*
X88447476Y-84335952D01*
X88352238Y-84288333D01*
X88161761Y-84288333D01*
X88066523Y-84335952D01*
X88018904Y-84383571D01*
X87971285Y-84478809D01*
G04 #@! TO.C,C7*
X71588333Y-92432142D02*
X71540714Y-92479761D01*
X71397857Y-92527380D01*
X71302619Y-92527380D01*
X71159761Y-92479761D01*
X71064523Y-92384523D01*
X71016904Y-92289285D01*
X70969285Y-92098809D01*
X70969285Y-91955952D01*
X71016904Y-91765476D01*
X71064523Y-91670238D01*
X71159761Y-91575000D01*
X71302619Y-91527380D01*
X71397857Y-91527380D01*
X71540714Y-91575000D01*
X71588333Y-91622619D01*
X71921666Y-91527380D02*
X72588333Y-91527380D01*
X72159761Y-92527380D01*
G04 #@! TO.C,C8*
X71334333Y-84812142D02*
X71286714Y-84859761D01*
X71143857Y-84907380D01*
X71048619Y-84907380D01*
X70905761Y-84859761D01*
X70810523Y-84764523D01*
X70762904Y-84669285D01*
X70715285Y-84478809D01*
X70715285Y-84335952D01*
X70762904Y-84145476D01*
X70810523Y-84050238D01*
X70905761Y-83955000D01*
X71048619Y-83907380D01*
X71143857Y-83907380D01*
X71286714Y-83955000D01*
X71334333Y-84002619D01*
X71905761Y-84335952D02*
X71810523Y-84288333D01*
X71762904Y-84240714D01*
X71715285Y-84145476D01*
X71715285Y-84097857D01*
X71762904Y-84002619D01*
X71810523Y-83955000D01*
X71905761Y-83907380D01*
X72096238Y-83907380D01*
X72191476Y-83955000D01*
X72239095Y-84002619D01*
X72286714Y-84097857D01*
X72286714Y-84145476D01*
X72239095Y-84240714D01*
X72191476Y-84288333D01*
X72096238Y-84335952D01*
X71905761Y-84335952D01*
X71810523Y-84383571D01*
X71762904Y-84431190D01*
X71715285Y-84526428D01*
X71715285Y-84716904D01*
X71762904Y-84812142D01*
X71810523Y-84859761D01*
X71905761Y-84907380D01*
X72096238Y-84907380D01*
X72191476Y-84859761D01*
X72239095Y-84812142D01*
X72286714Y-84716904D01*
X72286714Y-84526428D01*
X72239095Y-84431190D01*
X72191476Y-84383571D01*
X72096238Y-84335952D01*
G04 #@! TO.C,C9*
X63333333Y-130913142D02*
X63285714Y-130960761D01*
X63142857Y-131008380D01*
X63047619Y-131008380D01*
X62904761Y-130960761D01*
X62809523Y-130865523D01*
X62761904Y-130770285D01*
X62714285Y-130579809D01*
X62714285Y-130436952D01*
X62761904Y-130246476D01*
X62809523Y-130151238D01*
X62904761Y-130056000D01*
X63047619Y-130008380D01*
X63142857Y-130008380D01*
X63285714Y-130056000D01*
X63333333Y-130103619D01*
X63809523Y-131008380D02*
X64000000Y-131008380D01*
X64095238Y-130960761D01*
X64142857Y-130913142D01*
X64238095Y-130770285D01*
X64285714Y-130579809D01*
X64285714Y-130198857D01*
X64238095Y-130103619D01*
X64190476Y-130056000D01*
X64095238Y-130008380D01*
X63904761Y-130008380D01*
X63809523Y-130056000D01*
X63761904Y-130103619D01*
X63714285Y-130198857D01*
X63714285Y-130436952D01*
X63761904Y-130532190D01*
X63809523Y-130579809D01*
X63904761Y-130627428D01*
X64095238Y-130627428D01*
X64190476Y-130579809D01*
X64238095Y-130532190D01*
X64285714Y-130436952D01*
G04 #@! TO.C,C10*
X71239142Y-130913142D02*
X71191523Y-130960761D01*
X71048666Y-131008380D01*
X70953428Y-131008380D01*
X70810571Y-130960761D01*
X70715333Y-130865523D01*
X70667714Y-130770285D01*
X70620095Y-130579809D01*
X70620095Y-130436952D01*
X70667714Y-130246476D01*
X70715333Y-130151238D01*
X70810571Y-130056000D01*
X70953428Y-130008380D01*
X71048666Y-130008380D01*
X71191523Y-130056000D01*
X71239142Y-130103619D01*
X72191523Y-131008380D02*
X71620095Y-131008380D01*
X71905809Y-131008380D02*
X71905809Y-130008380D01*
X71810571Y-130151238D01*
X71715333Y-130246476D01*
X71620095Y-130294095D01*
X72810571Y-130008380D02*
X72905809Y-130008380D01*
X73001047Y-130056000D01*
X73048666Y-130103619D01*
X73096285Y-130198857D01*
X73143904Y-130389333D01*
X73143904Y-130627428D01*
X73096285Y-130817904D01*
X73048666Y-130913142D01*
X73001047Y-130960761D01*
X72905809Y-131008380D01*
X72810571Y-131008380D01*
X72715333Y-130960761D01*
X72667714Y-130913142D01*
X72620095Y-130817904D01*
X72572476Y-130627428D01*
X72572476Y-130389333D01*
X72620095Y-130198857D01*
X72667714Y-130103619D01*
X72715333Y-130056000D01*
X72810571Y-130008380D01*
G04 #@! TO.C,C12*
X87749142Y-130913142D02*
X87701523Y-130960761D01*
X87558666Y-131008380D01*
X87463428Y-131008380D01*
X87320571Y-130960761D01*
X87225333Y-130865523D01*
X87177714Y-130770285D01*
X87130095Y-130579809D01*
X87130095Y-130436952D01*
X87177714Y-130246476D01*
X87225333Y-130151238D01*
X87320571Y-130056000D01*
X87463428Y-130008380D01*
X87558666Y-130008380D01*
X87701523Y-130056000D01*
X87749142Y-130103619D01*
X88701523Y-131008380D02*
X88130095Y-131008380D01*
X88415809Y-131008380D02*
X88415809Y-130008380D01*
X88320571Y-130151238D01*
X88225333Y-130246476D01*
X88130095Y-130294095D01*
X89082476Y-130103619D02*
X89130095Y-130056000D01*
X89225333Y-130008380D01*
X89463428Y-130008380D01*
X89558666Y-130056000D01*
X89606285Y-130103619D01*
X89653904Y-130198857D01*
X89653904Y-130294095D01*
X89606285Y-130436952D01*
X89034857Y-131008380D01*
X89653904Y-131008380D01*
G04 #@! TO.C,C13*
X96131142Y-130913142D02*
X96083523Y-130960761D01*
X95940666Y-131008380D01*
X95845428Y-131008380D01*
X95702571Y-130960761D01*
X95607333Y-130865523D01*
X95559714Y-130770285D01*
X95512095Y-130579809D01*
X95512095Y-130436952D01*
X95559714Y-130246476D01*
X95607333Y-130151238D01*
X95702571Y-130056000D01*
X95845428Y-130008380D01*
X95940666Y-130008380D01*
X96083523Y-130056000D01*
X96131142Y-130103619D01*
X97083523Y-131008380D02*
X96512095Y-131008380D01*
X96797809Y-131008380D02*
X96797809Y-130008380D01*
X96702571Y-130151238D01*
X96607333Y-130246476D01*
X96512095Y-130294095D01*
X97416857Y-130008380D02*
X98035904Y-130008380D01*
X97702571Y-130389333D01*
X97845428Y-130389333D01*
X97940666Y-130436952D01*
X97988285Y-130484571D01*
X98035904Y-130579809D01*
X98035904Y-130817904D01*
X97988285Y-130913142D01*
X97940666Y-130960761D01*
X97845428Y-131008380D01*
X97559714Y-131008380D01*
X97464476Y-130960761D01*
X97416857Y-130913142D01*
G04 #@! TO.C,C14*
X104513142Y-130913142D02*
X104465523Y-130960761D01*
X104322666Y-131008380D01*
X104227428Y-131008380D01*
X104084571Y-130960761D01*
X103989333Y-130865523D01*
X103941714Y-130770285D01*
X103894095Y-130579809D01*
X103894095Y-130436952D01*
X103941714Y-130246476D01*
X103989333Y-130151238D01*
X104084571Y-130056000D01*
X104227428Y-130008380D01*
X104322666Y-130008380D01*
X104465523Y-130056000D01*
X104513142Y-130103619D01*
X105465523Y-131008380D02*
X104894095Y-131008380D01*
X105179809Y-131008380D02*
X105179809Y-130008380D01*
X105084571Y-130151238D01*
X104989333Y-130246476D01*
X104894095Y-130294095D01*
X106322666Y-130341714D02*
X106322666Y-131008380D01*
X106084571Y-129960761D02*
X105846476Y-130675047D01*
X106465523Y-130675047D01*
G04 #@! TO.C,C15*
X112387142Y-130913142D02*
X112339523Y-130960761D01*
X112196666Y-131008380D01*
X112101428Y-131008380D01*
X111958571Y-130960761D01*
X111863333Y-130865523D01*
X111815714Y-130770285D01*
X111768095Y-130579809D01*
X111768095Y-130436952D01*
X111815714Y-130246476D01*
X111863333Y-130151238D01*
X111958571Y-130056000D01*
X112101428Y-130008380D01*
X112196666Y-130008380D01*
X112339523Y-130056000D01*
X112387142Y-130103619D01*
X113339523Y-131008380D02*
X112768095Y-131008380D01*
X113053809Y-131008380D02*
X113053809Y-130008380D01*
X112958571Y-130151238D01*
X112863333Y-130246476D01*
X112768095Y-130294095D01*
X114244285Y-130008380D02*
X113768095Y-130008380D01*
X113720476Y-130484571D01*
X113768095Y-130436952D01*
X113863333Y-130389333D01*
X114101428Y-130389333D01*
X114196666Y-130436952D01*
X114244285Y-130484571D01*
X114291904Y-130579809D01*
X114291904Y-130817904D01*
X114244285Y-130913142D01*
X114196666Y-130960761D01*
X114101428Y-131008380D01*
X113863333Y-131008380D01*
X113768095Y-130960761D01*
X113720476Y-130913142D01*
G04 #@! TO.C,C16*
X120515142Y-130913142D02*
X120467523Y-130960761D01*
X120324666Y-131008380D01*
X120229428Y-131008380D01*
X120086571Y-130960761D01*
X119991333Y-130865523D01*
X119943714Y-130770285D01*
X119896095Y-130579809D01*
X119896095Y-130436952D01*
X119943714Y-130246476D01*
X119991333Y-130151238D01*
X120086571Y-130056000D01*
X120229428Y-130008380D01*
X120324666Y-130008380D01*
X120467523Y-130056000D01*
X120515142Y-130103619D01*
X121467523Y-131008380D02*
X120896095Y-131008380D01*
X121181809Y-131008380D02*
X121181809Y-130008380D01*
X121086571Y-130151238D01*
X120991333Y-130246476D01*
X120896095Y-130294095D01*
X122324666Y-130008380D02*
X122134190Y-130008380D01*
X122038952Y-130056000D01*
X121991333Y-130103619D01*
X121896095Y-130246476D01*
X121848476Y-130436952D01*
X121848476Y-130817904D01*
X121896095Y-130913142D01*
X121943714Y-130960761D01*
X122038952Y-131008380D01*
X122229428Y-131008380D01*
X122324666Y-130960761D01*
X122372285Y-130913142D01*
X122419904Y-130817904D01*
X122419904Y-130579809D01*
X122372285Y-130484571D01*
X122324666Y-130436952D01*
X122229428Y-130389333D01*
X122038952Y-130389333D01*
X121943714Y-130436952D01*
X121896095Y-130484571D01*
X121848476Y-130579809D01*
G04 #@! TO.C,J1*
X77474380Y-98885333D02*
X78188666Y-98885333D01*
X78331523Y-98932952D01*
X78426761Y-99028190D01*
X78474380Y-99171047D01*
X78474380Y-99266285D01*
X78474380Y-97885333D02*
X78474380Y-98456761D01*
X78474380Y-98171047D02*
X77474380Y-98171047D01*
X77617238Y-98266285D01*
X77712476Y-98361523D01*
X77760095Y-98456761D01*
G04 #@! TO.C,J2*
X109243066Y-149816980D02*
X109243066Y-150531266D01*
X109195447Y-150674123D01*
X109100209Y-150769361D01*
X108957352Y-150816980D01*
X108862114Y-150816980D01*
X109671638Y-149912219D02*
X109719257Y-149864600D01*
X109814495Y-149816980D01*
X110052590Y-149816980D01*
X110147828Y-149864600D01*
X110195447Y-149912219D01*
X110243066Y-150007457D01*
X110243066Y-150102695D01*
X110195447Y-150245552D01*
X109624019Y-150816980D01*
X110243066Y-150816980D01*
G04 #@! TO.C,J3*
X101592266Y-73999580D02*
X101592266Y-74713866D01*
X101544647Y-74856723D01*
X101449409Y-74951961D01*
X101306552Y-74999580D01*
X101211314Y-74999580D01*
X101973219Y-73999580D02*
X102592266Y-73999580D01*
X102258933Y-74380533D01*
X102401790Y-74380533D01*
X102497028Y-74428152D01*
X102544647Y-74475771D01*
X102592266Y-74571009D01*
X102592266Y-74809104D01*
X102544647Y-74904342D01*
X102497028Y-74951961D01*
X102401790Y-74999580D01*
X102116076Y-74999580D01*
X102020838Y-74951961D01*
X101973219Y-74904342D01*
G04 #@! TO.C,J5*
X78788466Y-149842380D02*
X78788466Y-150556666D01*
X78740847Y-150699523D01*
X78645609Y-150794761D01*
X78502752Y-150842380D01*
X78407514Y-150842380D01*
X79740847Y-149842380D02*
X79264657Y-149842380D01*
X79217038Y-150318571D01*
X79264657Y-150270952D01*
X79359895Y-150223333D01*
X79597990Y-150223333D01*
X79693228Y-150270952D01*
X79740847Y-150318571D01*
X79788466Y-150413809D01*
X79788466Y-150651904D01*
X79740847Y-150747142D01*
X79693228Y-150794761D01*
X79597990Y-150842380D01*
X79359895Y-150842380D01*
X79264657Y-150794761D01*
X79217038Y-150747142D01*
G04 #@! TO.C,P1*
X119022904Y-84754980D02*
X119022904Y-83754980D01*
X119403857Y-83754980D01*
X119499095Y-83802600D01*
X119546714Y-83850219D01*
X119594333Y-83945457D01*
X119594333Y-84088314D01*
X119546714Y-84183552D01*
X119499095Y-84231171D01*
X119403857Y-84278790D01*
X119022904Y-84278790D01*
X120546714Y-84754980D02*
X119975285Y-84754980D01*
X120261000Y-84754980D02*
X120261000Y-83754980D01*
X120165761Y-83897838D01*
X120070523Y-83993076D01*
X119975285Y-84040695D01*
G04 #@! TO.C,R1*
X108145333Y-95580380D02*
X107812000Y-95104190D01*
X107573904Y-95580380D02*
X107573904Y-94580380D01*
X107954857Y-94580380D01*
X108050095Y-94628000D01*
X108097714Y-94675619D01*
X108145333Y-94770857D01*
X108145333Y-94913714D01*
X108097714Y-95008952D01*
X108050095Y-95056571D01*
X107954857Y-95104190D01*
X107573904Y-95104190D01*
X109097714Y-95580380D02*
X108526285Y-95580380D01*
X108812000Y-95580380D02*
X108812000Y-94580380D01*
X108716761Y-94723238D01*
X108621523Y-94818476D01*
X108526285Y-94866095D01*
G04 #@! TO.C,R3*
X100055333Y-92776380D02*
X99722000Y-92300190D01*
X99483904Y-92776380D02*
X99483904Y-91776380D01*
X99864857Y-91776380D01*
X99960095Y-91824000D01*
X100007714Y-91871619D01*
X100055333Y-91966857D01*
X100055333Y-92109714D01*
X100007714Y-92204952D01*
X99960095Y-92252571D01*
X99864857Y-92300190D01*
X99483904Y-92300190D01*
X100388666Y-91776380D02*
X101007714Y-91776380D01*
X100674380Y-92157333D01*
X100817238Y-92157333D01*
X100912476Y-92204952D01*
X100960095Y-92252571D01*
X101007714Y-92347809D01*
X101007714Y-92585904D01*
X100960095Y-92681142D01*
X100912476Y-92728761D01*
X100817238Y-92776380D01*
X100531523Y-92776380D01*
X100436285Y-92728761D01*
X100388666Y-92681142D01*
G04 #@! TO.C,R4*
X91635333Y-84658380D02*
X91302000Y-84182190D01*
X91063904Y-84658380D02*
X91063904Y-83658380D01*
X91444857Y-83658380D01*
X91540095Y-83706000D01*
X91587714Y-83753619D01*
X91635333Y-83848857D01*
X91635333Y-83991714D01*
X91587714Y-84086952D01*
X91540095Y-84134571D01*
X91444857Y-84182190D01*
X91063904Y-84182190D01*
X92492476Y-83991714D02*
X92492476Y-84658380D01*
X92254380Y-83610761D02*
X92016285Y-84325047D01*
X92635333Y-84325047D01*
G04 #@! TO.C,R5*
X83799333Y-92776380D02*
X83466000Y-92300190D01*
X83227904Y-92776380D02*
X83227904Y-91776380D01*
X83608857Y-91776380D01*
X83704095Y-91824000D01*
X83751714Y-91871619D01*
X83799333Y-91966857D01*
X83799333Y-92109714D01*
X83751714Y-92204952D01*
X83704095Y-92252571D01*
X83608857Y-92300190D01*
X83227904Y-92300190D01*
X84704095Y-91776380D02*
X84227904Y-91776380D01*
X84180285Y-92252571D01*
X84227904Y-92204952D01*
X84323142Y-92157333D01*
X84561238Y-92157333D01*
X84656476Y-92204952D01*
X84704095Y-92252571D01*
X84751714Y-92347809D01*
X84751714Y-92585904D01*
X84704095Y-92681142D01*
X84656476Y-92728761D01*
X84561238Y-92776380D01*
X84323142Y-92776380D01*
X84227904Y-92728761D01*
X84180285Y-92681142D01*
G04 #@! TO.C,R6*
X75379333Y-84658380D02*
X75046000Y-84182190D01*
X74807904Y-84658380D02*
X74807904Y-83658380D01*
X75188857Y-83658380D01*
X75284095Y-83706000D01*
X75331714Y-83753619D01*
X75379333Y-83848857D01*
X75379333Y-83991714D01*
X75331714Y-84086952D01*
X75284095Y-84134571D01*
X75188857Y-84182190D01*
X74807904Y-84182190D01*
X76236476Y-83658380D02*
X76046000Y-83658380D01*
X75950761Y-83706000D01*
X75903142Y-83753619D01*
X75807904Y-83896476D01*
X75760285Y-84086952D01*
X75760285Y-84467904D01*
X75807904Y-84563142D01*
X75855523Y-84610761D01*
X75950761Y-84658380D01*
X76141238Y-84658380D01*
X76236476Y-84610761D01*
X76284095Y-84563142D01*
X76331714Y-84467904D01*
X76331714Y-84229809D01*
X76284095Y-84134571D01*
X76236476Y-84086952D01*
X76141238Y-84039333D01*
X75950761Y-84039333D01*
X75855523Y-84086952D01*
X75807904Y-84134571D01*
X75760285Y-84229809D01*
G04 #@! TO.C,R7*
X67575333Y-92776380D02*
X67242000Y-92300190D01*
X67003904Y-92776380D02*
X67003904Y-91776380D01*
X67384857Y-91776380D01*
X67480095Y-91824000D01*
X67527714Y-91871619D01*
X67575333Y-91966857D01*
X67575333Y-92109714D01*
X67527714Y-92204952D01*
X67480095Y-92252571D01*
X67384857Y-92300190D01*
X67003904Y-92300190D01*
X67908666Y-91776380D02*
X68575333Y-91776380D01*
X68146761Y-92776380D01*
G04 #@! TO.C,R8*
X73726380Y-143530666D02*
X73250190Y-143864000D01*
X73726380Y-144102095D02*
X72726380Y-144102095D01*
X72726380Y-143721142D01*
X72774000Y-143625904D01*
X72821619Y-143578285D01*
X72916857Y-143530666D01*
X73059714Y-143530666D01*
X73154952Y-143578285D01*
X73202571Y-143625904D01*
X73250190Y-143721142D01*
X73250190Y-144102095D01*
X73154952Y-142959238D02*
X73107333Y-143054476D01*
X73059714Y-143102095D01*
X72964476Y-143149714D01*
X72916857Y-143149714D01*
X72821619Y-143102095D01*
X72774000Y-143054476D01*
X72726380Y-142959238D01*
X72726380Y-142768761D01*
X72774000Y-142673523D01*
X72821619Y-142625904D01*
X72916857Y-142578285D01*
X72964476Y-142578285D01*
X73059714Y-142625904D01*
X73107333Y-142673523D01*
X73154952Y-142768761D01*
X73154952Y-142959238D01*
X73202571Y-143054476D01*
X73250190Y-143102095D01*
X73345428Y-143149714D01*
X73535904Y-143149714D01*
X73631142Y-143102095D01*
X73678761Y-143054476D01*
X73726380Y-142959238D01*
X73726380Y-142768761D01*
X73678761Y-142673523D01*
X73631142Y-142625904D01*
X73535904Y-142578285D01*
X73345428Y-142578285D01*
X73250190Y-142625904D01*
X73202571Y-142673523D01*
X73154952Y-142768761D01*
G04 #@! TO.C,R9*
X79060380Y-143530666D02*
X78584190Y-143864000D01*
X79060380Y-144102095D02*
X78060380Y-144102095D01*
X78060380Y-143721142D01*
X78108000Y-143625904D01*
X78155619Y-143578285D01*
X78250857Y-143530666D01*
X78393714Y-143530666D01*
X78488952Y-143578285D01*
X78536571Y-143625904D01*
X78584190Y-143721142D01*
X78584190Y-144102095D01*
X79060380Y-143054476D02*
X79060380Y-142864000D01*
X79012761Y-142768761D01*
X78965142Y-142721142D01*
X78822285Y-142625904D01*
X78631809Y-142578285D01*
X78250857Y-142578285D01*
X78155619Y-142625904D01*
X78108000Y-142673523D01*
X78060380Y-142768761D01*
X78060380Y-142959238D01*
X78108000Y-143054476D01*
X78155619Y-143102095D01*
X78250857Y-143149714D01*
X78488952Y-143149714D01*
X78584190Y-143102095D01*
X78631809Y-143054476D01*
X78679428Y-142959238D01*
X78679428Y-142768761D01*
X78631809Y-142673523D01*
X78584190Y-142625904D01*
X78488952Y-142578285D01*
G04 #@! TO.C,R10*
X84140380Y-144006857D02*
X83664190Y-144340190D01*
X84140380Y-144578285D02*
X83140380Y-144578285D01*
X83140380Y-144197333D01*
X83188000Y-144102095D01*
X83235619Y-144054476D01*
X83330857Y-144006857D01*
X83473714Y-144006857D01*
X83568952Y-144054476D01*
X83616571Y-144102095D01*
X83664190Y-144197333D01*
X83664190Y-144578285D01*
X84140380Y-143054476D02*
X84140380Y-143625904D01*
X84140380Y-143340190D02*
X83140380Y-143340190D01*
X83283238Y-143435428D01*
X83378476Y-143530666D01*
X83426095Y-143625904D01*
X83140380Y-142435428D02*
X83140380Y-142340190D01*
X83188000Y-142244952D01*
X83235619Y-142197333D01*
X83330857Y-142149714D01*
X83521333Y-142102095D01*
X83759428Y-142102095D01*
X83949904Y-142149714D01*
X84045142Y-142197333D01*
X84092761Y-142244952D01*
X84140380Y-142340190D01*
X84140380Y-142435428D01*
X84092761Y-142530666D01*
X84045142Y-142578285D01*
X83949904Y-142625904D01*
X83759428Y-142673523D01*
X83521333Y-142673523D01*
X83330857Y-142625904D01*
X83235619Y-142578285D01*
X83188000Y-142530666D01*
X83140380Y-142435428D01*
G04 #@! TO.C,R11*
X89220380Y-144006857D02*
X88744190Y-144340190D01*
X89220380Y-144578285D02*
X88220380Y-144578285D01*
X88220380Y-144197333D01*
X88268000Y-144102095D01*
X88315619Y-144054476D01*
X88410857Y-144006857D01*
X88553714Y-144006857D01*
X88648952Y-144054476D01*
X88696571Y-144102095D01*
X88744190Y-144197333D01*
X88744190Y-144578285D01*
X89220380Y-143054476D02*
X89220380Y-143625904D01*
X89220380Y-143340190D02*
X88220380Y-143340190D01*
X88363238Y-143435428D01*
X88458476Y-143530666D01*
X88506095Y-143625904D01*
X89220380Y-142102095D02*
X89220380Y-142673523D01*
X89220380Y-142387809D02*
X88220380Y-142387809D01*
X88363238Y-142483047D01*
X88458476Y-142578285D01*
X88506095Y-142673523D01*
G04 #@! TO.C,R12*
X104206380Y-144006857D02*
X103730190Y-144340190D01*
X104206380Y-144578285D02*
X103206380Y-144578285D01*
X103206380Y-144197333D01*
X103254000Y-144102095D01*
X103301619Y-144054476D01*
X103396857Y-144006857D01*
X103539714Y-144006857D01*
X103634952Y-144054476D01*
X103682571Y-144102095D01*
X103730190Y-144197333D01*
X103730190Y-144578285D01*
X104206380Y-143054476D02*
X104206380Y-143625904D01*
X104206380Y-143340190D02*
X103206380Y-143340190D01*
X103349238Y-143435428D01*
X103444476Y-143530666D01*
X103492095Y-143625904D01*
X103301619Y-142673523D02*
X103254000Y-142625904D01*
X103206380Y-142530666D01*
X103206380Y-142292571D01*
X103254000Y-142197333D01*
X103301619Y-142149714D01*
X103396857Y-142102095D01*
X103492095Y-142102095D01*
X103634952Y-142149714D01*
X104206380Y-142721142D01*
X104206380Y-142102095D01*
G04 #@! TO.C,R13*
X109540380Y-144006857D02*
X109064190Y-144340190D01*
X109540380Y-144578285D02*
X108540380Y-144578285D01*
X108540380Y-144197333D01*
X108588000Y-144102095D01*
X108635619Y-144054476D01*
X108730857Y-144006857D01*
X108873714Y-144006857D01*
X108968952Y-144054476D01*
X109016571Y-144102095D01*
X109064190Y-144197333D01*
X109064190Y-144578285D01*
X109540380Y-143054476D02*
X109540380Y-143625904D01*
X109540380Y-143340190D02*
X108540380Y-143340190D01*
X108683238Y-143435428D01*
X108778476Y-143530666D01*
X108826095Y-143625904D01*
X108540380Y-142721142D02*
X108540380Y-142102095D01*
X108921333Y-142435428D01*
X108921333Y-142292571D01*
X108968952Y-142197333D01*
X109016571Y-142149714D01*
X109111809Y-142102095D01*
X109349904Y-142102095D01*
X109445142Y-142149714D01*
X109492761Y-142197333D01*
X109540380Y-142292571D01*
X109540380Y-142578285D01*
X109492761Y-142673523D01*
X109445142Y-142721142D01*
G04 #@! TO.C,R14*
X63365142Y-141168380D02*
X63031809Y-140692190D01*
X62793714Y-141168380D02*
X62793714Y-140168380D01*
X63174666Y-140168380D01*
X63269904Y-140216000D01*
X63317523Y-140263619D01*
X63365142Y-140358857D01*
X63365142Y-140501714D01*
X63317523Y-140596952D01*
X63269904Y-140644571D01*
X63174666Y-140692190D01*
X62793714Y-140692190D01*
X64317523Y-141168380D02*
X63746095Y-141168380D01*
X64031809Y-141168380D02*
X64031809Y-140168380D01*
X63936571Y-140311238D01*
X63841333Y-140406476D01*
X63746095Y-140454095D01*
X65174666Y-140501714D02*
X65174666Y-141168380D01*
X64936571Y-140120761D02*
X64698476Y-140835047D01*
X65317523Y-140835047D01*
G04 #@! TO.C,R15*
X71239142Y-141168380D02*
X70905809Y-140692190D01*
X70667714Y-141168380D02*
X70667714Y-140168380D01*
X71048666Y-140168380D01*
X71143904Y-140216000D01*
X71191523Y-140263619D01*
X71239142Y-140358857D01*
X71239142Y-140501714D01*
X71191523Y-140596952D01*
X71143904Y-140644571D01*
X71048666Y-140692190D01*
X70667714Y-140692190D01*
X72191523Y-141168380D02*
X71620095Y-141168380D01*
X71905809Y-141168380D02*
X71905809Y-140168380D01*
X71810571Y-140311238D01*
X71715333Y-140406476D01*
X71620095Y-140454095D01*
X73096285Y-140168380D02*
X72620095Y-140168380D01*
X72572476Y-140644571D01*
X72620095Y-140596952D01*
X72715333Y-140549333D01*
X72953428Y-140549333D01*
X73048666Y-140596952D01*
X73096285Y-140644571D01*
X73143904Y-140739809D01*
X73143904Y-140977904D01*
X73096285Y-141073142D01*
X73048666Y-141120761D01*
X72953428Y-141168380D01*
X72715333Y-141168380D01*
X72620095Y-141120761D01*
X72572476Y-141073142D01*
G04 #@! TO.C,R16*
X79367142Y-141168380D02*
X79033809Y-140692190D01*
X78795714Y-141168380D02*
X78795714Y-140168380D01*
X79176666Y-140168380D01*
X79271904Y-140216000D01*
X79319523Y-140263619D01*
X79367142Y-140358857D01*
X79367142Y-140501714D01*
X79319523Y-140596952D01*
X79271904Y-140644571D01*
X79176666Y-140692190D01*
X78795714Y-140692190D01*
X80319523Y-141168380D02*
X79748095Y-141168380D01*
X80033809Y-141168380D02*
X80033809Y-140168380D01*
X79938571Y-140311238D01*
X79843333Y-140406476D01*
X79748095Y-140454095D01*
X81176666Y-140168380D02*
X80986190Y-140168380D01*
X80890952Y-140216000D01*
X80843333Y-140263619D01*
X80748095Y-140406476D01*
X80700476Y-140596952D01*
X80700476Y-140977904D01*
X80748095Y-141073142D01*
X80795714Y-141120761D01*
X80890952Y-141168380D01*
X81081428Y-141168380D01*
X81176666Y-141120761D01*
X81224285Y-141073142D01*
X81271904Y-140977904D01*
X81271904Y-140739809D01*
X81224285Y-140644571D01*
X81176666Y-140596952D01*
X81081428Y-140549333D01*
X80890952Y-140549333D01*
X80795714Y-140596952D01*
X80748095Y-140644571D01*
X80700476Y-140739809D01*
G04 #@! TO.C,R17*
X87749142Y-141168380D02*
X87415809Y-140692190D01*
X87177714Y-141168380D02*
X87177714Y-140168380D01*
X87558666Y-140168380D01*
X87653904Y-140216000D01*
X87701523Y-140263619D01*
X87749142Y-140358857D01*
X87749142Y-140501714D01*
X87701523Y-140596952D01*
X87653904Y-140644571D01*
X87558666Y-140692190D01*
X87177714Y-140692190D01*
X88701523Y-141168380D02*
X88130095Y-141168380D01*
X88415809Y-141168380D02*
X88415809Y-140168380D01*
X88320571Y-140311238D01*
X88225333Y-140406476D01*
X88130095Y-140454095D01*
X89034857Y-140168380D02*
X89701523Y-140168380D01*
X89272952Y-141168380D01*
G04 #@! TO.C,R18*
X96131142Y-141168380D02*
X95797809Y-140692190D01*
X95559714Y-141168380D02*
X95559714Y-140168380D01*
X95940666Y-140168380D01*
X96035904Y-140216000D01*
X96083523Y-140263619D01*
X96131142Y-140358857D01*
X96131142Y-140501714D01*
X96083523Y-140596952D01*
X96035904Y-140644571D01*
X95940666Y-140692190D01*
X95559714Y-140692190D01*
X97083523Y-141168380D02*
X96512095Y-141168380D01*
X96797809Y-141168380D02*
X96797809Y-140168380D01*
X96702571Y-140311238D01*
X96607333Y-140406476D01*
X96512095Y-140454095D01*
X97654952Y-140596952D02*
X97559714Y-140549333D01*
X97512095Y-140501714D01*
X97464476Y-140406476D01*
X97464476Y-140358857D01*
X97512095Y-140263619D01*
X97559714Y-140216000D01*
X97654952Y-140168380D01*
X97845428Y-140168380D01*
X97940666Y-140216000D01*
X97988285Y-140263619D01*
X98035904Y-140358857D01*
X98035904Y-140406476D01*
X97988285Y-140501714D01*
X97940666Y-140549333D01*
X97845428Y-140596952D01*
X97654952Y-140596952D01*
X97559714Y-140644571D01*
X97512095Y-140692190D01*
X97464476Y-140787428D01*
X97464476Y-140977904D01*
X97512095Y-141073142D01*
X97559714Y-141120761D01*
X97654952Y-141168380D01*
X97845428Y-141168380D01*
X97940666Y-141120761D01*
X97988285Y-141073142D01*
X98035904Y-140977904D01*
X98035904Y-140787428D01*
X97988285Y-140692190D01*
X97940666Y-140644571D01*
X97845428Y-140596952D01*
G04 #@! TO.C,R19*
X104259142Y-141168380D02*
X103925809Y-140692190D01*
X103687714Y-141168380D02*
X103687714Y-140168380D01*
X104068666Y-140168380D01*
X104163904Y-140216000D01*
X104211523Y-140263619D01*
X104259142Y-140358857D01*
X104259142Y-140501714D01*
X104211523Y-140596952D01*
X104163904Y-140644571D01*
X104068666Y-140692190D01*
X103687714Y-140692190D01*
X105211523Y-141168380D02*
X104640095Y-141168380D01*
X104925809Y-141168380D02*
X104925809Y-140168380D01*
X104830571Y-140311238D01*
X104735333Y-140406476D01*
X104640095Y-140454095D01*
X105687714Y-141168380D02*
X105878190Y-141168380D01*
X105973428Y-141120761D01*
X106021047Y-141073142D01*
X106116285Y-140930285D01*
X106163904Y-140739809D01*
X106163904Y-140358857D01*
X106116285Y-140263619D01*
X106068666Y-140216000D01*
X105973428Y-140168380D01*
X105782952Y-140168380D01*
X105687714Y-140216000D01*
X105640095Y-140263619D01*
X105592476Y-140358857D01*
X105592476Y-140596952D01*
X105640095Y-140692190D01*
X105687714Y-140739809D01*
X105782952Y-140787428D01*
X105973428Y-140787428D01*
X106068666Y-140739809D01*
X106116285Y-140692190D01*
X106163904Y-140596952D01*
G04 #@! TO.C,R20*
X114620380Y-144006857D02*
X114144190Y-144340190D01*
X114620380Y-144578285D02*
X113620380Y-144578285D01*
X113620380Y-144197333D01*
X113668000Y-144102095D01*
X113715619Y-144054476D01*
X113810857Y-144006857D01*
X113953714Y-144006857D01*
X114048952Y-144054476D01*
X114096571Y-144102095D01*
X114144190Y-144197333D01*
X114144190Y-144578285D01*
X113715619Y-143625904D02*
X113668000Y-143578285D01*
X113620380Y-143483047D01*
X113620380Y-143244952D01*
X113668000Y-143149714D01*
X113715619Y-143102095D01*
X113810857Y-143054476D01*
X113906095Y-143054476D01*
X114048952Y-143102095D01*
X114620380Y-143673523D01*
X114620380Y-143054476D01*
X113620380Y-142435428D02*
X113620380Y-142340190D01*
X113668000Y-142244952D01*
X113715619Y-142197333D01*
X113810857Y-142149714D01*
X114001333Y-142102095D01*
X114239428Y-142102095D01*
X114429904Y-142149714D01*
X114525142Y-142197333D01*
X114572761Y-142244952D01*
X114620380Y-142340190D01*
X114620380Y-142435428D01*
X114572761Y-142530666D01*
X114525142Y-142578285D01*
X114429904Y-142625904D01*
X114239428Y-142673523D01*
X114001333Y-142673523D01*
X113810857Y-142625904D01*
X113715619Y-142578285D01*
X113668000Y-142530666D01*
X113620380Y-142435428D01*
G04 #@! TO.C,R21*
X119700380Y-144006857D02*
X119224190Y-144340190D01*
X119700380Y-144578285D02*
X118700380Y-144578285D01*
X118700380Y-144197333D01*
X118748000Y-144102095D01*
X118795619Y-144054476D01*
X118890857Y-144006857D01*
X119033714Y-144006857D01*
X119128952Y-144054476D01*
X119176571Y-144102095D01*
X119224190Y-144197333D01*
X119224190Y-144578285D01*
X118795619Y-143625904D02*
X118748000Y-143578285D01*
X118700380Y-143483047D01*
X118700380Y-143244952D01*
X118748000Y-143149714D01*
X118795619Y-143102095D01*
X118890857Y-143054476D01*
X118986095Y-143054476D01*
X119128952Y-143102095D01*
X119700380Y-143673523D01*
X119700380Y-143054476D01*
X119700380Y-142102095D02*
X119700380Y-142673523D01*
X119700380Y-142387809D02*
X118700380Y-142387809D01*
X118843238Y-142483047D01*
X118938476Y-142578285D01*
X118986095Y-142673523D01*
G04 #@! TO.C,R22*
X112641142Y-141422380D02*
X112307809Y-140946190D01*
X112069714Y-141422380D02*
X112069714Y-140422380D01*
X112450666Y-140422380D01*
X112545904Y-140470000D01*
X112593523Y-140517619D01*
X112641142Y-140612857D01*
X112641142Y-140755714D01*
X112593523Y-140850952D01*
X112545904Y-140898571D01*
X112450666Y-140946190D01*
X112069714Y-140946190D01*
X113022095Y-140517619D02*
X113069714Y-140470000D01*
X113164952Y-140422380D01*
X113403047Y-140422380D01*
X113498285Y-140470000D01*
X113545904Y-140517619D01*
X113593523Y-140612857D01*
X113593523Y-140708095D01*
X113545904Y-140850952D01*
X112974476Y-141422380D01*
X113593523Y-141422380D01*
X113974476Y-140517619D02*
X114022095Y-140470000D01*
X114117333Y-140422380D01*
X114355428Y-140422380D01*
X114450666Y-140470000D01*
X114498285Y-140517619D01*
X114545904Y-140612857D01*
X114545904Y-140708095D01*
X114498285Y-140850952D01*
X113926857Y-141422380D01*
X114545904Y-141422380D01*
G04 #@! TO.C,R23*
X120515142Y-141168380D02*
X120181809Y-140692190D01*
X119943714Y-141168380D02*
X119943714Y-140168380D01*
X120324666Y-140168380D01*
X120419904Y-140216000D01*
X120467523Y-140263619D01*
X120515142Y-140358857D01*
X120515142Y-140501714D01*
X120467523Y-140596952D01*
X120419904Y-140644571D01*
X120324666Y-140692190D01*
X119943714Y-140692190D01*
X120896095Y-140263619D02*
X120943714Y-140216000D01*
X121038952Y-140168380D01*
X121277047Y-140168380D01*
X121372285Y-140216000D01*
X121419904Y-140263619D01*
X121467523Y-140358857D01*
X121467523Y-140454095D01*
X121419904Y-140596952D01*
X120848476Y-141168380D01*
X121467523Y-141168380D01*
X121800857Y-140168380D02*
X122419904Y-140168380D01*
X122086571Y-140549333D01*
X122229428Y-140549333D01*
X122324666Y-140596952D01*
X122372285Y-140644571D01*
X122419904Y-140739809D01*
X122419904Y-140977904D01*
X122372285Y-141073142D01*
X122324666Y-141120761D01*
X122229428Y-141168380D01*
X121943714Y-141168380D01*
X121848476Y-141120761D01*
X121800857Y-141073142D01*
G04 #@! TO.C,W1*
X122011238Y-100064380D02*
X122249333Y-101064380D01*
X122439809Y-100350095D01*
X122630285Y-101064380D01*
X122868380Y-100064380D01*
X123773142Y-101064380D02*
X123201714Y-101064380D01*
X123487428Y-101064380D02*
X123487428Y-100064380D01*
X123392190Y-100207238D01*
X123296952Y-100302476D01*
X123201714Y-100350095D01*
G04 #@! TO.C,C3*
X104100333Y-92432142D02*
X104052714Y-92479761D01*
X103909857Y-92527380D01*
X103814619Y-92527380D01*
X103671761Y-92479761D01*
X103576523Y-92384523D01*
X103528904Y-92289285D01*
X103481285Y-92098809D01*
X103481285Y-91955952D01*
X103528904Y-91765476D01*
X103576523Y-91670238D01*
X103671761Y-91575000D01*
X103814619Y-91527380D01*
X103909857Y-91527380D01*
X104052714Y-91575000D01*
X104100333Y-91622619D01*
X104433666Y-91527380D02*
X105052714Y-91527380D01*
X104719380Y-91908333D01*
X104862238Y-91908333D01*
X104957476Y-91955952D01*
X105005095Y-92003571D01*
X105052714Y-92098809D01*
X105052714Y-92336904D01*
X105005095Y-92432142D01*
X104957476Y-92479761D01*
X104862238Y-92527380D01*
X104576523Y-92527380D01*
X104481285Y-92479761D01*
X104433666Y-92432142D01*
G04 #@! TO.C,C4*
X103846333Y-84812142D02*
X103798714Y-84859761D01*
X103655857Y-84907380D01*
X103560619Y-84907380D01*
X103417761Y-84859761D01*
X103322523Y-84764523D01*
X103274904Y-84669285D01*
X103227285Y-84478809D01*
X103227285Y-84335952D01*
X103274904Y-84145476D01*
X103322523Y-84050238D01*
X103417761Y-83955000D01*
X103560619Y-83907380D01*
X103655857Y-83907380D01*
X103798714Y-83955000D01*
X103846333Y-84002619D01*
X104703476Y-84240714D02*
X104703476Y-84907380D01*
X104465380Y-83859761D02*
X104227285Y-84574047D01*
X104846333Y-84574047D01*
G04 #@! TO.C,D1*
X117990880Y-98718595D02*
X116990880Y-98718595D01*
X116990880Y-98480500D01*
X117038500Y-98337642D01*
X117133738Y-98242404D01*
X117228976Y-98194785D01*
X117419452Y-98147166D01*
X117562309Y-98147166D01*
X117752785Y-98194785D01*
X117848023Y-98242404D01*
X117943261Y-98337642D01*
X117990880Y-98480500D01*
X117990880Y-98718595D01*
X117990880Y-97194785D02*
X117990880Y-97766214D01*
X117990880Y-97480500D02*
X116990880Y-97480500D01*
X117133738Y-97575738D01*
X117228976Y-97670976D01*
X117276595Y-97766214D01*
G04 #@! TO.C,R2*
X107891333Y-84658380D02*
X107558000Y-84182190D01*
X107319904Y-84658380D02*
X107319904Y-83658380D01*
X107700857Y-83658380D01*
X107796095Y-83706000D01*
X107843714Y-83753619D01*
X107891333Y-83848857D01*
X107891333Y-83991714D01*
X107843714Y-84086952D01*
X107796095Y-84134571D01*
X107700857Y-84182190D01*
X107319904Y-84182190D01*
X108272285Y-83753619D02*
X108319904Y-83706000D01*
X108415142Y-83658380D01*
X108653238Y-83658380D01*
X108748476Y-83706000D01*
X108796095Y-83753619D01*
X108843714Y-83848857D01*
X108843714Y-83944095D01*
X108796095Y-84086952D01*
X108224666Y-84658380D01*
X108843714Y-84658380D01*
G04 #@! TO.C,U1*
X79703142Y-114024571D02*
X79703142Y-115238857D01*
X79774571Y-115381714D01*
X79846000Y-115453142D01*
X79988857Y-115524571D01*
X80274571Y-115524571D01*
X80417428Y-115453142D01*
X80488857Y-115381714D01*
X80560285Y-115238857D01*
X80560285Y-114024571D01*
X82060285Y-115524571D02*
X81203142Y-115524571D01*
X81631714Y-115524571D02*
X81631714Y-114024571D01*
X81488857Y-114238857D01*
X81346000Y-114381714D01*
X81203142Y-114453142D01*
X71853142Y-115524571D02*
X71853142Y-114024571D01*
X72710285Y-115524571D01*
X72710285Y-114024571D01*
X73353142Y-115096000D02*
X74067428Y-115096000D01*
X73210285Y-115524571D02*
X73710285Y-114024571D01*
X74210285Y-115524571D01*
X74710285Y-115524571D02*
X74710285Y-114024571D01*
X75567428Y-115524571D01*
X75567428Y-114024571D01*
X76567428Y-114024571D02*
X76853142Y-114024571D01*
X76996000Y-114096000D01*
X77138857Y-114238857D01*
X77210285Y-114524571D01*
X77210285Y-115024571D01*
X77138857Y-115310285D01*
X76996000Y-115453142D01*
X76853142Y-115524571D01*
X76567428Y-115524571D01*
X76424571Y-115453142D01*
X76281714Y-115310285D01*
X76210285Y-115024571D01*
X76210285Y-114524571D01*
X76281714Y-114238857D01*
X76424571Y-114096000D01*
X76567428Y-114024571D01*
G04 #@! TD*
M02*
