M48
;DRILL file {KiCad 5.0.2+dfsg1-1} date vie 22 ene 2021 14:03:11 CET
;FORMAT={-:-/ absolute / inch / decimal}
FMAT,2
INCH,TZ
T1C0.0157
T2C0.0315
T3C0.0354
T4C0.0394
T5C0.0598
%
G90
G05
T1
X2.614Y-3.2253
X3.14Y-3.28
X3.7787Y-3.47
X4.45Y-3.57
X4.45Y-3.7
T2
X4.84Y-4.04
T3
X2.6Y-4.22
X2.6Y-4.82
X2.7Y-4.22
X2.7Y-4.82
X2.8Y-4.22
X2.8Y-4.82
X2.9Y-4.22
X2.9Y-4.82
X3.Y-4.22
X3.Y-4.82
X3.1Y-4.22
X3.1Y-4.82
X3.2Y-4.22
X3.2Y-4.82
X3.3Y-4.22
X3.3Y-4.82
X3.4Y-4.22
X3.4Y-4.82
X3.5Y-4.22
X3.5Y-4.82
X3.6Y-4.22
X3.6Y-4.82
X3.7Y-4.22
X3.7Y-4.82
X3.8Y-4.22
X3.8Y-4.82
X3.9Y-4.22
X3.9Y-4.82
X4.Y-4.22
X4.Y-4.82
T4
X2.58Y-3.83
X2.58Y-3.93
X2.68Y-3.83
X2.68Y-3.93
X2.78Y-3.83
X2.78Y-3.93
X2.88Y-3.83
X2.88Y-3.93
X2.98Y-3.83
X2.98Y-3.93
T5
X3.814Y-3.118
X4.014Y-3.118
X4.214Y-3.118
X2.614Y-3.119
X2.814Y-3.119
X3.014Y-3.119
X3.214Y-3.119
X3.414Y-3.119
X3.614Y-3.119
X4.615Y-3.119
X4.815Y-3.119
X2.617Y-6.1
X2.817Y-6.1
X3.017Y-6.1
X3.217Y-6.1
X3.417Y-6.1
X3.617Y-6.1
X3.816Y-6.099
X4.016Y-6.099
X4.216Y-6.099
X4.416Y-6.099
X4.616Y-6.099
X4.816Y-6.099
T0
M30
