G04 #@! TF.GenerationSoftware,KiCad,Pcbnew,5.0.2+dfsg1-1*
G04 #@! TF.CreationDate,2021-01-22T13:52:48+01:00*
G04 #@! TF.ProjectId,wat,7761742e-6b69-4636-9164-5f7063625858,rev?*
G04 #@! TF.SameCoordinates,Original*
G04 #@! TF.FileFunction,Other,User*
%FSLAX46Y46*%
G04 Gerber Fmt 4.6, Leading zero omitted, Abs format (unit mm)*
G04 Created by KiCad (PCBNEW 5.0.2+dfsg1-1) date vie 22 ene 2021 13:52:48 CET*
%MOMM*%
%LPD*%
G01*
G04 APERTURE LIST*
%ADD10C,0.050000*%
%ADD11C,0.150000*%
G04 APERTURE END LIST*
D10*
G04 #@! TO.C,C11*
X85260000Y-135670000D02*
X78760000Y-135670000D01*
X85260000Y-135670000D02*
X85260000Y-133570000D01*
X78760000Y-133570000D02*
X78760000Y-135670000D01*
X78760000Y-133570000D02*
X85260000Y-133570000D01*
G04 #@! TO.C,J4*
X94545600Y-83222600D02*
X63645600Y-83222600D01*
X94545600Y-83222600D02*
X94545600Y-75222600D01*
X63645600Y-75222600D02*
X63645600Y-83222600D01*
X63645600Y-75222600D02*
X94545600Y-75222600D01*
G04 #@! TO.C,C1*
X117709500Y-116138500D02*
X117709500Y-106238500D01*
X117709500Y-116138500D02*
X123209500Y-116138500D01*
X123209500Y-106238500D02*
X117709500Y-106238500D01*
X123209500Y-106238500D02*
X123209500Y-116138500D01*
G04 #@! TO.C,C2*
X103176000Y-99788000D02*
X109676000Y-99788000D01*
X103176000Y-99788000D02*
X103176000Y-101888000D01*
X109676000Y-101888000D02*
X109676000Y-99788000D01*
X109676000Y-101888000D02*
X103176000Y-101888000D01*
G04 #@! TO.C,C5*
X86666000Y-89374000D02*
X93166000Y-89374000D01*
X86666000Y-89374000D02*
X86666000Y-91474000D01*
X93166000Y-91474000D02*
X93166000Y-89374000D01*
X93166000Y-91474000D02*
X86666000Y-91474000D01*
G04 #@! TO.C,C6*
X82602000Y-85056000D02*
X89102000Y-85056000D01*
X82602000Y-85056000D02*
X82602000Y-87156000D01*
X89102000Y-87156000D02*
X89102000Y-85056000D01*
X89102000Y-87156000D02*
X82602000Y-87156000D01*
G04 #@! TO.C,C7*
X70410000Y-89374000D02*
X76910000Y-89374000D01*
X70410000Y-89374000D02*
X70410000Y-91474000D01*
X76910000Y-91474000D02*
X76910000Y-89374000D01*
X76910000Y-91474000D02*
X70410000Y-91474000D01*
G04 #@! TO.C,C8*
X66346000Y-85056000D02*
X72846000Y-85056000D01*
X66346000Y-85056000D02*
X66346000Y-87156000D01*
X72846000Y-87156000D02*
X72846000Y-85056000D01*
X72846000Y-87156000D02*
X66346000Y-87156000D01*
G04 #@! TO.C,C9*
X62536000Y-133570000D02*
X69036000Y-133570000D01*
X62536000Y-133570000D02*
X62536000Y-135670000D01*
X69036000Y-135670000D02*
X69036000Y-133570000D01*
X69036000Y-135670000D02*
X62536000Y-135670000D01*
G04 #@! TO.C,C10*
X77164000Y-135670000D02*
X70664000Y-135670000D01*
X77164000Y-135670000D02*
X77164000Y-133570000D01*
X70664000Y-133570000D02*
X70664000Y-135670000D01*
X70664000Y-133570000D02*
X77164000Y-133570000D01*
G04 #@! TO.C,C12*
X86920000Y-133570000D02*
X93420000Y-133570000D01*
X86920000Y-133570000D02*
X86920000Y-135670000D01*
X93420000Y-135670000D02*
X93420000Y-133570000D01*
X93420000Y-135670000D02*
X86920000Y-135670000D01*
G04 #@! TO.C,C13*
X95556000Y-133570000D02*
X102056000Y-133570000D01*
X95556000Y-133570000D02*
X95556000Y-135670000D01*
X102056000Y-135670000D02*
X102056000Y-133570000D01*
X102056000Y-135670000D02*
X95556000Y-135670000D01*
G04 #@! TO.C,C14*
X110184000Y-135670000D02*
X103684000Y-135670000D01*
X110184000Y-135670000D02*
X110184000Y-133570000D01*
X103684000Y-133570000D02*
X103684000Y-135670000D01*
X103684000Y-133570000D02*
X110184000Y-133570000D01*
G04 #@! TO.C,C15*
X111812000Y-133570000D02*
X118312000Y-133570000D01*
X111812000Y-133570000D02*
X111812000Y-135670000D01*
X118312000Y-135670000D02*
X118312000Y-133570000D01*
X118312000Y-135670000D02*
X111812000Y-135670000D01*
G04 #@! TO.C,C16*
X126440000Y-135670000D02*
X119940000Y-135670000D01*
X126440000Y-135670000D02*
X126440000Y-133570000D01*
X119940000Y-133570000D02*
X119940000Y-135670000D01*
X119940000Y-133570000D02*
X126440000Y-133570000D01*
D11*
G04 #@! TO.C,J1*
X61722000Y-102997000D02*
X79502000Y-102997000D01*
X61722000Y-94107000D02*
X61722000Y-102997000D01*
X79502000Y-94107000D02*
X61722000Y-94107000D01*
X79502000Y-102997000D02*
X79502000Y-94107000D01*
D10*
G04 #@! TO.C,J2*
X125076400Y-158914600D02*
X94176400Y-158914600D01*
X125076400Y-158914600D02*
X125076400Y-150914600D01*
X94176400Y-150914600D02*
X94176400Y-158914600D01*
X94176400Y-150914600D02*
X125076400Y-150914600D01*
G04 #@! TO.C,J3*
X94155600Y-75197200D02*
X109755600Y-75197200D01*
X94155600Y-75197200D02*
X94155600Y-83197200D01*
X109755600Y-83197200D02*
X109755600Y-75197200D01*
X109755600Y-83197200D02*
X94155600Y-83197200D01*
G04 #@! TO.C,J5*
X63721800Y-150940000D02*
X94621800Y-150940000D01*
X63721800Y-150940000D02*
X63721800Y-158940000D01*
X94621800Y-158940000D02*
X94621800Y-150940000D01*
X94621800Y-158940000D02*
X63721800Y-158940000D01*
G04 #@! TO.C,P1*
X114511000Y-75222600D02*
X125011000Y-75222600D01*
X114511000Y-75222600D02*
X114511000Y-83222600D01*
X125011000Y-83222600D02*
X125011000Y-75222600D01*
X125011000Y-83222600D02*
X114511000Y-83222600D01*
G04 #@! TO.C,R1*
X107190000Y-95828000D02*
X113790000Y-95828000D01*
X107190000Y-98228000D02*
X113790000Y-98228000D01*
X107190000Y-95828000D02*
X107190000Y-98228000D01*
X113790000Y-95828000D02*
X113790000Y-98228000D01*
G04 #@! TO.C,R3*
X101344000Y-91624000D02*
X94744000Y-91624000D01*
X101344000Y-89224000D02*
X94744000Y-89224000D01*
X101344000Y-91624000D02*
X101344000Y-89224000D01*
X94744000Y-91624000D02*
X94744000Y-89224000D01*
G04 #@! TO.C,R4*
X97280000Y-84906000D02*
X97280000Y-87306000D01*
X90680000Y-84906000D02*
X90680000Y-87306000D01*
X90680000Y-87306000D02*
X97280000Y-87306000D01*
X90680000Y-84906000D02*
X97280000Y-84906000D01*
G04 #@! TO.C,R5*
X85088000Y-91624000D02*
X78488000Y-91624000D01*
X85088000Y-89224000D02*
X78488000Y-89224000D01*
X85088000Y-91624000D02*
X85088000Y-89224000D01*
X78488000Y-91624000D02*
X78488000Y-89224000D01*
G04 #@! TO.C,R6*
X81024000Y-84906000D02*
X81024000Y-87306000D01*
X74424000Y-84906000D02*
X74424000Y-87306000D01*
X74424000Y-87306000D02*
X81024000Y-87306000D01*
X74424000Y-84906000D02*
X81024000Y-84906000D01*
G04 #@! TO.C,R7*
X68864000Y-91624000D02*
X62264000Y-91624000D01*
X68864000Y-89224000D02*
X62264000Y-89224000D01*
X68864000Y-91624000D02*
X68864000Y-89224000D01*
X62264000Y-91624000D02*
X62264000Y-89224000D01*
G04 #@! TO.C,R8*
X72574000Y-142242000D02*
X72574000Y-148842000D01*
X70174000Y-142242000D02*
X70174000Y-148842000D01*
X72574000Y-142242000D02*
X70174000Y-142242000D01*
X72574000Y-148842000D02*
X70174000Y-148842000D01*
G04 #@! TO.C,R9*
X77908000Y-142242000D02*
X77908000Y-148842000D01*
X75508000Y-142242000D02*
X75508000Y-148842000D01*
X77908000Y-142242000D02*
X75508000Y-142242000D01*
X77908000Y-148842000D02*
X75508000Y-148842000D01*
G04 #@! TO.C,R10*
X82988000Y-142242000D02*
X82988000Y-148842000D01*
X80588000Y-142242000D02*
X80588000Y-148842000D01*
X82988000Y-142242000D02*
X80588000Y-142242000D01*
X82988000Y-148842000D02*
X80588000Y-148842000D01*
G04 #@! TO.C,R11*
X88068000Y-148842000D02*
X85668000Y-148842000D01*
X88068000Y-142242000D02*
X85668000Y-142242000D01*
X85668000Y-142242000D02*
X85668000Y-148842000D01*
X88068000Y-142242000D02*
X88068000Y-148842000D01*
G04 #@! TO.C,R12*
X103054000Y-142242000D02*
X103054000Y-148842000D01*
X100654000Y-142242000D02*
X100654000Y-148842000D01*
X103054000Y-142242000D02*
X100654000Y-142242000D01*
X103054000Y-148842000D02*
X100654000Y-148842000D01*
G04 #@! TO.C,R13*
X108388000Y-148842000D02*
X105988000Y-148842000D01*
X108388000Y-142242000D02*
X105988000Y-142242000D01*
X105988000Y-142242000D02*
X105988000Y-148842000D01*
X108388000Y-142242000D02*
X108388000Y-148842000D01*
G04 #@! TO.C,R14*
X69086000Y-137230000D02*
X69086000Y-139630000D01*
X62486000Y-137230000D02*
X62486000Y-139630000D01*
X62486000Y-139630000D02*
X69086000Y-139630000D01*
X62486000Y-137230000D02*
X69086000Y-137230000D01*
G04 #@! TO.C,R15*
X77182000Y-137230000D02*
X77182000Y-139630000D01*
X70582000Y-137230000D02*
X70582000Y-139630000D01*
X70582000Y-139630000D02*
X77182000Y-139630000D01*
X70582000Y-137230000D02*
X77182000Y-137230000D01*
G04 #@! TO.C,R16*
X78710000Y-139630000D02*
X78710000Y-137230000D01*
X85310000Y-139630000D02*
X85310000Y-137230000D01*
X85310000Y-137230000D02*
X78710000Y-137230000D01*
X85310000Y-139630000D02*
X78710000Y-139630000D01*
G04 #@! TO.C,R17*
X86870000Y-139630000D02*
X86870000Y-137230000D01*
X93470000Y-139630000D02*
X93470000Y-137230000D01*
X93470000Y-137230000D02*
X86870000Y-137230000D01*
X93470000Y-139630000D02*
X86870000Y-139630000D01*
G04 #@! TO.C,R18*
X102106000Y-137230000D02*
X102106000Y-139630000D01*
X95506000Y-137230000D02*
X95506000Y-139630000D01*
X95506000Y-139630000D02*
X102106000Y-139630000D01*
X95506000Y-137230000D02*
X102106000Y-137230000D01*
G04 #@! TO.C,R19*
X103634000Y-137230000D02*
X110234000Y-137230000D01*
X103634000Y-139630000D02*
X110234000Y-139630000D01*
X103634000Y-137230000D02*
X103634000Y-139630000D01*
X110234000Y-137230000D02*
X110234000Y-139630000D01*
G04 #@! TO.C,R20*
X113468000Y-148842000D02*
X111068000Y-148842000D01*
X113468000Y-142242000D02*
X111068000Y-142242000D01*
X111068000Y-142242000D02*
X111068000Y-148842000D01*
X113468000Y-142242000D02*
X113468000Y-148842000D01*
G04 #@! TO.C,R21*
X118548000Y-148842000D02*
X116148000Y-148842000D01*
X118548000Y-142242000D02*
X116148000Y-142242000D01*
X116148000Y-142242000D02*
X116148000Y-148842000D01*
X118548000Y-142242000D02*
X118548000Y-148842000D01*
G04 #@! TO.C,R22*
X118362000Y-139630000D02*
X111762000Y-139630000D01*
X118362000Y-137230000D02*
X111762000Y-137230000D01*
X118362000Y-139630000D02*
X118362000Y-137230000D01*
X111762000Y-139630000D02*
X111762000Y-137230000D01*
G04 #@! TO.C,R23*
X126490000Y-139630000D02*
X119890000Y-139630000D01*
X126490000Y-137230000D02*
X119890000Y-137230000D01*
X126490000Y-139630000D02*
X126490000Y-137230000D01*
X119890000Y-139630000D02*
X119890000Y-137230000D01*
G04 #@! TO.C,C3*
X109422000Y-91474000D02*
X102922000Y-91474000D01*
X109422000Y-91474000D02*
X109422000Y-89374000D01*
X102922000Y-89374000D02*
X102922000Y-91474000D01*
X102922000Y-89374000D02*
X109422000Y-89374000D01*
G04 #@! TO.C,C4*
X105358000Y-87156000D02*
X98858000Y-87156000D01*
X105358000Y-87156000D02*
X105358000Y-85056000D01*
X98858000Y-85056000D02*
X98858000Y-87156000D01*
X98858000Y-85056000D02*
X105358000Y-85056000D01*
G04 #@! TO.C,D1*
X122559500Y-99177500D02*
X118359500Y-99177500D01*
X122559500Y-91957500D02*
X122559500Y-99177500D01*
X118359500Y-91957500D02*
X122559500Y-91957500D01*
X118359500Y-99177500D02*
X118359500Y-91957500D01*
G04 #@! TO.C,R2*
X113536000Y-84906000D02*
X113536000Y-87306000D01*
X106936000Y-84906000D02*
X106936000Y-87306000D01*
X106936000Y-87306000D02*
X113536000Y-87306000D01*
X106936000Y-84906000D02*
X113536000Y-84906000D01*
G04 #@! TD*
M02*
