G04 #@! TF.GenerationSoftware,KiCad,Pcbnew,5.0.2+dfsg1-1*
G04 #@! TF.CreationDate,2021-01-22T13:52:48+01:00*
G04 #@! TF.ProjectId,wat,7761742e-6b69-4636-9164-5f7063625858,rev?*
G04 #@! TF.SameCoordinates,Original*
G04 #@! TF.FileFunction,Soldermask,Bot*
G04 #@! TF.FilePolarity,Negative*
%FSLAX46Y46*%
G04 Gerber Fmt 4.6, Leading zero omitted, Abs format (unit mm)*
G04 Created by KiCad (PCBNEW 5.0.2+dfsg1-1) date vie 22 ene 2021 13:52:48 CET*
%MOMM*%
%LPD*%
G01*
G04 APERTURE LIST*
%ADD10C,0.100000*%
G04 APERTURE END LIST*
D10*
G36*
X92239977Y-153279930D02*
X92367672Y-153305330D01*
X92677052Y-153433479D01*
X92955487Y-153619523D01*
X93192277Y-153856313D01*
X93378321Y-154134748D01*
X93495949Y-154418728D01*
X93506470Y-154444129D01*
X93566748Y-154747163D01*
X93571800Y-154772565D01*
X93571800Y-155107435D01*
X93506470Y-155435872D01*
X93378321Y-155745252D01*
X93192277Y-156023687D01*
X92955487Y-156260477D01*
X92677052Y-156446521D01*
X92367672Y-156574670D01*
X92258193Y-156596447D01*
X92039237Y-156640000D01*
X91704363Y-156640000D01*
X91485407Y-156596447D01*
X91375928Y-156574670D01*
X91066548Y-156446521D01*
X90788113Y-156260477D01*
X90551323Y-156023687D01*
X90365279Y-155745252D01*
X90237130Y-155435872D01*
X90171800Y-155107435D01*
X90171800Y-154772565D01*
X90176853Y-154747163D01*
X90237130Y-154444129D01*
X90247651Y-154418728D01*
X90365279Y-154134748D01*
X90551323Y-153856313D01*
X90788113Y-153619523D01*
X91066548Y-153433479D01*
X91375928Y-153305330D01*
X91503623Y-153279930D01*
X91704363Y-153240000D01*
X92039237Y-153240000D01*
X92239977Y-153279930D01*
X92239977Y-153279930D01*
G37*
G36*
X82079977Y-153279930D02*
X82207672Y-153305330D01*
X82517052Y-153433479D01*
X82795487Y-153619523D01*
X83032277Y-153856313D01*
X83218321Y-154134748D01*
X83335949Y-154418728D01*
X83346470Y-154444129D01*
X83406748Y-154747163D01*
X83411800Y-154772565D01*
X83411800Y-155107435D01*
X83346470Y-155435872D01*
X83218321Y-155745252D01*
X83032277Y-156023687D01*
X82795487Y-156260477D01*
X82517052Y-156446521D01*
X82207672Y-156574670D01*
X82098193Y-156596447D01*
X81879237Y-156640000D01*
X81544363Y-156640000D01*
X81325407Y-156596447D01*
X81215928Y-156574670D01*
X80906548Y-156446521D01*
X80628113Y-156260477D01*
X80391323Y-156023687D01*
X80205279Y-155745252D01*
X80077130Y-155435872D01*
X80011800Y-155107435D01*
X80011800Y-154772565D01*
X80016853Y-154747163D01*
X80077130Y-154444129D01*
X80087651Y-154418728D01*
X80205279Y-154134748D01*
X80391323Y-153856313D01*
X80628113Y-153619523D01*
X80906548Y-153433479D01*
X81215928Y-153305330D01*
X81343623Y-153279930D01*
X81544363Y-153240000D01*
X81879237Y-153240000D01*
X82079977Y-153279930D01*
X82079977Y-153279930D01*
G37*
G36*
X68171800Y-156640000D02*
X64771800Y-156640000D01*
X64771800Y-153240000D01*
X68171800Y-153240000D01*
X68171800Y-156640000D01*
X68171800Y-156640000D01*
G37*
G36*
X76999977Y-153279930D02*
X77127672Y-153305330D01*
X77437052Y-153433479D01*
X77715487Y-153619523D01*
X77952277Y-153856313D01*
X78138321Y-154134748D01*
X78255949Y-154418728D01*
X78266470Y-154444129D01*
X78326748Y-154747163D01*
X78331800Y-154772565D01*
X78331800Y-155107435D01*
X78266470Y-155435872D01*
X78138321Y-155745252D01*
X77952277Y-156023687D01*
X77715487Y-156260477D01*
X77437052Y-156446521D01*
X77127672Y-156574670D01*
X77018193Y-156596447D01*
X76799237Y-156640000D01*
X76464363Y-156640000D01*
X76245407Y-156596447D01*
X76135928Y-156574670D01*
X75826548Y-156446521D01*
X75548113Y-156260477D01*
X75311323Y-156023687D01*
X75125279Y-155745252D01*
X74997130Y-155435872D01*
X74931800Y-155107435D01*
X74931800Y-154772565D01*
X74936853Y-154747163D01*
X74997130Y-154444129D01*
X75007651Y-154418728D01*
X75125279Y-154134748D01*
X75311323Y-153856313D01*
X75548113Y-153619523D01*
X75826548Y-153433479D01*
X76135928Y-153305330D01*
X76263623Y-153279930D01*
X76464363Y-153240000D01*
X76799237Y-153240000D01*
X76999977Y-153279930D01*
X76999977Y-153279930D01*
G37*
G36*
X71919977Y-153279930D02*
X72047672Y-153305330D01*
X72357052Y-153433479D01*
X72635487Y-153619523D01*
X72872277Y-153856313D01*
X73058321Y-154134748D01*
X73175949Y-154418728D01*
X73186470Y-154444129D01*
X73246748Y-154747163D01*
X73251800Y-154772565D01*
X73251800Y-155107435D01*
X73186470Y-155435872D01*
X73058321Y-155745252D01*
X72872277Y-156023687D01*
X72635487Y-156260477D01*
X72357052Y-156446521D01*
X72047672Y-156574670D01*
X71938193Y-156596447D01*
X71719237Y-156640000D01*
X71384363Y-156640000D01*
X71165407Y-156596447D01*
X71055928Y-156574670D01*
X70746548Y-156446521D01*
X70468113Y-156260477D01*
X70231323Y-156023687D01*
X70045279Y-155745252D01*
X69917130Y-155435872D01*
X69851800Y-155107435D01*
X69851800Y-154772565D01*
X69856853Y-154747163D01*
X69917130Y-154444129D01*
X69927651Y-154418728D01*
X70045279Y-154134748D01*
X70231323Y-153856313D01*
X70468113Y-153619523D01*
X70746548Y-153433479D01*
X71055928Y-153305330D01*
X71183623Y-153279930D01*
X71384363Y-153240000D01*
X71719237Y-153240000D01*
X71919977Y-153279930D01*
X71919977Y-153279930D01*
G37*
G36*
X87159977Y-153279930D02*
X87287672Y-153305330D01*
X87597052Y-153433479D01*
X87875487Y-153619523D01*
X88112277Y-153856313D01*
X88298321Y-154134748D01*
X88415949Y-154418728D01*
X88426470Y-154444129D01*
X88486748Y-154747163D01*
X88491800Y-154772565D01*
X88491800Y-155107435D01*
X88426470Y-155435872D01*
X88298321Y-155745252D01*
X88112277Y-156023687D01*
X87875487Y-156260477D01*
X87597052Y-156446521D01*
X87287672Y-156574670D01*
X87178193Y-156596447D01*
X86959237Y-156640000D01*
X86624363Y-156640000D01*
X86405407Y-156596447D01*
X86295928Y-156574670D01*
X85986548Y-156446521D01*
X85708113Y-156260477D01*
X85471323Y-156023687D01*
X85285279Y-155745252D01*
X85157130Y-155435872D01*
X85091800Y-155107435D01*
X85091800Y-154772565D01*
X85096853Y-154747163D01*
X85157130Y-154444129D01*
X85167651Y-154418728D01*
X85285279Y-154134748D01*
X85471323Y-153856313D01*
X85708113Y-153619523D01*
X85986548Y-153433479D01*
X86295928Y-153305330D01*
X86423623Y-153279930D01*
X86624363Y-153240000D01*
X86959237Y-153240000D01*
X87159977Y-153279930D01*
X87159977Y-153279930D01*
G37*
G36*
X117632793Y-153258153D02*
X117742272Y-153279930D01*
X118051652Y-153408079D01*
X118330087Y-153594123D01*
X118566877Y-153830913D01*
X118752921Y-154109348D01*
X118881070Y-154418728D01*
X118902847Y-154528207D01*
X118946400Y-154747163D01*
X118946400Y-155082037D01*
X118902847Y-155300993D01*
X118881070Y-155410472D01*
X118752921Y-155719852D01*
X118566877Y-155998287D01*
X118330087Y-156235077D01*
X118051652Y-156421121D01*
X117742272Y-156549270D01*
X117632793Y-156571047D01*
X117413837Y-156614600D01*
X117078963Y-156614600D01*
X116860007Y-156571047D01*
X116750528Y-156549270D01*
X116441148Y-156421121D01*
X116162713Y-156235077D01*
X115925923Y-155998287D01*
X115739879Y-155719852D01*
X115611730Y-155410472D01*
X115589953Y-155300993D01*
X115546400Y-155082037D01*
X115546400Y-154747163D01*
X115589953Y-154528207D01*
X115611730Y-154418728D01*
X115739879Y-154109348D01*
X115925923Y-153830913D01*
X116162713Y-153594123D01*
X116441148Y-153408079D01*
X116750528Y-153279930D01*
X116860007Y-153258153D01*
X117078963Y-153214600D01*
X117413837Y-153214600D01*
X117632793Y-153258153D01*
X117632793Y-153258153D01*
G37*
G36*
X122712793Y-153258153D02*
X122822272Y-153279930D01*
X123131652Y-153408079D01*
X123410087Y-153594123D01*
X123646877Y-153830913D01*
X123832921Y-154109348D01*
X123961070Y-154418728D01*
X123982847Y-154528207D01*
X124026400Y-154747163D01*
X124026400Y-155082037D01*
X123982847Y-155300993D01*
X123961070Y-155410472D01*
X123832921Y-155719852D01*
X123646877Y-155998287D01*
X123410087Y-156235077D01*
X123131652Y-156421121D01*
X122822272Y-156549270D01*
X122712793Y-156571047D01*
X122493837Y-156614600D01*
X122158963Y-156614600D01*
X121940007Y-156571047D01*
X121830528Y-156549270D01*
X121521148Y-156421121D01*
X121242713Y-156235077D01*
X121005923Y-155998287D01*
X120819879Y-155719852D01*
X120691730Y-155410472D01*
X120669953Y-155300993D01*
X120626400Y-155082037D01*
X120626400Y-154747163D01*
X120669953Y-154528207D01*
X120691730Y-154418728D01*
X120819879Y-154109348D01*
X121005923Y-153830913D01*
X121242713Y-153594123D01*
X121521148Y-153408079D01*
X121830528Y-153279930D01*
X121940007Y-153258153D01*
X122158963Y-153214600D01*
X122493837Y-153214600D01*
X122712793Y-153258153D01*
X122712793Y-153258153D01*
G37*
G36*
X112552793Y-153258153D02*
X112662272Y-153279930D01*
X112971652Y-153408079D01*
X113250087Y-153594123D01*
X113486877Y-153830913D01*
X113672921Y-154109348D01*
X113801070Y-154418728D01*
X113822847Y-154528207D01*
X113866400Y-154747163D01*
X113866400Y-155082037D01*
X113822847Y-155300993D01*
X113801070Y-155410472D01*
X113672921Y-155719852D01*
X113486877Y-155998287D01*
X113250087Y-156235077D01*
X112971652Y-156421121D01*
X112662272Y-156549270D01*
X112552793Y-156571047D01*
X112333837Y-156614600D01*
X111998963Y-156614600D01*
X111780007Y-156571047D01*
X111670528Y-156549270D01*
X111361148Y-156421121D01*
X111082713Y-156235077D01*
X110845923Y-155998287D01*
X110659879Y-155719852D01*
X110531730Y-155410472D01*
X110509953Y-155300993D01*
X110466400Y-155082037D01*
X110466400Y-154747163D01*
X110509953Y-154528207D01*
X110531730Y-154418728D01*
X110659879Y-154109348D01*
X110845923Y-153830913D01*
X111082713Y-153594123D01*
X111361148Y-153408079D01*
X111670528Y-153279930D01*
X111780007Y-153258153D01*
X111998963Y-153214600D01*
X112333837Y-153214600D01*
X112552793Y-153258153D01*
X112552793Y-153258153D01*
G37*
G36*
X102392793Y-153258153D02*
X102502272Y-153279930D01*
X102811652Y-153408079D01*
X103090087Y-153594123D01*
X103326877Y-153830913D01*
X103512921Y-154109348D01*
X103641070Y-154418728D01*
X103662847Y-154528207D01*
X103706400Y-154747163D01*
X103706400Y-155082037D01*
X103662847Y-155300993D01*
X103641070Y-155410472D01*
X103512921Y-155719852D01*
X103326877Y-155998287D01*
X103090087Y-156235077D01*
X102811652Y-156421121D01*
X102502272Y-156549270D01*
X102392793Y-156571047D01*
X102173837Y-156614600D01*
X101838963Y-156614600D01*
X101620007Y-156571047D01*
X101510528Y-156549270D01*
X101201148Y-156421121D01*
X100922713Y-156235077D01*
X100685923Y-155998287D01*
X100499879Y-155719852D01*
X100371730Y-155410472D01*
X100349953Y-155300993D01*
X100306400Y-155082037D01*
X100306400Y-154747163D01*
X100349953Y-154528207D01*
X100371730Y-154418728D01*
X100499879Y-154109348D01*
X100685923Y-153830913D01*
X100922713Y-153594123D01*
X101201148Y-153408079D01*
X101510528Y-153279930D01*
X101620007Y-153258153D01*
X101838963Y-153214600D01*
X102173837Y-153214600D01*
X102392793Y-153258153D01*
X102392793Y-153258153D01*
G37*
G36*
X107472793Y-153258153D02*
X107582272Y-153279930D01*
X107891652Y-153408079D01*
X108170087Y-153594123D01*
X108406877Y-153830913D01*
X108592921Y-154109348D01*
X108721070Y-154418728D01*
X108742847Y-154528207D01*
X108786400Y-154747163D01*
X108786400Y-155082037D01*
X108742847Y-155300993D01*
X108721070Y-155410472D01*
X108592921Y-155719852D01*
X108406877Y-155998287D01*
X108170087Y-156235077D01*
X107891652Y-156421121D01*
X107582272Y-156549270D01*
X107472793Y-156571047D01*
X107253837Y-156614600D01*
X106918963Y-156614600D01*
X106700007Y-156571047D01*
X106590528Y-156549270D01*
X106281148Y-156421121D01*
X106002713Y-156235077D01*
X105765923Y-155998287D01*
X105579879Y-155719852D01*
X105451730Y-155410472D01*
X105429953Y-155300993D01*
X105386400Y-155082037D01*
X105386400Y-154747163D01*
X105429953Y-154528207D01*
X105451730Y-154418728D01*
X105579879Y-154109348D01*
X105765923Y-153830913D01*
X106002713Y-153594123D01*
X106281148Y-153408079D01*
X106590528Y-153279930D01*
X106700007Y-153258153D01*
X106918963Y-153214600D01*
X107253837Y-153214600D01*
X107472793Y-153258153D01*
X107472793Y-153258153D01*
G37*
G36*
X98626400Y-156614600D02*
X95226400Y-156614600D01*
X95226400Y-153214600D01*
X98626400Y-153214600D01*
X98626400Y-156614600D01*
X98626400Y-156614600D01*
G37*
G36*
X91633564Y-121099287D02*
X91757648Y-121136928D01*
X91819691Y-121155748D01*
X91911378Y-121204756D01*
X91991224Y-121247435D01*
X91991226Y-121247436D01*
X91991225Y-121247436D01*
X92141575Y-121370825D01*
X92264964Y-121521175D01*
X92356652Y-121692709D01*
X92356652Y-121692710D01*
X92413113Y-121878837D01*
X92427400Y-122023898D01*
X92427400Y-122832103D01*
X92413113Y-122977164D01*
X92375472Y-123101248D01*
X92356652Y-123163291D01*
X92264964Y-123334825D01*
X92141575Y-123485175D01*
X91991224Y-123608566D01*
X91819693Y-123700251D01*
X91771260Y-123714943D01*
X91633563Y-123756713D01*
X91440000Y-123775777D01*
X91246436Y-123756713D01*
X91122352Y-123719072D01*
X91060309Y-123700252D01*
X90968622Y-123651244D01*
X90888776Y-123608565D01*
X90738425Y-123485175D01*
X90615034Y-123334824D01*
X90523349Y-123163293D01*
X90508657Y-123114860D01*
X90466887Y-122977163D01*
X90452600Y-122832102D01*
X90452600Y-122023897D01*
X90466887Y-121878836D01*
X90523349Y-121692710D01*
X90615036Y-121521176D01*
X90738426Y-121370825D01*
X90888777Y-121247435D01*
X90968623Y-121204756D01*
X91060310Y-121155748D01*
X91122353Y-121136928D01*
X91246437Y-121099287D01*
X91440000Y-121080223D01*
X91633564Y-121099287D01*
X91633564Y-121099287D01*
G37*
G36*
X101793564Y-121099287D02*
X101917648Y-121136928D01*
X101979691Y-121155748D01*
X102071378Y-121204756D01*
X102151224Y-121247435D01*
X102151226Y-121247436D01*
X102151225Y-121247436D01*
X102301575Y-121370825D01*
X102424964Y-121521175D01*
X102516652Y-121692709D01*
X102516652Y-121692710D01*
X102573113Y-121878837D01*
X102587400Y-122023898D01*
X102587400Y-122832103D01*
X102573113Y-122977164D01*
X102535472Y-123101248D01*
X102516652Y-123163291D01*
X102424964Y-123334825D01*
X102301575Y-123485175D01*
X102151224Y-123608566D01*
X101979693Y-123700251D01*
X101931260Y-123714943D01*
X101793563Y-123756713D01*
X101600000Y-123775777D01*
X101406436Y-123756713D01*
X101282352Y-123719072D01*
X101220309Y-123700252D01*
X101128622Y-123651244D01*
X101048776Y-123608565D01*
X100898425Y-123485175D01*
X100775034Y-123334824D01*
X100683349Y-123163293D01*
X100668657Y-123114860D01*
X100626887Y-122977163D01*
X100612600Y-122832102D01*
X100612600Y-122023897D01*
X100626887Y-121878836D01*
X100683349Y-121692710D01*
X100775036Y-121521176D01*
X100898426Y-121370825D01*
X101048777Y-121247435D01*
X101128623Y-121204756D01*
X101220310Y-121155748D01*
X101282353Y-121136928D01*
X101406437Y-121099287D01*
X101600000Y-121080223D01*
X101793564Y-121099287D01*
X101793564Y-121099287D01*
G37*
G36*
X99253564Y-121099287D02*
X99377648Y-121136928D01*
X99439691Y-121155748D01*
X99531378Y-121204756D01*
X99611224Y-121247435D01*
X99611226Y-121247436D01*
X99611225Y-121247436D01*
X99761575Y-121370825D01*
X99884964Y-121521175D01*
X99976652Y-121692709D01*
X99976652Y-121692710D01*
X100033113Y-121878837D01*
X100047400Y-122023898D01*
X100047400Y-122832103D01*
X100033113Y-122977164D01*
X99995472Y-123101248D01*
X99976652Y-123163291D01*
X99884964Y-123334825D01*
X99761575Y-123485175D01*
X99611224Y-123608566D01*
X99439693Y-123700251D01*
X99391260Y-123714943D01*
X99253563Y-123756713D01*
X99060000Y-123775777D01*
X98866436Y-123756713D01*
X98742352Y-123719072D01*
X98680309Y-123700252D01*
X98588622Y-123651244D01*
X98508776Y-123608565D01*
X98358425Y-123485175D01*
X98235034Y-123334824D01*
X98143349Y-123163293D01*
X98128657Y-123114860D01*
X98086887Y-122977163D01*
X98072600Y-122832102D01*
X98072600Y-122023897D01*
X98086887Y-121878836D01*
X98143349Y-121692710D01*
X98235036Y-121521176D01*
X98358426Y-121370825D01*
X98508777Y-121247435D01*
X98588623Y-121204756D01*
X98680310Y-121155748D01*
X98742353Y-121136928D01*
X98866437Y-121099287D01*
X99060000Y-121080223D01*
X99253564Y-121099287D01*
X99253564Y-121099287D01*
G37*
G36*
X96713564Y-121099287D02*
X96837648Y-121136928D01*
X96899691Y-121155748D01*
X96991378Y-121204756D01*
X97071224Y-121247435D01*
X97071226Y-121247436D01*
X97071225Y-121247436D01*
X97221575Y-121370825D01*
X97344964Y-121521175D01*
X97436652Y-121692709D01*
X97436652Y-121692710D01*
X97493113Y-121878837D01*
X97507400Y-122023898D01*
X97507400Y-122832103D01*
X97493113Y-122977164D01*
X97455472Y-123101248D01*
X97436652Y-123163291D01*
X97344964Y-123334825D01*
X97221575Y-123485175D01*
X97071224Y-123608566D01*
X96899693Y-123700251D01*
X96851260Y-123714943D01*
X96713563Y-123756713D01*
X96520000Y-123775777D01*
X96326436Y-123756713D01*
X96202352Y-123719072D01*
X96140309Y-123700252D01*
X96048622Y-123651244D01*
X95968776Y-123608565D01*
X95818425Y-123485175D01*
X95695034Y-123334824D01*
X95603349Y-123163293D01*
X95588657Y-123114860D01*
X95546887Y-122977163D01*
X95532600Y-122832102D01*
X95532600Y-122023897D01*
X95546887Y-121878836D01*
X95603349Y-121692710D01*
X95695036Y-121521176D01*
X95818426Y-121370825D01*
X95968777Y-121247435D01*
X96048623Y-121204756D01*
X96140310Y-121155748D01*
X96202353Y-121136928D01*
X96326437Y-121099287D01*
X96520000Y-121080223D01*
X96713564Y-121099287D01*
X96713564Y-121099287D01*
G37*
G36*
X94173564Y-121099287D02*
X94297648Y-121136928D01*
X94359691Y-121155748D01*
X94451378Y-121204756D01*
X94531224Y-121247435D01*
X94531226Y-121247436D01*
X94531225Y-121247436D01*
X94681575Y-121370825D01*
X94804964Y-121521175D01*
X94896652Y-121692709D01*
X94896652Y-121692710D01*
X94953113Y-121878837D01*
X94967400Y-122023898D01*
X94967400Y-122832103D01*
X94953113Y-122977164D01*
X94915472Y-123101248D01*
X94896652Y-123163291D01*
X94804964Y-123334825D01*
X94681575Y-123485175D01*
X94531224Y-123608566D01*
X94359693Y-123700251D01*
X94311260Y-123714943D01*
X94173563Y-123756713D01*
X93980000Y-123775777D01*
X93786436Y-123756713D01*
X93662352Y-123719072D01*
X93600309Y-123700252D01*
X93508622Y-123651244D01*
X93428776Y-123608565D01*
X93278425Y-123485175D01*
X93155034Y-123334824D01*
X93063349Y-123163293D01*
X93048657Y-123114860D01*
X93006887Y-122977163D01*
X92992600Y-122832102D01*
X92992600Y-122023897D01*
X93006887Y-121878836D01*
X93063349Y-121692710D01*
X93155036Y-121521176D01*
X93278426Y-121370825D01*
X93428777Y-121247435D01*
X93508623Y-121204756D01*
X93600310Y-121155748D01*
X93662353Y-121136928D01*
X93786437Y-121099287D01*
X93980000Y-121080223D01*
X94173564Y-121099287D01*
X94173564Y-121099287D01*
G37*
G36*
X86553564Y-121099287D02*
X86677648Y-121136928D01*
X86739691Y-121155748D01*
X86831378Y-121204756D01*
X86911224Y-121247435D01*
X86911226Y-121247436D01*
X86911225Y-121247436D01*
X87061575Y-121370825D01*
X87184964Y-121521175D01*
X87276652Y-121692709D01*
X87276652Y-121692710D01*
X87333113Y-121878837D01*
X87347400Y-122023898D01*
X87347400Y-122832103D01*
X87333113Y-122977164D01*
X87295472Y-123101248D01*
X87276652Y-123163291D01*
X87184964Y-123334825D01*
X87061575Y-123485175D01*
X86911224Y-123608566D01*
X86739693Y-123700251D01*
X86691260Y-123714943D01*
X86553563Y-123756713D01*
X86360000Y-123775777D01*
X86166436Y-123756713D01*
X86042352Y-123719072D01*
X85980309Y-123700252D01*
X85888622Y-123651244D01*
X85808776Y-123608565D01*
X85658425Y-123485175D01*
X85535034Y-123334824D01*
X85443349Y-123163293D01*
X85428657Y-123114860D01*
X85386887Y-122977163D01*
X85372600Y-122832102D01*
X85372600Y-122023897D01*
X85386887Y-121878836D01*
X85443349Y-121692710D01*
X85535036Y-121521176D01*
X85658426Y-121370825D01*
X85808777Y-121247435D01*
X85888623Y-121204756D01*
X85980310Y-121155748D01*
X86042353Y-121136928D01*
X86166437Y-121099287D01*
X86360000Y-121080223D01*
X86553564Y-121099287D01*
X86553564Y-121099287D01*
G37*
G36*
X84013564Y-121099287D02*
X84137648Y-121136928D01*
X84199691Y-121155748D01*
X84291378Y-121204756D01*
X84371224Y-121247435D01*
X84371226Y-121247436D01*
X84371225Y-121247436D01*
X84521575Y-121370825D01*
X84644964Y-121521175D01*
X84736652Y-121692709D01*
X84736652Y-121692710D01*
X84793113Y-121878837D01*
X84807400Y-122023898D01*
X84807400Y-122832103D01*
X84793113Y-122977164D01*
X84755472Y-123101248D01*
X84736652Y-123163291D01*
X84644964Y-123334825D01*
X84521575Y-123485175D01*
X84371224Y-123608566D01*
X84199693Y-123700251D01*
X84151260Y-123714943D01*
X84013563Y-123756713D01*
X83820000Y-123775777D01*
X83626436Y-123756713D01*
X83502352Y-123719072D01*
X83440309Y-123700252D01*
X83348622Y-123651244D01*
X83268776Y-123608565D01*
X83118425Y-123485175D01*
X82995034Y-123334824D01*
X82903349Y-123163293D01*
X82888657Y-123114860D01*
X82846887Y-122977163D01*
X82832600Y-122832102D01*
X82832600Y-122023897D01*
X82846887Y-121878836D01*
X82903349Y-121692710D01*
X82995036Y-121521176D01*
X83118426Y-121370825D01*
X83268777Y-121247435D01*
X83348623Y-121204756D01*
X83440310Y-121155748D01*
X83502353Y-121136928D01*
X83626437Y-121099287D01*
X83820000Y-121080223D01*
X84013564Y-121099287D01*
X84013564Y-121099287D01*
G37*
G36*
X81473564Y-121099287D02*
X81597648Y-121136928D01*
X81659691Y-121155748D01*
X81751378Y-121204756D01*
X81831224Y-121247435D01*
X81831226Y-121247436D01*
X81831225Y-121247436D01*
X81981575Y-121370825D01*
X82104964Y-121521175D01*
X82196652Y-121692709D01*
X82196652Y-121692710D01*
X82253113Y-121878837D01*
X82267400Y-122023898D01*
X82267400Y-122832103D01*
X82253113Y-122977164D01*
X82215472Y-123101248D01*
X82196652Y-123163291D01*
X82104964Y-123334825D01*
X81981575Y-123485175D01*
X81831224Y-123608566D01*
X81659693Y-123700251D01*
X81611260Y-123714943D01*
X81473563Y-123756713D01*
X81280000Y-123775777D01*
X81086436Y-123756713D01*
X80962352Y-123719072D01*
X80900309Y-123700252D01*
X80808622Y-123651244D01*
X80728776Y-123608565D01*
X80578425Y-123485175D01*
X80455034Y-123334824D01*
X80363349Y-123163293D01*
X80348657Y-123114860D01*
X80306887Y-122977163D01*
X80292600Y-122832102D01*
X80292600Y-122023897D01*
X80306887Y-121878836D01*
X80363349Y-121692710D01*
X80455036Y-121521176D01*
X80578426Y-121370825D01*
X80728777Y-121247435D01*
X80808623Y-121204756D01*
X80900310Y-121155748D01*
X80962353Y-121136928D01*
X81086437Y-121099287D01*
X81280000Y-121080223D01*
X81473564Y-121099287D01*
X81473564Y-121099287D01*
G37*
G36*
X78933564Y-121099287D02*
X79057648Y-121136928D01*
X79119691Y-121155748D01*
X79211378Y-121204756D01*
X79291224Y-121247435D01*
X79291226Y-121247436D01*
X79291225Y-121247436D01*
X79441575Y-121370825D01*
X79564964Y-121521175D01*
X79656652Y-121692709D01*
X79656652Y-121692710D01*
X79713113Y-121878837D01*
X79727400Y-122023898D01*
X79727400Y-122832103D01*
X79713113Y-122977164D01*
X79675472Y-123101248D01*
X79656652Y-123163291D01*
X79564964Y-123334825D01*
X79441575Y-123485175D01*
X79291224Y-123608566D01*
X79119693Y-123700251D01*
X79071260Y-123714943D01*
X78933563Y-123756713D01*
X78740000Y-123775777D01*
X78546436Y-123756713D01*
X78422352Y-123719072D01*
X78360309Y-123700252D01*
X78268622Y-123651244D01*
X78188776Y-123608565D01*
X78038425Y-123485175D01*
X77915034Y-123334824D01*
X77823349Y-123163293D01*
X77808657Y-123114860D01*
X77766887Y-122977163D01*
X77752600Y-122832102D01*
X77752600Y-122023897D01*
X77766887Y-121878836D01*
X77823349Y-121692710D01*
X77915036Y-121521176D01*
X78038426Y-121370825D01*
X78188777Y-121247435D01*
X78268623Y-121204756D01*
X78360310Y-121155748D01*
X78422353Y-121136928D01*
X78546437Y-121099287D01*
X78740000Y-121080223D01*
X78933564Y-121099287D01*
X78933564Y-121099287D01*
G37*
G36*
X89093564Y-121099287D02*
X89217648Y-121136928D01*
X89279691Y-121155748D01*
X89371378Y-121204756D01*
X89451224Y-121247435D01*
X89451226Y-121247436D01*
X89451225Y-121247436D01*
X89601575Y-121370825D01*
X89724964Y-121521175D01*
X89816652Y-121692709D01*
X89816652Y-121692710D01*
X89873113Y-121878837D01*
X89887400Y-122023898D01*
X89887400Y-122832103D01*
X89873113Y-122977164D01*
X89835472Y-123101248D01*
X89816652Y-123163291D01*
X89724964Y-123334825D01*
X89601575Y-123485175D01*
X89451224Y-123608566D01*
X89279693Y-123700251D01*
X89231260Y-123714943D01*
X89093563Y-123756713D01*
X88900000Y-123775777D01*
X88706436Y-123756713D01*
X88582352Y-123719072D01*
X88520309Y-123700252D01*
X88428622Y-123651244D01*
X88348776Y-123608565D01*
X88198425Y-123485175D01*
X88075034Y-123334824D01*
X87983349Y-123163293D01*
X87968657Y-123114860D01*
X87926887Y-122977163D01*
X87912600Y-122832102D01*
X87912600Y-122023897D01*
X87926887Y-121878836D01*
X87983349Y-121692710D01*
X88075036Y-121521176D01*
X88198426Y-121370825D01*
X88348777Y-121247435D01*
X88428623Y-121204756D01*
X88520310Y-121155748D01*
X88582353Y-121136928D01*
X88706437Y-121099287D01*
X88900000Y-121080223D01*
X89093564Y-121099287D01*
X89093564Y-121099287D01*
G37*
G36*
X76393564Y-121099287D02*
X76517648Y-121136928D01*
X76579691Y-121155748D01*
X76671378Y-121204756D01*
X76751224Y-121247435D01*
X76751226Y-121247436D01*
X76751225Y-121247436D01*
X76901575Y-121370825D01*
X77024964Y-121521175D01*
X77116652Y-121692709D01*
X77116652Y-121692710D01*
X77173113Y-121878837D01*
X77187400Y-122023898D01*
X77187400Y-122832103D01*
X77173113Y-122977164D01*
X77135472Y-123101248D01*
X77116652Y-123163291D01*
X77024964Y-123334825D01*
X76901575Y-123485175D01*
X76751224Y-123608566D01*
X76579693Y-123700251D01*
X76531260Y-123714943D01*
X76393563Y-123756713D01*
X76200000Y-123775777D01*
X76006436Y-123756713D01*
X75882352Y-123719072D01*
X75820309Y-123700252D01*
X75728622Y-123651244D01*
X75648776Y-123608565D01*
X75498425Y-123485175D01*
X75375034Y-123334824D01*
X75283349Y-123163293D01*
X75268657Y-123114860D01*
X75226887Y-122977163D01*
X75212600Y-122832102D01*
X75212600Y-122023897D01*
X75226887Y-121878836D01*
X75283349Y-121692710D01*
X75375036Y-121521176D01*
X75498426Y-121370825D01*
X75648777Y-121247435D01*
X75728623Y-121204756D01*
X75820310Y-121155748D01*
X75882353Y-121136928D01*
X76006437Y-121099287D01*
X76200000Y-121080223D01*
X76393564Y-121099287D01*
X76393564Y-121099287D01*
G37*
G36*
X71313564Y-121099287D02*
X71437648Y-121136928D01*
X71499691Y-121155748D01*
X71591378Y-121204756D01*
X71671224Y-121247435D01*
X71671226Y-121247436D01*
X71671225Y-121247436D01*
X71821575Y-121370825D01*
X71944964Y-121521175D01*
X72036652Y-121692709D01*
X72036652Y-121692710D01*
X72093113Y-121878837D01*
X72107400Y-122023898D01*
X72107400Y-122832103D01*
X72093113Y-122977164D01*
X72055472Y-123101248D01*
X72036652Y-123163291D01*
X71944964Y-123334825D01*
X71821575Y-123485175D01*
X71671224Y-123608566D01*
X71499693Y-123700251D01*
X71451260Y-123714943D01*
X71313563Y-123756713D01*
X71120000Y-123775777D01*
X70926436Y-123756713D01*
X70802352Y-123719072D01*
X70740309Y-123700252D01*
X70648622Y-123651244D01*
X70568776Y-123608565D01*
X70418425Y-123485175D01*
X70295034Y-123334824D01*
X70203349Y-123163293D01*
X70188657Y-123114860D01*
X70146887Y-122977163D01*
X70132600Y-122832102D01*
X70132600Y-122023897D01*
X70146887Y-121878836D01*
X70203349Y-121692710D01*
X70295036Y-121521176D01*
X70418426Y-121370825D01*
X70568777Y-121247435D01*
X70648623Y-121204756D01*
X70740310Y-121155748D01*
X70802353Y-121136928D01*
X70926437Y-121099287D01*
X71120000Y-121080223D01*
X71313564Y-121099287D01*
X71313564Y-121099287D01*
G37*
G36*
X68773564Y-121099287D02*
X68897648Y-121136928D01*
X68959691Y-121155748D01*
X69051378Y-121204756D01*
X69131224Y-121247435D01*
X69131226Y-121247436D01*
X69131225Y-121247436D01*
X69281575Y-121370825D01*
X69404964Y-121521175D01*
X69496652Y-121692709D01*
X69496652Y-121692710D01*
X69553113Y-121878837D01*
X69567400Y-122023898D01*
X69567400Y-122832103D01*
X69553113Y-122977164D01*
X69515472Y-123101248D01*
X69496652Y-123163291D01*
X69404964Y-123334825D01*
X69281575Y-123485175D01*
X69131224Y-123608566D01*
X68959693Y-123700251D01*
X68911260Y-123714943D01*
X68773563Y-123756713D01*
X68580000Y-123775777D01*
X68386436Y-123756713D01*
X68262352Y-123719072D01*
X68200309Y-123700252D01*
X68108622Y-123651244D01*
X68028776Y-123608565D01*
X67878425Y-123485175D01*
X67755034Y-123334824D01*
X67663349Y-123163293D01*
X67648657Y-123114860D01*
X67606887Y-122977163D01*
X67592600Y-122832102D01*
X67592600Y-122023897D01*
X67606887Y-121878836D01*
X67663349Y-121692710D01*
X67755036Y-121521176D01*
X67878426Y-121370825D01*
X68028777Y-121247435D01*
X68108623Y-121204756D01*
X68200310Y-121155748D01*
X68262353Y-121136928D01*
X68386437Y-121099287D01*
X68580000Y-121080223D01*
X68773564Y-121099287D01*
X68773564Y-121099287D01*
G37*
G36*
X66233564Y-121099287D02*
X66357648Y-121136928D01*
X66419691Y-121155748D01*
X66511378Y-121204756D01*
X66591224Y-121247435D01*
X66591226Y-121247436D01*
X66591225Y-121247436D01*
X66741575Y-121370825D01*
X66864964Y-121521175D01*
X66956652Y-121692709D01*
X66956652Y-121692710D01*
X67013113Y-121878837D01*
X67027400Y-122023898D01*
X67027400Y-122832103D01*
X67013113Y-122977164D01*
X66975472Y-123101248D01*
X66956652Y-123163291D01*
X66864964Y-123334825D01*
X66741575Y-123485175D01*
X66591224Y-123608566D01*
X66419693Y-123700251D01*
X66371260Y-123714943D01*
X66233563Y-123756713D01*
X66040000Y-123775777D01*
X65846436Y-123756713D01*
X65722352Y-123719072D01*
X65660309Y-123700252D01*
X65568622Y-123651244D01*
X65488776Y-123608565D01*
X65338425Y-123485175D01*
X65215034Y-123334824D01*
X65123349Y-123163293D01*
X65108657Y-123114860D01*
X65066887Y-122977163D01*
X65052600Y-122832102D01*
X65052600Y-122023897D01*
X65066887Y-121878836D01*
X65123349Y-121692710D01*
X65215036Y-121521176D01*
X65338426Y-121370825D01*
X65488777Y-121247435D01*
X65568623Y-121204756D01*
X65660310Y-121155748D01*
X65722353Y-121136928D01*
X65846437Y-121099287D01*
X66040000Y-121080223D01*
X66233564Y-121099287D01*
X66233564Y-121099287D01*
G37*
G36*
X73853564Y-121099287D02*
X73977648Y-121136928D01*
X74039691Y-121155748D01*
X74131378Y-121204756D01*
X74211224Y-121247435D01*
X74211226Y-121247436D01*
X74211225Y-121247436D01*
X74361575Y-121370825D01*
X74484964Y-121521175D01*
X74576652Y-121692709D01*
X74576652Y-121692710D01*
X74633113Y-121878837D01*
X74647400Y-122023898D01*
X74647400Y-122832103D01*
X74633113Y-122977164D01*
X74595472Y-123101248D01*
X74576652Y-123163291D01*
X74484964Y-123334825D01*
X74361575Y-123485175D01*
X74211224Y-123608566D01*
X74039693Y-123700251D01*
X73991260Y-123714943D01*
X73853563Y-123756713D01*
X73660000Y-123775777D01*
X73466436Y-123756713D01*
X73342352Y-123719072D01*
X73280309Y-123700252D01*
X73188622Y-123651244D01*
X73108776Y-123608565D01*
X72958425Y-123485175D01*
X72835034Y-123334824D01*
X72743349Y-123163293D01*
X72728657Y-123114860D01*
X72686887Y-122977163D01*
X72672600Y-122832102D01*
X72672600Y-122023897D01*
X72686887Y-121878836D01*
X72743349Y-121692710D01*
X72835036Y-121521176D01*
X72958426Y-121370825D01*
X73108777Y-121247435D01*
X73188623Y-121204756D01*
X73280310Y-121155748D01*
X73342353Y-121136928D01*
X73466437Y-121099287D01*
X73660000Y-121080223D01*
X73853564Y-121099287D01*
X73853564Y-121099287D01*
G37*
G36*
X76393564Y-105859287D02*
X76517648Y-105896928D01*
X76579691Y-105915748D01*
X76671378Y-105964756D01*
X76751224Y-106007435D01*
X76751226Y-106007436D01*
X76751225Y-106007436D01*
X76901575Y-106130825D01*
X77024964Y-106281175D01*
X77116652Y-106452709D01*
X77116652Y-106452710D01*
X77173113Y-106638837D01*
X77187400Y-106783898D01*
X77187400Y-107592103D01*
X77173113Y-107737164D01*
X77135472Y-107861248D01*
X77116652Y-107923291D01*
X77024964Y-108094825D01*
X76901575Y-108245175D01*
X76751224Y-108368566D01*
X76579693Y-108460251D01*
X76531260Y-108474943D01*
X76393563Y-108516713D01*
X76200000Y-108535777D01*
X76006436Y-108516713D01*
X75882352Y-108479072D01*
X75820309Y-108460252D01*
X75728622Y-108411244D01*
X75648776Y-108368565D01*
X75498425Y-108245175D01*
X75375034Y-108094824D01*
X75283349Y-107923293D01*
X75268657Y-107874860D01*
X75226887Y-107737163D01*
X75212600Y-107592102D01*
X75212600Y-106783897D01*
X75226887Y-106638836D01*
X75283349Y-106452710D01*
X75375036Y-106281176D01*
X75498426Y-106130825D01*
X75648777Y-106007435D01*
X75728623Y-105964756D01*
X75820310Y-105915748D01*
X75882353Y-105896928D01*
X76006437Y-105859287D01*
X76200000Y-105840223D01*
X76393564Y-105859287D01*
X76393564Y-105859287D01*
G37*
G36*
X96713564Y-105859287D02*
X96837648Y-105896928D01*
X96899691Y-105915748D01*
X96991378Y-105964756D01*
X97071224Y-106007435D01*
X97071226Y-106007436D01*
X97071225Y-106007436D01*
X97221575Y-106130825D01*
X97344964Y-106281175D01*
X97436652Y-106452709D01*
X97436652Y-106452710D01*
X97493113Y-106638837D01*
X97507400Y-106783898D01*
X97507400Y-107592103D01*
X97493113Y-107737164D01*
X97455472Y-107861248D01*
X97436652Y-107923291D01*
X97344964Y-108094825D01*
X97221575Y-108245175D01*
X97071224Y-108368566D01*
X96899693Y-108460251D01*
X96851260Y-108474943D01*
X96713563Y-108516713D01*
X96520000Y-108535777D01*
X96326436Y-108516713D01*
X96202352Y-108479072D01*
X96140309Y-108460252D01*
X96048622Y-108411244D01*
X95968776Y-108368565D01*
X95818425Y-108245175D01*
X95695034Y-108094824D01*
X95603349Y-107923293D01*
X95588657Y-107874860D01*
X95546887Y-107737163D01*
X95532600Y-107592102D01*
X95532600Y-106783897D01*
X95546887Y-106638836D01*
X95603349Y-106452710D01*
X95695036Y-106281176D01*
X95818426Y-106130825D01*
X95968777Y-106007435D01*
X96048623Y-105964756D01*
X96140310Y-105915748D01*
X96202353Y-105896928D01*
X96326437Y-105859287D01*
X96520000Y-105840223D01*
X96713564Y-105859287D01*
X96713564Y-105859287D01*
G37*
G36*
X94173564Y-105859287D02*
X94297648Y-105896928D01*
X94359691Y-105915748D01*
X94451378Y-105964756D01*
X94531224Y-106007435D01*
X94531226Y-106007436D01*
X94531225Y-106007436D01*
X94681575Y-106130825D01*
X94804964Y-106281175D01*
X94896652Y-106452709D01*
X94896652Y-106452710D01*
X94953113Y-106638837D01*
X94967400Y-106783898D01*
X94967400Y-107592103D01*
X94953113Y-107737164D01*
X94915472Y-107861248D01*
X94896652Y-107923291D01*
X94804964Y-108094825D01*
X94681575Y-108245175D01*
X94531224Y-108368566D01*
X94359693Y-108460251D01*
X94311260Y-108474943D01*
X94173563Y-108516713D01*
X93980000Y-108535777D01*
X93786436Y-108516713D01*
X93662352Y-108479072D01*
X93600309Y-108460252D01*
X93508622Y-108411244D01*
X93428776Y-108368565D01*
X93278425Y-108245175D01*
X93155034Y-108094824D01*
X93063349Y-107923293D01*
X93048657Y-107874860D01*
X93006887Y-107737163D01*
X92992600Y-107592102D01*
X92992600Y-106783897D01*
X93006887Y-106638836D01*
X93063349Y-106452710D01*
X93155036Y-106281176D01*
X93278426Y-106130825D01*
X93428777Y-106007435D01*
X93508623Y-105964756D01*
X93600310Y-105915748D01*
X93662353Y-105896928D01*
X93786437Y-105859287D01*
X93980000Y-105840223D01*
X94173564Y-105859287D01*
X94173564Y-105859287D01*
G37*
G36*
X101793564Y-105859287D02*
X101917648Y-105896928D01*
X101979691Y-105915748D01*
X102071378Y-105964756D01*
X102151224Y-106007435D01*
X102151226Y-106007436D01*
X102151225Y-106007436D01*
X102301575Y-106130825D01*
X102424964Y-106281175D01*
X102516652Y-106452709D01*
X102516652Y-106452710D01*
X102573113Y-106638837D01*
X102587400Y-106783898D01*
X102587400Y-107592103D01*
X102573113Y-107737164D01*
X102535472Y-107861248D01*
X102516652Y-107923291D01*
X102424964Y-108094825D01*
X102301575Y-108245175D01*
X102151224Y-108368566D01*
X101979693Y-108460251D01*
X101931260Y-108474943D01*
X101793563Y-108516713D01*
X101600000Y-108535777D01*
X101406436Y-108516713D01*
X101282352Y-108479072D01*
X101220309Y-108460252D01*
X101128622Y-108411244D01*
X101048776Y-108368565D01*
X100898425Y-108245175D01*
X100775034Y-108094824D01*
X100683349Y-107923293D01*
X100668657Y-107874860D01*
X100626887Y-107737163D01*
X100612600Y-107592102D01*
X100612600Y-106783897D01*
X100626887Y-106638836D01*
X100683349Y-106452710D01*
X100775036Y-106281176D01*
X100898426Y-106130825D01*
X101048777Y-106007435D01*
X101128623Y-105964756D01*
X101220310Y-105915748D01*
X101282353Y-105896928D01*
X101406437Y-105859287D01*
X101600000Y-105840223D01*
X101793564Y-105859287D01*
X101793564Y-105859287D01*
G37*
G36*
X91633564Y-105859287D02*
X91757648Y-105896928D01*
X91819691Y-105915748D01*
X91911378Y-105964756D01*
X91991224Y-106007435D01*
X91991226Y-106007436D01*
X91991225Y-106007436D01*
X92141575Y-106130825D01*
X92264964Y-106281175D01*
X92356652Y-106452709D01*
X92356652Y-106452710D01*
X92413113Y-106638837D01*
X92427400Y-106783898D01*
X92427400Y-107592103D01*
X92413113Y-107737164D01*
X92375472Y-107861248D01*
X92356652Y-107923291D01*
X92264964Y-108094825D01*
X92141575Y-108245175D01*
X91991224Y-108368566D01*
X91819693Y-108460251D01*
X91771260Y-108474943D01*
X91633563Y-108516713D01*
X91440000Y-108535777D01*
X91246436Y-108516713D01*
X91122352Y-108479072D01*
X91060309Y-108460252D01*
X90968622Y-108411244D01*
X90888776Y-108368565D01*
X90738425Y-108245175D01*
X90615034Y-108094824D01*
X90523349Y-107923293D01*
X90508657Y-107874860D01*
X90466887Y-107737163D01*
X90452600Y-107592102D01*
X90452600Y-106783897D01*
X90466887Y-106638836D01*
X90523349Y-106452710D01*
X90615036Y-106281176D01*
X90738426Y-106130825D01*
X90888777Y-106007435D01*
X90968623Y-105964756D01*
X91060310Y-105915748D01*
X91122353Y-105896928D01*
X91246437Y-105859287D01*
X91440000Y-105840223D01*
X91633564Y-105859287D01*
X91633564Y-105859287D01*
G37*
G36*
X89093564Y-105859287D02*
X89217648Y-105896928D01*
X89279691Y-105915748D01*
X89371378Y-105964756D01*
X89451224Y-106007435D01*
X89451226Y-106007436D01*
X89451225Y-106007436D01*
X89601575Y-106130825D01*
X89724964Y-106281175D01*
X89816652Y-106452709D01*
X89816652Y-106452710D01*
X89873113Y-106638837D01*
X89887400Y-106783898D01*
X89887400Y-107592103D01*
X89873113Y-107737164D01*
X89835472Y-107861248D01*
X89816652Y-107923291D01*
X89724964Y-108094825D01*
X89601575Y-108245175D01*
X89451224Y-108368566D01*
X89279693Y-108460251D01*
X89231260Y-108474943D01*
X89093563Y-108516713D01*
X88900000Y-108535777D01*
X88706436Y-108516713D01*
X88582352Y-108479072D01*
X88520309Y-108460252D01*
X88428622Y-108411244D01*
X88348776Y-108368565D01*
X88198425Y-108245175D01*
X88075034Y-108094824D01*
X87983349Y-107923293D01*
X87968657Y-107874860D01*
X87926887Y-107737163D01*
X87912600Y-107592102D01*
X87912600Y-106783897D01*
X87926887Y-106638836D01*
X87983349Y-106452710D01*
X88075036Y-106281176D01*
X88198426Y-106130825D01*
X88348777Y-106007435D01*
X88428623Y-105964756D01*
X88520310Y-105915748D01*
X88582353Y-105896928D01*
X88706437Y-105859287D01*
X88900000Y-105840223D01*
X89093564Y-105859287D01*
X89093564Y-105859287D01*
G37*
G36*
X86553564Y-105859287D02*
X86677648Y-105896928D01*
X86739691Y-105915748D01*
X86831378Y-105964756D01*
X86911224Y-106007435D01*
X86911226Y-106007436D01*
X86911225Y-106007436D01*
X87061575Y-106130825D01*
X87184964Y-106281175D01*
X87276652Y-106452709D01*
X87276652Y-106452710D01*
X87333113Y-106638837D01*
X87347400Y-106783898D01*
X87347400Y-107592103D01*
X87333113Y-107737164D01*
X87295472Y-107861248D01*
X87276652Y-107923291D01*
X87184964Y-108094825D01*
X87061575Y-108245175D01*
X86911224Y-108368566D01*
X86739693Y-108460251D01*
X86691260Y-108474943D01*
X86553563Y-108516713D01*
X86360000Y-108535777D01*
X86166436Y-108516713D01*
X86042352Y-108479072D01*
X85980309Y-108460252D01*
X85888622Y-108411244D01*
X85808776Y-108368565D01*
X85658425Y-108245175D01*
X85535034Y-108094824D01*
X85443349Y-107923293D01*
X85428657Y-107874860D01*
X85386887Y-107737163D01*
X85372600Y-107592102D01*
X85372600Y-106783897D01*
X85386887Y-106638836D01*
X85443349Y-106452710D01*
X85535036Y-106281176D01*
X85658426Y-106130825D01*
X85808777Y-106007435D01*
X85888623Y-105964756D01*
X85980310Y-105915748D01*
X86042353Y-105896928D01*
X86166437Y-105859287D01*
X86360000Y-105840223D01*
X86553564Y-105859287D01*
X86553564Y-105859287D01*
G37*
G36*
X84013564Y-105859287D02*
X84137648Y-105896928D01*
X84199691Y-105915748D01*
X84291378Y-105964756D01*
X84371224Y-106007435D01*
X84371226Y-106007436D01*
X84371225Y-106007436D01*
X84521575Y-106130825D01*
X84644964Y-106281175D01*
X84736652Y-106452709D01*
X84736652Y-106452710D01*
X84793113Y-106638837D01*
X84807400Y-106783898D01*
X84807400Y-107592103D01*
X84793113Y-107737164D01*
X84755472Y-107861248D01*
X84736652Y-107923291D01*
X84644964Y-108094825D01*
X84521575Y-108245175D01*
X84371224Y-108368566D01*
X84199693Y-108460251D01*
X84151260Y-108474943D01*
X84013563Y-108516713D01*
X83820000Y-108535777D01*
X83626436Y-108516713D01*
X83502352Y-108479072D01*
X83440309Y-108460252D01*
X83348622Y-108411244D01*
X83268776Y-108368565D01*
X83118425Y-108245175D01*
X82995034Y-108094824D01*
X82903349Y-107923293D01*
X82888657Y-107874860D01*
X82846887Y-107737163D01*
X82832600Y-107592102D01*
X82832600Y-106783897D01*
X82846887Y-106638836D01*
X82903349Y-106452710D01*
X82995036Y-106281176D01*
X83118426Y-106130825D01*
X83268777Y-106007435D01*
X83348623Y-105964756D01*
X83440310Y-105915748D01*
X83502353Y-105896928D01*
X83626437Y-105859287D01*
X83820000Y-105840223D01*
X84013564Y-105859287D01*
X84013564Y-105859287D01*
G37*
G36*
X78933564Y-105859287D02*
X79057648Y-105896928D01*
X79119691Y-105915748D01*
X79211378Y-105964756D01*
X79291224Y-106007435D01*
X79291226Y-106007436D01*
X79291225Y-106007436D01*
X79441575Y-106130825D01*
X79564964Y-106281175D01*
X79656652Y-106452709D01*
X79656652Y-106452710D01*
X79713113Y-106638837D01*
X79727400Y-106783898D01*
X79727400Y-107592103D01*
X79713113Y-107737164D01*
X79675472Y-107861248D01*
X79656652Y-107923291D01*
X79564964Y-108094825D01*
X79441575Y-108245175D01*
X79291224Y-108368566D01*
X79119693Y-108460251D01*
X79071260Y-108474943D01*
X78933563Y-108516713D01*
X78740000Y-108535777D01*
X78546436Y-108516713D01*
X78422352Y-108479072D01*
X78360309Y-108460252D01*
X78268622Y-108411244D01*
X78188776Y-108368565D01*
X78038425Y-108245175D01*
X77915034Y-108094824D01*
X77823349Y-107923293D01*
X77808657Y-107874860D01*
X77766887Y-107737163D01*
X77752600Y-107592102D01*
X77752600Y-106783897D01*
X77766887Y-106638836D01*
X77823349Y-106452710D01*
X77915036Y-106281176D01*
X78038426Y-106130825D01*
X78188777Y-106007435D01*
X78268623Y-105964756D01*
X78360310Y-105915748D01*
X78422353Y-105896928D01*
X78546437Y-105859287D01*
X78740000Y-105840223D01*
X78933564Y-105859287D01*
X78933564Y-105859287D01*
G37*
G36*
X73853564Y-105859287D02*
X73977648Y-105896928D01*
X74039691Y-105915748D01*
X74131378Y-105964756D01*
X74211224Y-106007435D01*
X74211226Y-106007436D01*
X74211225Y-106007436D01*
X74361575Y-106130825D01*
X74484964Y-106281175D01*
X74576652Y-106452709D01*
X74576652Y-106452710D01*
X74633113Y-106638837D01*
X74647400Y-106783898D01*
X74647400Y-107592103D01*
X74633113Y-107737164D01*
X74595472Y-107861248D01*
X74576652Y-107923291D01*
X74484964Y-108094825D01*
X74361575Y-108245175D01*
X74211224Y-108368566D01*
X74039693Y-108460251D01*
X73991260Y-108474943D01*
X73853563Y-108516713D01*
X73660000Y-108535777D01*
X73466436Y-108516713D01*
X73342352Y-108479072D01*
X73280309Y-108460252D01*
X73188622Y-108411244D01*
X73108776Y-108368565D01*
X72958425Y-108245175D01*
X72835034Y-108094824D01*
X72743349Y-107923293D01*
X72728657Y-107874860D01*
X72686887Y-107737163D01*
X72672600Y-107592102D01*
X72672600Y-106783897D01*
X72686887Y-106638836D01*
X72743349Y-106452710D01*
X72835036Y-106281176D01*
X72958426Y-106130825D01*
X73108777Y-106007435D01*
X73188623Y-105964756D01*
X73280310Y-105915748D01*
X73342353Y-105896928D01*
X73466437Y-105859287D01*
X73660000Y-105840223D01*
X73853564Y-105859287D01*
X73853564Y-105859287D01*
G37*
G36*
X71313564Y-105859287D02*
X71437648Y-105896928D01*
X71499691Y-105915748D01*
X71591378Y-105964756D01*
X71671224Y-106007435D01*
X71671226Y-106007436D01*
X71671225Y-106007436D01*
X71821575Y-106130825D01*
X71944964Y-106281175D01*
X72036652Y-106452709D01*
X72036652Y-106452710D01*
X72093113Y-106638837D01*
X72107400Y-106783898D01*
X72107400Y-107592103D01*
X72093113Y-107737164D01*
X72055472Y-107861248D01*
X72036652Y-107923291D01*
X71944964Y-108094825D01*
X71821575Y-108245175D01*
X71671224Y-108368566D01*
X71499693Y-108460251D01*
X71451260Y-108474943D01*
X71313563Y-108516713D01*
X71120000Y-108535777D01*
X70926436Y-108516713D01*
X70802352Y-108479072D01*
X70740309Y-108460252D01*
X70648622Y-108411244D01*
X70568776Y-108368565D01*
X70418425Y-108245175D01*
X70295034Y-108094824D01*
X70203349Y-107923293D01*
X70188657Y-107874860D01*
X70146887Y-107737163D01*
X70132600Y-107592102D01*
X70132600Y-106783897D01*
X70146887Y-106638836D01*
X70203349Y-106452710D01*
X70295036Y-106281176D01*
X70418426Y-106130825D01*
X70568777Y-106007435D01*
X70648623Y-105964756D01*
X70740310Y-105915748D01*
X70802353Y-105896928D01*
X70926437Y-105859287D01*
X71120000Y-105840223D01*
X71313564Y-105859287D01*
X71313564Y-105859287D01*
G37*
G36*
X68773564Y-105859287D02*
X68897648Y-105896928D01*
X68959691Y-105915748D01*
X69051378Y-105964756D01*
X69131224Y-106007435D01*
X69131226Y-106007436D01*
X69131225Y-106007436D01*
X69281575Y-106130825D01*
X69404964Y-106281175D01*
X69496652Y-106452709D01*
X69496652Y-106452710D01*
X69553113Y-106638837D01*
X69567400Y-106783898D01*
X69567400Y-107592103D01*
X69553113Y-107737164D01*
X69515472Y-107861248D01*
X69496652Y-107923291D01*
X69404964Y-108094825D01*
X69281575Y-108245175D01*
X69131224Y-108368566D01*
X68959693Y-108460251D01*
X68911260Y-108474943D01*
X68773563Y-108516713D01*
X68580000Y-108535777D01*
X68386436Y-108516713D01*
X68262352Y-108479072D01*
X68200309Y-108460252D01*
X68108622Y-108411244D01*
X68028776Y-108368565D01*
X67878425Y-108245175D01*
X67755034Y-108094824D01*
X67663349Y-107923293D01*
X67648657Y-107874860D01*
X67606887Y-107737163D01*
X67592600Y-107592102D01*
X67592600Y-106783897D01*
X67606887Y-106638836D01*
X67663349Y-106452710D01*
X67755036Y-106281176D01*
X67878426Y-106130825D01*
X68028777Y-106007435D01*
X68108623Y-105964756D01*
X68200310Y-105915748D01*
X68262353Y-105896928D01*
X68386437Y-105859287D01*
X68580000Y-105840223D01*
X68773564Y-105859287D01*
X68773564Y-105859287D01*
G37*
G36*
X66233564Y-105859287D02*
X66357648Y-105896928D01*
X66419691Y-105915748D01*
X66511378Y-105964756D01*
X66591224Y-106007435D01*
X66591226Y-106007436D01*
X66591225Y-106007436D01*
X66741575Y-106130825D01*
X66864964Y-106281175D01*
X66956652Y-106452709D01*
X66956652Y-106452710D01*
X67013113Y-106638837D01*
X67027400Y-106783898D01*
X67027400Y-107592103D01*
X67013113Y-107737164D01*
X66975472Y-107861248D01*
X66956652Y-107923291D01*
X66864964Y-108094825D01*
X66741575Y-108245175D01*
X66591224Y-108368566D01*
X66419693Y-108460251D01*
X66371260Y-108474943D01*
X66233563Y-108516713D01*
X66040000Y-108535777D01*
X65846436Y-108516713D01*
X65722352Y-108479072D01*
X65660309Y-108460252D01*
X65568622Y-108411244D01*
X65488776Y-108368565D01*
X65338425Y-108245175D01*
X65215034Y-108094824D01*
X65123349Y-107923293D01*
X65108657Y-107874860D01*
X65066887Y-107737163D01*
X65052600Y-107592102D01*
X65052600Y-106783897D01*
X65066887Y-106638836D01*
X65123349Y-106452710D01*
X65215036Y-106281176D01*
X65338426Y-106130825D01*
X65488777Y-106007435D01*
X65568623Y-105964756D01*
X65660310Y-105915748D01*
X65722353Y-105896928D01*
X65846437Y-105859287D01*
X66040000Y-105840223D01*
X66233564Y-105859287D01*
X66233564Y-105859287D01*
G37*
G36*
X99253564Y-105859287D02*
X99377648Y-105896928D01*
X99439691Y-105915748D01*
X99531378Y-105964756D01*
X99611224Y-106007435D01*
X99611226Y-106007436D01*
X99611225Y-106007436D01*
X99761575Y-106130825D01*
X99884964Y-106281175D01*
X99976652Y-106452709D01*
X99976652Y-106452710D01*
X100033113Y-106638837D01*
X100047400Y-106783898D01*
X100047400Y-107592103D01*
X100033113Y-107737164D01*
X99995472Y-107861248D01*
X99976652Y-107923291D01*
X99884964Y-108094825D01*
X99761575Y-108245175D01*
X99611224Y-108368566D01*
X99439693Y-108460251D01*
X99391260Y-108474943D01*
X99253563Y-108516713D01*
X99060000Y-108535777D01*
X98866436Y-108516713D01*
X98742352Y-108479072D01*
X98680309Y-108460252D01*
X98588622Y-108411244D01*
X98508776Y-108368565D01*
X98358425Y-108245175D01*
X98235034Y-108094824D01*
X98143349Y-107923293D01*
X98128657Y-107874860D01*
X98086887Y-107737163D01*
X98072600Y-107592102D01*
X98072600Y-106783897D01*
X98086887Y-106638836D01*
X98143349Y-106452710D01*
X98235036Y-106281176D01*
X98358426Y-106130825D01*
X98508777Y-106007435D01*
X98588623Y-105964756D01*
X98680310Y-105915748D01*
X98742353Y-105896928D01*
X98866437Y-105859287D01*
X99060000Y-105840223D01*
X99253564Y-105859287D01*
X99253564Y-105859287D01*
G37*
G36*
X81473564Y-105859287D02*
X81597648Y-105896928D01*
X81659691Y-105915748D01*
X81751378Y-105964756D01*
X81831224Y-106007435D01*
X81831226Y-106007436D01*
X81831225Y-106007436D01*
X81981575Y-106130825D01*
X82104964Y-106281175D01*
X82196652Y-106452709D01*
X82196652Y-106452710D01*
X82253113Y-106638837D01*
X82267400Y-106783898D01*
X82267400Y-107592103D01*
X82253113Y-107737164D01*
X82215472Y-107861248D01*
X82196652Y-107923291D01*
X82104964Y-108094825D01*
X81981575Y-108245175D01*
X81831224Y-108368566D01*
X81659693Y-108460251D01*
X81611260Y-108474943D01*
X81473563Y-108516713D01*
X81280000Y-108535777D01*
X81086436Y-108516713D01*
X80962352Y-108479072D01*
X80900309Y-108460252D01*
X80808622Y-108411244D01*
X80728776Y-108368565D01*
X80578425Y-108245175D01*
X80455034Y-108094824D01*
X80363349Y-107923293D01*
X80348657Y-107874860D01*
X80306887Y-107737163D01*
X80292600Y-107592102D01*
X80292600Y-106783897D01*
X80306887Y-106638836D01*
X80363349Y-106452710D01*
X80455036Y-106281176D01*
X80578426Y-106130825D01*
X80728777Y-106007435D01*
X80808623Y-105964756D01*
X80900310Y-105915748D01*
X80962353Y-105896928D01*
X81086437Y-105859287D01*
X81280000Y-105840223D01*
X81473564Y-105859287D01*
X81473564Y-105859287D01*
G37*
G36*
X123285876Y-101462605D02*
X123504172Y-101553026D01*
X123700633Y-101684297D01*
X123867703Y-101851367D01*
X123998974Y-102047828D01*
X124089395Y-102266124D01*
X124135490Y-102497859D01*
X124135490Y-102734141D01*
X124089395Y-102965876D01*
X123998974Y-103184172D01*
X123867703Y-103380633D01*
X123700633Y-103547703D01*
X123504172Y-103678974D01*
X123285876Y-103769395D01*
X123054141Y-103815490D01*
X122817859Y-103815490D01*
X122586124Y-103769395D01*
X122367828Y-103678974D01*
X122171367Y-103547703D01*
X122004297Y-103380633D01*
X121873026Y-103184172D01*
X121782605Y-102965876D01*
X121736510Y-102734141D01*
X121736510Y-102497859D01*
X121782605Y-102266124D01*
X121873026Y-102047828D01*
X122004297Y-101851367D01*
X122171367Y-101684297D01*
X122367828Y-101553026D01*
X122586124Y-101462605D01*
X122817859Y-101416510D01*
X123054141Y-101416510D01*
X123285876Y-101462605D01*
X123285876Y-101462605D01*
G37*
G36*
X65660707Y-98779596D02*
X65737836Y-98787193D01*
X65869787Y-98827220D01*
X65935763Y-98847233D01*
X66118172Y-98944733D01*
X66278054Y-99075946D01*
X66409267Y-99235828D01*
X66506767Y-99418237D01*
X66506767Y-99418238D01*
X66566807Y-99616164D01*
X66587080Y-99822000D01*
X66566807Y-100027836D01*
X66526780Y-100159787D01*
X66506767Y-100225763D01*
X66409267Y-100408172D01*
X66278054Y-100568054D01*
X66118172Y-100699267D01*
X65935763Y-100796767D01*
X65869787Y-100816780D01*
X65737836Y-100856807D01*
X65660707Y-100864403D01*
X65583580Y-100872000D01*
X65480420Y-100872000D01*
X65403293Y-100864403D01*
X65326164Y-100856807D01*
X65194213Y-100816780D01*
X65128237Y-100796767D01*
X64945828Y-100699267D01*
X64785946Y-100568054D01*
X64654733Y-100408172D01*
X64557233Y-100225763D01*
X64537220Y-100159787D01*
X64497193Y-100027836D01*
X64476920Y-99822000D01*
X64497193Y-99616164D01*
X64557233Y-99418238D01*
X64557233Y-99418237D01*
X64654733Y-99235828D01*
X64785946Y-99075946D01*
X64945828Y-98944733D01*
X65128237Y-98847233D01*
X65194213Y-98827220D01*
X65326164Y-98787193D01*
X65403293Y-98779596D01*
X65480420Y-98772000D01*
X65583580Y-98772000D01*
X65660707Y-98779596D01*
X65660707Y-98779596D01*
G37*
G36*
X75820707Y-98779596D02*
X75897836Y-98787193D01*
X76029787Y-98827220D01*
X76095763Y-98847233D01*
X76278172Y-98944733D01*
X76438054Y-99075946D01*
X76569267Y-99235828D01*
X76666767Y-99418237D01*
X76666767Y-99418238D01*
X76726807Y-99616164D01*
X76747080Y-99822000D01*
X76726807Y-100027836D01*
X76686780Y-100159787D01*
X76666767Y-100225763D01*
X76569267Y-100408172D01*
X76438054Y-100568054D01*
X76278172Y-100699267D01*
X76095763Y-100796767D01*
X76029787Y-100816780D01*
X75897836Y-100856807D01*
X75820707Y-100864403D01*
X75743580Y-100872000D01*
X75640420Y-100872000D01*
X75563293Y-100864403D01*
X75486164Y-100856807D01*
X75354213Y-100816780D01*
X75288237Y-100796767D01*
X75105828Y-100699267D01*
X74945946Y-100568054D01*
X74814733Y-100408172D01*
X74717233Y-100225763D01*
X74697220Y-100159787D01*
X74657193Y-100027836D01*
X74636920Y-99822000D01*
X74657193Y-99616164D01*
X74717233Y-99418238D01*
X74717233Y-99418237D01*
X74814733Y-99235828D01*
X74945946Y-99075946D01*
X75105828Y-98944733D01*
X75288237Y-98847233D01*
X75354213Y-98827220D01*
X75486164Y-98787193D01*
X75563293Y-98779597D01*
X75640420Y-98772000D01*
X75743580Y-98772000D01*
X75820707Y-98779596D01*
X75820707Y-98779596D01*
G37*
G36*
X73280707Y-98779596D02*
X73357836Y-98787193D01*
X73489787Y-98827220D01*
X73555763Y-98847233D01*
X73738172Y-98944733D01*
X73898054Y-99075946D01*
X74029267Y-99235828D01*
X74126767Y-99418237D01*
X74126767Y-99418238D01*
X74186807Y-99616164D01*
X74207080Y-99822000D01*
X74186807Y-100027836D01*
X74146780Y-100159787D01*
X74126767Y-100225763D01*
X74029267Y-100408172D01*
X73898054Y-100568054D01*
X73738172Y-100699267D01*
X73555763Y-100796767D01*
X73489787Y-100816780D01*
X73357836Y-100856807D01*
X73280707Y-100864403D01*
X73203580Y-100872000D01*
X73100420Y-100872000D01*
X73023293Y-100864403D01*
X72946164Y-100856807D01*
X72814213Y-100816780D01*
X72748237Y-100796767D01*
X72565828Y-100699267D01*
X72405946Y-100568054D01*
X72274733Y-100408172D01*
X72177233Y-100225763D01*
X72157220Y-100159787D01*
X72117193Y-100027836D01*
X72096920Y-99822000D01*
X72117193Y-99616164D01*
X72177233Y-99418238D01*
X72177233Y-99418237D01*
X72274733Y-99235828D01*
X72405946Y-99075946D01*
X72565828Y-98944733D01*
X72748237Y-98847233D01*
X72814213Y-98827220D01*
X72946164Y-98787193D01*
X73023293Y-98779597D01*
X73100420Y-98772000D01*
X73203580Y-98772000D01*
X73280707Y-98779596D01*
X73280707Y-98779596D01*
G37*
G36*
X70740707Y-98779596D02*
X70817836Y-98787193D01*
X70949787Y-98827220D01*
X71015763Y-98847233D01*
X71198172Y-98944733D01*
X71358054Y-99075946D01*
X71489267Y-99235828D01*
X71586767Y-99418237D01*
X71586767Y-99418238D01*
X71646807Y-99616164D01*
X71667080Y-99822000D01*
X71646807Y-100027836D01*
X71606780Y-100159787D01*
X71586767Y-100225763D01*
X71489267Y-100408172D01*
X71358054Y-100568054D01*
X71198172Y-100699267D01*
X71015763Y-100796767D01*
X70949787Y-100816780D01*
X70817836Y-100856807D01*
X70740707Y-100864403D01*
X70663580Y-100872000D01*
X70560420Y-100872000D01*
X70483293Y-100864403D01*
X70406164Y-100856807D01*
X70274213Y-100816780D01*
X70208237Y-100796767D01*
X70025828Y-100699267D01*
X69865946Y-100568054D01*
X69734733Y-100408172D01*
X69637233Y-100225763D01*
X69617220Y-100159787D01*
X69577193Y-100027836D01*
X69556920Y-99822000D01*
X69577193Y-99616164D01*
X69637233Y-99418238D01*
X69637233Y-99418237D01*
X69734733Y-99235828D01*
X69865946Y-99075946D01*
X70025828Y-98944733D01*
X70208237Y-98847233D01*
X70274213Y-98827220D01*
X70406164Y-98787193D01*
X70483293Y-98779596D01*
X70560420Y-98772000D01*
X70663580Y-98772000D01*
X70740707Y-98779596D01*
X70740707Y-98779596D01*
G37*
G36*
X68200707Y-98779596D02*
X68277836Y-98787193D01*
X68409787Y-98827220D01*
X68475763Y-98847233D01*
X68658172Y-98944733D01*
X68818054Y-99075946D01*
X68949267Y-99235828D01*
X69046767Y-99418237D01*
X69046767Y-99418238D01*
X69106807Y-99616164D01*
X69127080Y-99822000D01*
X69106807Y-100027836D01*
X69066780Y-100159787D01*
X69046767Y-100225763D01*
X68949267Y-100408172D01*
X68818054Y-100568054D01*
X68658172Y-100699267D01*
X68475763Y-100796767D01*
X68409787Y-100816780D01*
X68277836Y-100856807D01*
X68200707Y-100864403D01*
X68123580Y-100872000D01*
X68020420Y-100872000D01*
X67943293Y-100864403D01*
X67866164Y-100856807D01*
X67734213Y-100816780D01*
X67668237Y-100796767D01*
X67485828Y-100699267D01*
X67325946Y-100568054D01*
X67194733Y-100408172D01*
X67097233Y-100225763D01*
X67077220Y-100159787D01*
X67037193Y-100027836D01*
X67016920Y-99822000D01*
X67037193Y-99616164D01*
X67097233Y-99418238D01*
X67097233Y-99418237D01*
X67194733Y-99235828D01*
X67325946Y-99075946D01*
X67485828Y-98944733D01*
X67668237Y-98847233D01*
X67734213Y-98827220D01*
X67866164Y-98787193D01*
X67943293Y-98779596D01*
X68020420Y-98772000D01*
X68123580Y-98772000D01*
X68200707Y-98779596D01*
X68200707Y-98779596D01*
G37*
G36*
X68200707Y-96239597D02*
X68277836Y-96247193D01*
X68409787Y-96287220D01*
X68475763Y-96307233D01*
X68658172Y-96404733D01*
X68818054Y-96535946D01*
X68949267Y-96695828D01*
X69046767Y-96878237D01*
X69046767Y-96878238D01*
X69106807Y-97076164D01*
X69127080Y-97282000D01*
X69106807Y-97487836D01*
X69066780Y-97619787D01*
X69046767Y-97685763D01*
X68949267Y-97868172D01*
X68818054Y-98028054D01*
X68658172Y-98159267D01*
X68475763Y-98256767D01*
X68409787Y-98276780D01*
X68277836Y-98316807D01*
X68200707Y-98324404D01*
X68123580Y-98332000D01*
X68020420Y-98332000D01*
X67943293Y-98324404D01*
X67866164Y-98316807D01*
X67734213Y-98276780D01*
X67668237Y-98256767D01*
X67485828Y-98159267D01*
X67325946Y-98028054D01*
X67194733Y-97868172D01*
X67097233Y-97685763D01*
X67077220Y-97619787D01*
X67037193Y-97487836D01*
X67016920Y-97282000D01*
X67037193Y-97076164D01*
X67097233Y-96878238D01*
X67097233Y-96878237D01*
X67194733Y-96695828D01*
X67325946Y-96535946D01*
X67485828Y-96404733D01*
X67668237Y-96307233D01*
X67734213Y-96287220D01*
X67866164Y-96247193D01*
X67943293Y-96239597D01*
X68020420Y-96232000D01*
X68123580Y-96232000D01*
X68200707Y-96239597D01*
X68200707Y-96239597D01*
G37*
G36*
X76742000Y-98332000D02*
X74642000Y-98332000D01*
X74642000Y-96232000D01*
X76742000Y-96232000D01*
X76742000Y-98332000D01*
X76742000Y-98332000D01*
G37*
G36*
X73280707Y-96239597D02*
X73357836Y-96247193D01*
X73489787Y-96287220D01*
X73555763Y-96307233D01*
X73738172Y-96404733D01*
X73898054Y-96535946D01*
X74029267Y-96695828D01*
X74126767Y-96878237D01*
X74126767Y-96878238D01*
X74186807Y-97076164D01*
X74207080Y-97282000D01*
X74186807Y-97487836D01*
X74146780Y-97619787D01*
X74126767Y-97685763D01*
X74029267Y-97868172D01*
X73898054Y-98028054D01*
X73738172Y-98159267D01*
X73555763Y-98256767D01*
X73489787Y-98276780D01*
X73357836Y-98316807D01*
X73280707Y-98324404D01*
X73203580Y-98332000D01*
X73100420Y-98332000D01*
X73023293Y-98324404D01*
X72946164Y-98316807D01*
X72814213Y-98276780D01*
X72748237Y-98256767D01*
X72565828Y-98159267D01*
X72405946Y-98028054D01*
X72274733Y-97868172D01*
X72177233Y-97685763D01*
X72157220Y-97619787D01*
X72117193Y-97487836D01*
X72096920Y-97282000D01*
X72117193Y-97076164D01*
X72177233Y-96878238D01*
X72177233Y-96878237D01*
X72274733Y-96695828D01*
X72405946Y-96535946D01*
X72565828Y-96404733D01*
X72748237Y-96307233D01*
X72814213Y-96287220D01*
X72946164Y-96247193D01*
X73023293Y-96239597D01*
X73100420Y-96232000D01*
X73203580Y-96232000D01*
X73280707Y-96239597D01*
X73280707Y-96239597D01*
G37*
G36*
X70740707Y-96239597D02*
X70817836Y-96247193D01*
X70949787Y-96287220D01*
X71015763Y-96307233D01*
X71198172Y-96404733D01*
X71358054Y-96535946D01*
X71489267Y-96695828D01*
X71586767Y-96878237D01*
X71586767Y-96878238D01*
X71646807Y-97076164D01*
X71667080Y-97282000D01*
X71646807Y-97487836D01*
X71606780Y-97619787D01*
X71586767Y-97685763D01*
X71489267Y-97868172D01*
X71358054Y-98028054D01*
X71198172Y-98159267D01*
X71015763Y-98256767D01*
X70949787Y-98276780D01*
X70817836Y-98316807D01*
X70740707Y-98324404D01*
X70663580Y-98332000D01*
X70560420Y-98332000D01*
X70483293Y-98324404D01*
X70406164Y-98316807D01*
X70274213Y-98276780D01*
X70208237Y-98256767D01*
X70025828Y-98159267D01*
X69865946Y-98028054D01*
X69734733Y-97868172D01*
X69637233Y-97685763D01*
X69617220Y-97619787D01*
X69577193Y-97487836D01*
X69556920Y-97282000D01*
X69577193Y-97076164D01*
X69637233Y-96878238D01*
X69637233Y-96878237D01*
X69734733Y-96695828D01*
X69865946Y-96535946D01*
X70025828Y-96404733D01*
X70208237Y-96307233D01*
X70274213Y-96287220D01*
X70406164Y-96247193D01*
X70483293Y-96239597D01*
X70560420Y-96232000D01*
X70663580Y-96232000D01*
X70740707Y-96239597D01*
X70740707Y-96239597D01*
G37*
G36*
X65660707Y-96239597D02*
X65737836Y-96247193D01*
X65869787Y-96287220D01*
X65935763Y-96307233D01*
X66118172Y-96404733D01*
X66278054Y-96535946D01*
X66409267Y-96695828D01*
X66506767Y-96878237D01*
X66506767Y-96878238D01*
X66566807Y-97076164D01*
X66587080Y-97282000D01*
X66566807Y-97487836D01*
X66526780Y-97619787D01*
X66506767Y-97685763D01*
X66409267Y-97868172D01*
X66278054Y-98028054D01*
X66118172Y-98159267D01*
X65935763Y-98256767D01*
X65869787Y-98276780D01*
X65737836Y-98316807D01*
X65660707Y-98324404D01*
X65583580Y-98332000D01*
X65480420Y-98332000D01*
X65403293Y-98324404D01*
X65326164Y-98316807D01*
X65194213Y-98276780D01*
X65128237Y-98256767D01*
X64945828Y-98159267D01*
X64785946Y-98028054D01*
X64654733Y-97868172D01*
X64557233Y-97685763D01*
X64537220Y-97619787D01*
X64497193Y-97487836D01*
X64476920Y-97282000D01*
X64497193Y-97076164D01*
X64557233Y-96878238D01*
X64557233Y-96878237D01*
X64654733Y-96695828D01*
X64785946Y-96535946D01*
X64945828Y-96404733D01*
X65128237Y-96307233D01*
X65194213Y-96287220D01*
X65326164Y-96247193D01*
X65403293Y-96239597D01*
X65480420Y-96232000D01*
X65583580Y-96232000D01*
X65660707Y-96239597D01*
X65660707Y-96239597D01*
G37*
G36*
X82003777Y-77562530D02*
X82131472Y-77587930D01*
X82440852Y-77716079D01*
X82719287Y-77902123D01*
X82956077Y-78138913D01*
X83142121Y-78417348D01*
X83259749Y-78701328D01*
X83270270Y-78726729D01*
X83330548Y-79029763D01*
X83335600Y-79055165D01*
X83335600Y-79390035D01*
X83270270Y-79718472D01*
X83142121Y-80027852D01*
X82956077Y-80306287D01*
X82719287Y-80543077D01*
X82440852Y-80729121D01*
X82131472Y-80857270D01*
X82021993Y-80879047D01*
X81803037Y-80922600D01*
X81468163Y-80922600D01*
X81249207Y-80879047D01*
X81139728Y-80857270D01*
X80830348Y-80729121D01*
X80551913Y-80543077D01*
X80315123Y-80306287D01*
X80129079Y-80027852D01*
X80000930Y-79718472D01*
X79935600Y-79390035D01*
X79935600Y-79055165D01*
X79940653Y-79029763D01*
X80000930Y-78726729D01*
X80011451Y-78701328D01*
X80129079Y-78417348D01*
X80315123Y-78138913D01*
X80551913Y-77902123D01*
X80830348Y-77716079D01*
X81139728Y-77587930D01*
X81267423Y-77562530D01*
X81468163Y-77522600D01*
X81803037Y-77522600D01*
X82003777Y-77562530D01*
X82003777Y-77562530D01*
G37*
G36*
X92163777Y-77562530D02*
X92291472Y-77587930D01*
X92600852Y-77716079D01*
X92879287Y-77902123D01*
X93116077Y-78138913D01*
X93302121Y-78417348D01*
X93419749Y-78701328D01*
X93430270Y-78726729D01*
X93490548Y-79029763D01*
X93495600Y-79055165D01*
X93495600Y-79390035D01*
X93430270Y-79718472D01*
X93302121Y-80027852D01*
X93116077Y-80306287D01*
X92879287Y-80543077D01*
X92600852Y-80729121D01*
X92291472Y-80857270D01*
X92181993Y-80879047D01*
X91963037Y-80922600D01*
X91628163Y-80922600D01*
X91409207Y-80879047D01*
X91299728Y-80857270D01*
X90990348Y-80729121D01*
X90711913Y-80543077D01*
X90475123Y-80306287D01*
X90289079Y-80027852D01*
X90160930Y-79718472D01*
X90095600Y-79390035D01*
X90095600Y-79055165D01*
X90100653Y-79029763D01*
X90160930Y-78726729D01*
X90171451Y-78701328D01*
X90289079Y-78417348D01*
X90475123Y-78138913D01*
X90711913Y-77902123D01*
X90990348Y-77716079D01*
X91299728Y-77587930D01*
X91427423Y-77562530D01*
X91628163Y-77522600D01*
X91963037Y-77522600D01*
X92163777Y-77562530D01*
X92163777Y-77562530D01*
G37*
G36*
X87083777Y-77562530D02*
X87211472Y-77587930D01*
X87520852Y-77716079D01*
X87799287Y-77902123D01*
X88036077Y-78138913D01*
X88222121Y-78417348D01*
X88339749Y-78701328D01*
X88350270Y-78726729D01*
X88410548Y-79029763D01*
X88415600Y-79055165D01*
X88415600Y-79390035D01*
X88350270Y-79718472D01*
X88222121Y-80027852D01*
X88036077Y-80306287D01*
X87799287Y-80543077D01*
X87520852Y-80729121D01*
X87211472Y-80857270D01*
X87101993Y-80879047D01*
X86883037Y-80922600D01*
X86548163Y-80922600D01*
X86329207Y-80879047D01*
X86219728Y-80857270D01*
X85910348Y-80729121D01*
X85631913Y-80543077D01*
X85395123Y-80306287D01*
X85209079Y-80027852D01*
X85080930Y-79718472D01*
X85015600Y-79390035D01*
X85015600Y-79055165D01*
X85020653Y-79029763D01*
X85080930Y-78726729D01*
X85091451Y-78701328D01*
X85209079Y-78417348D01*
X85395123Y-78138913D01*
X85631913Y-77902123D01*
X85910348Y-77716079D01*
X86219728Y-77587930D01*
X86347423Y-77562530D01*
X86548163Y-77522600D01*
X86883037Y-77522600D01*
X87083777Y-77562530D01*
X87083777Y-77562530D01*
G37*
G36*
X76923777Y-77562530D02*
X77051472Y-77587930D01*
X77360852Y-77716079D01*
X77639287Y-77902123D01*
X77876077Y-78138913D01*
X78062121Y-78417348D01*
X78179749Y-78701328D01*
X78190270Y-78726729D01*
X78250548Y-79029763D01*
X78255600Y-79055165D01*
X78255600Y-79390035D01*
X78190270Y-79718472D01*
X78062121Y-80027852D01*
X77876077Y-80306287D01*
X77639287Y-80543077D01*
X77360852Y-80729121D01*
X77051472Y-80857270D01*
X76941993Y-80879047D01*
X76723037Y-80922600D01*
X76388163Y-80922600D01*
X76169207Y-80879047D01*
X76059728Y-80857270D01*
X75750348Y-80729121D01*
X75471913Y-80543077D01*
X75235123Y-80306287D01*
X75049079Y-80027852D01*
X74920930Y-79718472D01*
X74855600Y-79390035D01*
X74855600Y-79055165D01*
X74860653Y-79029763D01*
X74920930Y-78726729D01*
X74931451Y-78701328D01*
X75049079Y-78417348D01*
X75235123Y-78138913D01*
X75471913Y-77902123D01*
X75750348Y-77716079D01*
X76059728Y-77587930D01*
X76187423Y-77562530D01*
X76388163Y-77522600D01*
X76723037Y-77522600D01*
X76923777Y-77562530D01*
X76923777Y-77562530D01*
G37*
G36*
X68095600Y-80922600D02*
X64695600Y-80922600D01*
X64695600Y-77522600D01*
X68095600Y-77522600D01*
X68095600Y-80922600D01*
X68095600Y-80922600D01*
G37*
G36*
X71843777Y-77562530D02*
X71971472Y-77587930D01*
X72280852Y-77716079D01*
X72559287Y-77902123D01*
X72796077Y-78138913D01*
X72982121Y-78417348D01*
X73099749Y-78701328D01*
X73110270Y-78726729D01*
X73170548Y-79029763D01*
X73175600Y-79055165D01*
X73175600Y-79390035D01*
X73110270Y-79718472D01*
X72982121Y-80027852D01*
X72796077Y-80306287D01*
X72559287Y-80543077D01*
X72280852Y-80729121D01*
X71971472Y-80857270D01*
X71861993Y-80879047D01*
X71643037Y-80922600D01*
X71308163Y-80922600D01*
X71089207Y-80879047D01*
X70979728Y-80857270D01*
X70670348Y-80729121D01*
X70391913Y-80543077D01*
X70155123Y-80306287D01*
X69969079Y-80027852D01*
X69840930Y-79718472D01*
X69775600Y-79390035D01*
X69775600Y-79055165D01*
X69780653Y-79029763D01*
X69840930Y-78726729D01*
X69851451Y-78701328D01*
X69969079Y-78417348D01*
X70155123Y-78138913D01*
X70391913Y-77902123D01*
X70670348Y-77716079D01*
X70979728Y-77587930D01*
X71107423Y-77562530D01*
X71308163Y-77522600D01*
X71643037Y-77522600D01*
X71843777Y-77562530D01*
X71843777Y-77562530D01*
G37*
G36*
X124001000Y-80922600D02*
X120601000Y-80922600D01*
X120601000Y-77522600D01*
X124001000Y-77522600D01*
X124001000Y-80922600D01*
X124001000Y-80922600D01*
G37*
G36*
X117589177Y-77562530D02*
X117716872Y-77587930D01*
X118026252Y-77716079D01*
X118304687Y-77902123D01*
X118541477Y-78138913D01*
X118727521Y-78417348D01*
X118845149Y-78701328D01*
X118855670Y-78726729D01*
X118915948Y-79029763D01*
X118921000Y-79055165D01*
X118921000Y-79390035D01*
X118855670Y-79718472D01*
X118727521Y-80027852D01*
X118541477Y-80306287D01*
X118304687Y-80543077D01*
X118026252Y-80729121D01*
X117716872Y-80857270D01*
X117607393Y-80879047D01*
X117388437Y-80922600D01*
X117053563Y-80922600D01*
X116834607Y-80879047D01*
X116725128Y-80857270D01*
X116415748Y-80729121D01*
X116137313Y-80543077D01*
X115900523Y-80306287D01*
X115714479Y-80027852D01*
X115586330Y-79718472D01*
X115521000Y-79390035D01*
X115521000Y-79055165D01*
X115526053Y-79029763D01*
X115586330Y-78726729D01*
X115596851Y-78701328D01*
X115714479Y-78417348D01*
X115900523Y-78138913D01*
X116137313Y-77902123D01*
X116415748Y-77716079D01*
X116725128Y-77587930D01*
X116852823Y-77562530D01*
X117053563Y-77522600D01*
X117388437Y-77522600D01*
X117589177Y-77562530D01*
X117589177Y-77562530D01*
G37*
G36*
X98575600Y-80897200D02*
X95175600Y-80897200D01*
X95175600Y-77497200D01*
X98575600Y-77497200D01*
X98575600Y-80897200D01*
X98575600Y-80897200D01*
G37*
G36*
X102341993Y-77540753D02*
X102451472Y-77562530D01*
X102760852Y-77690679D01*
X103039287Y-77876723D01*
X103276077Y-78113513D01*
X103462121Y-78391948D01*
X103590270Y-78701328D01*
X103612047Y-78810807D01*
X103655600Y-79029763D01*
X103655600Y-79364637D01*
X103612047Y-79583593D01*
X103590270Y-79693072D01*
X103462121Y-80002452D01*
X103276077Y-80280887D01*
X103039287Y-80517677D01*
X102760852Y-80703721D01*
X102451472Y-80831870D01*
X102341993Y-80853647D01*
X102123037Y-80897200D01*
X101788163Y-80897200D01*
X101569207Y-80853647D01*
X101459728Y-80831870D01*
X101150348Y-80703721D01*
X100871913Y-80517677D01*
X100635123Y-80280887D01*
X100449079Y-80002452D01*
X100320930Y-79693072D01*
X100299153Y-79583593D01*
X100255600Y-79364637D01*
X100255600Y-79029763D01*
X100299153Y-78810807D01*
X100320930Y-78701328D01*
X100449079Y-78391948D01*
X100635123Y-78113513D01*
X100871913Y-77876723D01*
X101150348Y-77690679D01*
X101459728Y-77562530D01*
X101569207Y-77540753D01*
X101788163Y-77497200D01*
X102123037Y-77497200D01*
X102341993Y-77540753D01*
X102341993Y-77540753D01*
G37*
G36*
X107421993Y-77540753D02*
X107531472Y-77562530D01*
X107840852Y-77690679D01*
X108119287Y-77876723D01*
X108356077Y-78113513D01*
X108542121Y-78391948D01*
X108670270Y-78701328D01*
X108692047Y-78810807D01*
X108735600Y-79029763D01*
X108735600Y-79364637D01*
X108692047Y-79583593D01*
X108670270Y-79693072D01*
X108542121Y-80002452D01*
X108356077Y-80280887D01*
X108119287Y-80517677D01*
X107840852Y-80703721D01*
X107531472Y-80831870D01*
X107421993Y-80853647D01*
X107203037Y-80897200D01*
X106868163Y-80897200D01*
X106649207Y-80853647D01*
X106539728Y-80831870D01*
X106230348Y-80703721D01*
X105951913Y-80517677D01*
X105715123Y-80280887D01*
X105529079Y-80002452D01*
X105400930Y-79693072D01*
X105379153Y-79583593D01*
X105335600Y-79364637D01*
X105335600Y-79029763D01*
X105379153Y-78810807D01*
X105400930Y-78701328D01*
X105529079Y-78391948D01*
X105715123Y-78113513D01*
X105951913Y-77876723D01*
X106230348Y-77690679D01*
X106539728Y-77562530D01*
X106649207Y-77540753D01*
X106868163Y-77497200D01*
X107203037Y-77497200D01*
X107421993Y-77540753D01*
X107421993Y-77540753D01*
G37*
M02*
