G04 #@! TF.GenerationSoftware,KiCad,Pcbnew,5.0.2+dfsg1-1*
G04 #@! TF.CreationDate,2021-01-22T13:52:48+01:00*
G04 #@! TF.ProjectId,wat,7761742e-6b69-4636-9164-5f7063625858,rev?*
G04 #@! TF.SameCoordinates,Original*
G04 #@! TF.FileFunction,Copper,L2,Bot*
G04 #@! TF.FilePolarity,Positive*
%FSLAX46Y46*%
G04 Gerber Fmt 4.6, Leading zero omitted, Abs format (unit mm)*
G04 Created by KiCad (PCBNEW 5.0.2+dfsg1-1) date vie 22 ene 2021 13:52:48 CET*
%MOMM*%
%LPD*%
G01*
G04 APERTURE LIST*
G04 #@! TA.AperFunction,ComponentPad*
%ADD10C,3.000000*%
G04 #@! TD*
G04 #@! TA.AperFunction,ComponentPad*
%ADD11R,3.000000X3.000000*%
G04 #@! TD*
G04 #@! TA.AperFunction,ComponentPad*
%ADD12O,1.700000X1.700000*%
G04 #@! TD*
G04 #@! TA.AperFunction,ComponentPad*
%ADD13R,1.700000X1.700000*%
G04 #@! TD*
G04 #@! TA.AperFunction,ComponentPad*
%ADD14C,1.998980*%
G04 #@! TD*
G04 #@! TA.AperFunction,ComponentPad*
%ADD15O,1.574800X2.286000*%
G04 #@! TD*
G04 #@! TA.AperFunction,ViaPad*
%ADD16C,0.600000*%
G04 #@! TD*
G04 #@! TA.AperFunction,Conductor*
%ADD17C,1.200000*%
G04 #@! TD*
G04 #@! TA.AperFunction,Conductor*
%ADD18C,0.600000*%
G04 #@! TD*
G04 #@! TA.AperFunction,Conductor*
%ADD19C,0.254000*%
G04 #@! TD*
G04 APERTURE END LIST*
D10*
G04 #@! TO.P,J4,6*
G04 #@! TO.N,/D4*
X91795600Y-79222600D03*
G04 #@! TO.P,J4,5*
G04 #@! TO.N,/D5*
X86715600Y-79222600D03*
G04 #@! TO.P,J4,4*
G04 #@! TO.N,/D10*
X81635600Y-79222600D03*
D11*
G04 #@! TO.P,J4,1*
G04 #@! TO.N,VCC*
X66395600Y-79222600D03*
D10*
G04 #@! TO.P,J4,3*
G04 #@! TO.N,/D11*
X76555600Y-79222600D03*
G04 #@! TO.P,J4,2*
G04 #@! TO.N,/D12*
X71475600Y-79222600D03*
G04 #@! TD*
D12*
G04 #@! TO.P,J1,10*
G04 #@! TO.N,GND*
X65532000Y-99822000D03*
G04 #@! TO.P,J1,9*
G04 #@! TO.N,/vcc_5v*
X65532000Y-97282000D03*
G04 #@! TO.P,J1,8*
G04 #@! TO.N,/D9*
X68072000Y-99822000D03*
G04 #@! TO.P,J1,7*
G04 #@! TO.N,/vcc_5v*
X68072000Y-97282000D03*
G04 #@! TO.P,J1,6*
G04 #@! TO.N,/D8*
X70612000Y-99822000D03*
G04 #@! TO.P,J1,5*
G04 #@! TO.N,GND*
X70612000Y-97282000D03*
G04 #@! TO.P,J1,4*
G04 #@! TO.N,/D7*
X73152000Y-99822000D03*
G04 #@! TO.P,J1,3*
G04 #@! TO.N,/ard_rx*
X73152000Y-97282000D03*
G04 #@! TO.P,J1,2*
G04 #@! TO.N,/D6*
X75692000Y-99822000D03*
D13*
G04 #@! TO.P,J1,1*
G04 #@! TO.N,/ard_tx*
X75692000Y-97282000D03*
G04 #@! TD*
D10*
G04 #@! TO.P,J2,6*
G04 #@! TO.N,GND*
X122326400Y-154914600D03*
G04 #@! TO.P,J2,5*
G04 #@! TO.N,/jA7*
X117246400Y-154914600D03*
G04 #@! TO.P,J2,4*
G04 #@! TO.N,/jA6*
X112166400Y-154914600D03*
D11*
G04 #@! TO.P,J2,1*
G04 #@! TO.N,VCC*
X96926400Y-154914600D03*
D10*
G04 #@! TO.P,J2,3*
G04 #@! TO.N,/jA5*
X107086400Y-154914600D03*
G04 #@! TO.P,J2,2*
G04 #@! TO.N,/jA4*
X102006400Y-154914600D03*
G04 #@! TD*
D11*
G04 #@! TO.P,J3,1*
G04 #@! TO.N,/D3*
X96875600Y-79197200D03*
D10*
G04 #@! TO.P,J3,2*
G04 #@! TO.N,/D2*
X101955600Y-79197200D03*
G04 #@! TO.P,J3,3*
G04 #@! TO.N,GND*
X107035600Y-79197200D03*
G04 #@! TD*
G04 #@! TO.P,J5,2*
G04 #@! TO.N,/jA0*
X71551800Y-154940000D03*
G04 #@! TO.P,J5,3*
G04 #@! TO.N,/jA1*
X76631800Y-154940000D03*
D11*
G04 #@! TO.P,J5,1*
G04 #@! TO.N,VCC*
X66471800Y-154940000D03*
D10*
G04 #@! TO.P,J5,4*
G04 #@! TO.N,/jA2*
X81711800Y-154940000D03*
G04 #@! TO.P,J5,5*
G04 #@! TO.N,/jA3*
X86791800Y-154940000D03*
G04 #@! TO.P,J5,6*
G04 #@! TO.N,GND*
X91871800Y-154940000D03*
G04 #@! TD*
G04 #@! TO.P,P1,2*
G04 #@! TO.N,/vcc_5v*
X117221000Y-79222600D03*
D11*
G04 #@! TO.P,P1,1*
G04 #@! TO.N,GND*
X122301000Y-79222600D03*
G04 #@! TD*
D14*
G04 #@! TO.P,W1,1*
G04 #@! TO.N,VCC*
X122936000Y-102616000D03*
G04 #@! TD*
D15*
G04 #@! TO.P,U1,26*
G04 #@! TO.N,/A7*
X91440000Y-122428000D03*
G04 #@! TO.P,U1,25*
G04 #@! TO.N,/A6*
X88900000Y-122428000D03*
G04 #@! TO.P,U1,24*
G04 #@! TO.N,/A5*
X86360000Y-122428000D03*
G04 #@! TO.P,U1,23*
G04 #@! TO.N,/A4*
X83820000Y-122428000D03*
G04 #@! TO.P,U1,22*
G04 #@! TO.N,/A3*
X81280000Y-122428000D03*
G04 #@! TO.P,U1,21*
G04 #@! TO.N,/A2*
X78740000Y-122428000D03*
G04 #@! TO.P,U1,20*
G04 #@! TO.N,/A1*
X76200000Y-122428000D03*
G04 #@! TO.P,U1,16*
G04 #@! TO.N,Net-(U1-Pad16)*
X66040000Y-122428000D03*
G04 #@! TO.P,U1,15*
G04 #@! TO.N,/D12*
X66040000Y-107188000D03*
G04 #@! TO.P,U1,14*
G04 #@! TO.N,/D11*
X68580000Y-107188000D03*
G04 #@! TO.P,U1,13*
G04 #@! TO.N,/D10*
X71120000Y-107188000D03*
G04 #@! TO.P,U1,12*
G04 #@! TO.N,/D9*
X73660000Y-107188000D03*
G04 #@! TO.P,U1,11*
G04 #@! TO.N,/D8*
X76200000Y-107188000D03*
G04 #@! TO.P,U1,10*
G04 #@! TO.N,/D7*
X78740000Y-107188000D03*
G04 #@! TO.P,U1,9*
G04 #@! TO.N,/D6*
X81280000Y-107188000D03*
G04 #@! TO.P,U1,8*
G04 #@! TO.N,/D5*
X83820000Y-107188000D03*
G04 #@! TO.P,U1,7*
G04 #@! TO.N,/D4*
X86360000Y-107188000D03*
G04 #@! TO.P,U1,6*
G04 #@! TO.N,/D3*
X88900000Y-107188000D03*
G04 #@! TO.P,U1,5*
G04 #@! TO.N,/D2*
X91440000Y-107188000D03*
G04 #@! TO.P,U1,1*
G04 #@! TO.N,/ard_tx*
X101600000Y-107188000D03*
G04 #@! TO.P,U1,17*
G04 #@! TO.N,Net-(U1-Pad17)*
X68580000Y-122428000D03*
G04 #@! TO.P,U1,18*
G04 #@! TO.N,Net-(U1-Pad18)*
X71120000Y-122428000D03*
G04 #@! TO.P,U1,19*
G04 #@! TO.N,/A0*
X73660000Y-122428000D03*
G04 #@! TO.P,U1,27*
G04 #@! TO.N,VCC*
X93980000Y-122428000D03*
G04 #@! TO.P,U1,28*
G04 #@! TO.N,Net-(U1-Pad28)*
X96520000Y-122428000D03*
G04 #@! TO.P,U1,29*
G04 #@! TO.N,GND*
X99060000Y-122428000D03*
G04 #@! TO.P,U1,30*
G04 #@! TO.N,Net-(U1-Pad30)*
X101600000Y-122428000D03*
G04 #@! TO.P,U1,4*
G04 #@! TO.N,GND*
X93980000Y-107188000D03*
G04 #@! TO.P,U1,3*
G04 #@! TO.N,Net-(U1-Pad3)*
X96520000Y-107188000D03*
G04 #@! TO.P,U1,2*
G04 #@! TO.N,/ard_rx*
X99060000Y-107188000D03*
G04 #@! TD*
D16*
G04 #@! TO.N,VCC*
X79756000Y-83312000D03*
X95980000Y-88138000D03*
X113030000Y-90678000D03*
X113030000Y-93980000D03*
X66395600Y-81922600D03*
G04 #@! TD*
D17*
G04 #@! TO.N,VCC*
X113030000Y-90678000D02*
X110490000Y-88138000D01*
X66395600Y-81922600D02*
X66395600Y-79222600D01*
X66471800Y-154940000D02*
X66471800Y-147904200D01*
X66471800Y-147904200D02*
X73406000Y-140970000D01*
X73406000Y-140970000D02*
X87122000Y-140970000D01*
X93980000Y-134112000D02*
X93980000Y-122428000D01*
X87122000Y-140970000D02*
X93980000Y-134112000D01*
X96926400Y-150774400D02*
X87122000Y-140970000D01*
X96926400Y-154914600D02*
X96926400Y-150774400D01*
X118872000Y-102616000D02*
X113030000Y-96774000D01*
X122936000Y-102616000D02*
X118872000Y-102616000D01*
D18*
X79756000Y-83312000D02*
X79756000Y-88138000D01*
D17*
X79756000Y-88138000D02*
X72611000Y-88138000D01*
X110490000Y-88138000D02*
X92964000Y-88138000D01*
X92964000Y-88138000D02*
X79756000Y-88138000D01*
X72611000Y-88138000D02*
X67056000Y-82583000D01*
X67056000Y-82583000D02*
X66395600Y-81922600D01*
X113030000Y-96774000D02*
X113030000Y-94996000D01*
X113030000Y-94996000D02*
X113030000Y-93980000D01*
X113030000Y-93980000D02*
X113030000Y-90678000D01*
D18*
G04 #@! TO.N,/ard_rx*
X99060000Y-107188000D02*
X99060000Y-106832400D01*
X99060000Y-107188000D02*
X99060000Y-111506000D01*
X73152000Y-95504000D02*
X73152000Y-97282000D01*
X72136000Y-94488000D02*
X73152000Y-95504000D01*
X64008000Y-94488000D02*
X72136000Y-94488000D01*
X62484000Y-96012000D02*
X64008000Y-94488000D01*
X62484000Y-110236000D02*
X62484000Y-96012000D01*
X64516000Y-112268000D02*
X62484000Y-110236000D01*
X98298000Y-112268000D02*
X64516000Y-112268000D01*
X99060000Y-111506000D02*
X98298000Y-112268000D01*
G04 #@! TO.N,/ard_tx*
X93437000Y-97282000D02*
X91186000Y-97282000D01*
X101600000Y-105445000D02*
X93437000Y-97282000D01*
X101600000Y-107188000D02*
X101600000Y-105445000D01*
X75692000Y-97282000D02*
X91186000Y-97282000D01*
X91186000Y-97282000D02*
X92456000Y-97282000D01*
G04 #@! TO.N,/D9*
X68072000Y-99822000D02*
X68072000Y-99885500D01*
X73660000Y-105473500D02*
X73660000Y-107188000D01*
X68072000Y-99885500D02*
X73660000Y-105473500D01*
G04 #@! TO.N,/D8*
X70612000Y-99822000D02*
X76136500Y-105346500D01*
X76136500Y-107124500D02*
X76200000Y-107188000D01*
X76136500Y-105346500D02*
X76136500Y-107124500D01*
G04 #@! TO.N,/D7*
X73152000Y-99822000D02*
X73152000Y-100076000D01*
X78740000Y-105664000D02*
X78740000Y-107188000D01*
X73152000Y-100076000D02*
X78740000Y-105664000D01*
G04 #@! TO.N,/D6*
X75692000Y-99822000D02*
X77152500Y-99822000D01*
X81280000Y-103949500D02*
X81280000Y-107188000D01*
X77152500Y-99822000D02*
X81280000Y-103949500D01*
G04 #@! TD*
D19*
G04 #@! TO.N,GND*
G36*
X127687001Y-159818000D02*
X61162000Y-159818000D01*
X61162000Y-153440000D01*
X64324360Y-153440000D01*
X64324360Y-156440000D01*
X64373643Y-156687765D01*
X64513991Y-156897809D01*
X64724035Y-157038157D01*
X64971800Y-157087440D01*
X67971800Y-157087440D01*
X68219565Y-157038157D01*
X68429609Y-156897809D01*
X68569957Y-156687765D01*
X68619240Y-156440000D01*
X68619240Y-154515322D01*
X69416800Y-154515322D01*
X69416800Y-155364678D01*
X69741834Y-156149380D01*
X70342420Y-156749966D01*
X71127122Y-157075000D01*
X71976478Y-157075000D01*
X72761180Y-156749966D01*
X73361766Y-156149380D01*
X73686800Y-155364678D01*
X73686800Y-154515322D01*
X74496800Y-154515322D01*
X74496800Y-155364678D01*
X74821834Y-156149380D01*
X75422420Y-156749966D01*
X76207122Y-157075000D01*
X77056478Y-157075000D01*
X77841180Y-156749966D01*
X78441766Y-156149380D01*
X78766800Y-155364678D01*
X78766800Y-154515322D01*
X79576800Y-154515322D01*
X79576800Y-155364678D01*
X79901834Y-156149380D01*
X80502420Y-156749966D01*
X81287122Y-157075000D01*
X82136478Y-157075000D01*
X82921180Y-156749966D01*
X83521766Y-156149380D01*
X83846800Y-155364678D01*
X83846800Y-154515322D01*
X84656800Y-154515322D01*
X84656800Y-155364678D01*
X84981834Y-156149380D01*
X85582420Y-156749966D01*
X86367122Y-157075000D01*
X87216478Y-157075000D01*
X88001180Y-156749966D01*
X88297176Y-156453970D01*
X90537435Y-156453970D01*
X90697218Y-156772739D01*
X91487987Y-157082723D01*
X92337187Y-157066497D01*
X93046382Y-156772739D01*
X93206165Y-156453970D01*
X91871800Y-155119605D01*
X90537435Y-156453970D01*
X88297176Y-156453970D01*
X88601766Y-156149380D01*
X88926800Y-155364678D01*
X88926800Y-154556187D01*
X89729077Y-154556187D01*
X89745303Y-155405387D01*
X90039061Y-156114582D01*
X90357830Y-156274365D01*
X91692195Y-154940000D01*
X92051405Y-154940000D01*
X93385770Y-156274365D01*
X93704539Y-156114582D01*
X94014523Y-155323813D01*
X93998297Y-154474613D01*
X93704539Y-153765418D01*
X93385770Y-153605635D01*
X92051405Y-154940000D01*
X91692195Y-154940000D01*
X90357830Y-153605635D01*
X90039061Y-153765418D01*
X89729077Y-154556187D01*
X88926800Y-154556187D01*
X88926800Y-154515322D01*
X88601766Y-153730620D01*
X88297176Y-153426030D01*
X90537435Y-153426030D01*
X91871800Y-154760395D01*
X93206165Y-153426030D01*
X93046382Y-153107261D01*
X92255613Y-152797277D01*
X91406413Y-152813503D01*
X90697218Y-153107261D01*
X90537435Y-153426030D01*
X88297176Y-153426030D01*
X88001180Y-153130034D01*
X87216478Y-152805000D01*
X86367122Y-152805000D01*
X85582420Y-153130034D01*
X84981834Y-153730620D01*
X84656800Y-154515322D01*
X83846800Y-154515322D01*
X83521766Y-153730620D01*
X82921180Y-153130034D01*
X82136478Y-152805000D01*
X81287122Y-152805000D01*
X80502420Y-153130034D01*
X79901834Y-153730620D01*
X79576800Y-154515322D01*
X78766800Y-154515322D01*
X78441766Y-153730620D01*
X77841180Y-153130034D01*
X77056478Y-152805000D01*
X76207122Y-152805000D01*
X75422420Y-153130034D01*
X74821834Y-153730620D01*
X74496800Y-154515322D01*
X73686800Y-154515322D01*
X73361766Y-153730620D01*
X72761180Y-153130034D01*
X71976478Y-152805000D01*
X71127122Y-152805000D01*
X70342420Y-153130034D01*
X69741834Y-153730620D01*
X69416800Y-154515322D01*
X68619240Y-154515322D01*
X68619240Y-153440000D01*
X68569957Y-153192235D01*
X68429609Y-152982191D01*
X68219565Y-152841843D01*
X67971800Y-152792560D01*
X67706800Y-152792560D01*
X67706800Y-148415753D01*
X73917554Y-142205000D01*
X86610447Y-142205000D01*
X95691401Y-151285955D01*
X95691401Y-152767160D01*
X95426400Y-152767160D01*
X95178635Y-152816443D01*
X94968591Y-152956791D01*
X94828243Y-153166835D01*
X94778960Y-153414600D01*
X94778960Y-156414600D01*
X94828243Y-156662365D01*
X94968591Y-156872409D01*
X95178635Y-157012757D01*
X95426400Y-157062040D01*
X98426400Y-157062040D01*
X98674165Y-157012757D01*
X98884209Y-156872409D01*
X99024557Y-156662365D01*
X99073840Y-156414600D01*
X99073840Y-154489922D01*
X99871400Y-154489922D01*
X99871400Y-155339278D01*
X100196434Y-156123980D01*
X100797020Y-156724566D01*
X101581722Y-157049600D01*
X102431078Y-157049600D01*
X103215780Y-156724566D01*
X103816366Y-156123980D01*
X104141400Y-155339278D01*
X104141400Y-154489922D01*
X104951400Y-154489922D01*
X104951400Y-155339278D01*
X105276434Y-156123980D01*
X105877020Y-156724566D01*
X106661722Y-157049600D01*
X107511078Y-157049600D01*
X108295780Y-156724566D01*
X108896366Y-156123980D01*
X109221400Y-155339278D01*
X109221400Y-154489922D01*
X110031400Y-154489922D01*
X110031400Y-155339278D01*
X110356434Y-156123980D01*
X110957020Y-156724566D01*
X111741722Y-157049600D01*
X112591078Y-157049600D01*
X113375780Y-156724566D01*
X113976366Y-156123980D01*
X114301400Y-155339278D01*
X114301400Y-154489922D01*
X115111400Y-154489922D01*
X115111400Y-155339278D01*
X115436434Y-156123980D01*
X116037020Y-156724566D01*
X116821722Y-157049600D01*
X117671078Y-157049600D01*
X118455780Y-156724566D01*
X118751776Y-156428570D01*
X120992035Y-156428570D01*
X121151818Y-156747339D01*
X121942587Y-157057323D01*
X122791787Y-157041097D01*
X123500982Y-156747339D01*
X123660765Y-156428570D01*
X122326400Y-155094205D01*
X120992035Y-156428570D01*
X118751776Y-156428570D01*
X119056366Y-156123980D01*
X119381400Y-155339278D01*
X119381400Y-154530787D01*
X120183677Y-154530787D01*
X120199903Y-155379987D01*
X120493661Y-156089182D01*
X120812430Y-156248965D01*
X122146795Y-154914600D01*
X122506005Y-154914600D01*
X123840370Y-156248965D01*
X124159139Y-156089182D01*
X124469123Y-155298413D01*
X124452897Y-154449213D01*
X124159139Y-153740018D01*
X123840370Y-153580235D01*
X122506005Y-154914600D01*
X122146795Y-154914600D01*
X120812430Y-153580235D01*
X120493661Y-153740018D01*
X120183677Y-154530787D01*
X119381400Y-154530787D01*
X119381400Y-154489922D01*
X119056366Y-153705220D01*
X118751776Y-153400630D01*
X120992035Y-153400630D01*
X122326400Y-154734995D01*
X123660765Y-153400630D01*
X123500982Y-153081861D01*
X122710213Y-152771877D01*
X121861013Y-152788103D01*
X121151818Y-153081861D01*
X120992035Y-153400630D01*
X118751776Y-153400630D01*
X118455780Y-153104634D01*
X117671078Y-152779600D01*
X116821722Y-152779600D01*
X116037020Y-153104634D01*
X115436434Y-153705220D01*
X115111400Y-154489922D01*
X114301400Y-154489922D01*
X113976366Y-153705220D01*
X113375780Y-153104634D01*
X112591078Y-152779600D01*
X111741722Y-152779600D01*
X110957020Y-153104634D01*
X110356434Y-153705220D01*
X110031400Y-154489922D01*
X109221400Y-154489922D01*
X108896366Y-153705220D01*
X108295780Y-153104634D01*
X107511078Y-152779600D01*
X106661722Y-152779600D01*
X105877020Y-153104634D01*
X105276434Y-153705220D01*
X104951400Y-154489922D01*
X104141400Y-154489922D01*
X103816366Y-153705220D01*
X103215780Y-153104634D01*
X102431078Y-152779600D01*
X101581722Y-152779600D01*
X100797020Y-153104634D01*
X100196434Y-153705220D01*
X99871400Y-154489922D01*
X99073840Y-154489922D01*
X99073840Y-153414600D01*
X99024557Y-153166835D01*
X98884209Y-152956791D01*
X98674165Y-152816443D01*
X98426400Y-152767160D01*
X98161400Y-152767160D01*
X98161400Y-150896030D01*
X98185594Y-150774399D01*
X98161400Y-150652768D01*
X98161400Y-150652764D01*
X98089744Y-150292527D01*
X97816785Y-149884015D01*
X97713669Y-149815115D01*
X88868553Y-140970000D01*
X94767267Y-135071286D01*
X94870385Y-135002385D01*
X95143344Y-134593873D01*
X95215000Y-134233636D01*
X95215000Y-134233632D01*
X95239194Y-134112000D01*
X95215000Y-133990368D01*
X95215000Y-123495543D01*
X95250000Y-123443162D01*
X95494507Y-123809092D01*
X95965007Y-124123471D01*
X96520000Y-124233866D01*
X97074992Y-124123471D01*
X97545492Y-123809093D01*
X97792681Y-123439149D01*
X97794475Y-123445262D01*
X98144014Y-123879191D01*
X98633004Y-124146327D01*
X98712940Y-124163010D01*
X98933000Y-124040852D01*
X98933000Y-122555000D01*
X98913000Y-122555000D01*
X98913000Y-122301000D01*
X98933000Y-122301000D01*
X98933000Y-120815148D01*
X99187000Y-120815148D01*
X99187000Y-122301000D01*
X99207000Y-122301000D01*
X99207000Y-122555000D01*
X99187000Y-122555000D01*
X99187000Y-124040852D01*
X99407060Y-124163010D01*
X99486996Y-124146327D01*
X99975986Y-123879191D01*
X100325525Y-123445262D01*
X100327319Y-123439149D01*
X100574507Y-123809092D01*
X101045007Y-124123471D01*
X101600000Y-124233866D01*
X102154992Y-124123471D01*
X102625492Y-123809093D01*
X102939871Y-123338593D01*
X103022400Y-122923692D01*
X103022400Y-121932309D01*
X102939871Y-121517407D01*
X102625493Y-121046907D01*
X102154993Y-120732529D01*
X101600000Y-120622134D01*
X101045008Y-120732529D01*
X100574508Y-121046907D01*
X100327319Y-121416851D01*
X100325525Y-121410738D01*
X99975986Y-120976809D01*
X99486996Y-120709673D01*
X99407060Y-120692990D01*
X99187000Y-120815148D01*
X98933000Y-120815148D01*
X98712940Y-120692990D01*
X98633004Y-120709673D01*
X98144014Y-120976809D01*
X97794475Y-121410738D01*
X97792681Y-121416851D01*
X97545493Y-121046907D01*
X97074993Y-120732529D01*
X96520000Y-120622134D01*
X95965008Y-120732529D01*
X95494508Y-121046907D01*
X95250000Y-121412838D01*
X95005493Y-121046907D01*
X94534993Y-120732529D01*
X93980000Y-120622134D01*
X93425008Y-120732529D01*
X92954508Y-121046907D01*
X92710000Y-121412838D01*
X92465493Y-121046907D01*
X91994993Y-120732529D01*
X91440000Y-120622134D01*
X90885008Y-120732529D01*
X90414508Y-121046907D01*
X90170000Y-121412838D01*
X89925493Y-121046907D01*
X89454993Y-120732529D01*
X88900000Y-120622134D01*
X88345008Y-120732529D01*
X87874508Y-121046907D01*
X87630000Y-121412838D01*
X87385493Y-121046907D01*
X86914993Y-120732529D01*
X86360000Y-120622134D01*
X85805008Y-120732529D01*
X85334508Y-121046907D01*
X85090000Y-121412838D01*
X84845493Y-121046907D01*
X84374993Y-120732529D01*
X83820000Y-120622134D01*
X83265008Y-120732529D01*
X82794508Y-121046907D01*
X82550000Y-121412838D01*
X82305493Y-121046907D01*
X81834993Y-120732529D01*
X81280000Y-120622134D01*
X80725008Y-120732529D01*
X80254508Y-121046907D01*
X80010000Y-121412838D01*
X79765493Y-121046907D01*
X79294993Y-120732529D01*
X78740000Y-120622134D01*
X78185008Y-120732529D01*
X77714508Y-121046907D01*
X77470000Y-121412838D01*
X77225493Y-121046907D01*
X76754993Y-120732529D01*
X76200000Y-120622134D01*
X75645008Y-120732529D01*
X75174508Y-121046907D01*
X74930000Y-121412838D01*
X74685493Y-121046907D01*
X74214993Y-120732529D01*
X73660000Y-120622134D01*
X73105008Y-120732529D01*
X72634508Y-121046907D01*
X72390000Y-121412838D01*
X72145493Y-121046907D01*
X71674993Y-120732529D01*
X71120000Y-120622134D01*
X70565008Y-120732529D01*
X70094508Y-121046907D01*
X69850000Y-121412838D01*
X69605493Y-121046907D01*
X69134993Y-120732529D01*
X68580000Y-120622134D01*
X68025008Y-120732529D01*
X67554508Y-121046907D01*
X67310000Y-121412838D01*
X67065493Y-121046907D01*
X66594993Y-120732529D01*
X66040000Y-120622134D01*
X65485008Y-120732529D01*
X65014508Y-121046907D01*
X64700129Y-121517407D01*
X64617600Y-121932308D01*
X64617600Y-122923691D01*
X64700129Y-123338592D01*
X65014507Y-123809092D01*
X65485007Y-124123471D01*
X66040000Y-124233866D01*
X66594992Y-124123471D01*
X67065492Y-123809093D01*
X67310000Y-123443162D01*
X67554507Y-123809092D01*
X68025007Y-124123471D01*
X68580000Y-124233866D01*
X69134992Y-124123471D01*
X69605492Y-123809093D01*
X69850000Y-123443162D01*
X70094507Y-123809092D01*
X70565007Y-124123471D01*
X71120000Y-124233866D01*
X71674992Y-124123471D01*
X72145492Y-123809093D01*
X72390000Y-123443162D01*
X72634507Y-123809092D01*
X73105007Y-124123471D01*
X73660000Y-124233866D01*
X74214992Y-124123471D01*
X74685492Y-123809093D01*
X74930000Y-123443162D01*
X75174507Y-123809092D01*
X75645007Y-124123471D01*
X76200000Y-124233866D01*
X76754992Y-124123471D01*
X77225492Y-123809093D01*
X77470000Y-123443162D01*
X77714507Y-123809092D01*
X78185007Y-124123471D01*
X78740000Y-124233866D01*
X79294992Y-124123471D01*
X79765492Y-123809093D01*
X80010000Y-123443162D01*
X80254507Y-123809092D01*
X80725007Y-124123471D01*
X81280000Y-124233866D01*
X81834992Y-124123471D01*
X82305492Y-123809093D01*
X82550000Y-123443162D01*
X82794507Y-123809092D01*
X83265007Y-124123471D01*
X83820000Y-124233866D01*
X84374992Y-124123471D01*
X84845492Y-123809093D01*
X85090000Y-123443162D01*
X85334507Y-123809092D01*
X85805007Y-124123471D01*
X86360000Y-124233866D01*
X86914992Y-124123471D01*
X87385492Y-123809093D01*
X87630000Y-123443162D01*
X87874507Y-123809092D01*
X88345007Y-124123471D01*
X88900000Y-124233866D01*
X89454992Y-124123471D01*
X89925492Y-123809093D01*
X90170000Y-123443162D01*
X90414507Y-123809092D01*
X90885007Y-124123471D01*
X91440000Y-124233866D01*
X91994992Y-124123471D01*
X92465492Y-123809093D01*
X92710000Y-123443162D01*
X92745001Y-123495544D01*
X92745000Y-133600447D01*
X86610447Y-139735000D01*
X73527632Y-139735000D01*
X73406000Y-139710806D01*
X73284368Y-139735000D01*
X73284364Y-139735000D01*
X72924127Y-139806656D01*
X72618732Y-140010714D01*
X72618731Y-140010715D01*
X72515615Y-140079615D01*
X72446715Y-140182731D01*
X65684532Y-146944915D01*
X65581416Y-147013815D01*
X65512516Y-147116931D01*
X65512514Y-147116933D01*
X65308456Y-147422328D01*
X65212606Y-147904200D01*
X65236801Y-148025837D01*
X65236800Y-152792560D01*
X64971800Y-152792560D01*
X64724035Y-152841843D01*
X64513991Y-152982191D01*
X64373643Y-153192235D01*
X64324360Y-153440000D01*
X61162000Y-153440000D01*
X61162000Y-96012000D01*
X61530683Y-96012000D01*
X61549001Y-96104091D01*
X61549000Y-110143914D01*
X61530683Y-110236000D01*
X61549000Y-110328085D01*
X61603250Y-110600818D01*
X61809903Y-110910097D01*
X61887972Y-110962261D01*
X63789741Y-112864031D01*
X63841903Y-112942097D01*
X63919969Y-112994259D01*
X64151181Y-113148750D01*
X64516000Y-113221317D01*
X64608086Y-113203000D01*
X98205914Y-113203000D01*
X98298000Y-113221317D01*
X98390086Y-113203000D01*
X98662819Y-113148750D01*
X98972097Y-112942097D01*
X99024261Y-112864028D01*
X99656030Y-112232259D01*
X99734097Y-112180097D01*
X99940750Y-111870819D01*
X99995000Y-111598086D01*
X100013317Y-111506000D01*
X99995000Y-111413914D01*
X99995000Y-108629558D01*
X100085492Y-108569093D01*
X100330000Y-108203162D01*
X100574507Y-108569092D01*
X101045007Y-108883471D01*
X101600000Y-108993866D01*
X102154992Y-108883471D01*
X102625492Y-108569093D01*
X102939871Y-108098593D01*
X103022400Y-107683692D01*
X103022400Y-106692309D01*
X102939871Y-106277407D01*
X102625493Y-105806907D01*
X102535000Y-105746442D01*
X102535000Y-105537081D01*
X102553316Y-105444999D01*
X102535000Y-105352917D01*
X102535000Y-105352914D01*
X102480750Y-105080181D01*
X102274097Y-104770903D01*
X102196031Y-104718741D01*
X94163261Y-96685972D01*
X94111097Y-96607903D01*
X93801819Y-96401250D01*
X93529086Y-96347000D01*
X93437000Y-96328683D01*
X93344914Y-96347000D01*
X77172533Y-96347000D01*
X77140157Y-96184235D01*
X76999809Y-95974191D01*
X76789765Y-95833843D01*
X76542000Y-95784560D01*
X74842000Y-95784560D01*
X74594235Y-95833843D01*
X74384191Y-95974191D01*
X74243843Y-96184235D01*
X74234816Y-96229619D01*
X74222625Y-96211375D01*
X74087000Y-96120753D01*
X74087000Y-95596086D01*
X74105317Y-95504000D01*
X74032750Y-95139181D01*
X73878259Y-94907969D01*
X73826097Y-94829903D01*
X73748031Y-94777741D01*
X72862261Y-93891972D01*
X72810097Y-93813903D01*
X72500819Y-93607250D01*
X72228086Y-93553000D01*
X72136000Y-93534683D01*
X72043914Y-93553000D01*
X64100080Y-93553000D01*
X64007999Y-93534684D01*
X63915918Y-93553000D01*
X63915914Y-93553000D01*
X63643181Y-93607250D01*
X63333903Y-93813903D01*
X63281741Y-93891969D01*
X61887970Y-95285741D01*
X61809904Y-95337903D01*
X61757742Y-95415969D01*
X61757741Y-95415970D01*
X61603250Y-95647182D01*
X61530683Y-96012000D01*
X61162000Y-96012000D01*
X61162000Y-77722600D01*
X64248160Y-77722600D01*
X64248160Y-80722600D01*
X64297443Y-80970365D01*
X64437791Y-81180409D01*
X64647835Y-81320757D01*
X64895600Y-81370040D01*
X65160600Y-81370040D01*
X65160600Y-81800968D01*
X65136406Y-81922600D01*
X65160600Y-82044232D01*
X65160600Y-82044235D01*
X65232256Y-82404472D01*
X65505215Y-82812985D01*
X65608334Y-82881887D01*
X66096714Y-83370267D01*
X71651715Y-88925269D01*
X71720615Y-89028385D01*
X71823731Y-89097285D01*
X71823732Y-89097286D01*
X71994572Y-89211437D01*
X72129127Y-89301344D01*
X72489364Y-89373000D01*
X72489368Y-89373000D01*
X72610999Y-89397194D01*
X72732630Y-89373000D01*
X109978447Y-89373000D01*
X111795001Y-91189555D01*
X111795000Y-93858364D01*
X111795000Y-96652368D01*
X111770806Y-96774000D01*
X111795000Y-96895632D01*
X111795000Y-96895635D01*
X111866656Y-97255872D01*
X112139615Y-97664385D01*
X112242734Y-97733287D01*
X117912713Y-103403266D01*
X117981615Y-103506385D01*
X118390127Y-103779344D01*
X118750364Y-103851000D01*
X118750368Y-103851000D01*
X118872000Y-103875194D01*
X118993632Y-103851000D01*
X121859482Y-103851000D01*
X122010136Y-104001654D01*
X122610880Y-104250490D01*
X123261120Y-104250490D01*
X123861864Y-104001654D01*
X124321654Y-103541864D01*
X124570490Y-102941120D01*
X124570490Y-102290880D01*
X124321654Y-101690136D01*
X123861864Y-101230346D01*
X123261120Y-100981510D01*
X122610880Y-100981510D01*
X122010136Y-101230346D01*
X121859482Y-101381000D01*
X119383553Y-101381000D01*
X114265000Y-96262447D01*
X114265000Y-90799630D01*
X114289194Y-90677999D01*
X114265000Y-90556368D01*
X114265000Y-90556364D01*
X114193344Y-90196127D01*
X113920385Y-89787615D01*
X113817269Y-89718715D01*
X111449287Y-87350734D01*
X111380385Y-87247615D01*
X110971873Y-86974656D01*
X110611636Y-86903000D01*
X110611632Y-86903000D01*
X110490000Y-86878806D01*
X110368368Y-86903000D01*
X80691000Y-86903000D01*
X80691000Y-83126017D01*
X80655067Y-83039267D01*
X80636750Y-82947181D01*
X80584588Y-82869115D01*
X80548655Y-82782365D01*
X80482259Y-82715969D01*
X80430097Y-82637903D01*
X80352031Y-82585741D01*
X80285635Y-82519345D01*
X80198883Y-82483411D01*
X80120818Y-82431250D01*
X80028734Y-82412933D01*
X79941983Y-82377000D01*
X79848086Y-82377000D01*
X79756000Y-82358683D01*
X79663914Y-82377000D01*
X79570017Y-82377000D01*
X79483267Y-82412933D01*
X79391181Y-82431250D01*
X79313115Y-82483412D01*
X79226365Y-82519345D01*
X79159969Y-82585741D01*
X79081903Y-82637903D01*
X79029741Y-82715969D01*
X78963345Y-82782365D01*
X78927411Y-82869117D01*
X78875250Y-82947182D01*
X78856933Y-83039266D01*
X78821000Y-83126017D01*
X78821000Y-83219915D01*
X78821001Y-86903000D01*
X73122554Y-86903000D01*
X67843267Y-81623714D01*
X67843265Y-81623712D01*
X67630600Y-81411048D01*
X67630600Y-81370040D01*
X67895600Y-81370040D01*
X68143365Y-81320757D01*
X68353409Y-81180409D01*
X68493757Y-80970365D01*
X68543040Y-80722600D01*
X68543040Y-78797922D01*
X69340600Y-78797922D01*
X69340600Y-79647278D01*
X69665634Y-80431980D01*
X70266220Y-81032566D01*
X71050922Y-81357600D01*
X71900278Y-81357600D01*
X72684980Y-81032566D01*
X73285566Y-80431980D01*
X73610600Y-79647278D01*
X73610600Y-78797922D01*
X74420600Y-78797922D01*
X74420600Y-79647278D01*
X74745634Y-80431980D01*
X75346220Y-81032566D01*
X76130922Y-81357600D01*
X76980278Y-81357600D01*
X77764980Y-81032566D01*
X78365566Y-80431980D01*
X78690600Y-79647278D01*
X78690600Y-78797922D01*
X79500600Y-78797922D01*
X79500600Y-79647278D01*
X79825634Y-80431980D01*
X80426220Y-81032566D01*
X81210922Y-81357600D01*
X82060278Y-81357600D01*
X82844980Y-81032566D01*
X83445566Y-80431980D01*
X83770600Y-79647278D01*
X83770600Y-78797922D01*
X84580600Y-78797922D01*
X84580600Y-79647278D01*
X84905634Y-80431980D01*
X85506220Y-81032566D01*
X86290922Y-81357600D01*
X87140278Y-81357600D01*
X87924980Y-81032566D01*
X88525566Y-80431980D01*
X88850600Y-79647278D01*
X88850600Y-78797922D01*
X89660600Y-78797922D01*
X89660600Y-79647278D01*
X89985634Y-80431980D01*
X90586220Y-81032566D01*
X91370922Y-81357600D01*
X92220278Y-81357600D01*
X93004980Y-81032566D01*
X93605566Y-80431980D01*
X93930600Y-79647278D01*
X93930600Y-78797922D01*
X93605566Y-78013220D01*
X93289546Y-77697200D01*
X94728160Y-77697200D01*
X94728160Y-80697200D01*
X94777443Y-80944965D01*
X94917791Y-81155009D01*
X95127835Y-81295357D01*
X95375600Y-81344640D01*
X98375600Y-81344640D01*
X98623365Y-81295357D01*
X98833409Y-81155009D01*
X98973757Y-80944965D01*
X99023040Y-80697200D01*
X99023040Y-78772522D01*
X99820600Y-78772522D01*
X99820600Y-79621878D01*
X100145634Y-80406580D01*
X100746220Y-81007166D01*
X101530922Y-81332200D01*
X102380278Y-81332200D01*
X103164980Y-81007166D01*
X103460976Y-80711170D01*
X105701235Y-80711170D01*
X105861018Y-81029939D01*
X106651787Y-81339923D01*
X107500987Y-81323697D01*
X108210182Y-81029939D01*
X108369965Y-80711170D01*
X107035600Y-79376805D01*
X105701235Y-80711170D01*
X103460976Y-80711170D01*
X103765566Y-80406580D01*
X104090600Y-79621878D01*
X104090600Y-78813387D01*
X104892877Y-78813387D01*
X104909103Y-79662587D01*
X105202861Y-80371782D01*
X105521630Y-80531565D01*
X106855995Y-79197200D01*
X107215205Y-79197200D01*
X108549570Y-80531565D01*
X108868339Y-80371782D01*
X109178323Y-79581013D01*
X109163361Y-78797922D01*
X115086000Y-78797922D01*
X115086000Y-79647278D01*
X115411034Y-80431980D01*
X116011620Y-81032566D01*
X116796322Y-81357600D01*
X117645678Y-81357600D01*
X118430380Y-81032566D01*
X119030966Y-80431980D01*
X119356000Y-79647278D01*
X119356000Y-79508350D01*
X120166000Y-79508350D01*
X120166000Y-80848910D01*
X120262673Y-81082299D01*
X120441302Y-81260927D01*
X120674691Y-81357600D01*
X122015250Y-81357600D01*
X122174000Y-81198850D01*
X122174000Y-79349600D01*
X122428000Y-79349600D01*
X122428000Y-81198850D01*
X122586750Y-81357600D01*
X123927309Y-81357600D01*
X124160698Y-81260927D01*
X124339327Y-81082299D01*
X124436000Y-80848910D01*
X124436000Y-79508350D01*
X124277250Y-79349600D01*
X122428000Y-79349600D01*
X122174000Y-79349600D01*
X120324750Y-79349600D01*
X120166000Y-79508350D01*
X119356000Y-79508350D01*
X119356000Y-78797922D01*
X119030966Y-78013220D01*
X118614036Y-77596290D01*
X120166000Y-77596290D01*
X120166000Y-78936850D01*
X120324750Y-79095600D01*
X122174000Y-79095600D01*
X122174000Y-77246350D01*
X122428000Y-77246350D01*
X122428000Y-79095600D01*
X124277250Y-79095600D01*
X124436000Y-78936850D01*
X124436000Y-77596290D01*
X124339327Y-77362901D01*
X124160698Y-77184273D01*
X123927309Y-77087600D01*
X122586750Y-77087600D01*
X122428000Y-77246350D01*
X122174000Y-77246350D01*
X122015250Y-77087600D01*
X120674691Y-77087600D01*
X120441302Y-77184273D01*
X120262673Y-77362901D01*
X120166000Y-77596290D01*
X118614036Y-77596290D01*
X118430380Y-77412634D01*
X117645678Y-77087600D01*
X116796322Y-77087600D01*
X116011620Y-77412634D01*
X115411034Y-78013220D01*
X115086000Y-78797922D01*
X109163361Y-78797922D01*
X109162097Y-78731813D01*
X108868339Y-78022618D01*
X108549570Y-77862835D01*
X107215205Y-79197200D01*
X106855995Y-79197200D01*
X105521630Y-77862835D01*
X105202861Y-78022618D01*
X104892877Y-78813387D01*
X104090600Y-78813387D01*
X104090600Y-78772522D01*
X103765566Y-77987820D01*
X103460976Y-77683230D01*
X105701235Y-77683230D01*
X107035600Y-79017595D01*
X108369965Y-77683230D01*
X108210182Y-77364461D01*
X107419413Y-77054477D01*
X106570213Y-77070703D01*
X105861018Y-77364461D01*
X105701235Y-77683230D01*
X103460976Y-77683230D01*
X103164980Y-77387234D01*
X102380278Y-77062200D01*
X101530922Y-77062200D01*
X100746220Y-77387234D01*
X100145634Y-77987820D01*
X99820600Y-78772522D01*
X99023040Y-78772522D01*
X99023040Y-77697200D01*
X98973757Y-77449435D01*
X98833409Y-77239391D01*
X98623365Y-77099043D01*
X98375600Y-77049760D01*
X95375600Y-77049760D01*
X95127835Y-77099043D01*
X94917791Y-77239391D01*
X94777443Y-77449435D01*
X94728160Y-77697200D01*
X93289546Y-77697200D01*
X93004980Y-77412634D01*
X92220278Y-77087600D01*
X91370922Y-77087600D01*
X90586220Y-77412634D01*
X89985634Y-78013220D01*
X89660600Y-78797922D01*
X88850600Y-78797922D01*
X88525566Y-78013220D01*
X87924980Y-77412634D01*
X87140278Y-77087600D01*
X86290922Y-77087600D01*
X85506220Y-77412634D01*
X84905634Y-78013220D01*
X84580600Y-78797922D01*
X83770600Y-78797922D01*
X83445566Y-78013220D01*
X82844980Y-77412634D01*
X82060278Y-77087600D01*
X81210922Y-77087600D01*
X80426220Y-77412634D01*
X79825634Y-78013220D01*
X79500600Y-78797922D01*
X78690600Y-78797922D01*
X78365566Y-78013220D01*
X77764980Y-77412634D01*
X76980278Y-77087600D01*
X76130922Y-77087600D01*
X75346220Y-77412634D01*
X74745634Y-78013220D01*
X74420600Y-78797922D01*
X73610600Y-78797922D01*
X73285566Y-78013220D01*
X72684980Y-77412634D01*
X71900278Y-77087600D01*
X71050922Y-77087600D01*
X70266220Y-77412634D01*
X69665634Y-78013220D01*
X69340600Y-78797922D01*
X68543040Y-78797922D01*
X68543040Y-77722600D01*
X68493757Y-77474835D01*
X68353409Y-77264791D01*
X68143365Y-77124443D01*
X67895600Y-77075160D01*
X64895600Y-77075160D01*
X64647835Y-77124443D01*
X64437791Y-77264791D01*
X64297443Y-77474835D01*
X64248160Y-77722600D01*
X61162000Y-77722600D01*
X61162000Y-74243000D01*
X127687000Y-74243000D01*
X127687001Y-159818000D01*
X127687001Y-159818000D01*
G37*
X127687001Y-159818000D02*
X61162000Y-159818000D01*
X61162000Y-153440000D01*
X64324360Y-153440000D01*
X64324360Y-156440000D01*
X64373643Y-156687765D01*
X64513991Y-156897809D01*
X64724035Y-157038157D01*
X64971800Y-157087440D01*
X67971800Y-157087440D01*
X68219565Y-157038157D01*
X68429609Y-156897809D01*
X68569957Y-156687765D01*
X68619240Y-156440000D01*
X68619240Y-154515322D01*
X69416800Y-154515322D01*
X69416800Y-155364678D01*
X69741834Y-156149380D01*
X70342420Y-156749966D01*
X71127122Y-157075000D01*
X71976478Y-157075000D01*
X72761180Y-156749966D01*
X73361766Y-156149380D01*
X73686800Y-155364678D01*
X73686800Y-154515322D01*
X74496800Y-154515322D01*
X74496800Y-155364678D01*
X74821834Y-156149380D01*
X75422420Y-156749966D01*
X76207122Y-157075000D01*
X77056478Y-157075000D01*
X77841180Y-156749966D01*
X78441766Y-156149380D01*
X78766800Y-155364678D01*
X78766800Y-154515322D01*
X79576800Y-154515322D01*
X79576800Y-155364678D01*
X79901834Y-156149380D01*
X80502420Y-156749966D01*
X81287122Y-157075000D01*
X82136478Y-157075000D01*
X82921180Y-156749966D01*
X83521766Y-156149380D01*
X83846800Y-155364678D01*
X83846800Y-154515322D01*
X84656800Y-154515322D01*
X84656800Y-155364678D01*
X84981834Y-156149380D01*
X85582420Y-156749966D01*
X86367122Y-157075000D01*
X87216478Y-157075000D01*
X88001180Y-156749966D01*
X88297176Y-156453970D01*
X90537435Y-156453970D01*
X90697218Y-156772739D01*
X91487987Y-157082723D01*
X92337187Y-157066497D01*
X93046382Y-156772739D01*
X93206165Y-156453970D01*
X91871800Y-155119605D01*
X90537435Y-156453970D01*
X88297176Y-156453970D01*
X88601766Y-156149380D01*
X88926800Y-155364678D01*
X88926800Y-154556187D01*
X89729077Y-154556187D01*
X89745303Y-155405387D01*
X90039061Y-156114582D01*
X90357830Y-156274365D01*
X91692195Y-154940000D01*
X92051405Y-154940000D01*
X93385770Y-156274365D01*
X93704539Y-156114582D01*
X94014523Y-155323813D01*
X93998297Y-154474613D01*
X93704539Y-153765418D01*
X93385770Y-153605635D01*
X92051405Y-154940000D01*
X91692195Y-154940000D01*
X90357830Y-153605635D01*
X90039061Y-153765418D01*
X89729077Y-154556187D01*
X88926800Y-154556187D01*
X88926800Y-154515322D01*
X88601766Y-153730620D01*
X88297176Y-153426030D01*
X90537435Y-153426030D01*
X91871800Y-154760395D01*
X93206165Y-153426030D01*
X93046382Y-153107261D01*
X92255613Y-152797277D01*
X91406413Y-152813503D01*
X90697218Y-153107261D01*
X90537435Y-153426030D01*
X88297176Y-153426030D01*
X88001180Y-153130034D01*
X87216478Y-152805000D01*
X86367122Y-152805000D01*
X85582420Y-153130034D01*
X84981834Y-153730620D01*
X84656800Y-154515322D01*
X83846800Y-154515322D01*
X83521766Y-153730620D01*
X82921180Y-153130034D01*
X82136478Y-152805000D01*
X81287122Y-152805000D01*
X80502420Y-153130034D01*
X79901834Y-153730620D01*
X79576800Y-154515322D01*
X78766800Y-154515322D01*
X78441766Y-153730620D01*
X77841180Y-153130034D01*
X77056478Y-152805000D01*
X76207122Y-152805000D01*
X75422420Y-153130034D01*
X74821834Y-153730620D01*
X74496800Y-154515322D01*
X73686800Y-154515322D01*
X73361766Y-153730620D01*
X72761180Y-153130034D01*
X71976478Y-152805000D01*
X71127122Y-152805000D01*
X70342420Y-153130034D01*
X69741834Y-153730620D01*
X69416800Y-154515322D01*
X68619240Y-154515322D01*
X68619240Y-153440000D01*
X68569957Y-153192235D01*
X68429609Y-152982191D01*
X68219565Y-152841843D01*
X67971800Y-152792560D01*
X67706800Y-152792560D01*
X67706800Y-148415753D01*
X73917554Y-142205000D01*
X86610447Y-142205000D01*
X95691401Y-151285955D01*
X95691401Y-152767160D01*
X95426400Y-152767160D01*
X95178635Y-152816443D01*
X94968591Y-152956791D01*
X94828243Y-153166835D01*
X94778960Y-153414600D01*
X94778960Y-156414600D01*
X94828243Y-156662365D01*
X94968591Y-156872409D01*
X95178635Y-157012757D01*
X95426400Y-157062040D01*
X98426400Y-157062040D01*
X98674165Y-157012757D01*
X98884209Y-156872409D01*
X99024557Y-156662365D01*
X99073840Y-156414600D01*
X99073840Y-154489922D01*
X99871400Y-154489922D01*
X99871400Y-155339278D01*
X100196434Y-156123980D01*
X100797020Y-156724566D01*
X101581722Y-157049600D01*
X102431078Y-157049600D01*
X103215780Y-156724566D01*
X103816366Y-156123980D01*
X104141400Y-155339278D01*
X104141400Y-154489922D01*
X104951400Y-154489922D01*
X104951400Y-155339278D01*
X105276434Y-156123980D01*
X105877020Y-156724566D01*
X106661722Y-157049600D01*
X107511078Y-157049600D01*
X108295780Y-156724566D01*
X108896366Y-156123980D01*
X109221400Y-155339278D01*
X109221400Y-154489922D01*
X110031400Y-154489922D01*
X110031400Y-155339278D01*
X110356434Y-156123980D01*
X110957020Y-156724566D01*
X111741722Y-157049600D01*
X112591078Y-157049600D01*
X113375780Y-156724566D01*
X113976366Y-156123980D01*
X114301400Y-155339278D01*
X114301400Y-154489922D01*
X115111400Y-154489922D01*
X115111400Y-155339278D01*
X115436434Y-156123980D01*
X116037020Y-156724566D01*
X116821722Y-157049600D01*
X117671078Y-157049600D01*
X118455780Y-156724566D01*
X118751776Y-156428570D01*
X120992035Y-156428570D01*
X121151818Y-156747339D01*
X121942587Y-157057323D01*
X122791787Y-157041097D01*
X123500982Y-156747339D01*
X123660765Y-156428570D01*
X122326400Y-155094205D01*
X120992035Y-156428570D01*
X118751776Y-156428570D01*
X119056366Y-156123980D01*
X119381400Y-155339278D01*
X119381400Y-154530787D01*
X120183677Y-154530787D01*
X120199903Y-155379987D01*
X120493661Y-156089182D01*
X120812430Y-156248965D01*
X122146795Y-154914600D01*
X122506005Y-154914600D01*
X123840370Y-156248965D01*
X124159139Y-156089182D01*
X124469123Y-155298413D01*
X124452897Y-154449213D01*
X124159139Y-153740018D01*
X123840370Y-153580235D01*
X122506005Y-154914600D01*
X122146795Y-154914600D01*
X120812430Y-153580235D01*
X120493661Y-153740018D01*
X120183677Y-154530787D01*
X119381400Y-154530787D01*
X119381400Y-154489922D01*
X119056366Y-153705220D01*
X118751776Y-153400630D01*
X120992035Y-153400630D01*
X122326400Y-154734995D01*
X123660765Y-153400630D01*
X123500982Y-153081861D01*
X122710213Y-152771877D01*
X121861013Y-152788103D01*
X121151818Y-153081861D01*
X120992035Y-153400630D01*
X118751776Y-153400630D01*
X118455780Y-153104634D01*
X117671078Y-152779600D01*
X116821722Y-152779600D01*
X116037020Y-153104634D01*
X115436434Y-153705220D01*
X115111400Y-154489922D01*
X114301400Y-154489922D01*
X113976366Y-153705220D01*
X113375780Y-153104634D01*
X112591078Y-152779600D01*
X111741722Y-152779600D01*
X110957020Y-153104634D01*
X110356434Y-153705220D01*
X110031400Y-154489922D01*
X109221400Y-154489922D01*
X108896366Y-153705220D01*
X108295780Y-153104634D01*
X107511078Y-152779600D01*
X106661722Y-152779600D01*
X105877020Y-153104634D01*
X105276434Y-153705220D01*
X104951400Y-154489922D01*
X104141400Y-154489922D01*
X103816366Y-153705220D01*
X103215780Y-153104634D01*
X102431078Y-152779600D01*
X101581722Y-152779600D01*
X100797020Y-153104634D01*
X100196434Y-153705220D01*
X99871400Y-154489922D01*
X99073840Y-154489922D01*
X99073840Y-153414600D01*
X99024557Y-153166835D01*
X98884209Y-152956791D01*
X98674165Y-152816443D01*
X98426400Y-152767160D01*
X98161400Y-152767160D01*
X98161400Y-150896030D01*
X98185594Y-150774399D01*
X98161400Y-150652768D01*
X98161400Y-150652764D01*
X98089744Y-150292527D01*
X97816785Y-149884015D01*
X97713669Y-149815115D01*
X88868553Y-140970000D01*
X94767267Y-135071286D01*
X94870385Y-135002385D01*
X95143344Y-134593873D01*
X95215000Y-134233636D01*
X95215000Y-134233632D01*
X95239194Y-134112000D01*
X95215000Y-133990368D01*
X95215000Y-123495543D01*
X95250000Y-123443162D01*
X95494507Y-123809092D01*
X95965007Y-124123471D01*
X96520000Y-124233866D01*
X97074992Y-124123471D01*
X97545492Y-123809093D01*
X97792681Y-123439149D01*
X97794475Y-123445262D01*
X98144014Y-123879191D01*
X98633004Y-124146327D01*
X98712940Y-124163010D01*
X98933000Y-124040852D01*
X98933000Y-122555000D01*
X98913000Y-122555000D01*
X98913000Y-122301000D01*
X98933000Y-122301000D01*
X98933000Y-120815148D01*
X99187000Y-120815148D01*
X99187000Y-122301000D01*
X99207000Y-122301000D01*
X99207000Y-122555000D01*
X99187000Y-122555000D01*
X99187000Y-124040852D01*
X99407060Y-124163010D01*
X99486996Y-124146327D01*
X99975986Y-123879191D01*
X100325525Y-123445262D01*
X100327319Y-123439149D01*
X100574507Y-123809092D01*
X101045007Y-124123471D01*
X101600000Y-124233866D01*
X102154992Y-124123471D01*
X102625492Y-123809093D01*
X102939871Y-123338593D01*
X103022400Y-122923692D01*
X103022400Y-121932309D01*
X102939871Y-121517407D01*
X102625493Y-121046907D01*
X102154993Y-120732529D01*
X101600000Y-120622134D01*
X101045008Y-120732529D01*
X100574508Y-121046907D01*
X100327319Y-121416851D01*
X100325525Y-121410738D01*
X99975986Y-120976809D01*
X99486996Y-120709673D01*
X99407060Y-120692990D01*
X99187000Y-120815148D01*
X98933000Y-120815148D01*
X98712940Y-120692990D01*
X98633004Y-120709673D01*
X98144014Y-120976809D01*
X97794475Y-121410738D01*
X97792681Y-121416851D01*
X97545493Y-121046907D01*
X97074993Y-120732529D01*
X96520000Y-120622134D01*
X95965008Y-120732529D01*
X95494508Y-121046907D01*
X95250000Y-121412838D01*
X95005493Y-121046907D01*
X94534993Y-120732529D01*
X93980000Y-120622134D01*
X93425008Y-120732529D01*
X92954508Y-121046907D01*
X92710000Y-121412838D01*
X92465493Y-121046907D01*
X91994993Y-120732529D01*
X91440000Y-120622134D01*
X90885008Y-120732529D01*
X90414508Y-121046907D01*
X90170000Y-121412838D01*
X89925493Y-121046907D01*
X89454993Y-120732529D01*
X88900000Y-120622134D01*
X88345008Y-120732529D01*
X87874508Y-121046907D01*
X87630000Y-121412838D01*
X87385493Y-121046907D01*
X86914993Y-120732529D01*
X86360000Y-120622134D01*
X85805008Y-120732529D01*
X85334508Y-121046907D01*
X85090000Y-121412838D01*
X84845493Y-121046907D01*
X84374993Y-120732529D01*
X83820000Y-120622134D01*
X83265008Y-120732529D01*
X82794508Y-121046907D01*
X82550000Y-121412838D01*
X82305493Y-121046907D01*
X81834993Y-120732529D01*
X81280000Y-120622134D01*
X80725008Y-120732529D01*
X80254508Y-121046907D01*
X80010000Y-121412838D01*
X79765493Y-121046907D01*
X79294993Y-120732529D01*
X78740000Y-120622134D01*
X78185008Y-120732529D01*
X77714508Y-121046907D01*
X77470000Y-121412838D01*
X77225493Y-121046907D01*
X76754993Y-120732529D01*
X76200000Y-120622134D01*
X75645008Y-120732529D01*
X75174508Y-121046907D01*
X74930000Y-121412838D01*
X74685493Y-121046907D01*
X74214993Y-120732529D01*
X73660000Y-120622134D01*
X73105008Y-120732529D01*
X72634508Y-121046907D01*
X72390000Y-121412838D01*
X72145493Y-121046907D01*
X71674993Y-120732529D01*
X71120000Y-120622134D01*
X70565008Y-120732529D01*
X70094508Y-121046907D01*
X69850000Y-121412838D01*
X69605493Y-121046907D01*
X69134993Y-120732529D01*
X68580000Y-120622134D01*
X68025008Y-120732529D01*
X67554508Y-121046907D01*
X67310000Y-121412838D01*
X67065493Y-121046907D01*
X66594993Y-120732529D01*
X66040000Y-120622134D01*
X65485008Y-120732529D01*
X65014508Y-121046907D01*
X64700129Y-121517407D01*
X64617600Y-121932308D01*
X64617600Y-122923691D01*
X64700129Y-123338592D01*
X65014507Y-123809092D01*
X65485007Y-124123471D01*
X66040000Y-124233866D01*
X66594992Y-124123471D01*
X67065492Y-123809093D01*
X67310000Y-123443162D01*
X67554507Y-123809092D01*
X68025007Y-124123471D01*
X68580000Y-124233866D01*
X69134992Y-124123471D01*
X69605492Y-123809093D01*
X69850000Y-123443162D01*
X70094507Y-123809092D01*
X70565007Y-124123471D01*
X71120000Y-124233866D01*
X71674992Y-124123471D01*
X72145492Y-123809093D01*
X72390000Y-123443162D01*
X72634507Y-123809092D01*
X73105007Y-124123471D01*
X73660000Y-124233866D01*
X74214992Y-124123471D01*
X74685492Y-123809093D01*
X74930000Y-123443162D01*
X75174507Y-123809092D01*
X75645007Y-124123471D01*
X76200000Y-124233866D01*
X76754992Y-124123471D01*
X77225492Y-123809093D01*
X77470000Y-123443162D01*
X77714507Y-123809092D01*
X78185007Y-124123471D01*
X78740000Y-124233866D01*
X79294992Y-124123471D01*
X79765492Y-123809093D01*
X80010000Y-123443162D01*
X80254507Y-123809092D01*
X80725007Y-124123471D01*
X81280000Y-124233866D01*
X81834992Y-124123471D01*
X82305492Y-123809093D01*
X82550000Y-123443162D01*
X82794507Y-123809092D01*
X83265007Y-124123471D01*
X83820000Y-124233866D01*
X84374992Y-124123471D01*
X84845492Y-123809093D01*
X85090000Y-123443162D01*
X85334507Y-123809092D01*
X85805007Y-124123471D01*
X86360000Y-124233866D01*
X86914992Y-124123471D01*
X87385492Y-123809093D01*
X87630000Y-123443162D01*
X87874507Y-123809092D01*
X88345007Y-124123471D01*
X88900000Y-124233866D01*
X89454992Y-124123471D01*
X89925492Y-123809093D01*
X90170000Y-123443162D01*
X90414507Y-123809092D01*
X90885007Y-124123471D01*
X91440000Y-124233866D01*
X91994992Y-124123471D01*
X92465492Y-123809093D01*
X92710000Y-123443162D01*
X92745001Y-123495544D01*
X92745000Y-133600447D01*
X86610447Y-139735000D01*
X73527632Y-139735000D01*
X73406000Y-139710806D01*
X73284368Y-139735000D01*
X73284364Y-139735000D01*
X72924127Y-139806656D01*
X72618732Y-140010714D01*
X72618731Y-140010715D01*
X72515615Y-140079615D01*
X72446715Y-140182731D01*
X65684532Y-146944915D01*
X65581416Y-147013815D01*
X65512516Y-147116931D01*
X65512514Y-147116933D01*
X65308456Y-147422328D01*
X65212606Y-147904200D01*
X65236801Y-148025837D01*
X65236800Y-152792560D01*
X64971800Y-152792560D01*
X64724035Y-152841843D01*
X64513991Y-152982191D01*
X64373643Y-153192235D01*
X64324360Y-153440000D01*
X61162000Y-153440000D01*
X61162000Y-96012000D01*
X61530683Y-96012000D01*
X61549001Y-96104091D01*
X61549000Y-110143914D01*
X61530683Y-110236000D01*
X61549000Y-110328085D01*
X61603250Y-110600818D01*
X61809903Y-110910097D01*
X61887972Y-110962261D01*
X63789741Y-112864031D01*
X63841903Y-112942097D01*
X63919969Y-112994259D01*
X64151181Y-113148750D01*
X64516000Y-113221317D01*
X64608086Y-113203000D01*
X98205914Y-113203000D01*
X98298000Y-113221317D01*
X98390086Y-113203000D01*
X98662819Y-113148750D01*
X98972097Y-112942097D01*
X99024261Y-112864028D01*
X99656030Y-112232259D01*
X99734097Y-112180097D01*
X99940750Y-111870819D01*
X99995000Y-111598086D01*
X100013317Y-111506000D01*
X99995000Y-111413914D01*
X99995000Y-108629558D01*
X100085492Y-108569093D01*
X100330000Y-108203162D01*
X100574507Y-108569092D01*
X101045007Y-108883471D01*
X101600000Y-108993866D01*
X102154992Y-108883471D01*
X102625492Y-108569093D01*
X102939871Y-108098593D01*
X103022400Y-107683692D01*
X103022400Y-106692309D01*
X102939871Y-106277407D01*
X102625493Y-105806907D01*
X102535000Y-105746442D01*
X102535000Y-105537081D01*
X102553316Y-105444999D01*
X102535000Y-105352917D01*
X102535000Y-105352914D01*
X102480750Y-105080181D01*
X102274097Y-104770903D01*
X102196031Y-104718741D01*
X94163261Y-96685972D01*
X94111097Y-96607903D01*
X93801819Y-96401250D01*
X93529086Y-96347000D01*
X93437000Y-96328683D01*
X93344914Y-96347000D01*
X77172533Y-96347000D01*
X77140157Y-96184235D01*
X76999809Y-95974191D01*
X76789765Y-95833843D01*
X76542000Y-95784560D01*
X74842000Y-95784560D01*
X74594235Y-95833843D01*
X74384191Y-95974191D01*
X74243843Y-96184235D01*
X74234816Y-96229619D01*
X74222625Y-96211375D01*
X74087000Y-96120753D01*
X74087000Y-95596086D01*
X74105317Y-95504000D01*
X74032750Y-95139181D01*
X73878259Y-94907969D01*
X73826097Y-94829903D01*
X73748031Y-94777741D01*
X72862261Y-93891972D01*
X72810097Y-93813903D01*
X72500819Y-93607250D01*
X72228086Y-93553000D01*
X72136000Y-93534683D01*
X72043914Y-93553000D01*
X64100080Y-93553000D01*
X64007999Y-93534684D01*
X63915918Y-93553000D01*
X63915914Y-93553000D01*
X63643181Y-93607250D01*
X63333903Y-93813903D01*
X63281741Y-93891969D01*
X61887970Y-95285741D01*
X61809904Y-95337903D01*
X61757742Y-95415969D01*
X61757741Y-95415970D01*
X61603250Y-95647182D01*
X61530683Y-96012000D01*
X61162000Y-96012000D01*
X61162000Y-77722600D01*
X64248160Y-77722600D01*
X64248160Y-80722600D01*
X64297443Y-80970365D01*
X64437791Y-81180409D01*
X64647835Y-81320757D01*
X64895600Y-81370040D01*
X65160600Y-81370040D01*
X65160600Y-81800968D01*
X65136406Y-81922600D01*
X65160600Y-82044232D01*
X65160600Y-82044235D01*
X65232256Y-82404472D01*
X65505215Y-82812985D01*
X65608334Y-82881887D01*
X66096714Y-83370267D01*
X71651715Y-88925269D01*
X71720615Y-89028385D01*
X71823731Y-89097285D01*
X71823732Y-89097286D01*
X71994572Y-89211437D01*
X72129127Y-89301344D01*
X72489364Y-89373000D01*
X72489368Y-89373000D01*
X72610999Y-89397194D01*
X72732630Y-89373000D01*
X109978447Y-89373000D01*
X111795001Y-91189555D01*
X111795000Y-93858364D01*
X111795000Y-96652368D01*
X111770806Y-96774000D01*
X111795000Y-96895632D01*
X111795000Y-96895635D01*
X111866656Y-97255872D01*
X112139615Y-97664385D01*
X112242734Y-97733287D01*
X117912713Y-103403266D01*
X117981615Y-103506385D01*
X118390127Y-103779344D01*
X118750364Y-103851000D01*
X118750368Y-103851000D01*
X118872000Y-103875194D01*
X118993632Y-103851000D01*
X121859482Y-103851000D01*
X122010136Y-104001654D01*
X122610880Y-104250490D01*
X123261120Y-104250490D01*
X123861864Y-104001654D01*
X124321654Y-103541864D01*
X124570490Y-102941120D01*
X124570490Y-102290880D01*
X124321654Y-101690136D01*
X123861864Y-101230346D01*
X123261120Y-100981510D01*
X122610880Y-100981510D01*
X122010136Y-101230346D01*
X121859482Y-101381000D01*
X119383553Y-101381000D01*
X114265000Y-96262447D01*
X114265000Y-90799630D01*
X114289194Y-90677999D01*
X114265000Y-90556368D01*
X114265000Y-90556364D01*
X114193344Y-90196127D01*
X113920385Y-89787615D01*
X113817269Y-89718715D01*
X111449287Y-87350734D01*
X111380385Y-87247615D01*
X110971873Y-86974656D01*
X110611636Y-86903000D01*
X110611632Y-86903000D01*
X110490000Y-86878806D01*
X110368368Y-86903000D01*
X80691000Y-86903000D01*
X80691000Y-83126017D01*
X80655067Y-83039267D01*
X80636750Y-82947181D01*
X80584588Y-82869115D01*
X80548655Y-82782365D01*
X80482259Y-82715969D01*
X80430097Y-82637903D01*
X80352031Y-82585741D01*
X80285635Y-82519345D01*
X80198883Y-82483411D01*
X80120818Y-82431250D01*
X80028734Y-82412933D01*
X79941983Y-82377000D01*
X79848086Y-82377000D01*
X79756000Y-82358683D01*
X79663914Y-82377000D01*
X79570017Y-82377000D01*
X79483267Y-82412933D01*
X79391181Y-82431250D01*
X79313115Y-82483412D01*
X79226365Y-82519345D01*
X79159969Y-82585741D01*
X79081903Y-82637903D01*
X79029741Y-82715969D01*
X78963345Y-82782365D01*
X78927411Y-82869117D01*
X78875250Y-82947182D01*
X78856933Y-83039266D01*
X78821000Y-83126017D01*
X78821000Y-83219915D01*
X78821001Y-86903000D01*
X73122554Y-86903000D01*
X67843267Y-81623714D01*
X67843265Y-81623712D01*
X67630600Y-81411048D01*
X67630600Y-81370040D01*
X67895600Y-81370040D01*
X68143365Y-81320757D01*
X68353409Y-81180409D01*
X68493757Y-80970365D01*
X68543040Y-80722600D01*
X68543040Y-78797922D01*
X69340600Y-78797922D01*
X69340600Y-79647278D01*
X69665634Y-80431980D01*
X70266220Y-81032566D01*
X71050922Y-81357600D01*
X71900278Y-81357600D01*
X72684980Y-81032566D01*
X73285566Y-80431980D01*
X73610600Y-79647278D01*
X73610600Y-78797922D01*
X74420600Y-78797922D01*
X74420600Y-79647278D01*
X74745634Y-80431980D01*
X75346220Y-81032566D01*
X76130922Y-81357600D01*
X76980278Y-81357600D01*
X77764980Y-81032566D01*
X78365566Y-80431980D01*
X78690600Y-79647278D01*
X78690600Y-78797922D01*
X79500600Y-78797922D01*
X79500600Y-79647278D01*
X79825634Y-80431980D01*
X80426220Y-81032566D01*
X81210922Y-81357600D01*
X82060278Y-81357600D01*
X82844980Y-81032566D01*
X83445566Y-80431980D01*
X83770600Y-79647278D01*
X83770600Y-78797922D01*
X84580600Y-78797922D01*
X84580600Y-79647278D01*
X84905634Y-80431980D01*
X85506220Y-81032566D01*
X86290922Y-81357600D01*
X87140278Y-81357600D01*
X87924980Y-81032566D01*
X88525566Y-80431980D01*
X88850600Y-79647278D01*
X88850600Y-78797922D01*
X89660600Y-78797922D01*
X89660600Y-79647278D01*
X89985634Y-80431980D01*
X90586220Y-81032566D01*
X91370922Y-81357600D01*
X92220278Y-81357600D01*
X93004980Y-81032566D01*
X93605566Y-80431980D01*
X93930600Y-79647278D01*
X93930600Y-78797922D01*
X93605566Y-78013220D01*
X93289546Y-77697200D01*
X94728160Y-77697200D01*
X94728160Y-80697200D01*
X94777443Y-80944965D01*
X94917791Y-81155009D01*
X95127835Y-81295357D01*
X95375600Y-81344640D01*
X98375600Y-81344640D01*
X98623365Y-81295357D01*
X98833409Y-81155009D01*
X98973757Y-80944965D01*
X99023040Y-80697200D01*
X99023040Y-78772522D01*
X99820600Y-78772522D01*
X99820600Y-79621878D01*
X100145634Y-80406580D01*
X100746220Y-81007166D01*
X101530922Y-81332200D01*
X102380278Y-81332200D01*
X103164980Y-81007166D01*
X103460976Y-80711170D01*
X105701235Y-80711170D01*
X105861018Y-81029939D01*
X106651787Y-81339923D01*
X107500987Y-81323697D01*
X108210182Y-81029939D01*
X108369965Y-80711170D01*
X107035600Y-79376805D01*
X105701235Y-80711170D01*
X103460976Y-80711170D01*
X103765566Y-80406580D01*
X104090600Y-79621878D01*
X104090600Y-78813387D01*
X104892877Y-78813387D01*
X104909103Y-79662587D01*
X105202861Y-80371782D01*
X105521630Y-80531565D01*
X106855995Y-79197200D01*
X107215205Y-79197200D01*
X108549570Y-80531565D01*
X108868339Y-80371782D01*
X109178323Y-79581013D01*
X109163361Y-78797922D01*
X115086000Y-78797922D01*
X115086000Y-79647278D01*
X115411034Y-80431980D01*
X116011620Y-81032566D01*
X116796322Y-81357600D01*
X117645678Y-81357600D01*
X118430380Y-81032566D01*
X119030966Y-80431980D01*
X119356000Y-79647278D01*
X119356000Y-79508350D01*
X120166000Y-79508350D01*
X120166000Y-80848910D01*
X120262673Y-81082299D01*
X120441302Y-81260927D01*
X120674691Y-81357600D01*
X122015250Y-81357600D01*
X122174000Y-81198850D01*
X122174000Y-79349600D01*
X122428000Y-79349600D01*
X122428000Y-81198850D01*
X122586750Y-81357600D01*
X123927309Y-81357600D01*
X124160698Y-81260927D01*
X124339327Y-81082299D01*
X124436000Y-80848910D01*
X124436000Y-79508350D01*
X124277250Y-79349600D01*
X122428000Y-79349600D01*
X122174000Y-79349600D01*
X120324750Y-79349600D01*
X120166000Y-79508350D01*
X119356000Y-79508350D01*
X119356000Y-78797922D01*
X119030966Y-78013220D01*
X118614036Y-77596290D01*
X120166000Y-77596290D01*
X120166000Y-78936850D01*
X120324750Y-79095600D01*
X122174000Y-79095600D01*
X122174000Y-77246350D01*
X122428000Y-77246350D01*
X122428000Y-79095600D01*
X124277250Y-79095600D01*
X124436000Y-78936850D01*
X124436000Y-77596290D01*
X124339327Y-77362901D01*
X124160698Y-77184273D01*
X123927309Y-77087600D01*
X122586750Y-77087600D01*
X122428000Y-77246350D01*
X122174000Y-77246350D01*
X122015250Y-77087600D01*
X120674691Y-77087600D01*
X120441302Y-77184273D01*
X120262673Y-77362901D01*
X120166000Y-77596290D01*
X118614036Y-77596290D01*
X118430380Y-77412634D01*
X117645678Y-77087600D01*
X116796322Y-77087600D01*
X116011620Y-77412634D01*
X115411034Y-78013220D01*
X115086000Y-78797922D01*
X109163361Y-78797922D01*
X109162097Y-78731813D01*
X108868339Y-78022618D01*
X108549570Y-77862835D01*
X107215205Y-79197200D01*
X106855995Y-79197200D01*
X105521630Y-77862835D01*
X105202861Y-78022618D01*
X104892877Y-78813387D01*
X104090600Y-78813387D01*
X104090600Y-78772522D01*
X103765566Y-77987820D01*
X103460976Y-77683230D01*
X105701235Y-77683230D01*
X107035600Y-79017595D01*
X108369965Y-77683230D01*
X108210182Y-77364461D01*
X107419413Y-77054477D01*
X106570213Y-77070703D01*
X105861018Y-77364461D01*
X105701235Y-77683230D01*
X103460976Y-77683230D01*
X103164980Y-77387234D01*
X102380278Y-77062200D01*
X101530922Y-77062200D01*
X100746220Y-77387234D01*
X100145634Y-77987820D01*
X99820600Y-78772522D01*
X99023040Y-78772522D01*
X99023040Y-77697200D01*
X98973757Y-77449435D01*
X98833409Y-77239391D01*
X98623365Y-77099043D01*
X98375600Y-77049760D01*
X95375600Y-77049760D01*
X95127835Y-77099043D01*
X94917791Y-77239391D01*
X94777443Y-77449435D01*
X94728160Y-77697200D01*
X93289546Y-77697200D01*
X93004980Y-77412634D01*
X92220278Y-77087600D01*
X91370922Y-77087600D01*
X90586220Y-77412634D01*
X89985634Y-78013220D01*
X89660600Y-78797922D01*
X88850600Y-78797922D01*
X88525566Y-78013220D01*
X87924980Y-77412634D01*
X87140278Y-77087600D01*
X86290922Y-77087600D01*
X85506220Y-77412634D01*
X84905634Y-78013220D01*
X84580600Y-78797922D01*
X83770600Y-78797922D01*
X83445566Y-78013220D01*
X82844980Y-77412634D01*
X82060278Y-77087600D01*
X81210922Y-77087600D01*
X80426220Y-77412634D01*
X79825634Y-78013220D01*
X79500600Y-78797922D01*
X78690600Y-78797922D01*
X78365566Y-78013220D01*
X77764980Y-77412634D01*
X76980278Y-77087600D01*
X76130922Y-77087600D01*
X75346220Y-77412634D01*
X74745634Y-78013220D01*
X74420600Y-78797922D01*
X73610600Y-78797922D01*
X73285566Y-78013220D01*
X72684980Y-77412634D01*
X71900278Y-77087600D01*
X71050922Y-77087600D01*
X70266220Y-77412634D01*
X69665634Y-78013220D01*
X69340600Y-78797922D01*
X68543040Y-78797922D01*
X68543040Y-77722600D01*
X68493757Y-77474835D01*
X68353409Y-77264791D01*
X68143365Y-77124443D01*
X67895600Y-77075160D01*
X64895600Y-77075160D01*
X64647835Y-77124443D01*
X64437791Y-77264791D01*
X64297443Y-77474835D01*
X64248160Y-77722600D01*
X61162000Y-77722600D01*
X61162000Y-74243000D01*
X127687000Y-74243000D01*
X127687001Y-159818000D01*
G36*
X72217000Y-95891290D02*
X72217000Y-96120753D01*
X72081375Y-96211375D01*
X71868157Y-96530478D01*
X71807183Y-96400642D01*
X71378924Y-96010355D01*
X70968890Y-95840524D01*
X70739000Y-95961845D01*
X70739000Y-97155000D01*
X70759000Y-97155000D01*
X70759000Y-97409000D01*
X70739000Y-97409000D01*
X70739000Y-97429000D01*
X70485000Y-97429000D01*
X70485000Y-97409000D01*
X70465000Y-97409000D01*
X70465000Y-97155000D01*
X70485000Y-97155000D01*
X70485000Y-95961845D01*
X70255110Y-95840524D01*
X69845076Y-96010355D01*
X69416817Y-96400642D01*
X69355843Y-96530478D01*
X69142625Y-96211375D01*
X68651418Y-95883161D01*
X68218256Y-95797000D01*
X67925744Y-95797000D01*
X67492582Y-95883161D01*
X67001375Y-96211375D01*
X66802000Y-96509761D01*
X66602625Y-96211375D01*
X66111418Y-95883161D01*
X65678256Y-95797000D01*
X65385744Y-95797000D01*
X64952582Y-95883161D01*
X64461375Y-96211375D01*
X64133161Y-96702582D01*
X64017908Y-97282000D01*
X64133161Y-97861418D01*
X64461375Y-98352625D01*
X64761786Y-98553353D01*
X64336817Y-98940642D01*
X64090514Y-99465108D01*
X64211181Y-99695000D01*
X65405000Y-99695000D01*
X65405000Y-99675000D01*
X65659000Y-99675000D01*
X65659000Y-99695000D01*
X65679000Y-99695000D01*
X65679000Y-99949000D01*
X65659000Y-99949000D01*
X65659000Y-101142155D01*
X65888890Y-101263476D01*
X66298924Y-101093645D01*
X66727183Y-100703358D01*
X66788157Y-100573522D01*
X67001375Y-100892625D01*
X67492582Y-101220839D01*
X67925744Y-101307000D01*
X68171211Y-101307000D01*
X72656454Y-105792243D01*
X72634508Y-105806907D01*
X72390000Y-106172838D01*
X72145493Y-105806907D01*
X71674993Y-105492529D01*
X71120000Y-105382134D01*
X70565008Y-105492529D01*
X70094508Y-105806907D01*
X69850000Y-106172838D01*
X69605493Y-105806907D01*
X69134993Y-105492529D01*
X68580000Y-105382134D01*
X68025008Y-105492529D01*
X67554508Y-105806907D01*
X67310000Y-106172838D01*
X67065493Y-105806907D01*
X66594993Y-105492529D01*
X66040000Y-105382134D01*
X65485008Y-105492529D01*
X65014508Y-105806907D01*
X64700129Y-106277407D01*
X64617600Y-106692308D01*
X64617600Y-107683691D01*
X64700129Y-108098592D01*
X65014507Y-108569092D01*
X65485007Y-108883471D01*
X66040000Y-108993866D01*
X66594992Y-108883471D01*
X67065492Y-108569093D01*
X67310000Y-108203162D01*
X67554507Y-108569092D01*
X68025007Y-108883471D01*
X68580000Y-108993866D01*
X69134992Y-108883471D01*
X69605492Y-108569093D01*
X69850000Y-108203162D01*
X70094507Y-108569092D01*
X70565007Y-108883471D01*
X71120000Y-108993866D01*
X71674992Y-108883471D01*
X72145492Y-108569093D01*
X72390000Y-108203162D01*
X72634507Y-108569092D01*
X73105007Y-108883471D01*
X73660000Y-108993866D01*
X74214992Y-108883471D01*
X74685492Y-108569093D01*
X74930000Y-108203162D01*
X75174507Y-108569092D01*
X75645007Y-108883471D01*
X76200000Y-108993866D01*
X76754992Y-108883471D01*
X77225492Y-108569093D01*
X77470000Y-108203162D01*
X77714507Y-108569092D01*
X78185007Y-108883471D01*
X78740000Y-108993866D01*
X79294992Y-108883471D01*
X79765492Y-108569093D01*
X80010000Y-108203162D01*
X80254507Y-108569092D01*
X80725007Y-108883471D01*
X81280000Y-108993866D01*
X81834992Y-108883471D01*
X82305492Y-108569093D01*
X82550000Y-108203162D01*
X82794507Y-108569092D01*
X83265007Y-108883471D01*
X83820000Y-108993866D01*
X84374992Y-108883471D01*
X84845492Y-108569093D01*
X85090000Y-108203162D01*
X85334507Y-108569092D01*
X85805007Y-108883471D01*
X86360000Y-108993866D01*
X86914992Y-108883471D01*
X87385492Y-108569093D01*
X87630000Y-108203162D01*
X87874507Y-108569092D01*
X88345007Y-108883471D01*
X88900000Y-108993866D01*
X89454992Y-108883471D01*
X89925492Y-108569093D01*
X90170000Y-108203162D01*
X90414507Y-108569092D01*
X90885007Y-108883471D01*
X91440000Y-108993866D01*
X91994992Y-108883471D01*
X92465492Y-108569093D01*
X92712681Y-108199149D01*
X92714475Y-108205262D01*
X93064014Y-108639191D01*
X93553004Y-108906327D01*
X93632940Y-108923010D01*
X93853000Y-108800852D01*
X93853000Y-107315000D01*
X93833000Y-107315000D01*
X93833000Y-107061000D01*
X93853000Y-107061000D01*
X93853000Y-105575148D01*
X93632940Y-105452990D01*
X93553004Y-105469673D01*
X93064014Y-105736809D01*
X92714475Y-106170738D01*
X92712681Y-106176851D01*
X92465493Y-105806907D01*
X91994993Y-105492529D01*
X91440000Y-105382134D01*
X90885008Y-105492529D01*
X90414508Y-105806907D01*
X90170000Y-106172838D01*
X89925493Y-105806907D01*
X89454993Y-105492529D01*
X88900000Y-105382134D01*
X88345008Y-105492529D01*
X87874508Y-105806907D01*
X87630000Y-106172838D01*
X87385493Y-105806907D01*
X86914993Y-105492529D01*
X86360000Y-105382134D01*
X85805008Y-105492529D01*
X85334508Y-105806907D01*
X85090000Y-106172838D01*
X84845493Y-105806907D01*
X84374993Y-105492529D01*
X83820000Y-105382134D01*
X83265008Y-105492529D01*
X82794508Y-105806907D01*
X82550000Y-106172838D01*
X82305493Y-105806907D01*
X82215000Y-105746442D01*
X82215000Y-104041580D01*
X82233316Y-103949499D01*
X82215000Y-103857418D01*
X82215000Y-103857414D01*
X82160750Y-103584681D01*
X81954097Y-103275403D01*
X81876031Y-103223241D01*
X77878761Y-99225972D01*
X77826597Y-99147903D01*
X77517319Y-98941250D01*
X77244586Y-98887000D01*
X77152500Y-98868683D01*
X77060414Y-98887000D01*
X76853247Y-98887000D01*
X76762625Y-98751375D01*
X76744381Y-98739184D01*
X76789765Y-98730157D01*
X76999809Y-98589809D01*
X77140157Y-98379765D01*
X77172533Y-98217000D01*
X93049711Y-98217000D01*
X100613538Y-105780828D01*
X100574508Y-105806907D01*
X100330000Y-106172838D01*
X100085493Y-105806907D01*
X99614993Y-105492529D01*
X99060000Y-105382134D01*
X98505008Y-105492529D01*
X98034508Y-105806907D01*
X97790000Y-106172838D01*
X97545493Y-105806907D01*
X97074993Y-105492529D01*
X96520000Y-105382134D01*
X95965008Y-105492529D01*
X95494508Y-105806907D01*
X95247319Y-106176851D01*
X95245525Y-106170738D01*
X94895986Y-105736809D01*
X94406996Y-105469673D01*
X94327060Y-105452990D01*
X94107000Y-105575148D01*
X94107000Y-107061000D01*
X94127000Y-107061000D01*
X94127000Y-107315000D01*
X94107000Y-107315000D01*
X94107000Y-108800852D01*
X94327060Y-108923010D01*
X94406996Y-108906327D01*
X94895986Y-108639191D01*
X95245525Y-108205262D01*
X95247319Y-108199149D01*
X95494507Y-108569092D01*
X95965007Y-108883471D01*
X96520000Y-108993866D01*
X97074992Y-108883471D01*
X97545492Y-108569093D01*
X97790000Y-108203162D01*
X98034507Y-108569092D01*
X98125000Y-108629558D01*
X98125001Y-111118709D01*
X97910711Y-111333000D01*
X64903290Y-111333000D01*
X63419000Y-109848711D01*
X63419000Y-100178892D01*
X64090514Y-100178892D01*
X64336817Y-100703358D01*
X64765076Y-101093645D01*
X65175110Y-101263476D01*
X65405000Y-101142155D01*
X65405000Y-99949000D01*
X64211181Y-99949000D01*
X64090514Y-100178892D01*
X63419000Y-100178892D01*
X63419000Y-96399289D01*
X64395290Y-95423000D01*
X71748711Y-95423000D01*
X72217000Y-95891290D01*
X72217000Y-95891290D01*
G37*
X72217000Y-95891290D02*
X72217000Y-96120753D01*
X72081375Y-96211375D01*
X71868157Y-96530478D01*
X71807183Y-96400642D01*
X71378924Y-96010355D01*
X70968890Y-95840524D01*
X70739000Y-95961845D01*
X70739000Y-97155000D01*
X70759000Y-97155000D01*
X70759000Y-97409000D01*
X70739000Y-97409000D01*
X70739000Y-97429000D01*
X70485000Y-97429000D01*
X70485000Y-97409000D01*
X70465000Y-97409000D01*
X70465000Y-97155000D01*
X70485000Y-97155000D01*
X70485000Y-95961845D01*
X70255110Y-95840524D01*
X69845076Y-96010355D01*
X69416817Y-96400642D01*
X69355843Y-96530478D01*
X69142625Y-96211375D01*
X68651418Y-95883161D01*
X68218256Y-95797000D01*
X67925744Y-95797000D01*
X67492582Y-95883161D01*
X67001375Y-96211375D01*
X66802000Y-96509761D01*
X66602625Y-96211375D01*
X66111418Y-95883161D01*
X65678256Y-95797000D01*
X65385744Y-95797000D01*
X64952582Y-95883161D01*
X64461375Y-96211375D01*
X64133161Y-96702582D01*
X64017908Y-97282000D01*
X64133161Y-97861418D01*
X64461375Y-98352625D01*
X64761786Y-98553353D01*
X64336817Y-98940642D01*
X64090514Y-99465108D01*
X64211181Y-99695000D01*
X65405000Y-99695000D01*
X65405000Y-99675000D01*
X65659000Y-99675000D01*
X65659000Y-99695000D01*
X65679000Y-99695000D01*
X65679000Y-99949000D01*
X65659000Y-99949000D01*
X65659000Y-101142155D01*
X65888890Y-101263476D01*
X66298924Y-101093645D01*
X66727183Y-100703358D01*
X66788157Y-100573522D01*
X67001375Y-100892625D01*
X67492582Y-101220839D01*
X67925744Y-101307000D01*
X68171211Y-101307000D01*
X72656454Y-105792243D01*
X72634508Y-105806907D01*
X72390000Y-106172838D01*
X72145493Y-105806907D01*
X71674993Y-105492529D01*
X71120000Y-105382134D01*
X70565008Y-105492529D01*
X70094508Y-105806907D01*
X69850000Y-106172838D01*
X69605493Y-105806907D01*
X69134993Y-105492529D01*
X68580000Y-105382134D01*
X68025008Y-105492529D01*
X67554508Y-105806907D01*
X67310000Y-106172838D01*
X67065493Y-105806907D01*
X66594993Y-105492529D01*
X66040000Y-105382134D01*
X65485008Y-105492529D01*
X65014508Y-105806907D01*
X64700129Y-106277407D01*
X64617600Y-106692308D01*
X64617600Y-107683691D01*
X64700129Y-108098592D01*
X65014507Y-108569092D01*
X65485007Y-108883471D01*
X66040000Y-108993866D01*
X66594992Y-108883471D01*
X67065492Y-108569093D01*
X67310000Y-108203162D01*
X67554507Y-108569092D01*
X68025007Y-108883471D01*
X68580000Y-108993866D01*
X69134992Y-108883471D01*
X69605492Y-108569093D01*
X69850000Y-108203162D01*
X70094507Y-108569092D01*
X70565007Y-108883471D01*
X71120000Y-108993866D01*
X71674992Y-108883471D01*
X72145492Y-108569093D01*
X72390000Y-108203162D01*
X72634507Y-108569092D01*
X73105007Y-108883471D01*
X73660000Y-108993866D01*
X74214992Y-108883471D01*
X74685492Y-108569093D01*
X74930000Y-108203162D01*
X75174507Y-108569092D01*
X75645007Y-108883471D01*
X76200000Y-108993866D01*
X76754992Y-108883471D01*
X77225492Y-108569093D01*
X77470000Y-108203162D01*
X77714507Y-108569092D01*
X78185007Y-108883471D01*
X78740000Y-108993866D01*
X79294992Y-108883471D01*
X79765492Y-108569093D01*
X80010000Y-108203162D01*
X80254507Y-108569092D01*
X80725007Y-108883471D01*
X81280000Y-108993866D01*
X81834992Y-108883471D01*
X82305492Y-108569093D01*
X82550000Y-108203162D01*
X82794507Y-108569092D01*
X83265007Y-108883471D01*
X83820000Y-108993866D01*
X84374992Y-108883471D01*
X84845492Y-108569093D01*
X85090000Y-108203162D01*
X85334507Y-108569092D01*
X85805007Y-108883471D01*
X86360000Y-108993866D01*
X86914992Y-108883471D01*
X87385492Y-108569093D01*
X87630000Y-108203162D01*
X87874507Y-108569092D01*
X88345007Y-108883471D01*
X88900000Y-108993866D01*
X89454992Y-108883471D01*
X89925492Y-108569093D01*
X90170000Y-108203162D01*
X90414507Y-108569092D01*
X90885007Y-108883471D01*
X91440000Y-108993866D01*
X91994992Y-108883471D01*
X92465492Y-108569093D01*
X92712681Y-108199149D01*
X92714475Y-108205262D01*
X93064014Y-108639191D01*
X93553004Y-108906327D01*
X93632940Y-108923010D01*
X93853000Y-108800852D01*
X93853000Y-107315000D01*
X93833000Y-107315000D01*
X93833000Y-107061000D01*
X93853000Y-107061000D01*
X93853000Y-105575148D01*
X93632940Y-105452990D01*
X93553004Y-105469673D01*
X93064014Y-105736809D01*
X92714475Y-106170738D01*
X92712681Y-106176851D01*
X92465493Y-105806907D01*
X91994993Y-105492529D01*
X91440000Y-105382134D01*
X90885008Y-105492529D01*
X90414508Y-105806907D01*
X90170000Y-106172838D01*
X89925493Y-105806907D01*
X89454993Y-105492529D01*
X88900000Y-105382134D01*
X88345008Y-105492529D01*
X87874508Y-105806907D01*
X87630000Y-106172838D01*
X87385493Y-105806907D01*
X86914993Y-105492529D01*
X86360000Y-105382134D01*
X85805008Y-105492529D01*
X85334508Y-105806907D01*
X85090000Y-106172838D01*
X84845493Y-105806907D01*
X84374993Y-105492529D01*
X83820000Y-105382134D01*
X83265008Y-105492529D01*
X82794508Y-105806907D01*
X82550000Y-106172838D01*
X82305493Y-105806907D01*
X82215000Y-105746442D01*
X82215000Y-104041580D01*
X82233316Y-103949499D01*
X82215000Y-103857418D01*
X82215000Y-103857414D01*
X82160750Y-103584681D01*
X81954097Y-103275403D01*
X81876031Y-103223241D01*
X77878761Y-99225972D01*
X77826597Y-99147903D01*
X77517319Y-98941250D01*
X77244586Y-98887000D01*
X77152500Y-98868683D01*
X77060414Y-98887000D01*
X76853247Y-98887000D01*
X76762625Y-98751375D01*
X76744381Y-98739184D01*
X76789765Y-98730157D01*
X76999809Y-98589809D01*
X77140157Y-98379765D01*
X77172533Y-98217000D01*
X93049711Y-98217000D01*
X100613538Y-105780828D01*
X100574508Y-105806907D01*
X100330000Y-106172838D01*
X100085493Y-105806907D01*
X99614993Y-105492529D01*
X99060000Y-105382134D01*
X98505008Y-105492529D01*
X98034508Y-105806907D01*
X97790000Y-106172838D01*
X97545493Y-105806907D01*
X97074993Y-105492529D01*
X96520000Y-105382134D01*
X95965008Y-105492529D01*
X95494508Y-105806907D01*
X95247319Y-106176851D01*
X95245525Y-106170738D01*
X94895986Y-105736809D01*
X94406996Y-105469673D01*
X94327060Y-105452990D01*
X94107000Y-105575148D01*
X94107000Y-107061000D01*
X94127000Y-107061000D01*
X94127000Y-107315000D01*
X94107000Y-107315000D01*
X94107000Y-108800852D01*
X94327060Y-108923010D01*
X94406996Y-108906327D01*
X94895986Y-108639191D01*
X95245525Y-108205262D01*
X95247319Y-108199149D01*
X95494507Y-108569092D01*
X95965007Y-108883471D01*
X96520000Y-108993866D01*
X97074992Y-108883471D01*
X97545492Y-108569093D01*
X97790000Y-108203162D01*
X98034507Y-108569092D01*
X98125000Y-108629558D01*
X98125001Y-111118709D01*
X97910711Y-111333000D01*
X64903290Y-111333000D01*
X63419000Y-109848711D01*
X63419000Y-100178892D01*
X64090514Y-100178892D01*
X64336817Y-100703358D01*
X64765076Y-101093645D01*
X65175110Y-101263476D01*
X65405000Y-101142155D01*
X65405000Y-99949000D01*
X64211181Y-99949000D01*
X64090514Y-100178892D01*
X63419000Y-100178892D01*
X63419000Y-96399289D01*
X64395290Y-95423000D01*
X71748711Y-95423000D01*
X72217000Y-95891290D01*
G04 #@! TD*
M02*
