G04 #@! TF.GenerationSoftware,KiCad,Pcbnew,5.0.2+dfsg1-1*
G04 #@! TF.CreationDate,2021-01-22T13:52:48+01:00*
G04 #@! TF.ProjectId,wat,7761742e-6b69-4636-9164-5f7063625858,rev?*
G04 #@! TF.SameCoordinates,Original*
G04 #@! TF.FileFunction,Other,Fab,Top*
%FSLAX46Y46*%
G04 Gerber Fmt 4.6, Leading zero omitted, Abs format (unit mm)*
G04 Created by KiCad (PCBNEW 5.0.2+dfsg1-1) date vie 22 ene 2021 13:52:48 CET*
%MOMM*%
%LPD*%
G01*
G04 APERTURE LIST*
%ADD10C,0.100000*%
%ADD11C,0.150000*%
G04 APERTURE END LIST*
D10*
G04 #@! TO.C,C11*
X80410000Y-133820000D02*
X83610000Y-133820000D01*
X83610000Y-133820000D02*
X83610000Y-135420000D01*
X83610000Y-135420000D02*
X80410000Y-135420000D01*
X80410000Y-135420000D02*
X80410000Y-133820000D01*
G04 #@! TO.C,J4*
X94295600Y-75472600D02*
X63895600Y-75472600D01*
X94295600Y-82972600D02*
X94295600Y-75472600D01*
X63895600Y-82972600D02*
X94295600Y-82972600D01*
X63895600Y-75472600D02*
X63895600Y-82972600D01*
X63895600Y-81772600D02*
X94295600Y-81772600D01*
G04 #@! TO.C,C1*
X122959500Y-108438500D02*
X122959500Y-113938500D01*
X122959500Y-113938500D02*
X117959500Y-113938500D01*
X117959500Y-113938500D02*
X117959500Y-108438500D01*
X117959500Y-108438500D02*
X122959500Y-108438500D01*
G04 #@! TO.C,C2*
X108026000Y-101638000D02*
X104826000Y-101638000D01*
X104826000Y-101638000D02*
X104826000Y-100038000D01*
X104826000Y-100038000D02*
X108026000Y-100038000D01*
X108026000Y-100038000D02*
X108026000Y-101638000D01*
G04 #@! TO.C,C5*
X91516000Y-91224000D02*
X88316000Y-91224000D01*
X88316000Y-91224000D02*
X88316000Y-89624000D01*
X88316000Y-89624000D02*
X91516000Y-89624000D01*
X91516000Y-89624000D02*
X91516000Y-91224000D01*
G04 #@! TO.C,C6*
X84252000Y-86906000D02*
X84252000Y-85306000D01*
X87452000Y-86906000D02*
X84252000Y-86906000D01*
X87452000Y-85306000D02*
X87452000Y-86906000D01*
X84252000Y-85306000D02*
X87452000Y-85306000D01*
G04 #@! TO.C,C7*
X75260000Y-91224000D02*
X72060000Y-91224000D01*
X72060000Y-91224000D02*
X72060000Y-89624000D01*
X72060000Y-89624000D02*
X75260000Y-89624000D01*
X75260000Y-89624000D02*
X75260000Y-91224000D01*
G04 #@! TO.C,C8*
X67996000Y-86906000D02*
X67996000Y-85306000D01*
X71196000Y-86906000D02*
X67996000Y-86906000D01*
X71196000Y-85306000D02*
X71196000Y-86906000D01*
X67996000Y-85306000D02*
X71196000Y-85306000D01*
G04 #@! TO.C,C9*
X67386000Y-135420000D02*
X64186000Y-135420000D01*
X64186000Y-135420000D02*
X64186000Y-133820000D01*
X64186000Y-133820000D02*
X67386000Y-133820000D01*
X67386000Y-133820000D02*
X67386000Y-135420000D01*
G04 #@! TO.C,C10*
X75514000Y-133820000D02*
X75514000Y-135420000D01*
X72314000Y-133820000D02*
X75514000Y-133820000D01*
X72314000Y-135420000D02*
X72314000Y-133820000D01*
X75514000Y-135420000D02*
X72314000Y-135420000D01*
G04 #@! TO.C,C12*
X88570000Y-135420000D02*
X88570000Y-133820000D01*
X91770000Y-135420000D02*
X88570000Y-135420000D01*
X91770000Y-133820000D02*
X91770000Y-135420000D01*
X88570000Y-133820000D02*
X91770000Y-133820000D01*
G04 #@! TO.C,C13*
X100406000Y-135420000D02*
X97206000Y-135420000D01*
X97206000Y-135420000D02*
X97206000Y-133820000D01*
X97206000Y-133820000D02*
X100406000Y-133820000D01*
X100406000Y-133820000D02*
X100406000Y-135420000D01*
G04 #@! TO.C,C14*
X108534000Y-133820000D02*
X108534000Y-135420000D01*
X105334000Y-133820000D02*
X108534000Y-133820000D01*
X105334000Y-135420000D02*
X105334000Y-133820000D01*
X108534000Y-135420000D02*
X105334000Y-135420000D01*
G04 #@! TO.C,C15*
X113462000Y-135420000D02*
X113462000Y-133820000D01*
X116662000Y-135420000D02*
X113462000Y-135420000D01*
X116662000Y-133820000D02*
X116662000Y-135420000D01*
X113462000Y-133820000D02*
X116662000Y-133820000D01*
G04 #@! TO.C,C16*
X121590000Y-133820000D02*
X124790000Y-133820000D01*
X124790000Y-133820000D02*
X124790000Y-135420000D01*
X124790000Y-135420000D02*
X121590000Y-135420000D01*
X121590000Y-135420000D02*
X121590000Y-133820000D01*
G04 #@! TO.C,J1*
X75692000Y-96012000D02*
X76962000Y-97282000D01*
X64262000Y-96012000D02*
X75692000Y-96012000D01*
X64262000Y-101092000D02*
X64262000Y-96012000D01*
X76962000Y-101092000D02*
X64262000Y-101092000D01*
X76962000Y-97282000D02*
X76962000Y-101092000D01*
G04 #@! TO.C,J2*
X124826400Y-151164600D02*
X94426400Y-151164600D01*
X124826400Y-158664600D02*
X124826400Y-151164600D01*
X94426400Y-158664600D02*
X124826400Y-158664600D01*
X94426400Y-151164600D02*
X94426400Y-158664600D01*
X94426400Y-157464600D02*
X124826400Y-157464600D01*
G04 #@! TO.C,J3*
X94405600Y-81747200D02*
X109505600Y-81747200D01*
X94405600Y-75447200D02*
X109505600Y-75447200D01*
X109505600Y-75447200D02*
X109505600Y-82947200D01*
X109505600Y-82947200D02*
X94405600Y-82947200D01*
X94405600Y-82947200D02*
X94405600Y-75447200D01*
G04 #@! TO.C,J5*
X63971800Y-157490000D02*
X94371800Y-157490000D01*
X63971800Y-151190000D02*
X63971800Y-158690000D01*
X63971800Y-158690000D02*
X94371800Y-158690000D01*
X94371800Y-158690000D02*
X94371800Y-151190000D01*
X94371800Y-151190000D02*
X63971800Y-151190000D01*
G04 #@! TO.C,P1*
X114761000Y-82972600D02*
X124761000Y-82972600D01*
X114761000Y-75472600D02*
X114761000Y-82972600D01*
X124761000Y-75472600D02*
X114761000Y-75472600D01*
X124761000Y-82972600D02*
X124761000Y-75472600D01*
X124711000Y-76672600D02*
X114811000Y-76672600D01*
G04 #@! TO.C,C3*
X107772000Y-89624000D02*
X107772000Y-91224000D01*
X104572000Y-89624000D02*
X107772000Y-89624000D01*
X104572000Y-91224000D02*
X104572000Y-89624000D01*
X107772000Y-91224000D02*
X104572000Y-91224000D01*
G04 #@! TO.C,C4*
X100508000Y-85306000D02*
X103708000Y-85306000D01*
X103708000Y-85306000D02*
X103708000Y-86906000D01*
X103708000Y-86906000D02*
X100508000Y-86906000D01*
X100508000Y-86906000D02*
X100508000Y-85306000D01*
G04 #@! TO.C,D1*
X122259500Y-92967500D02*
X118659500Y-92967500D01*
X122259500Y-92967500D02*
X122259500Y-98167500D01*
X120460520Y-96216940D02*
X119660420Y-95066320D01*
X120460520Y-96216940D02*
X121209820Y-95066320D01*
X121209820Y-95066320D02*
X119660420Y-95066320D01*
X119660420Y-96216940D02*
X121260620Y-96216940D01*
X120460520Y-95066320D02*
X120460520Y-94068100D01*
X120460520Y-96216940D02*
X120460520Y-97118640D01*
X118659500Y-92967500D02*
X118659500Y-98167500D01*
X122259500Y-98167500D02*
X118659500Y-98167500D01*
G04 #@! TD*
G04 #@! TO.C,C11*
D11*
X79478380Y-133040380D02*
X78906952Y-133040380D01*
X79192666Y-133040380D02*
X79192666Y-132040380D01*
X79097428Y-132183238D01*
X79002190Y-132278476D01*
X78906952Y-132326095D01*
X80097428Y-132040380D02*
X80192666Y-132040380D01*
X80287904Y-132088000D01*
X80335523Y-132135619D01*
X80383142Y-132230857D01*
X80430761Y-132421333D01*
X80430761Y-132659428D01*
X80383142Y-132849904D01*
X80335523Y-132945142D01*
X80287904Y-132992761D01*
X80192666Y-133040380D01*
X80097428Y-133040380D01*
X80002190Y-132992761D01*
X79954571Y-132945142D01*
X79906952Y-132849904D01*
X79859333Y-132659428D01*
X79859333Y-132421333D01*
X79906952Y-132230857D01*
X79954571Y-132135619D01*
X80002190Y-132088000D01*
X80097428Y-132040380D01*
X81049809Y-132040380D02*
X81145047Y-132040380D01*
X81240285Y-132088000D01*
X81287904Y-132135619D01*
X81335523Y-132230857D01*
X81383142Y-132421333D01*
X81383142Y-132659428D01*
X81335523Y-132849904D01*
X81287904Y-132945142D01*
X81240285Y-132992761D01*
X81145047Y-133040380D01*
X81049809Y-133040380D01*
X80954571Y-132992761D01*
X80906952Y-132945142D01*
X80859333Y-132849904D01*
X80811714Y-132659428D01*
X80811714Y-132421333D01*
X80859333Y-132230857D01*
X80906952Y-132135619D01*
X80954571Y-132088000D01*
X81049809Y-132040380D01*
X81811714Y-132373714D02*
X81811714Y-133040380D01*
X81811714Y-132468952D02*
X81859333Y-132421333D01*
X81954571Y-132373714D01*
X82097428Y-132373714D01*
X82192666Y-132421333D01*
X82240285Y-132516571D01*
X82240285Y-133040380D01*
X83049809Y-132516571D02*
X82716476Y-132516571D01*
X82716476Y-133040380D02*
X82716476Y-132040380D01*
X83192666Y-132040380D01*
G04 #@! TO.C,J4*
X75357504Y-84329742D02*
X75309885Y-84377361D01*
X75167028Y-84424980D01*
X75071790Y-84424980D01*
X74928933Y-84377361D01*
X74833695Y-84282123D01*
X74786076Y-84186885D01*
X74738457Y-83996409D01*
X74738457Y-83853552D01*
X74786076Y-83663076D01*
X74833695Y-83567838D01*
X74928933Y-83472600D01*
X75071790Y-83424980D01*
X75167028Y-83424980D01*
X75309885Y-83472600D01*
X75357504Y-83520219D01*
X75928933Y-84424980D02*
X75833695Y-84377361D01*
X75786076Y-84329742D01*
X75738457Y-84234504D01*
X75738457Y-83948790D01*
X75786076Y-83853552D01*
X75833695Y-83805933D01*
X75928933Y-83758314D01*
X76071790Y-83758314D01*
X76167028Y-83805933D01*
X76214647Y-83853552D01*
X76262266Y-83948790D01*
X76262266Y-84234504D01*
X76214647Y-84329742D01*
X76167028Y-84377361D01*
X76071790Y-84424980D01*
X75928933Y-84424980D01*
X76690838Y-83758314D02*
X76690838Y-84424980D01*
X76690838Y-83853552D02*
X76738457Y-83805933D01*
X76833695Y-83758314D01*
X76976552Y-83758314D01*
X77071790Y-83805933D01*
X77119409Y-83901171D01*
X77119409Y-84424980D01*
X77595600Y-83758314D02*
X77595600Y-84424980D01*
X77595600Y-83853552D02*
X77643219Y-83805933D01*
X77738457Y-83758314D01*
X77881314Y-83758314D01*
X77976552Y-83805933D01*
X78024171Y-83901171D01*
X78024171Y-84424980D01*
X78262266Y-84520219D02*
X79024171Y-84520219D01*
X79452742Y-83424980D02*
X79547980Y-83424980D01*
X79643219Y-83472600D01*
X79690838Y-83520219D01*
X79738457Y-83615457D01*
X79786076Y-83805933D01*
X79786076Y-84044028D01*
X79738457Y-84234504D01*
X79690838Y-84329742D01*
X79643219Y-84377361D01*
X79547980Y-84424980D01*
X79452742Y-84424980D01*
X79357504Y-84377361D01*
X79309885Y-84329742D01*
X79262266Y-84234504D01*
X79214647Y-84044028D01*
X79214647Y-83805933D01*
X79262266Y-83615457D01*
X79309885Y-83520219D01*
X79357504Y-83472600D01*
X79452742Y-83424980D01*
X80738457Y-84424980D02*
X80167028Y-84424980D01*
X80452742Y-84424980D02*
X80452742Y-83424980D01*
X80357504Y-83567838D01*
X80262266Y-83663076D01*
X80167028Y-83710695D01*
X81071790Y-84424980D02*
X81595600Y-83758314D01*
X81071790Y-83758314D02*
X81595600Y-84424980D01*
X82167028Y-83424980D02*
X82262266Y-83424980D01*
X82357504Y-83472600D01*
X82405123Y-83520219D01*
X82452742Y-83615457D01*
X82500361Y-83805933D01*
X82500361Y-84044028D01*
X82452742Y-84234504D01*
X82405123Y-84329742D01*
X82357504Y-84377361D01*
X82262266Y-84424980D01*
X82167028Y-84424980D01*
X82071790Y-84377361D01*
X82024171Y-84329742D01*
X81976552Y-84234504D01*
X81928933Y-84044028D01*
X81928933Y-83805933D01*
X81976552Y-83615457D01*
X82024171Y-83520219D01*
X82071790Y-83472600D01*
X82167028Y-83424980D01*
X83357504Y-83424980D02*
X83167028Y-83424980D01*
X83071790Y-83472600D01*
X83024171Y-83520219D01*
X82928933Y-83663076D01*
X82881314Y-83853552D01*
X82881314Y-84234504D01*
X82928933Y-84329742D01*
X82976552Y-84377361D01*
X83071790Y-84424980D01*
X83262266Y-84424980D01*
X83357504Y-84377361D01*
X83405123Y-84329742D01*
X83452742Y-84234504D01*
X83452742Y-83996409D01*
X83405123Y-83901171D01*
X83357504Y-83853552D01*
X83262266Y-83805933D01*
X83071790Y-83805933D01*
X82976552Y-83853552D01*
X82928933Y-83901171D01*
X82881314Y-83996409D01*
X78762266Y-78674980D02*
X78762266Y-79389266D01*
X78714647Y-79532123D01*
X78619409Y-79627361D01*
X78476552Y-79674980D01*
X78381314Y-79674980D01*
X79667028Y-79008314D02*
X79667028Y-79674980D01*
X79428933Y-78627361D02*
X79190838Y-79341647D01*
X79809885Y-79341647D01*
G04 #@! TO.C,C1*
X124336880Y-111223928D02*
X124336880Y-111795357D01*
X124336880Y-111509642D02*
X123336880Y-111509642D01*
X123479738Y-111604880D01*
X123574976Y-111700119D01*
X123622595Y-111795357D01*
X123336880Y-110604880D02*
X123336880Y-110509642D01*
X123384500Y-110414404D01*
X123432119Y-110366785D01*
X123527357Y-110319166D01*
X123717833Y-110271547D01*
X123955928Y-110271547D01*
X124146404Y-110319166D01*
X124241642Y-110366785D01*
X124289261Y-110414404D01*
X124336880Y-110509642D01*
X124336880Y-110604880D01*
X124289261Y-110700119D01*
X124241642Y-110747738D01*
X124146404Y-110795357D01*
X123955928Y-110842976D01*
X123717833Y-110842976D01*
X123527357Y-110795357D01*
X123432119Y-110747738D01*
X123384500Y-110700119D01*
X123336880Y-110604880D01*
X123670214Y-109414404D02*
X124336880Y-109414404D01*
X123670214Y-109842976D02*
X124194023Y-109842976D01*
X124289261Y-109795357D01*
X124336880Y-109700119D01*
X124336880Y-109557261D01*
X124289261Y-109462023D01*
X124241642Y-109414404D01*
X123813071Y-108604880D02*
X123813071Y-108938214D01*
X124336880Y-108938214D02*
X123336880Y-108938214D01*
X123336880Y-108462023D01*
G04 #@! TO.C,C2*
X106402380Y-103322380D02*
X105830952Y-103322380D01*
X106116666Y-103322380D02*
X106116666Y-102322380D01*
X106021428Y-102465238D01*
X105926190Y-102560476D01*
X105830952Y-102608095D01*
X107021428Y-102322380D02*
X107116666Y-102322380D01*
X107211904Y-102370000D01*
X107259523Y-102417619D01*
X107307142Y-102512857D01*
X107354761Y-102703333D01*
X107354761Y-102941428D01*
X107307142Y-103131904D01*
X107259523Y-103227142D01*
X107211904Y-103274761D01*
X107116666Y-103322380D01*
X107021428Y-103322380D01*
X106926190Y-103274761D01*
X106878571Y-103227142D01*
X106830952Y-103131904D01*
X106783333Y-102941428D01*
X106783333Y-102703333D01*
X106830952Y-102512857D01*
X106878571Y-102417619D01*
X106926190Y-102370000D01*
X107021428Y-102322380D01*
X107973809Y-102322380D02*
X108069047Y-102322380D01*
X108164285Y-102370000D01*
X108211904Y-102417619D01*
X108259523Y-102512857D01*
X108307142Y-102703333D01*
X108307142Y-102941428D01*
X108259523Y-103131904D01*
X108211904Y-103227142D01*
X108164285Y-103274761D01*
X108069047Y-103322380D01*
X107973809Y-103322380D01*
X107878571Y-103274761D01*
X107830952Y-103227142D01*
X107783333Y-103131904D01*
X107735714Y-102941428D01*
X107735714Y-102703333D01*
X107783333Y-102512857D01*
X107830952Y-102417619D01*
X107878571Y-102370000D01*
X107973809Y-102322380D01*
X108735714Y-102655714D02*
X108735714Y-103322380D01*
X108735714Y-102750952D02*
X108783333Y-102703333D01*
X108878571Y-102655714D01*
X109021428Y-102655714D01*
X109116666Y-102703333D01*
X109164285Y-102798571D01*
X109164285Y-103322380D01*
X109973809Y-102798571D02*
X109640476Y-102798571D01*
X109640476Y-103322380D02*
X109640476Y-102322380D01*
X110116666Y-102322380D01*
G04 #@! TO.C,C5*
X90019380Y-92527380D02*
X89447952Y-92527380D01*
X89733666Y-92527380D02*
X89733666Y-91527380D01*
X89638428Y-91670238D01*
X89543190Y-91765476D01*
X89447952Y-91813095D01*
X90638428Y-91527380D02*
X90733666Y-91527380D01*
X90828904Y-91575000D01*
X90876523Y-91622619D01*
X90924142Y-91717857D01*
X90971761Y-91908333D01*
X90971761Y-92146428D01*
X90924142Y-92336904D01*
X90876523Y-92432142D01*
X90828904Y-92479761D01*
X90733666Y-92527380D01*
X90638428Y-92527380D01*
X90543190Y-92479761D01*
X90495571Y-92432142D01*
X90447952Y-92336904D01*
X90400333Y-92146428D01*
X90400333Y-91908333D01*
X90447952Y-91717857D01*
X90495571Y-91622619D01*
X90543190Y-91575000D01*
X90638428Y-91527380D01*
X91590809Y-91527380D02*
X91686047Y-91527380D01*
X91781285Y-91575000D01*
X91828904Y-91622619D01*
X91876523Y-91717857D01*
X91924142Y-91908333D01*
X91924142Y-92146428D01*
X91876523Y-92336904D01*
X91828904Y-92432142D01*
X91781285Y-92479761D01*
X91686047Y-92527380D01*
X91590809Y-92527380D01*
X91495571Y-92479761D01*
X91447952Y-92432142D01*
X91400333Y-92336904D01*
X91352714Y-92146428D01*
X91352714Y-91908333D01*
X91400333Y-91717857D01*
X91447952Y-91622619D01*
X91495571Y-91575000D01*
X91590809Y-91527380D01*
X92352714Y-91860714D02*
X92352714Y-92527380D01*
X92352714Y-91955952D02*
X92400333Y-91908333D01*
X92495571Y-91860714D01*
X92638428Y-91860714D01*
X92733666Y-91908333D01*
X92781285Y-92003571D01*
X92781285Y-92527380D01*
X93590809Y-92003571D02*
X93257476Y-92003571D01*
X93257476Y-92527380D02*
X93257476Y-91527380D01*
X93733666Y-91527380D01*
G04 #@! TO.C,C6*
X82653380Y-84907380D02*
X82081952Y-84907380D01*
X82367666Y-84907380D02*
X82367666Y-83907380D01*
X82272428Y-84050238D01*
X82177190Y-84145476D01*
X82081952Y-84193095D01*
X83272428Y-83907380D02*
X83367666Y-83907380D01*
X83462904Y-83955000D01*
X83510523Y-84002619D01*
X83558142Y-84097857D01*
X83605761Y-84288333D01*
X83605761Y-84526428D01*
X83558142Y-84716904D01*
X83510523Y-84812142D01*
X83462904Y-84859761D01*
X83367666Y-84907380D01*
X83272428Y-84907380D01*
X83177190Y-84859761D01*
X83129571Y-84812142D01*
X83081952Y-84716904D01*
X83034333Y-84526428D01*
X83034333Y-84288333D01*
X83081952Y-84097857D01*
X83129571Y-84002619D01*
X83177190Y-83955000D01*
X83272428Y-83907380D01*
X84224809Y-83907380D02*
X84320047Y-83907380D01*
X84415285Y-83955000D01*
X84462904Y-84002619D01*
X84510523Y-84097857D01*
X84558142Y-84288333D01*
X84558142Y-84526428D01*
X84510523Y-84716904D01*
X84462904Y-84812142D01*
X84415285Y-84859761D01*
X84320047Y-84907380D01*
X84224809Y-84907380D01*
X84129571Y-84859761D01*
X84081952Y-84812142D01*
X84034333Y-84716904D01*
X83986714Y-84526428D01*
X83986714Y-84288333D01*
X84034333Y-84097857D01*
X84081952Y-84002619D01*
X84129571Y-83955000D01*
X84224809Y-83907380D01*
X84986714Y-84240714D02*
X84986714Y-84907380D01*
X84986714Y-84335952D02*
X85034333Y-84288333D01*
X85129571Y-84240714D01*
X85272428Y-84240714D01*
X85367666Y-84288333D01*
X85415285Y-84383571D01*
X85415285Y-84907380D01*
X86224809Y-84383571D02*
X85891476Y-84383571D01*
X85891476Y-84907380D02*
X85891476Y-83907380D01*
X86367666Y-83907380D01*
G04 #@! TO.C,C7*
X73763380Y-92527380D02*
X73191952Y-92527380D01*
X73477666Y-92527380D02*
X73477666Y-91527380D01*
X73382428Y-91670238D01*
X73287190Y-91765476D01*
X73191952Y-91813095D01*
X74382428Y-91527380D02*
X74477666Y-91527380D01*
X74572904Y-91575000D01*
X74620523Y-91622619D01*
X74668142Y-91717857D01*
X74715761Y-91908333D01*
X74715761Y-92146428D01*
X74668142Y-92336904D01*
X74620523Y-92432142D01*
X74572904Y-92479761D01*
X74477666Y-92527380D01*
X74382428Y-92527380D01*
X74287190Y-92479761D01*
X74239571Y-92432142D01*
X74191952Y-92336904D01*
X74144333Y-92146428D01*
X74144333Y-91908333D01*
X74191952Y-91717857D01*
X74239571Y-91622619D01*
X74287190Y-91575000D01*
X74382428Y-91527380D01*
X75334809Y-91527380D02*
X75430047Y-91527380D01*
X75525285Y-91575000D01*
X75572904Y-91622619D01*
X75620523Y-91717857D01*
X75668142Y-91908333D01*
X75668142Y-92146428D01*
X75620523Y-92336904D01*
X75572904Y-92432142D01*
X75525285Y-92479761D01*
X75430047Y-92527380D01*
X75334809Y-92527380D01*
X75239571Y-92479761D01*
X75191952Y-92432142D01*
X75144333Y-92336904D01*
X75096714Y-92146428D01*
X75096714Y-91908333D01*
X75144333Y-91717857D01*
X75191952Y-91622619D01*
X75239571Y-91575000D01*
X75334809Y-91527380D01*
X76096714Y-91860714D02*
X76096714Y-92527380D01*
X76096714Y-91955952D02*
X76144333Y-91908333D01*
X76239571Y-91860714D01*
X76382428Y-91860714D01*
X76477666Y-91908333D01*
X76525285Y-92003571D01*
X76525285Y-92527380D01*
X77334809Y-92003571D02*
X77001476Y-92003571D01*
X77001476Y-92527380D02*
X77001476Y-91527380D01*
X77477666Y-91527380D01*
G04 #@! TO.C,C8*
X66397380Y-84907380D02*
X65825952Y-84907380D01*
X66111666Y-84907380D02*
X66111666Y-83907380D01*
X66016428Y-84050238D01*
X65921190Y-84145476D01*
X65825952Y-84193095D01*
X67016428Y-83907380D02*
X67111666Y-83907380D01*
X67206904Y-83955000D01*
X67254523Y-84002619D01*
X67302142Y-84097857D01*
X67349761Y-84288333D01*
X67349761Y-84526428D01*
X67302142Y-84716904D01*
X67254523Y-84812142D01*
X67206904Y-84859761D01*
X67111666Y-84907380D01*
X67016428Y-84907380D01*
X66921190Y-84859761D01*
X66873571Y-84812142D01*
X66825952Y-84716904D01*
X66778333Y-84526428D01*
X66778333Y-84288333D01*
X66825952Y-84097857D01*
X66873571Y-84002619D01*
X66921190Y-83955000D01*
X67016428Y-83907380D01*
X67968809Y-83907380D02*
X68064047Y-83907380D01*
X68159285Y-83955000D01*
X68206904Y-84002619D01*
X68254523Y-84097857D01*
X68302142Y-84288333D01*
X68302142Y-84526428D01*
X68254523Y-84716904D01*
X68206904Y-84812142D01*
X68159285Y-84859761D01*
X68064047Y-84907380D01*
X67968809Y-84907380D01*
X67873571Y-84859761D01*
X67825952Y-84812142D01*
X67778333Y-84716904D01*
X67730714Y-84526428D01*
X67730714Y-84288333D01*
X67778333Y-84097857D01*
X67825952Y-84002619D01*
X67873571Y-83955000D01*
X67968809Y-83907380D01*
X68730714Y-84240714D02*
X68730714Y-84907380D01*
X68730714Y-84335952D02*
X68778333Y-84288333D01*
X68873571Y-84240714D01*
X69016428Y-84240714D01*
X69111666Y-84288333D01*
X69159285Y-84383571D01*
X69159285Y-84907380D01*
X69968809Y-84383571D02*
X69635476Y-84383571D01*
X69635476Y-84907380D02*
X69635476Y-83907380D01*
X70111666Y-83907380D01*
G04 #@! TO.C,C9*
X63222380Y-132786380D02*
X62650952Y-132786380D01*
X62936666Y-132786380D02*
X62936666Y-131786380D01*
X62841428Y-131929238D01*
X62746190Y-132024476D01*
X62650952Y-132072095D01*
X63841428Y-131786380D02*
X63936666Y-131786380D01*
X64031904Y-131834000D01*
X64079523Y-131881619D01*
X64127142Y-131976857D01*
X64174761Y-132167333D01*
X64174761Y-132405428D01*
X64127142Y-132595904D01*
X64079523Y-132691142D01*
X64031904Y-132738761D01*
X63936666Y-132786380D01*
X63841428Y-132786380D01*
X63746190Y-132738761D01*
X63698571Y-132691142D01*
X63650952Y-132595904D01*
X63603333Y-132405428D01*
X63603333Y-132167333D01*
X63650952Y-131976857D01*
X63698571Y-131881619D01*
X63746190Y-131834000D01*
X63841428Y-131786380D01*
X64793809Y-131786380D02*
X64889047Y-131786380D01*
X64984285Y-131834000D01*
X65031904Y-131881619D01*
X65079523Y-131976857D01*
X65127142Y-132167333D01*
X65127142Y-132405428D01*
X65079523Y-132595904D01*
X65031904Y-132691142D01*
X64984285Y-132738761D01*
X64889047Y-132786380D01*
X64793809Y-132786380D01*
X64698571Y-132738761D01*
X64650952Y-132691142D01*
X64603333Y-132595904D01*
X64555714Y-132405428D01*
X64555714Y-132167333D01*
X64603333Y-131976857D01*
X64650952Y-131881619D01*
X64698571Y-131834000D01*
X64793809Y-131786380D01*
X65555714Y-132119714D02*
X65555714Y-132786380D01*
X65555714Y-132214952D02*
X65603333Y-132167333D01*
X65698571Y-132119714D01*
X65841428Y-132119714D01*
X65936666Y-132167333D01*
X65984285Y-132262571D01*
X65984285Y-132786380D01*
X66793809Y-132262571D02*
X66460476Y-132262571D01*
X66460476Y-132786380D02*
X66460476Y-131786380D01*
X66936666Y-131786380D01*
G04 #@! TO.C,C10*
X71096380Y-132786380D02*
X70524952Y-132786380D01*
X70810666Y-132786380D02*
X70810666Y-131786380D01*
X70715428Y-131929238D01*
X70620190Y-132024476D01*
X70524952Y-132072095D01*
X71715428Y-131786380D02*
X71810666Y-131786380D01*
X71905904Y-131834000D01*
X71953523Y-131881619D01*
X72001142Y-131976857D01*
X72048761Y-132167333D01*
X72048761Y-132405428D01*
X72001142Y-132595904D01*
X71953523Y-132691142D01*
X71905904Y-132738761D01*
X71810666Y-132786380D01*
X71715428Y-132786380D01*
X71620190Y-132738761D01*
X71572571Y-132691142D01*
X71524952Y-132595904D01*
X71477333Y-132405428D01*
X71477333Y-132167333D01*
X71524952Y-131976857D01*
X71572571Y-131881619D01*
X71620190Y-131834000D01*
X71715428Y-131786380D01*
X72667809Y-131786380D02*
X72763047Y-131786380D01*
X72858285Y-131834000D01*
X72905904Y-131881619D01*
X72953523Y-131976857D01*
X73001142Y-132167333D01*
X73001142Y-132405428D01*
X72953523Y-132595904D01*
X72905904Y-132691142D01*
X72858285Y-132738761D01*
X72763047Y-132786380D01*
X72667809Y-132786380D01*
X72572571Y-132738761D01*
X72524952Y-132691142D01*
X72477333Y-132595904D01*
X72429714Y-132405428D01*
X72429714Y-132167333D01*
X72477333Y-131976857D01*
X72524952Y-131881619D01*
X72572571Y-131834000D01*
X72667809Y-131786380D01*
X73429714Y-132119714D02*
X73429714Y-132786380D01*
X73429714Y-132214952D02*
X73477333Y-132167333D01*
X73572571Y-132119714D01*
X73715428Y-132119714D01*
X73810666Y-132167333D01*
X73858285Y-132262571D01*
X73858285Y-132786380D01*
X74667809Y-132262571D02*
X74334476Y-132262571D01*
X74334476Y-132786380D02*
X74334476Y-131786380D01*
X74810666Y-131786380D01*
G04 #@! TO.C,C12*
X87860380Y-132786380D02*
X87288952Y-132786380D01*
X87574666Y-132786380D02*
X87574666Y-131786380D01*
X87479428Y-131929238D01*
X87384190Y-132024476D01*
X87288952Y-132072095D01*
X88479428Y-131786380D02*
X88574666Y-131786380D01*
X88669904Y-131834000D01*
X88717523Y-131881619D01*
X88765142Y-131976857D01*
X88812761Y-132167333D01*
X88812761Y-132405428D01*
X88765142Y-132595904D01*
X88717523Y-132691142D01*
X88669904Y-132738761D01*
X88574666Y-132786380D01*
X88479428Y-132786380D01*
X88384190Y-132738761D01*
X88336571Y-132691142D01*
X88288952Y-132595904D01*
X88241333Y-132405428D01*
X88241333Y-132167333D01*
X88288952Y-131976857D01*
X88336571Y-131881619D01*
X88384190Y-131834000D01*
X88479428Y-131786380D01*
X89431809Y-131786380D02*
X89527047Y-131786380D01*
X89622285Y-131834000D01*
X89669904Y-131881619D01*
X89717523Y-131976857D01*
X89765142Y-132167333D01*
X89765142Y-132405428D01*
X89717523Y-132595904D01*
X89669904Y-132691142D01*
X89622285Y-132738761D01*
X89527047Y-132786380D01*
X89431809Y-132786380D01*
X89336571Y-132738761D01*
X89288952Y-132691142D01*
X89241333Y-132595904D01*
X89193714Y-132405428D01*
X89193714Y-132167333D01*
X89241333Y-131976857D01*
X89288952Y-131881619D01*
X89336571Y-131834000D01*
X89431809Y-131786380D01*
X90193714Y-132119714D02*
X90193714Y-132786380D01*
X90193714Y-132214952D02*
X90241333Y-132167333D01*
X90336571Y-132119714D01*
X90479428Y-132119714D01*
X90574666Y-132167333D01*
X90622285Y-132262571D01*
X90622285Y-132786380D01*
X91431809Y-132262571D02*
X91098476Y-132262571D01*
X91098476Y-132786380D02*
X91098476Y-131786380D01*
X91574666Y-131786380D01*
G04 #@! TO.C,C13*
X96242380Y-132786380D02*
X95670952Y-132786380D01*
X95956666Y-132786380D02*
X95956666Y-131786380D01*
X95861428Y-131929238D01*
X95766190Y-132024476D01*
X95670952Y-132072095D01*
X96861428Y-131786380D02*
X96956666Y-131786380D01*
X97051904Y-131834000D01*
X97099523Y-131881619D01*
X97147142Y-131976857D01*
X97194761Y-132167333D01*
X97194761Y-132405428D01*
X97147142Y-132595904D01*
X97099523Y-132691142D01*
X97051904Y-132738761D01*
X96956666Y-132786380D01*
X96861428Y-132786380D01*
X96766190Y-132738761D01*
X96718571Y-132691142D01*
X96670952Y-132595904D01*
X96623333Y-132405428D01*
X96623333Y-132167333D01*
X96670952Y-131976857D01*
X96718571Y-131881619D01*
X96766190Y-131834000D01*
X96861428Y-131786380D01*
X97813809Y-131786380D02*
X97909047Y-131786380D01*
X98004285Y-131834000D01*
X98051904Y-131881619D01*
X98099523Y-131976857D01*
X98147142Y-132167333D01*
X98147142Y-132405428D01*
X98099523Y-132595904D01*
X98051904Y-132691142D01*
X98004285Y-132738761D01*
X97909047Y-132786380D01*
X97813809Y-132786380D01*
X97718571Y-132738761D01*
X97670952Y-132691142D01*
X97623333Y-132595904D01*
X97575714Y-132405428D01*
X97575714Y-132167333D01*
X97623333Y-131976857D01*
X97670952Y-131881619D01*
X97718571Y-131834000D01*
X97813809Y-131786380D01*
X98575714Y-132119714D02*
X98575714Y-132786380D01*
X98575714Y-132214952D02*
X98623333Y-132167333D01*
X98718571Y-132119714D01*
X98861428Y-132119714D01*
X98956666Y-132167333D01*
X99004285Y-132262571D01*
X99004285Y-132786380D01*
X99813809Y-132262571D02*
X99480476Y-132262571D01*
X99480476Y-132786380D02*
X99480476Y-131786380D01*
X99956666Y-131786380D01*
G04 #@! TO.C,C14*
X104370380Y-132786380D02*
X103798952Y-132786380D01*
X104084666Y-132786380D02*
X104084666Y-131786380D01*
X103989428Y-131929238D01*
X103894190Y-132024476D01*
X103798952Y-132072095D01*
X104989428Y-131786380D02*
X105084666Y-131786380D01*
X105179904Y-131834000D01*
X105227523Y-131881619D01*
X105275142Y-131976857D01*
X105322761Y-132167333D01*
X105322761Y-132405428D01*
X105275142Y-132595904D01*
X105227523Y-132691142D01*
X105179904Y-132738761D01*
X105084666Y-132786380D01*
X104989428Y-132786380D01*
X104894190Y-132738761D01*
X104846571Y-132691142D01*
X104798952Y-132595904D01*
X104751333Y-132405428D01*
X104751333Y-132167333D01*
X104798952Y-131976857D01*
X104846571Y-131881619D01*
X104894190Y-131834000D01*
X104989428Y-131786380D01*
X105941809Y-131786380D02*
X106037047Y-131786380D01*
X106132285Y-131834000D01*
X106179904Y-131881619D01*
X106227523Y-131976857D01*
X106275142Y-132167333D01*
X106275142Y-132405428D01*
X106227523Y-132595904D01*
X106179904Y-132691142D01*
X106132285Y-132738761D01*
X106037047Y-132786380D01*
X105941809Y-132786380D01*
X105846571Y-132738761D01*
X105798952Y-132691142D01*
X105751333Y-132595904D01*
X105703714Y-132405428D01*
X105703714Y-132167333D01*
X105751333Y-131976857D01*
X105798952Y-131881619D01*
X105846571Y-131834000D01*
X105941809Y-131786380D01*
X106703714Y-132119714D02*
X106703714Y-132786380D01*
X106703714Y-132214952D02*
X106751333Y-132167333D01*
X106846571Y-132119714D01*
X106989428Y-132119714D01*
X107084666Y-132167333D01*
X107132285Y-132262571D01*
X107132285Y-132786380D01*
X107941809Y-132262571D02*
X107608476Y-132262571D01*
X107608476Y-132786380D02*
X107608476Y-131786380D01*
X108084666Y-131786380D01*
G04 #@! TO.C,C15*
X112498380Y-132786380D02*
X111926952Y-132786380D01*
X112212666Y-132786380D02*
X112212666Y-131786380D01*
X112117428Y-131929238D01*
X112022190Y-132024476D01*
X111926952Y-132072095D01*
X113117428Y-131786380D02*
X113212666Y-131786380D01*
X113307904Y-131834000D01*
X113355523Y-131881619D01*
X113403142Y-131976857D01*
X113450761Y-132167333D01*
X113450761Y-132405428D01*
X113403142Y-132595904D01*
X113355523Y-132691142D01*
X113307904Y-132738761D01*
X113212666Y-132786380D01*
X113117428Y-132786380D01*
X113022190Y-132738761D01*
X112974571Y-132691142D01*
X112926952Y-132595904D01*
X112879333Y-132405428D01*
X112879333Y-132167333D01*
X112926952Y-131976857D01*
X112974571Y-131881619D01*
X113022190Y-131834000D01*
X113117428Y-131786380D01*
X114069809Y-131786380D02*
X114165047Y-131786380D01*
X114260285Y-131834000D01*
X114307904Y-131881619D01*
X114355523Y-131976857D01*
X114403142Y-132167333D01*
X114403142Y-132405428D01*
X114355523Y-132595904D01*
X114307904Y-132691142D01*
X114260285Y-132738761D01*
X114165047Y-132786380D01*
X114069809Y-132786380D01*
X113974571Y-132738761D01*
X113926952Y-132691142D01*
X113879333Y-132595904D01*
X113831714Y-132405428D01*
X113831714Y-132167333D01*
X113879333Y-131976857D01*
X113926952Y-131881619D01*
X113974571Y-131834000D01*
X114069809Y-131786380D01*
X114831714Y-132119714D02*
X114831714Y-132786380D01*
X114831714Y-132214952D02*
X114879333Y-132167333D01*
X114974571Y-132119714D01*
X115117428Y-132119714D01*
X115212666Y-132167333D01*
X115260285Y-132262571D01*
X115260285Y-132786380D01*
X116069809Y-132262571D02*
X115736476Y-132262571D01*
X115736476Y-132786380D02*
X115736476Y-131786380D01*
X116212666Y-131786380D01*
G04 #@! TO.C,C16*
X120372380Y-132786380D02*
X119800952Y-132786380D01*
X120086666Y-132786380D02*
X120086666Y-131786380D01*
X119991428Y-131929238D01*
X119896190Y-132024476D01*
X119800952Y-132072095D01*
X120991428Y-131786380D02*
X121086666Y-131786380D01*
X121181904Y-131834000D01*
X121229523Y-131881619D01*
X121277142Y-131976857D01*
X121324761Y-132167333D01*
X121324761Y-132405428D01*
X121277142Y-132595904D01*
X121229523Y-132691142D01*
X121181904Y-132738761D01*
X121086666Y-132786380D01*
X120991428Y-132786380D01*
X120896190Y-132738761D01*
X120848571Y-132691142D01*
X120800952Y-132595904D01*
X120753333Y-132405428D01*
X120753333Y-132167333D01*
X120800952Y-131976857D01*
X120848571Y-131881619D01*
X120896190Y-131834000D01*
X120991428Y-131786380D01*
X121943809Y-131786380D02*
X122039047Y-131786380D01*
X122134285Y-131834000D01*
X122181904Y-131881619D01*
X122229523Y-131976857D01*
X122277142Y-132167333D01*
X122277142Y-132405428D01*
X122229523Y-132595904D01*
X122181904Y-132691142D01*
X122134285Y-132738761D01*
X122039047Y-132786380D01*
X121943809Y-132786380D01*
X121848571Y-132738761D01*
X121800952Y-132691142D01*
X121753333Y-132595904D01*
X121705714Y-132405428D01*
X121705714Y-132167333D01*
X121753333Y-131976857D01*
X121800952Y-131881619D01*
X121848571Y-131834000D01*
X121943809Y-131786380D01*
X122705714Y-132119714D02*
X122705714Y-132786380D01*
X122705714Y-132214952D02*
X122753333Y-132167333D01*
X122848571Y-132119714D01*
X122991428Y-132119714D01*
X123086666Y-132167333D01*
X123134285Y-132262571D01*
X123134285Y-132786380D01*
X123943809Y-132262571D02*
X123610476Y-132262571D01*
X123610476Y-132786380D02*
X123610476Y-131786380D01*
X124086666Y-131786380D01*
G04 #@! TO.C,J1*
X63604142Y-102084142D02*
X63556523Y-102131761D01*
X63413666Y-102179380D01*
X63318428Y-102179380D01*
X63175571Y-102131761D01*
X63080333Y-102036523D01*
X63032714Y-101941285D01*
X62985095Y-101750809D01*
X62985095Y-101607952D01*
X63032714Y-101417476D01*
X63080333Y-101322238D01*
X63175571Y-101227000D01*
X63318428Y-101179380D01*
X63413666Y-101179380D01*
X63556523Y-101227000D01*
X63604142Y-101274619D01*
X64175571Y-102179380D02*
X64080333Y-102131761D01*
X64032714Y-102084142D01*
X63985095Y-101988904D01*
X63985095Y-101703190D01*
X64032714Y-101607952D01*
X64080333Y-101560333D01*
X64175571Y-101512714D01*
X64318428Y-101512714D01*
X64413666Y-101560333D01*
X64461285Y-101607952D01*
X64508904Y-101703190D01*
X64508904Y-101988904D01*
X64461285Y-102084142D01*
X64413666Y-102131761D01*
X64318428Y-102179380D01*
X64175571Y-102179380D01*
X64937476Y-101512714D02*
X64937476Y-102179380D01*
X64937476Y-101607952D02*
X64985095Y-101560333D01*
X65080333Y-101512714D01*
X65223190Y-101512714D01*
X65318428Y-101560333D01*
X65366047Y-101655571D01*
X65366047Y-102179380D01*
X65842238Y-101512714D02*
X65842238Y-102179380D01*
X65842238Y-101607952D02*
X65889857Y-101560333D01*
X65985095Y-101512714D01*
X66127952Y-101512714D01*
X66223190Y-101560333D01*
X66270809Y-101655571D01*
X66270809Y-102179380D01*
X66508904Y-102274619D02*
X67270809Y-102274619D01*
X67699380Y-101179380D02*
X67794619Y-101179380D01*
X67889857Y-101227000D01*
X67937476Y-101274619D01*
X67985095Y-101369857D01*
X68032714Y-101560333D01*
X68032714Y-101798428D01*
X67985095Y-101988904D01*
X67937476Y-102084142D01*
X67889857Y-102131761D01*
X67794619Y-102179380D01*
X67699380Y-102179380D01*
X67604142Y-102131761D01*
X67556523Y-102084142D01*
X67508904Y-101988904D01*
X67461285Y-101798428D01*
X67461285Y-101560333D01*
X67508904Y-101369857D01*
X67556523Y-101274619D01*
X67604142Y-101227000D01*
X67699380Y-101179380D01*
X68413666Y-101274619D02*
X68461285Y-101227000D01*
X68556523Y-101179380D01*
X68794619Y-101179380D01*
X68889857Y-101227000D01*
X68937476Y-101274619D01*
X68985095Y-101369857D01*
X68985095Y-101465095D01*
X68937476Y-101607952D01*
X68366047Y-102179380D01*
X68985095Y-102179380D01*
X69318428Y-102179380D02*
X69842238Y-101512714D01*
X69318428Y-101512714D02*
X69842238Y-102179380D01*
X70413666Y-101179380D02*
X70508904Y-101179380D01*
X70604142Y-101227000D01*
X70651761Y-101274619D01*
X70699380Y-101369857D01*
X70747000Y-101560333D01*
X70747000Y-101798428D01*
X70699380Y-101988904D01*
X70651761Y-102084142D01*
X70604142Y-102131761D01*
X70508904Y-102179380D01*
X70413666Y-102179380D01*
X70318428Y-102131761D01*
X70270809Y-102084142D01*
X70223190Y-101988904D01*
X70175571Y-101798428D01*
X70175571Y-101560333D01*
X70223190Y-101369857D01*
X70270809Y-101274619D01*
X70318428Y-101227000D01*
X70413666Y-101179380D01*
X71651761Y-101179380D02*
X71175571Y-101179380D01*
X71127952Y-101655571D01*
X71175571Y-101607952D01*
X71270809Y-101560333D01*
X71508904Y-101560333D01*
X71604142Y-101607952D01*
X71651761Y-101655571D01*
X71699380Y-101750809D01*
X71699380Y-101988904D01*
X71651761Y-102084142D01*
X71604142Y-102131761D01*
X71508904Y-102179380D01*
X71270809Y-102179380D01*
X71175571Y-102131761D01*
X71127952Y-102084142D01*
X71889857Y-102274619D02*
X72651761Y-102274619D01*
X73080333Y-101179380D02*
X73270809Y-101179380D01*
X73366047Y-101227000D01*
X73461285Y-101322238D01*
X73508904Y-101512714D01*
X73508904Y-101846047D01*
X73461285Y-102036523D01*
X73366047Y-102131761D01*
X73270809Y-102179380D01*
X73080333Y-102179380D01*
X72985095Y-102131761D01*
X72889857Y-102036523D01*
X72842238Y-101846047D01*
X72842238Y-101512714D01*
X72889857Y-101322238D01*
X72985095Y-101227000D01*
X73080333Y-101179380D01*
X74366047Y-102179380D02*
X74366047Y-101179380D01*
X74366047Y-102131761D02*
X74270809Y-102179380D01*
X74080333Y-102179380D01*
X73985095Y-102131761D01*
X73937476Y-102084142D01*
X73889857Y-101988904D01*
X73889857Y-101703190D01*
X73937476Y-101607952D01*
X73985095Y-101560333D01*
X74080333Y-101512714D01*
X74270809Y-101512714D01*
X74366047Y-101560333D01*
X75270809Y-102179380D02*
X75270809Y-101179380D01*
X75270809Y-102131761D02*
X75175571Y-102179380D01*
X74985095Y-102179380D01*
X74889857Y-102131761D01*
X74842238Y-102084142D01*
X74794619Y-101988904D01*
X74794619Y-101703190D01*
X74842238Y-101607952D01*
X74889857Y-101560333D01*
X74985095Y-101512714D01*
X75175571Y-101512714D01*
X75270809Y-101560333D01*
X75508904Y-102274619D02*
X76270809Y-102274619D01*
X76508904Y-101655571D02*
X76842238Y-101655571D01*
X76985095Y-102179380D02*
X76508904Y-102179380D01*
X76508904Y-101179380D01*
X76985095Y-101179380D01*
X77318428Y-101512714D02*
X77556523Y-102179380D01*
X77794619Y-101512714D01*
X78556523Y-102131761D02*
X78461285Y-102179380D01*
X78270809Y-102179380D01*
X78175571Y-102131761D01*
X78127952Y-102036523D01*
X78127952Y-101655571D01*
X78175571Y-101560333D01*
X78270809Y-101512714D01*
X78461285Y-101512714D01*
X78556523Y-101560333D01*
X78604142Y-101655571D01*
X78604142Y-101750809D01*
X78127952Y-101846047D01*
X79032714Y-101512714D02*
X79032714Y-102179380D01*
X79032714Y-101607952D02*
X79080333Y-101560333D01*
X79175571Y-101512714D01*
X79318428Y-101512714D01*
X79413666Y-101560333D01*
X79461285Y-101655571D01*
X79461285Y-102179380D01*
X70278666Y-98004380D02*
X70278666Y-98718666D01*
X70231047Y-98861523D01*
X70135809Y-98956761D01*
X69992952Y-99004380D01*
X69897714Y-99004380D01*
X71278666Y-99004380D02*
X70707238Y-99004380D01*
X70992952Y-99004380D02*
X70992952Y-98004380D01*
X70897714Y-98147238D01*
X70802476Y-98242476D01*
X70707238Y-98290095D01*
G04 #@! TO.C,J2*
X105888304Y-160021742D02*
X105840685Y-160069361D01*
X105697828Y-160116980D01*
X105602590Y-160116980D01*
X105459733Y-160069361D01*
X105364495Y-159974123D01*
X105316876Y-159878885D01*
X105269257Y-159688409D01*
X105269257Y-159545552D01*
X105316876Y-159355076D01*
X105364495Y-159259838D01*
X105459733Y-159164600D01*
X105602590Y-159116980D01*
X105697828Y-159116980D01*
X105840685Y-159164600D01*
X105888304Y-159212219D01*
X106459733Y-160116980D02*
X106364495Y-160069361D01*
X106316876Y-160021742D01*
X106269257Y-159926504D01*
X106269257Y-159640790D01*
X106316876Y-159545552D01*
X106364495Y-159497933D01*
X106459733Y-159450314D01*
X106602590Y-159450314D01*
X106697828Y-159497933D01*
X106745447Y-159545552D01*
X106793066Y-159640790D01*
X106793066Y-159926504D01*
X106745447Y-160021742D01*
X106697828Y-160069361D01*
X106602590Y-160116980D01*
X106459733Y-160116980D01*
X107221638Y-159450314D02*
X107221638Y-160116980D01*
X107221638Y-159545552D02*
X107269257Y-159497933D01*
X107364495Y-159450314D01*
X107507352Y-159450314D01*
X107602590Y-159497933D01*
X107650209Y-159593171D01*
X107650209Y-160116980D01*
X108126400Y-159450314D02*
X108126400Y-160116980D01*
X108126400Y-159545552D02*
X108174019Y-159497933D01*
X108269257Y-159450314D01*
X108412114Y-159450314D01*
X108507352Y-159497933D01*
X108554971Y-159593171D01*
X108554971Y-160116980D01*
X108793066Y-160212219D02*
X109554971Y-160212219D01*
X109983542Y-159116980D02*
X110078780Y-159116980D01*
X110174019Y-159164600D01*
X110221638Y-159212219D01*
X110269257Y-159307457D01*
X110316876Y-159497933D01*
X110316876Y-159736028D01*
X110269257Y-159926504D01*
X110221638Y-160021742D01*
X110174019Y-160069361D01*
X110078780Y-160116980D01*
X109983542Y-160116980D01*
X109888304Y-160069361D01*
X109840685Y-160021742D01*
X109793066Y-159926504D01*
X109745447Y-159736028D01*
X109745447Y-159497933D01*
X109793066Y-159307457D01*
X109840685Y-159212219D01*
X109888304Y-159164600D01*
X109983542Y-159116980D01*
X111269257Y-160116980D02*
X110697828Y-160116980D01*
X110983542Y-160116980D02*
X110983542Y-159116980D01*
X110888304Y-159259838D01*
X110793066Y-159355076D01*
X110697828Y-159402695D01*
X111602590Y-160116980D02*
X112126400Y-159450314D01*
X111602590Y-159450314D02*
X112126400Y-160116980D01*
X112697828Y-159116980D02*
X112793066Y-159116980D01*
X112888304Y-159164600D01*
X112935923Y-159212219D01*
X112983542Y-159307457D01*
X113031161Y-159497933D01*
X113031161Y-159736028D01*
X112983542Y-159926504D01*
X112935923Y-160021742D01*
X112888304Y-160069361D01*
X112793066Y-160116980D01*
X112697828Y-160116980D01*
X112602590Y-160069361D01*
X112554971Y-160021742D01*
X112507352Y-159926504D01*
X112459733Y-159736028D01*
X112459733Y-159497933D01*
X112507352Y-159307457D01*
X112554971Y-159212219D01*
X112602590Y-159164600D01*
X112697828Y-159116980D01*
X113888304Y-159116980D02*
X113697828Y-159116980D01*
X113602590Y-159164600D01*
X113554971Y-159212219D01*
X113459733Y-159355076D01*
X113412114Y-159545552D01*
X113412114Y-159926504D01*
X113459733Y-160021742D01*
X113507352Y-160069361D01*
X113602590Y-160116980D01*
X113793066Y-160116980D01*
X113888304Y-160069361D01*
X113935923Y-160021742D01*
X113983542Y-159926504D01*
X113983542Y-159688409D01*
X113935923Y-159593171D01*
X113888304Y-159545552D01*
X113793066Y-159497933D01*
X113602590Y-159497933D01*
X113507352Y-159545552D01*
X113459733Y-159593171D01*
X113412114Y-159688409D01*
X109293066Y-154366980D02*
X109293066Y-155081266D01*
X109245447Y-155224123D01*
X109150209Y-155319361D01*
X109007352Y-155366980D01*
X108912114Y-155366980D01*
X109721638Y-154462219D02*
X109769257Y-154414600D01*
X109864495Y-154366980D01*
X110102590Y-154366980D01*
X110197828Y-154414600D01*
X110245447Y-154462219D01*
X110293066Y-154557457D01*
X110293066Y-154652695D01*
X110245447Y-154795552D01*
X109674019Y-155366980D01*
X110293066Y-155366980D01*
G04 #@! TO.C,J3*
X98217504Y-84634342D02*
X98169885Y-84681961D01*
X98027028Y-84729580D01*
X97931790Y-84729580D01*
X97788933Y-84681961D01*
X97693695Y-84586723D01*
X97646076Y-84491485D01*
X97598457Y-84301009D01*
X97598457Y-84158152D01*
X97646076Y-83967676D01*
X97693695Y-83872438D01*
X97788933Y-83777200D01*
X97931790Y-83729580D01*
X98027028Y-83729580D01*
X98169885Y-83777200D01*
X98217504Y-83824819D01*
X98788933Y-84729580D02*
X98693695Y-84681961D01*
X98646076Y-84634342D01*
X98598457Y-84539104D01*
X98598457Y-84253390D01*
X98646076Y-84158152D01*
X98693695Y-84110533D01*
X98788933Y-84062914D01*
X98931790Y-84062914D01*
X99027028Y-84110533D01*
X99074647Y-84158152D01*
X99122266Y-84253390D01*
X99122266Y-84539104D01*
X99074647Y-84634342D01*
X99027028Y-84681961D01*
X98931790Y-84729580D01*
X98788933Y-84729580D01*
X99550838Y-84062914D02*
X99550838Y-84729580D01*
X99550838Y-84158152D02*
X99598457Y-84110533D01*
X99693695Y-84062914D01*
X99836552Y-84062914D01*
X99931790Y-84110533D01*
X99979409Y-84205771D01*
X99979409Y-84729580D01*
X100455600Y-84062914D02*
X100455600Y-84729580D01*
X100455600Y-84158152D02*
X100503219Y-84110533D01*
X100598457Y-84062914D01*
X100741314Y-84062914D01*
X100836552Y-84110533D01*
X100884171Y-84205771D01*
X100884171Y-84729580D01*
X101122266Y-84824819D02*
X101884171Y-84824819D01*
X102312742Y-83729580D02*
X102407980Y-83729580D01*
X102503219Y-83777200D01*
X102550838Y-83824819D01*
X102598457Y-83920057D01*
X102646076Y-84110533D01*
X102646076Y-84348628D01*
X102598457Y-84539104D01*
X102550838Y-84634342D01*
X102503219Y-84681961D01*
X102407980Y-84729580D01*
X102312742Y-84729580D01*
X102217504Y-84681961D01*
X102169885Y-84634342D01*
X102122266Y-84539104D01*
X102074647Y-84348628D01*
X102074647Y-84110533D01*
X102122266Y-83920057D01*
X102169885Y-83824819D01*
X102217504Y-83777200D01*
X102312742Y-83729580D01*
X103598457Y-84729580D02*
X103027028Y-84729580D01*
X103312742Y-84729580D02*
X103312742Y-83729580D01*
X103217504Y-83872438D01*
X103122266Y-83967676D01*
X103027028Y-84015295D01*
X103931790Y-84729580D02*
X104455600Y-84062914D01*
X103931790Y-84062914D02*
X104455600Y-84729580D01*
X105027028Y-83729580D02*
X105122266Y-83729580D01*
X105217504Y-83777200D01*
X105265123Y-83824819D01*
X105312742Y-83920057D01*
X105360361Y-84110533D01*
X105360361Y-84348628D01*
X105312742Y-84539104D01*
X105265123Y-84634342D01*
X105217504Y-84681961D01*
X105122266Y-84729580D01*
X105027028Y-84729580D01*
X104931790Y-84681961D01*
X104884171Y-84634342D01*
X104836552Y-84539104D01*
X104788933Y-84348628D01*
X104788933Y-84110533D01*
X104836552Y-83920057D01*
X104884171Y-83824819D01*
X104931790Y-83777200D01*
X105027028Y-83729580D01*
X105693695Y-83729580D02*
X106312742Y-83729580D01*
X105979409Y-84110533D01*
X106122266Y-84110533D01*
X106217504Y-84158152D01*
X106265123Y-84205771D01*
X106312742Y-84301009D01*
X106312742Y-84539104D01*
X106265123Y-84634342D01*
X106217504Y-84681961D01*
X106122266Y-84729580D01*
X105836552Y-84729580D01*
X105741314Y-84681961D01*
X105693695Y-84634342D01*
X101622266Y-78649580D02*
X101622266Y-79363866D01*
X101574647Y-79506723D01*
X101479409Y-79601961D01*
X101336552Y-79649580D01*
X101241314Y-79649580D01*
X102003219Y-78649580D02*
X102622266Y-78649580D01*
X102288933Y-79030533D01*
X102431790Y-79030533D01*
X102527028Y-79078152D01*
X102574647Y-79125771D01*
X102622266Y-79221009D01*
X102622266Y-79459104D01*
X102574647Y-79554342D01*
X102527028Y-79601961D01*
X102431790Y-79649580D01*
X102146076Y-79649580D01*
X102050838Y-79601961D01*
X102003219Y-79554342D01*
G04 #@! TO.C,J5*
X75433704Y-160047142D02*
X75386085Y-160094761D01*
X75243228Y-160142380D01*
X75147990Y-160142380D01*
X75005133Y-160094761D01*
X74909895Y-159999523D01*
X74862276Y-159904285D01*
X74814657Y-159713809D01*
X74814657Y-159570952D01*
X74862276Y-159380476D01*
X74909895Y-159285238D01*
X75005133Y-159190000D01*
X75147990Y-159142380D01*
X75243228Y-159142380D01*
X75386085Y-159190000D01*
X75433704Y-159237619D01*
X76005133Y-160142380D02*
X75909895Y-160094761D01*
X75862276Y-160047142D01*
X75814657Y-159951904D01*
X75814657Y-159666190D01*
X75862276Y-159570952D01*
X75909895Y-159523333D01*
X76005133Y-159475714D01*
X76147990Y-159475714D01*
X76243228Y-159523333D01*
X76290847Y-159570952D01*
X76338466Y-159666190D01*
X76338466Y-159951904D01*
X76290847Y-160047142D01*
X76243228Y-160094761D01*
X76147990Y-160142380D01*
X76005133Y-160142380D01*
X76767038Y-159475714D02*
X76767038Y-160142380D01*
X76767038Y-159570952D02*
X76814657Y-159523333D01*
X76909895Y-159475714D01*
X77052752Y-159475714D01*
X77147990Y-159523333D01*
X77195609Y-159618571D01*
X77195609Y-160142380D01*
X77671800Y-159475714D02*
X77671800Y-160142380D01*
X77671800Y-159570952D02*
X77719419Y-159523333D01*
X77814657Y-159475714D01*
X77957514Y-159475714D01*
X78052752Y-159523333D01*
X78100371Y-159618571D01*
X78100371Y-160142380D01*
X78338466Y-160237619D02*
X79100371Y-160237619D01*
X79528942Y-159142380D02*
X79624180Y-159142380D01*
X79719419Y-159190000D01*
X79767038Y-159237619D01*
X79814657Y-159332857D01*
X79862276Y-159523333D01*
X79862276Y-159761428D01*
X79814657Y-159951904D01*
X79767038Y-160047142D01*
X79719419Y-160094761D01*
X79624180Y-160142380D01*
X79528942Y-160142380D01*
X79433704Y-160094761D01*
X79386085Y-160047142D01*
X79338466Y-159951904D01*
X79290847Y-159761428D01*
X79290847Y-159523333D01*
X79338466Y-159332857D01*
X79386085Y-159237619D01*
X79433704Y-159190000D01*
X79528942Y-159142380D01*
X80814657Y-160142380D02*
X80243228Y-160142380D01*
X80528942Y-160142380D02*
X80528942Y-159142380D01*
X80433704Y-159285238D01*
X80338466Y-159380476D01*
X80243228Y-159428095D01*
X81147990Y-160142380D02*
X81671800Y-159475714D01*
X81147990Y-159475714D02*
X81671800Y-160142380D01*
X82243228Y-159142380D02*
X82338466Y-159142380D01*
X82433704Y-159190000D01*
X82481323Y-159237619D01*
X82528942Y-159332857D01*
X82576561Y-159523333D01*
X82576561Y-159761428D01*
X82528942Y-159951904D01*
X82481323Y-160047142D01*
X82433704Y-160094761D01*
X82338466Y-160142380D01*
X82243228Y-160142380D01*
X82147990Y-160094761D01*
X82100371Y-160047142D01*
X82052752Y-159951904D01*
X82005133Y-159761428D01*
X82005133Y-159523333D01*
X82052752Y-159332857D01*
X82100371Y-159237619D01*
X82147990Y-159190000D01*
X82243228Y-159142380D01*
X83433704Y-159142380D02*
X83243228Y-159142380D01*
X83147990Y-159190000D01*
X83100371Y-159237619D01*
X83005133Y-159380476D01*
X82957514Y-159570952D01*
X82957514Y-159951904D01*
X83005133Y-160047142D01*
X83052752Y-160094761D01*
X83147990Y-160142380D01*
X83338466Y-160142380D01*
X83433704Y-160094761D01*
X83481323Y-160047142D01*
X83528942Y-159951904D01*
X83528942Y-159713809D01*
X83481323Y-159618571D01*
X83433704Y-159570952D01*
X83338466Y-159523333D01*
X83147990Y-159523333D01*
X83052752Y-159570952D01*
X83005133Y-159618571D01*
X82957514Y-159713809D01*
X78838466Y-154392380D02*
X78838466Y-155106666D01*
X78790847Y-155249523D01*
X78695609Y-155344761D01*
X78552752Y-155392380D01*
X78457514Y-155392380D01*
X79790847Y-154392380D02*
X79314657Y-154392380D01*
X79267038Y-154868571D01*
X79314657Y-154820952D01*
X79409895Y-154773333D01*
X79647990Y-154773333D01*
X79743228Y-154820952D01*
X79790847Y-154868571D01*
X79838466Y-154963809D01*
X79838466Y-155201904D01*
X79790847Y-155297142D01*
X79743228Y-155344761D01*
X79647990Y-155392380D01*
X79409895Y-155392380D01*
X79314657Y-155344761D01*
X79267038Y-155297142D01*
G04 #@! TO.C,P1*
X118411809Y-74483980D02*
X118745142Y-75483980D01*
X119078476Y-74483980D01*
X119173714Y-75579219D02*
X119935619Y-75579219D01*
X120173714Y-75483980D02*
X120173714Y-74483980D01*
X120649904Y-75483980D02*
X120649904Y-74483980D01*
X121221333Y-75483980D01*
X121221333Y-74483980D01*
X119022904Y-79674980D02*
X119022904Y-78674980D01*
X119403857Y-78674980D01*
X119499095Y-78722600D01*
X119546714Y-78770219D01*
X119594333Y-78865457D01*
X119594333Y-79008314D01*
X119546714Y-79103552D01*
X119499095Y-79151171D01*
X119403857Y-79198790D01*
X119022904Y-79198790D01*
X120546714Y-79674980D02*
X119975285Y-79674980D01*
X120261000Y-79674980D02*
X120261000Y-78674980D01*
X120165761Y-78817838D01*
X120070523Y-78913076D01*
X119975285Y-78960695D01*
G04 #@! TO.C,R1*
X111780761Y-95326380D02*
X111209333Y-95326380D01*
X111495047Y-95326380D02*
X111495047Y-94326380D01*
X111399809Y-94469238D01*
X111304571Y-94564476D01*
X111209333Y-94612095D01*
X112399809Y-94326380D02*
X112495047Y-94326380D01*
X112590285Y-94374000D01*
X112637904Y-94421619D01*
X112685523Y-94516857D01*
X112733142Y-94707333D01*
X112733142Y-94945428D01*
X112685523Y-95135904D01*
X112637904Y-95231142D01*
X112590285Y-95278761D01*
X112495047Y-95326380D01*
X112399809Y-95326380D01*
X112304571Y-95278761D01*
X112256952Y-95231142D01*
X112209333Y-95135904D01*
X112161714Y-94945428D01*
X112161714Y-94707333D01*
X112209333Y-94516857D01*
X112256952Y-94421619D01*
X112304571Y-94374000D01*
X112399809Y-94326380D01*
X113161714Y-95326380D02*
X113161714Y-94326380D01*
X113256952Y-94945428D02*
X113542666Y-95326380D01*
X113542666Y-94659714D02*
X113161714Y-95040666D01*
G04 #@! TO.C,R3*
X95562761Y-93030380D02*
X94991333Y-93030380D01*
X95277047Y-93030380D02*
X95277047Y-92030380D01*
X95181809Y-92173238D01*
X95086571Y-92268476D01*
X94991333Y-92316095D01*
X96181809Y-92030380D02*
X96277047Y-92030380D01*
X96372285Y-92078000D01*
X96419904Y-92125619D01*
X96467523Y-92220857D01*
X96515142Y-92411333D01*
X96515142Y-92649428D01*
X96467523Y-92839904D01*
X96419904Y-92935142D01*
X96372285Y-92982761D01*
X96277047Y-93030380D01*
X96181809Y-93030380D01*
X96086571Y-92982761D01*
X96038952Y-92935142D01*
X95991333Y-92839904D01*
X95943714Y-92649428D01*
X95943714Y-92411333D01*
X95991333Y-92220857D01*
X96038952Y-92125619D01*
X96086571Y-92078000D01*
X96181809Y-92030380D01*
X96943714Y-93030380D02*
X96943714Y-92030380D01*
X97038952Y-92649428D02*
X97324666Y-93030380D01*
X97324666Y-92363714D02*
X96943714Y-92744666D01*
G04 #@! TO.C,R4*
X95270761Y-84404380D02*
X94699333Y-84404380D01*
X94985047Y-84404380D02*
X94985047Y-83404380D01*
X94889809Y-83547238D01*
X94794571Y-83642476D01*
X94699333Y-83690095D01*
X95889809Y-83404380D02*
X95985047Y-83404380D01*
X96080285Y-83452000D01*
X96127904Y-83499619D01*
X96175523Y-83594857D01*
X96223142Y-83785333D01*
X96223142Y-84023428D01*
X96175523Y-84213904D01*
X96127904Y-84309142D01*
X96080285Y-84356761D01*
X95985047Y-84404380D01*
X95889809Y-84404380D01*
X95794571Y-84356761D01*
X95746952Y-84309142D01*
X95699333Y-84213904D01*
X95651714Y-84023428D01*
X95651714Y-83785333D01*
X95699333Y-83594857D01*
X95746952Y-83499619D01*
X95794571Y-83452000D01*
X95889809Y-83404380D01*
X96651714Y-84404380D02*
X96651714Y-83404380D01*
X96746952Y-84023428D02*
X97032666Y-84404380D01*
X97032666Y-83737714D02*
X96651714Y-84118666D01*
G04 #@! TO.C,R5*
X79306761Y-93030380D02*
X78735333Y-93030380D01*
X79021047Y-93030380D02*
X79021047Y-92030380D01*
X78925809Y-92173238D01*
X78830571Y-92268476D01*
X78735333Y-92316095D01*
X79925809Y-92030380D02*
X80021047Y-92030380D01*
X80116285Y-92078000D01*
X80163904Y-92125619D01*
X80211523Y-92220857D01*
X80259142Y-92411333D01*
X80259142Y-92649428D01*
X80211523Y-92839904D01*
X80163904Y-92935142D01*
X80116285Y-92982761D01*
X80021047Y-93030380D01*
X79925809Y-93030380D01*
X79830571Y-92982761D01*
X79782952Y-92935142D01*
X79735333Y-92839904D01*
X79687714Y-92649428D01*
X79687714Y-92411333D01*
X79735333Y-92220857D01*
X79782952Y-92125619D01*
X79830571Y-92078000D01*
X79925809Y-92030380D01*
X80687714Y-93030380D02*
X80687714Y-92030380D01*
X80782952Y-92649428D02*
X81068666Y-93030380D01*
X81068666Y-92363714D02*
X80687714Y-92744666D01*
G04 #@! TO.C,R6*
X79014761Y-84404380D02*
X78443333Y-84404380D01*
X78729047Y-84404380D02*
X78729047Y-83404380D01*
X78633809Y-83547238D01*
X78538571Y-83642476D01*
X78443333Y-83690095D01*
X79633809Y-83404380D02*
X79729047Y-83404380D01*
X79824285Y-83452000D01*
X79871904Y-83499619D01*
X79919523Y-83594857D01*
X79967142Y-83785333D01*
X79967142Y-84023428D01*
X79919523Y-84213904D01*
X79871904Y-84309142D01*
X79824285Y-84356761D01*
X79729047Y-84404380D01*
X79633809Y-84404380D01*
X79538571Y-84356761D01*
X79490952Y-84309142D01*
X79443333Y-84213904D01*
X79395714Y-84023428D01*
X79395714Y-83785333D01*
X79443333Y-83594857D01*
X79490952Y-83499619D01*
X79538571Y-83452000D01*
X79633809Y-83404380D01*
X80395714Y-84404380D02*
X80395714Y-83404380D01*
X80490952Y-84023428D02*
X80776666Y-84404380D01*
X80776666Y-83737714D02*
X80395714Y-84118666D01*
G04 #@! TO.C,R7*
X63082761Y-93030380D02*
X62511333Y-93030380D01*
X62797047Y-93030380D02*
X62797047Y-92030380D01*
X62701809Y-92173238D01*
X62606571Y-92268476D01*
X62511333Y-92316095D01*
X63701809Y-92030380D02*
X63797047Y-92030380D01*
X63892285Y-92078000D01*
X63939904Y-92125619D01*
X63987523Y-92220857D01*
X64035142Y-92411333D01*
X64035142Y-92649428D01*
X63987523Y-92839904D01*
X63939904Y-92935142D01*
X63892285Y-92982761D01*
X63797047Y-93030380D01*
X63701809Y-93030380D01*
X63606571Y-92982761D01*
X63558952Y-92935142D01*
X63511333Y-92839904D01*
X63463714Y-92649428D01*
X63463714Y-92411333D01*
X63511333Y-92220857D01*
X63558952Y-92125619D01*
X63606571Y-92078000D01*
X63701809Y-92030380D01*
X64463714Y-93030380D02*
X64463714Y-92030380D01*
X64558952Y-92649428D02*
X64844666Y-93030380D01*
X64844666Y-92363714D02*
X64463714Y-92744666D01*
G04 #@! TO.C,R8*
X73980380Y-148023238D02*
X73980380Y-148594666D01*
X73980380Y-148308952D02*
X72980380Y-148308952D01*
X73123238Y-148404190D01*
X73218476Y-148499428D01*
X73266095Y-148594666D01*
X72980380Y-147404190D02*
X72980380Y-147308952D01*
X73028000Y-147213714D01*
X73075619Y-147166095D01*
X73170857Y-147118476D01*
X73361333Y-147070857D01*
X73599428Y-147070857D01*
X73789904Y-147118476D01*
X73885142Y-147166095D01*
X73932761Y-147213714D01*
X73980380Y-147308952D01*
X73980380Y-147404190D01*
X73932761Y-147499428D01*
X73885142Y-147547047D01*
X73789904Y-147594666D01*
X73599428Y-147642285D01*
X73361333Y-147642285D01*
X73170857Y-147594666D01*
X73075619Y-147547047D01*
X73028000Y-147499428D01*
X72980380Y-147404190D01*
X73980380Y-146642285D02*
X72980380Y-146642285D01*
X73599428Y-146547047D02*
X73980380Y-146261333D01*
X73313714Y-146261333D02*
X73694666Y-146642285D01*
G04 #@! TO.C,R9*
X79314380Y-148023238D02*
X79314380Y-148594666D01*
X79314380Y-148308952D02*
X78314380Y-148308952D01*
X78457238Y-148404190D01*
X78552476Y-148499428D01*
X78600095Y-148594666D01*
X78314380Y-147404190D02*
X78314380Y-147308952D01*
X78362000Y-147213714D01*
X78409619Y-147166095D01*
X78504857Y-147118476D01*
X78695333Y-147070857D01*
X78933428Y-147070857D01*
X79123904Y-147118476D01*
X79219142Y-147166095D01*
X79266761Y-147213714D01*
X79314380Y-147308952D01*
X79314380Y-147404190D01*
X79266761Y-147499428D01*
X79219142Y-147547047D01*
X79123904Y-147594666D01*
X78933428Y-147642285D01*
X78695333Y-147642285D01*
X78504857Y-147594666D01*
X78409619Y-147547047D01*
X78362000Y-147499428D01*
X78314380Y-147404190D01*
X79314380Y-146642285D02*
X78314380Y-146642285D01*
X78933428Y-146547047D02*
X79314380Y-146261333D01*
X78647714Y-146261333D02*
X79028666Y-146642285D01*
G04 #@! TO.C,R10*
X84394380Y-148023238D02*
X84394380Y-148594666D01*
X84394380Y-148308952D02*
X83394380Y-148308952D01*
X83537238Y-148404190D01*
X83632476Y-148499428D01*
X83680095Y-148594666D01*
X83394380Y-147404190D02*
X83394380Y-147308952D01*
X83442000Y-147213714D01*
X83489619Y-147166095D01*
X83584857Y-147118476D01*
X83775333Y-147070857D01*
X84013428Y-147070857D01*
X84203904Y-147118476D01*
X84299142Y-147166095D01*
X84346761Y-147213714D01*
X84394380Y-147308952D01*
X84394380Y-147404190D01*
X84346761Y-147499428D01*
X84299142Y-147547047D01*
X84203904Y-147594666D01*
X84013428Y-147642285D01*
X83775333Y-147642285D01*
X83584857Y-147594666D01*
X83489619Y-147547047D01*
X83442000Y-147499428D01*
X83394380Y-147404190D01*
X84394380Y-146642285D02*
X83394380Y-146642285D01*
X84013428Y-146547047D02*
X84394380Y-146261333D01*
X83727714Y-146261333D02*
X84108666Y-146642285D01*
G04 #@! TO.C,R11*
X89474380Y-148023238D02*
X89474380Y-148594666D01*
X89474380Y-148308952D02*
X88474380Y-148308952D01*
X88617238Y-148404190D01*
X88712476Y-148499428D01*
X88760095Y-148594666D01*
X88474380Y-147404190D02*
X88474380Y-147308952D01*
X88522000Y-147213714D01*
X88569619Y-147166095D01*
X88664857Y-147118476D01*
X88855333Y-147070857D01*
X89093428Y-147070857D01*
X89283904Y-147118476D01*
X89379142Y-147166095D01*
X89426761Y-147213714D01*
X89474380Y-147308952D01*
X89474380Y-147404190D01*
X89426761Y-147499428D01*
X89379142Y-147547047D01*
X89283904Y-147594666D01*
X89093428Y-147642285D01*
X88855333Y-147642285D01*
X88664857Y-147594666D01*
X88569619Y-147547047D01*
X88522000Y-147499428D01*
X88474380Y-147404190D01*
X89474380Y-146642285D02*
X88474380Y-146642285D01*
X89093428Y-146547047D02*
X89474380Y-146261333D01*
X88807714Y-146261333D02*
X89188666Y-146642285D01*
G04 #@! TO.C,R12*
X104460380Y-148023238D02*
X104460380Y-148594666D01*
X104460380Y-148308952D02*
X103460380Y-148308952D01*
X103603238Y-148404190D01*
X103698476Y-148499428D01*
X103746095Y-148594666D01*
X103460380Y-147404190D02*
X103460380Y-147308952D01*
X103508000Y-147213714D01*
X103555619Y-147166095D01*
X103650857Y-147118476D01*
X103841333Y-147070857D01*
X104079428Y-147070857D01*
X104269904Y-147118476D01*
X104365142Y-147166095D01*
X104412761Y-147213714D01*
X104460380Y-147308952D01*
X104460380Y-147404190D01*
X104412761Y-147499428D01*
X104365142Y-147547047D01*
X104269904Y-147594666D01*
X104079428Y-147642285D01*
X103841333Y-147642285D01*
X103650857Y-147594666D01*
X103555619Y-147547047D01*
X103508000Y-147499428D01*
X103460380Y-147404190D01*
X104460380Y-146642285D02*
X103460380Y-146642285D01*
X104079428Y-146547047D02*
X104460380Y-146261333D01*
X103793714Y-146261333D02*
X104174666Y-146642285D01*
G04 #@! TO.C,R13*
X109794380Y-148023238D02*
X109794380Y-148594666D01*
X109794380Y-148308952D02*
X108794380Y-148308952D01*
X108937238Y-148404190D01*
X109032476Y-148499428D01*
X109080095Y-148594666D01*
X108794380Y-147404190D02*
X108794380Y-147308952D01*
X108842000Y-147213714D01*
X108889619Y-147166095D01*
X108984857Y-147118476D01*
X109175333Y-147070857D01*
X109413428Y-147070857D01*
X109603904Y-147118476D01*
X109699142Y-147166095D01*
X109746761Y-147213714D01*
X109794380Y-147308952D01*
X109794380Y-147404190D01*
X109746761Y-147499428D01*
X109699142Y-147547047D01*
X109603904Y-147594666D01*
X109413428Y-147642285D01*
X109175333Y-147642285D01*
X108984857Y-147594666D01*
X108889619Y-147547047D01*
X108842000Y-147499428D01*
X108794380Y-147404190D01*
X109794380Y-146642285D02*
X108794380Y-146642285D01*
X109413428Y-146547047D02*
X109794380Y-146261333D01*
X109127714Y-146261333D02*
X109508666Y-146642285D01*
G04 #@! TO.C,R14*
X67222761Y-141168380D02*
X66651333Y-141168380D01*
X66937047Y-141168380D02*
X66937047Y-140168380D01*
X66841809Y-140311238D01*
X66746571Y-140406476D01*
X66651333Y-140454095D01*
X67841809Y-140168380D02*
X67937047Y-140168380D01*
X68032285Y-140216000D01*
X68079904Y-140263619D01*
X68127523Y-140358857D01*
X68175142Y-140549333D01*
X68175142Y-140787428D01*
X68127523Y-140977904D01*
X68079904Y-141073142D01*
X68032285Y-141120761D01*
X67937047Y-141168380D01*
X67841809Y-141168380D01*
X67746571Y-141120761D01*
X67698952Y-141073142D01*
X67651333Y-140977904D01*
X67603714Y-140787428D01*
X67603714Y-140549333D01*
X67651333Y-140358857D01*
X67698952Y-140263619D01*
X67746571Y-140216000D01*
X67841809Y-140168380D01*
X68603714Y-141168380D02*
X68603714Y-140168380D01*
X68698952Y-140787428D02*
X68984666Y-141168380D01*
X68984666Y-140501714D02*
X68603714Y-140882666D01*
G04 #@! TO.C,R15*
X75172761Y-141168380D02*
X74601333Y-141168380D01*
X74887047Y-141168380D02*
X74887047Y-140168380D01*
X74791809Y-140311238D01*
X74696571Y-140406476D01*
X74601333Y-140454095D01*
X75791809Y-140168380D02*
X75887047Y-140168380D01*
X75982285Y-140216000D01*
X76029904Y-140263619D01*
X76077523Y-140358857D01*
X76125142Y-140549333D01*
X76125142Y-140787428D01*
X76077523Y-140977904D01*
X76029904Y-141073142D01*
X75982285Y-141120761D01*
X75887047Y-141168380D01*
X75791809Y-141168380D01*
X75696571Y-141120761D01*
X75648952Y-141073142D01*
X75601333Y-140977904D01*
X75553714Y-140787428D01*
X75553714Y-140549333D01*
X75601333Y-140358857D01*
X75648952Y-140263619D01*
X75696571Y-140216000D01*
X75791809Y-140168380D01*
X76553714Y-141168380D02*
X76553714Y-140168380D01*
X76648952Y-140787428D02*
X76934666Y-141168380D01*
X76934666Y-140501714D02*
X76553714Y-140882666D01*
G04 #@! TO.C,R16*
X83478761Y-141168380D02*
X82907333Y-141168380D01*
X83193047Y-141168380D02*
X83193047Y-140168380D01*
X83097809Y-140311238D01*
X83002571Y-140406476D01*
X82907333Y-140454095D01*
X84097809Y-140168380D02*
X84193047Y-140168380D01*
X84288285Y-140216000D01*
X84335904Y-140263619D01*
X84383523Y-140358857D01*
X84431142Y-140549333D01*
X84431142Y-140787428D01*
X84383523Y-140977904D01*
X84335904Y-141073142D01*
X84288285Y-141120761D01*
X84193047Y-141168380D01*
X84097809Y-141168380D01*
X84002571Y-141120761D01*
X83954952Y-141073142D01*
X83907333Y-140977904D01*
X83859714Y-140787428D01*
X83859714Y-140549333D01*
X83907333Y-140358857D01*
X83954952Y-140263619D01*
X84002571Y-140216000D01*
X84097809Y-140168380D01*
X84859714Y-141168380D02*
X84859714Y-140168380D01*
X84954952Y-140787428D02*
X85240666Y-141168380D01*
X85240666Y-140501714D02*
X84859714Y-140882666D01*
G04 #@! TO.C,R17*
X91606761Y-141168380D02*
X91035333Y-141168380D01*
X91321047Y-141168380D02*
X91321047Y-140168380D01*
X91225809Y-140311238D01*
X91130571Y-140406476D01*
X91035333Y-140454095D01*
X92225809Y-140168380D02*
X92321047Y-140168380D01*
X92416285Y-140216000D01*
X92463904Y-140263619D01*
X92511523Y-140358857D01*
X92559142Y-140549333D01*
X92559142Y-140787428D01*
X92511523Y-140977904D01*
X92463904Y-141073142D01*
X92416285Y-141120761D01*
X92321047Y-141168380D01*
X92225809Y-141168380D01*
X92130571Y-141120761D01*
X92082952Y-141073142D01*
X92035333Y-140977904D01*
X91987714Y-140787428D01*
X91987714Y-140549333D01*
X92035333Y-140358857D01*
X92082952Y-140263619D01*
X92130571Y-140216000D01*
X92225809Y-140168380D01*
X92987714Y-141168380D02*
X92987714Y-140168380D01*
X93082952Y-140787428D02*
X93368666Y-141168380D01*
X93368666Y-140501714D02*
X92987714Y-140882666D01*
G04 #@! TO.C,R18*
X100242761Y-141168380D02*
X99671333Y-141168380D01*
X99957047Y-141168380D02*
X99957047Y-140168380D01*
X99861809Y-140311238D01*
X99766571Y-140406476D01*
X99671333Y-140454095D01*
X100861809Y-140168380D02*
X100957047Y-140168380D01*
X101052285Y-140216000D01*
X101099904Y-140263619D01*
X101147523Y-140358857D01*
X101195142Y-140549333D01*
X101195142Y-140787428D01*
X101147523Y-140977904D01*
X101099904Y-141073142D01*
X101052285Y-141120761D01*
X100957047Y-141168380D01*
X100861809Y-141168380D01*
X100766571Y-141120761D01*
X100718952Y-141073142D01*
X100671333Y-140977904D01*
X100623714Y-140787428D01*
X100623714Y-140549333D01*
X100671333Y-140358857D01*
X100718952Y-140263619D01*
X100766571Y-140216000D01*
X100861809Y-140168380D01*
X101623714Y-141168380D02*
X101623714Y-140168380D01*
X101718952Y-140787428D02*
X102004666Y-141168380D01*
X102004666Y-140501714D02*
X101623714Y-140882666D01*
G04 #@! TO.C,R19*
X108116761Y-141168380D02*
X107545333Y-141168380D01*
X107831047Y-141168380D02*
X107831047Y-140168380D01*
X107735809Y-140311238D01*
X107640571Y-140406476D01*
X107545333Y-140454095D01*
X108735809Y-140168380D02*
X108831047Y-140168380D01*
X108926285Y-140216000D01*
X108973904Y-140263619D01*
X109021523Y-140358857D01*
X109069142Y-140549333D01*
X109069142Y-140787428D01*
X109021523Y-140977904D01*
X108973904Y-141073142D01*
X108926285Y-141120761D01*
X108831047Y-141168380D01*
X108735809Y-141168380D01*
X108640571Y-141120761D01*
X108592952Y-141073142D01*
X108545333Y-140977904D01*
X108497714Y-140787428D01*
X108497714Y-140549333D01*
X108545333Y-140358857D01*
X108592952Y-140263619D01*
X108640571Y-140216000D01*
X108735809Y-140168380D01*
X109497714Y-141168380D02*
X109497714Y-140168380D01*
X109592952Y-140787428D02*
X109878666Y-141168380D01*
X109878666Y-140501714D02*
X109497714Y-140882666D01*
G04 #@! TO.C,R20*
X114874380Y-148023238D02*
X114874380Y-148594666D01*
X114874380Y-148308952D02*
X113874380Y-148308952D01*
X114017238Y-148404190D01*
X114112476Y-148499428D01*
X114160095Y-148594666D01*
X113874380Y-147404190D02*
X113874380Y-147308952D01*
X113922000Y-147213714D01*
X113969619Y-147166095D01*
X114064857Y-147118476D01*
X114255333Y-147070857D01*
X114493428Y-147070857D01*
X114683904Y-147118476D01*
X114779142Y-147166095D01*
X114826761Y-147213714D01*
X114874380Y-147308952D01*
X114874380Y-147404190D01*
X114826761Y-147499428D01*
X114779142Y-147547047D01*
X114683904Y-147594666D01*
X114493428Y-147642285D01*
X114255333Y-147642285D01*
X114064857Y-147594666D01*
X113969619Y-147547047D01*
X113922000Y-147499428D01*
X113874380Y-147404190D01*
X114874380Y-146642285D02*
X113874380Y-146642285D01*
X114493428Y-146547047D02*
X114874380Y-146261333D01*
X114207714Y-146261333D02*
X114588666Y-146642285D01*
G04 #@! TO.C,R21*
X119954380Y-148023238D02*
X119954380Y-148594666D01*
X119954380Y-148308952D02*
X118954380Y-148308952D01*
X119097238Y-148404190D01*
X119192476Y-148499428D01*
X119240095Y-148594666D01*
X118954380Y-147404190D02*
X118954380Y-147308952D01*
X119002000Y-147213714D01*
X119049619Y-147166095D01*
X119144857Y-147118476D01*
X119335333Y-147070857D01*
X119573428Y-147070857D01*
X119763904Y-147118476D01*
X119859142Y-147166095D01*
X119906761Y-147213714D01*
X119954380Y-147308952D01*
X119954380Y-147404190D01*
X119906761Y-147499428D01*
X119859142Y-147547047D01*
X119763904Y-147594666D01*
X119573428Y-147642285D01*
X119335333Y-147642285D01*
X119144857Y-147594666D01*
X119049619Y-147547047D01*
X119002000Y-147499428D01*
X118954380Y-147404190D01*
X119954380Y-146642285D02*
X118954380Y-146642285D01*
X119573428Y-146547047D02*
X119954380Y-146261333D01*
X119287714Y-146261333D02*
X119668666Y-146642285D01*
G04 #@! TO.C,R22*
X116498761Y-141168380D02*
X115927333Y-141168380D01*
X116213047Y-141168380D02*
X116213047Y-140168380D01*
X116117809Y-140311238D01*
X116022571Y-140406476D01*
X115927333Y-140454095D01*
X117117809Y-140168380D02*
X117213047Y-140168380D01*
X117308285Y-140216000D01*
X117355904Y-140263619D01*
X117403523Y-140358857D01*
X117451142Y-140549333D01*
X117451142Y-140787428D01*
X117403523Y-140977904D01*
X117355904Y-141073142D01*
X117308285Y-141120761D01*
X117213047Y-141168380D01*
X117117809Y-141168380D01*
X117022571Y-141120761D01*
X116974952Y-141073142D01*
X116927333Y-140977904D01*
X116879714Y-140787428D01*
X116879714Y-140549333D01*
X116927333Y-140358857D01*
X116974952Y-140263619D01*
X117022571Y-140216000D01*
X117117809Y-140168380D01*
X117879714Y-141168380D02*
X117879714Y-140168380D01*
X117974952Y-140787428D02*
X118260666Y-141168380D01*
X118260666Y-140501714D02*
X117879714Y-140882666D01*
G04 #@! TO.C,R23*
X124880761Y-141168380D02*
X124309333Y-141168380D01*
X124595047Y-141168380D02*
X124595047Y-140168380D01*
X124499809Y-140311238D01*
X124404571Y-140406476D01*
X124309333Y-140454095D01*
X125499809Y-140168380D02*
X125595047Y-140168380D01*
X125690285Y-140216000D01*
X125737904Y-140263619D01*
X125785523Y-140358857D01*
X125833142Y-140549333D01*
X125833142Y-140787428D01*
X125785523Y-140977904D01*
X125737904Y-141073142D01*
X125690285Y-141120761D01*
X125595047Y-141168380D01*
X125499809Y-141168380D01*
X125404571Y-141120761D01*
X125356952Y-141073142D01*
X125309333Y-140977904D01*
X125261714Y-140787428D01*
X125261714Y-140549333D01*
X125309333Y-140358857D01*
X125356952Y-140263619D01*
X125404571Y-140216000D01*
X125499809Y-140168380D01*
X126261714Y-141168380D02*
X126261714Y-140168380D01*
X126356952Y-140787428D02*
X126642666Y-141168380D01*
X126642666Y-140501714D02*
X126261714Y-140882666D01*
G04 #@! TO.C,W1*
X121650285Y-105227428D02*
X122412190Y-105227428D01*
X122031238Y-105608380D02*
X122031238Y-104846476D01*
X123364571Y-104608380D02*
X122888380Y-104608380D01*
X122840761Y-105084571D01*
X122888380Y-105036952D01*
X122983619Y-104989333D01*
X123221714Y-104989333D01*
X123316952Y-105036952D01*
X123364571Y-105084571D01*
X123412190Y-105179809D01*
X123412190Y-105417904D01*
X123364571Y-105513142D01*
X123316952Y-105560761D01*
X123221714Y-105608380D01*
X122983619Y-105608380D01*
X122888380Y-105560761D01*
X122840761Y-105513142D01*
X123697904Y-104608380D02*
X124031238Y-105608380D01*
X124364571Y-104608380D01*
G04 #@! TO.C,C3*
X106275380Y-92527380D02*
X105703952Y-92527380D01*
X105989666Y-92527380D02*
X105989666Y-91527380D01*
X105894428Y-91670238D01*
X105799190Y-91765476D01*
X105703952Y-91813095D01*
X106894428Y-91527380D02*
X106989666Y-91527380D01*
X107084904Y-91575000D01*
X107132523Y-91622619D01*
X107180142Y-91717857D01*
X107227761Y-91908333D01*
X107227761Y-92146428D01*
X107180142Y-92336904D01*
X107132523Y-92432142D01*
X107084904Y-92479761D01*
X106989666Y-92527380D01*
X106894428Y-92527380D01*
X106799190Y-92479761D01*
X106751571Y-92432142D01*
X106703952Y-92336904D01*
X106656333Y-92146428D01*
X106656333Y-91908333D01*
X106703952Y-91717857D01*
X106751571Y-91622619D01*
X106799190Y-91575000D01*
X106894428Y-91527380D01*
X107846809Y-91527380D02*
X107942047Y-91527380D01*
X108037285Y-91575000D01*
X108084904Y-91622619D01*
X108132523Y-91717857D01*
X108180142Y-91908333D01*
X108180142Y-92146428D01*
X108132523Y-92336904D01*
X108084904Y-92432142D01*
X108037285Y-92479761D01*
X107942047Y-92527380D01*
X107846809Y-92527380D01*
X107751571Y-92479761D01*
X107703952Y-92432142D01*
X107656333Y-92336904D01*
X107608714Y-92146428D01*
X107608714Y-91908333D01*
X107656333Y-91717857D01*
X107703952Y-91622619D01*
X107751571Y-91575000D01*
X107846809Y-91527380D01*
X108608714Y-91860714D02*
X108608714Y-92527380D01*
X108608714Y-91955952D02*
X108656333Y-91908333D01*
X108751571Y-91860714D01*
X108894428Y-91860714D01*
X108989666Y-91908333D01*
X109037285Y-92003571D01*
X109037285Y-92527380D01*
X109846809Y-92003571D02*
X109513476Y-92003571D01*
X109513476Y-92527380D02*
X109513476Y-91527380D01*
X109989666Y-91527380D01*
G04 #@! TO.C,C4*
X98909380Y-84907380D02*
X98337952Y-84907380D01*
X98623666Y-84907380D02*
X98623666Y-83907380D01*
X98528428Y-84050238D01*
X98433190Y-84145476D01*
X98337952Y-84193095D01*
X99528428Y-83907380D02*
X99623666Y-83907380D01*
X99718904Y-83955000D01*
X99766523Y-84002619D01*
X99814142Y-84097857D01*
X99861761Y-84288333D01*
X99861761Y-84526428D01*
X99814142Y-84716904D01*
X99766523Y-84812142D01*
X99718904Y-84859761D01*
X99623666Y-84907380D01*
X99528428Y-84907380D01*
X99433190Y-84859761D01*
X99385571Y-84812142D01*
X99337952Y-84716904D01*
X99290333Y-84526428D01*
X99290333Y-84288333D01*
X99337952Y-84097857D01*
X99385571Y-84002619D01*
X99433190Y-83955000D01*
X99528428Y-83907380D01*
X100480809Y-83907380D02*
X100576047Y-83907380D01*
X100671285Y-83955000D01*
X100718904Y-84002619D01*
X100766523Y-84097857D01*
X100814142Y-84288333D01*
X100814142Y-84526428D01*
X100766523Y-84716904D01*
X100718904Y-84812142D01*
X100671285Y-84859761D01*
X100576047Y-84907380D01*
X100480809Y-84907380D01*
X100385571Y-84859761D01*
X100337952Y-84812142D01*
X100290333Y-84716904D01*
X100242714Y-84526428D01*
X100242714Y-84288333D01*
X100290333Y-84097857D01*
X100337952Y-84002619D01*
X100385571Y-83955000D01*
X100480809Y-83907380D01*
X101242714Y-84240714D02*
X101242714Y-84907380D01*
X101242714Y-84335952D02*
X101290333Y-84288333D01*
X101385571Y-84240714D01*
X101528428Y-84240714D01*
X101623666Y-84288333D01*
X101671285Y-84383571D01*
X101671285Y-84907380D01*
X102480809Y-84383571D02*
X102147476Y-84383571D01*
X102147476Y-84907380D02*
X102147476Y-83907380D01*
X102623666Y-83907380D01*
G04 #@! TO.C,D1*
X117943261Y-96313261D02*
X117990880Y-96218023D01*
X117990880Y-96027547D01*
X117943261Y-95932309D01*
X117848023Y-95884690D01*
X117800404Y-95884690D01*
X117705166Y-95932309D01*
X117657547Y-96027547D01*
X117657547Y-96170404D01*
X117609928Y-96265642D01*
X117514690Y-96313261D01*
X117467071Y-96313261D01*
X117371833Y-96265642D01*
X117324214Y-96170404D01*
X117324214Y-96027547D01*
X117371833Y-95932309D01*
X117943261Y-95027547D02*
X117990880Y-95122785D01*
X117990880Y-95313261D01*
X117943261Y-95408500D01*
X117895642Y-95456119D01*
X117800404Y-95503738D01*
X117514690Y-95503738D01*
X117419452Y-95456119D01*
X117371833Y-95408500D01*
X117324214Y-95313261D01*
X117324214Y-95122785D01*
X117371833Y-95027547D01*
X117990880Y-94598976D02*
X116990880Y-94598976D01*
X117990880Y-94170404D02*
X117467071Y-94170404D01*
X117371833Y-94218023D01*
X117324214Y-94313261D01*
X117324214Y-94456119D01*
X117371833Y-94551357D01*
X117419452Y-94598976D01*
X117990880Y-93551357D02*
X117943261Y-93646595D01*
X117895642Y-93694214D01*
X117800404Y-93741833D01*
X117514690Y-93741833D01*
X117419452Y-93694214D01*
X117371833Y-93646595D01*
X117324214Y-93551357D01*
X117324214Y-93408500D01*
X117371833Y-93313261D01*
X117419452Y-93265642D01*
X117514690Y-93218023D01*
X117800404Y-93218023D01*
X117895642Y-93265642D01*
X117943261Y-93313261D01*
X117990880Y-93408500D01*
X117990880Y-93551357D01*
X117324214Y-92932309D02*
X117324214Y-92551357D01*
X116990880Y-92789452D02*
X117848023Y-92789452D01*
X117943261Y-92741833D01*
X117990880Y-92646595D01*
X117990880Y-92551357D01*
X117324214Y-92360880D02*
X117324214Y-91979928D01*
X116990880Y-92218023D02*
X117848023Y-92218023D01*
X117943261Y-92170404D01*
X117990880Y-92075166D01*
X117990880Y-91979928D01*
X117990880Y-91646595D02*
X116990880Y-91646595D01*
X117609928Y-91551357D02*
X117990880Y-91265642D01*
X117324214Y-91265642D02*
X117705166Y-91646595D01*
X117324214Y-90932309D02*
X117990880Y-90694214D01*
X117324214Y-90456119D02*
X117990880Y-90694214D01*
X118228976Y-90789452D01*
X118276595Y-90837071D01*
X118324214Y-90932309D01*
G04 #@! TO.C,R2*
X111526761Y-84404380D02*
X110955333Y-84404380D01*
X111241047Y-84404380D02*
X111241047Y-83404380D01*
X111145809Y-83547238D01*
X111050571Y-83642476D01*
X110955333Y-83690095D01*
X112145809Y-83404380D02*
X112241047Y-83404380D01*
X112336285Y-83452000D01*
X112383904Y-83499619D01*
X112431523Y-83594857D01*
X112479142Y-83785333D01*
X112479142Y-84023428D01*
X112431523Y-84213904D01*
X112383904Y-84309142D01*
X112336285Y-84356761D01*
X112241047Y-84404380D01*
X112145809Y-84404380D01*
X112050571Y-84356761D01*
X112002952Y-84309142D01*
X111955333Y-84213904D01*
X111907714Y-84023428D01*
X111907714Y-83785333D01*
X111955333Y-83594857D01*
X112002952Y-83499619D01*
X112050571Y-83452000D01*
X112145809Y-83404380D01*
X112907714Y-84404380D02*
X112907714Y-83404380D01*
X113002952Y-84023428D02*
X113288666Y-84404380D01*
X113288666Y-83737714D02*
X112907714Y-84118666D01*
G04 #@! TD*
M02*
