G04 #@! TF.FileFunction,Other,Fab,Top*
%FSLAX46Y46*%
G04 Gerber Fmt 4.6, Leading zero omitted, Abs format (unit mm)*
G04 Created by KiCad (PCBNEW 4.0.7-e2-6376~61~ubuntu18.04.1) date Sun Sep 22 13:29:54 2019*
%MOMM*%
%LPD*%
G01*
G04 APERTURE LIST*
%ADD10C,0.100000*%
%ADD11C,0.150000*%
G04 APERTURE END LIST*
D10*
X84331000Y-157490000D02*
X94231000Y-157490000D01*
X84281000Y-151190000D02*
X84281000Y-158690000D01*
X84281000Y-158690000D02*
X94281000Y-158690000D01*
X94281000Y-158690000D02*
X94281000Y-151190000D01*
X94281000Y-151190000D02*
X84281000Y-151190000D01*
X83550000Y-95136000D02*
X81950000Y-95136000D01*
X83550000Y-91936000D02*
X83550000Y-95136000D01*
X81950000Y-91936000D02*
X83550000Y-91936000D01*
X81950000Y-95136000D02*
X81950000Y-91936000D01*
X115250000Y-120000000D02*
X120250000Y-120000000D01*
X115250000Y-125500000D02*
X115250000Y-120000000D01*
X120250000Y-125500000D02*
X115250000Y-125500000D01*
X120250000Y-120000000D02*
X120250000Y-125500000D01*
X69431000Y-143815000D02*
X71031000Y-143815000D01*
X69431000Y-147015000D02*
X69431000Y-143815000D01*
X71031000Y-147015000D02*
X69431000Y-147015000D01*
X71031000Y-143815000D02*
X71031000Y-147015000D01*
X120231000Y-143815000D02*
X121831000Y-143815000D01*
X120231000Y-147015000D02*
X120231000Y-143815000D01*
X121831000Y-147015000D02*
X120231000Y-147015000D01*
X121831000Y-143815000D02*
X121831000Y-147015000D01*
X124674000Y-92158000D02*
X119674000Y-92158000D01*
X124674000Y-86658000D02*
X124674000Y-92158000D01*
X119674000Y-86658000D02*
X124674000Y-86658000D01*
X119674000Y-92158000D02*
X119674000Y-86658000D01*
X108121000Y-119952000D02*
X113121000Y-119952000D01*
X108121000Y-125452000D02*
X108121000Y-119952000D01*
X113121000Y-125452000D02*
X108121000Y-125452000D01*
X113121000Y-119952000D02*
X113121000Y-125452000D01*
X79591000Y-143815000D02*
X81191000Y-143815000D01*
X79591000Y-147015000D02*
X79591000Y-143815000D01*
X81191000Y-147015000D02*
X79591000Y-147015000D01*
X81191000Y-143815000D02*
X81191000Y-147015000D01*
X89751000Y-143815000D02*
X91351000Y-143815000D01*
X89751000Y-147015000D02*
X89751000Y-143815000D01*
X91351000Y-147015000D02*
X89751000Y-147015000D01*
X91351000Y-143815000D02*
X91351000Y-147015000D01*
X99911000Y-143815000D02*
X101511000Y-143815000D01*
X99911000Y-147015000D02*
X99911000Y-143815000D01*
X101511000Y-147015000D02*
X99911000Y-147015000D01*
X101511000Y-143815000D02*
X101511000Y-147015000D01*
X110071000Y-143815000D02*
X111671000Y-143815000D01*
X110071000Y-147015000D02*
X110071000Y-143815000D01*
X111671000Y-147015000D02*
X110071000Y-147015000D01*
X111671000Y-143815000D02*
X111671000Y-147015000D01*
X117751000Y-90611000D02*
X114151000Y-90611000D01*
X114151000Y-85411000D02*
X114151000Y-90611000D01*
X115952020Y-88660440D02*
X115952020Y-89562140D01*
X115952020Y-87509820D02*
X115952020Y-86511600D01*
X115151920Y-88660440D02*
X116752120Y-88660440D01*
X116701320Y-87509820D02*
X115151920Y-87509820D01*
X115952020Y-88660440D02*
X116701320Y-87509820D01*
X115952020Y-88660440D02*
X115151920Y-87509820D01*
X117751000Y-85411000D02*
X117751000Y-90611000D01*
X117751000Y-85411000D02*
X114151000Y-85411000D01*
X124711000Y-76698000D02*
X114811000Y-76698000D01*
X124761000Y-82998000D02*
X124761000Y-75498000D01*
X124761000Y-75498000D02*
X114761000Y-75498000D01*
X114761000Y-75498000D02*
X114761000Y-82998000D01*
X114761000Y-82998000D02*
X124761000Y-82998000D01*
X64011000Y-157490000D02*
X73911000Y-157490000D01*
X63961000Y-151190000D02*
X63961000Y-158690000D01*
X63961000Y-158690000D02*
X73961000Y-158690000D01*
X73961000Y-158690000D02*
X73961000Y-151190000D01*
X73961000Y-151190000D02*
X63961000Y-151190000D01*
X74171000Y-157490000D02*
X84071000Y-157490000D01*
X74121000Y-151190000D02*
X74121000Y-158690000D01*
X74121000Y-158690000D02*
X84121000Y-158690000D01*
X84121000Y-158690000D02*
X84121000Y-151190000D01*
X84121000Y-151190000D02*
X74121000Y-151190000D01*
X94491000Y-157490000D02*
X104391000Y-157490000D01*
X94441000Y-151190000D02*
X94441000Y-158690000D01*
X94441000Y-158690000D02*
X104441000Y-158690000D01*
X104441000Y-158690000D02*
X104441000Y-151190000D01*
X104441000Y-151190000D02*
X94441000Y-151190000D01*
X104651000Y-157490000D02*
X114551000Y-157490000D01*
X104601000Y-151190000D02*
X104601000Y-158690000D01*
X104601000Y-158690000D02*
X114601000Y-158690000D01*
X114601000Y-158690000D02*
X114601000Y-151190000D01*
X114601000Y-151190000D02*
X104601000Y-151190000D01*
X114811000Y-157490000D02*
X124711000Y-157490000D01*
X114761000Y-151190000D02*
X114761000Y-158690000D01*
X114761000Y-158690000D02*
X124761000Y-158690000D01*
X124761000Y-158690000D02*
X124761000Y-151190000D01*
X124761000Y-151190000D02*
X114761000Y-151190000D01*
X109471000Y-76571000D02*
X99571000Y-76571000D01*
X109521000Y-82871000D02*
X109521000Y-75371000D01*
X109521000Y-75371000D02*
X99521000Y-75371000D01*
X99521000Y-75371000D02*
X99521000Y-82871000D01*
X99521000Y-82871000D02*
X109521000Y-82871000D01*
D11*
X113650000Y-106900000D02*
X113650000Y-102600000D01*
X113650000Y-102600000D02*
X119850000Y-102600000D01*
X119850000Y-102600000D02*
X119850000Y-107900000D01*
X119850000Y-107900000D02*
X114650000Y-107900000D01*
X114650000Y-107900000D02*
X113650000Y-106900000D01*
D10*
X76962000Y-77724000D02*
X76962000Y-81534000D01*
X76962000Y-81534000D02*
X64262000Y-81534000D01*
X64262000Y-81534000D02*
X64262000Y-76454000D01*
X64262000Y-76454000D02*
X75692000Y-76454000D01*
X75692000Y-76454000D02*
X76962000Y-77724000D01*
X95758000Y-77724000D02*
X95758000Y-81534000D01*
X95758000Y-81534000D02*
X83058000Y-81534000D01*
X83058000Y-81534000D02*
X83058000Y-76454000D01*
X83058000Y-76454000D02*
X94488000Y-76454000D01*
X94488000Y-76454000D02*
X95758000Y-77724000D01*
X73952000Y-95199000D02*
X72352000Y-95199000D01*
X73952000Y-91999000D02*
X73952000Y-95199000D01*
X72352000Y-91999000D02*
X73952000Y-91999000D01*
X72352000Y-95199000D02*
X72352000Y-91999000D01*
X93002000Y-95199000D02*
X91402000Y-95199000D01*
X93002000Y-91999000D02*
X93002000Y-95199000D01*
X91402000Y-91999000D02*
X93002000Y-91999000D01*
X91402000Y-95199000D02*
X91402000Y-91999000D01*
D11*
X86622286Y-159964381D02*
X86622286Y-158964381D01*
X87003239Y-158964381D01*
X87098477Y-159012000D01*
X87146096Y-159059619D01*
X87193715Y-159154857D01*
X87193715Y-159297714D01*
X87146096Y-159392952D01*
X87098477Y-159440571D01*
X87003239Y-159488190D01*
X86622286Y-159488190D01*
X87622286Y-159964381D02*
X87622286Y-158964381D01*
X88098476Y-159964381D02*
X88098476Y-158964381D01*
X88669905Y-159964381D01*
X88669905Y-158964381D01*
X89050857Y-158964381D02*
X89717524Y-158964381D01*
X89050857Y-159964381D01*
X89717524Y-159964381D01*
X90050857Y-159678667D02*
X90527048Y-159678667D01*
X89955619Y-159964381D02*
X90288952Y-158964381D01*
X90622286Y-159964381D01*
X90717524Y-160059619D02*
X91479429Y-160059619D01*
X91622286Y-158964381D02*
X92241334Y-158964381D01*
X91908000Y-159345333D01*
X92050858Y-159345333D01*
X92146096Y-159392952D01*
X92193715Y-159440571D01*
X92241334Y-159535810D01*
X92241334Y-159773905D01*
X92193715Y-159869143D01*
X92146096Y-159916762D01*
X92050858Y-159964381D01*
X91765143Y-159964381D01*
X91669905Y-159916762D01*
X91622286Y-159869143D01*
X81732381Y-92225619D02*
X81732381Y-92797048D01*
X81732381Y-92511334D02*
X80732381Y-92511334D01*
X80875238Y-92606572D01*
X80970476Y-92701810D01*
X81018095Y-92797048D01*
X80732381Y-91606572D02*
X80732381Y-91511333D01*
X80780000Y-91416095D01*
X80827619Y-91368476D01*
X80922857Y-91320857D01*
X81113333Y-91273238D01*
X81351429Y-91273238D01*
X81541905Y-91320857D01*
X81637143Y-91368476D01*
X81684762Y-91416095D01*
X81732381Y-91511333D01*
X81732381Y-91606572D01*
X81684762Y-91701810D01*
X81637143Y-91749429D01*
X81541905Y-91797048D01*
X81351429Y-91844667D01*
X81113333Y-91844667D01*
X80922857Y-91797048D01*
X80827619Y-91749429D01*
X80780000Y-91701810D01*
X80732381Y-91606572D01*
X80732381Y-90654191D02*
X80732381Y-90558952D01*
X80780000Y-90463714D01*
X80827619Y-90416095D01*
X80922857Y-90368476D01*
X81113333Y-90320857D01*
X81351429Y-90320857D01*
X81541905Y-90368476D01*
X81637143Y-90416095D01*
X81684762Y-90463714D01*
X81732381Y-90558952D01*
X81732381Y-90654191D01*
X81684762Y-90749429D01*
X81637143Y-90797048D01*
X81541905Y-90844667D01*
X81351429Y-90892286D01*
X81113333Y-90892286D01*
X80922857Y-90844667D01*
X80827619Y-90797048D01*
X80780000Y-90749429D01*
X80732381Y-90654191D01*
X81065714Y-89892286D02*
X81732381Y-89892286D01*
X81160952Y-89892286D02*
X81113333Y-89844667D01*
X81065714Y-89749429D01*
X81065714Y-89606571D01*
X81113333Y-89511333D01*
X81208571Y-89463714D01*
X81732381Y-89463714D01*
X81208571Y-88654190D02*
X81208571Y-88987524D01*
X81732381Y-88987524D02*
X80732381Y-88987524D01*
X80732381Y-88511333D01*
X121610381Y-122991428D02*
X121610381Y-123562857D01*
X121610381Y-123277143D02*
X120610381Y-123277143D01*
X120753238Y-123372381D01*
X120848476Y-123467619D01*
X120896095Y-123562857D01*
X120610381Y-122372381D02*
X120610381Y-122277142D01*
X120658000Y-122181904D01*
X120705619Y-122134285D01*
X120800857Y-122086666D01*
X120991333Y-122039047D01*
X121229429Y-122039047D01*
X121419905Y-122086666D01*
X121515143Y-122134285D01*
X121562762Y-122181904D01*
X121610381Y-122277142D01*
X121610381Y-122372381D01*
X121562762Y-122467619D01*
X121515143Y-122515238D01*
X121419905Y-122562857D01*
X121229429Y-122610476D01*
X120991333Y-122610476D01*
X120800857Y-122562857D01*
X120705619Y-122515238D01*
X120658000Y-122467619D01*
X120610381Y-122372381D01*
X120943714Y-121181904D02*
X121610381Y-121181904D01*
X120943714Y-121610476D02*
X121467524Y-121610476D01*
X121562762Y-121562857D01*
X121610381Y-121467619D01*
X121610381Y-121324761D01*
X121562762Y-121229523D01*
X121515143Y-121181904D01*
X121086571Y-120372380D02*
X121086571Y-120705714D01*
X121610381Y-120705714D02*
X120610381Y-120705714D01*
X120610381Y-120229523D01*
X72334381Y-145819619D02*
X72334381Y-146391048D01*
X72334381Y-146105334D02*
X71334381Y-146105334D01*
X71477238Y-146200572D01*
X71572476Y-146295810D01*
X71620095Y-146391048D01*
X71334381Y-145200572D02*
X71334381Y-145105333D01*
X71382000Y-145010095D01*
X71429619Y-144962476D01*
X71524857Y-144914857D01*
X71715333Y-144867238D01*
X71953429Y-144867238D01*
X72143905Y-144914857D01*
X72239143Y-144962476D01*
X72286762Y-145010095D01*
X72334381Y-145105333D01*
X72334381Y-145200572D01*
X72286762Y-145295810D01*
X72239143Y-145343429D01*
X72143905Y-145391048D01*
X71953429Y-145438667D01*
X71715333Y-145438667D01*
X71524857Y-145391048D01*
X71429619Y-145343429D01*
X71382000Y-145295810D01*
X71334381Y-145200572D01*
X71334381Y-144248191D02*
X71334381Y-144152952D01*
X71382000Y-144057714D01*
X71429619Y-144010095D01*
X71524857Y-143962476D01*
X71715333Y-143914857D01*
X71953429Y-143914857D01*
X72143905Y-143962476D01*
X72239143Y-144010095D01*
X72286762Y-144057714D01*
X72334381Y-144152952D01*
X72334381Y-144248191D01*
X72286762Y-144343429D01*
X72239143Y-144391048D01*
X72143905Y-144438667D01*
X71953429Y-144486286D01*
X71715333Y-144486286D01*
X71524857Y-144438667D01*
X71429619Y-144391048D01*
X71382000Y-144343429D01*
X71334381Y-144248191D01*
X71667714Y-143486286D02*
X72334381Y-143486286D01*
X71762952Y-143486286D02*
X71715333Y-143438667D01*
X71667714Y-143343429D01*
X71667714Y-143200571D01*
X71715333Y-143105333D01*
X71810571Y-143057714D01*
X72334381Y-143057714D01*
X71810571Y-142248190D02*
X71810571Y-142581524D01*
X72334381Y-142581524D02*
X71334381Y-142581524D01*
X71334381Y-142105333D01*
X123134381Y-145311619D02*
X123134381Y-145883048D01*
X123134381Y-145597334D02*
X122134381Y-145597334D01*
X122277238Y-145692572D01*
X122372476Y-145787810D01*
X122420095Y-145883048D01*
X122134381Y-144692572D02*
X122134381Y-144597333D01*
X122182000Y-144502095D01*
X122229619Y-144454476D01*
X122324857Y-144406857D01*
X122515333Y-144359238D01*
X122753429Y-144359238D01*
X122943905Y-144406857D01*
X123039143Y-144454476D01*
X123086762Y-144502095D01*
X123134381Y-144597333D01*
X123134381Y-144692572D01*
X123086762Y-144787810D01*
X123039143Y-144835429D01*
X122943905Y-144883048D01*
X122753429Y-144930667D01*
X122515333Y-144930667D01*
X122324857Y-144883048D01*
X122229619Y-144835429D01*
X122182000Y-144787810D01*
X122134381Y-144692572D01*
X122134381Y-143740191D02*
X122134381Y-143644952D01*
X122182000Y-143549714D01*
X122229619Y-143502095D01*
X122324857Y-143454476D01*
X122515333Y-143406857D01*
X122753429Y-143406857D01*
X122943905Y-143454476D01*
X123039143Y-143502095D01*
X123086762Y-143549714D01*
X123134381Y-143644952D01*
X123134381Y-143740191D01*
X123086762Y-143835429D01*
X123039143Y-143883048D01*
X122943905Y-143930667D01*
X122753429Y-143978286D01*
X122515333Y-143978286D01*
X122324857Y-143930667D01*
X122229619Y-143883048D01*
X122182000Y-143835429D01*
X122134381Y-143740191D01*
X122467714Y-142978286D02*
X123134381Y-142978286D01*
X122562952Y-142978286D02*
X122515333Y-142930667D01*
X122467714Y-142835429D01*
X122467714Y-142692571D01*
X122515333Y-142597333D01*
X122610571Y-142549714D01*
X123134381Y-142549714D01*
X122610571Y-141740190D02*
X122610571Y-142073524D01*
X123134381Y-142073524D02*
X122134381Y-142073524D01*
X122134381Y-141597333D01*
X126182381Y-89209428D02*
X126182381Y-89780857D01*
X126182381Y-89495143D02*
X125182381Y-89495143D01*
X125325238Y-89590381D01*
X125420476Y-89685619D01*
X125468095Y-89780857D01*
X125182381Y-88590381D02*
X125182381Y-88495142D01*
X125230000Y-88399904D01*
X125277619Y-88352285D01*
X125372857Y-88304666D01*
X125563333Y-88257047D01*
X125801429Y-88257047D01*
X125991905Y-88304666D01*
X126087143Y-88352285D01*
X126134762Y-88399904D01*
X126182381Y-88495142D01*
X126182381Y-88590381D01*
X126134762Y-88685619D01*
X126087143Y-88733238D01*
X125991905Y-88780857D01*
X125801429Y-88828476D01*
X125563333Y-88828476D01*
X125372857Y-88780857D01*
X125277619Y-88733238D01*
X125230000Y-88685619D01*
X125182381Y-88590381D01*
X125515714Y-87399904D02*
X126182381Y-87399904D01*
X125515714Y-87828476D02*
X126039524Y-87828476D01*
X126134762Y-87780857D01*
X126182381Y-87685619D01*
X126182381Y-87542761D01*
X126134762Y-87447523D01*
X126087143Y-87399904D01*
X125658571Y-86590380D02*
X125658571Y-86923714D01*
X126182381Y-86923714D02*
X125182381Y-86923714D01*
X125182381Y-86447523D01*
X114498381Y-122737428D02*
X114498381Y-123308857D01*
X114498381Y-123023143D02*
X113498381Y-123023143D01*
X113641238Y-123118381D01*
X113736476Y-123213619D01*
X113784095Y-123308857D01*
X113498381Y-122118381D02*
X113498381Y-122023142D01*
X113546000Y-121927904D01*
X113593619Y-121880285D01*
X113688857Y-121832666D01*
X113879333Y-121785047D01*
X114117429Y-121785047D01*
X114307905Y-121832666D01*
X114403143Y-121880285D01*
X114450762Y-121927904D01*
X114498381Y-122023142D01*
X114498381Y-122118381D01*
X114450762Y-122213619D01*
X114403143Y-122261238D01*
X114307905Y-122308857D01*
X114117429Y-122356476D01*
X113879333Y-122356476D01*
X113688857Y-122308857D01*
X113593619Y-122261238D01*
X113546000Y-122213619D01*
X113498381Y-122118381D01*
X113831714Y-120927904D02*
X114498381Y-120927904D01*
X113831714Y-121356476D02*
X114355524Y-121356476D01*
X114450762Y-121308857D01*
X114498381Y-121213619D01*
X114498381Y-121070761D01*
X114450762Y-120975523D01*
X114403143Y-120927904D01*
X113974571Y-120118380D02*
X113974571Y-120451714D01*
X114498381Y-120451714D02*
X113498381Y-120451714D01*
X113498381Y-119975523D01*
X82494381Y-145565619D02*
X82494381Y-146137048D01*
X82494381Y-145851334D02*
X81494381Y-145851334D01*
X81637238Y-145946572D01*
X81732476Y-146041810D01*
X81780095Y-146137048D01*
X81494381Y-144946572D02*
X81494381Y-144851333D01*
X81542000Y-144756095D01*
X81589619Y-144708476D01*
X81684857Y-144660857D01*
X81875333Y-144613238D01*
X82113429Y-144613238D01*
X82303905Y-144660857D01*
X82399143Y-144708476D01*
X82446762Y-144756095D01*
X82494381Y-144851333D01*
X82494381Y-144946572D01*
X82446762Y-145041810D01*
X82399143Y-145089429D01*
X82303905Y-145137048D01*
X82113429Y-145184667D01*
X81875333Y-145184667D01*
X81684857Y-145137048D01*
X81589619Y-145089429D01*
X81542000Y-145041810D01*
X81494381Y-144946572D01*
X81494381Y-143994191D02*
X81494381Y-143898952D01*
X81542000Y-143803714D01*
X81589619Y-143756095D01*
X81684857Y-143708476D01*
X81875333Y-143660857D01*
X82113429Y-143660857D01*
X82303905Y-143708476D01*
X82399143Y-143756095D01*
X82446762Y-143803714D01*
X82494381Y-143898952D01*
X82494381Y-143994191D01*
X82446762Y-144089429D01*
X82399143Y-144137048D01*
X82303905Y-144184667D01*
X82113429Y-144232286D01*
X81875333Y-144232286D01*
X81684857Y-144184667D01*
X81589619Y-144137048D01*
X81542000Y-144089429D01*
X81494381Y-143994191D01*
X81827714Y-143232286D02*
X82494381Y-143232286D01*
X81922952Y-143232286D02*
X81875333Y-143184667D01*
X81827714Y-143089429D01*
X81827714Y-142946571D01*
X81875333Y-142851333D01*
X81970571Y-142803714D01*
X82494381Y-142803714D01*
X81970571Y-141994190D02*
X81970571Y-142327524D01*
X82494381Y-142327524D02*
X81494381Y-142327524D01*
X81494381Y-141851333D01*
X92654381Y-145565619D02*
X92654381Y-146137048D01*
X92654381Y-145851334D02*
X91654381Y-145851334D01*
X91797238Y-145946572D01*
X91892476Y-146041810D01*
X91940095Y-146137048D01*
X91654381Y-144946572D02*
X91654381Y-144851333D01*
X91702000Y-144756095D01*
X91749619Y-144708476D01*
X91844857Y-144660857D01*
X92035333Y-144613238D01*
X92273429Y-144613238D01*
X92463905Y-144660857D01*
X92559143Y-144708476D01*
X92606762Y-144756095D01*
X92654381Y-144851333D01*
X92654381Y-144946572D01*
X92606762Y-145041810D01*
X92559143Y-145089429D01*
X92463905Y-145137048D01*
X92273429Y-145184667D01*
X92035333Y-145184667D01*
X91844857Y-145137048D01*
X91749619Y-145089429D01*
X91702000Y-145041810D01*
X91654381Y-144946572D01*
X91654381Y-143994191D02*
X91654381Y-143898952D01*
X91702000Y-143803714D01*
X91749619Y-143756095D01*
X91844857Y-143708476D01*
X92035333Y-143660857D01*
X92273429Y-143660857D01*
X92463905Y-143708476D01*
X92559143Y-143756095D01*
X92606762Y-143803714D01*
X92654381Y-143898952D01*
X92654381Y-143994191D01*
X92606762Y-144089429D01*
X92559143Y-144137048D01*
X92463905Y-144184667D01*
X92273429Y-144232286D01*
X92035333Y-144232286D01*
X91844857Y-144184667D01*
X91749619Y-144137048D01*
X91702000Y-144089429D01*
X91654381Y-143994191D01*
X91987714Y-143232286D02*
X92654381Y-143232286D01*
X92082952Y-143232286D02*
X92035333Y-143184667D01*
X91987714Y-143089429D01*
X91987714Y-142946571D01*
X92035333Y-142851333D01*
X92130571Y-142803714D01*
X92654381Y-142803714D01*
X92130571Y-141994190D02*
X92130571Y-142327524D01*
X92654381Y-142327524D02*
X91654381Y-142327524D01*
X91654381Y-141851333D01*
X102814381Y-145565619D02*
X102814381Y-146137048D01*
X102814381Y-145851334D02*
X101814381Y-145851334D01*
X101957238Y-145946572D01*
X102052476Y-146041810D01*
X102100095Y-146137048D01*
X101814381Y-144946572D02*
X101814381Y-144851333D01*
X101862000Y-144756095D01*
X101909619Y-144708476D01*
X102004857Y-144660857D01*
X102195333Y-144613238D01*
X102433429Y-144613238D01*
X102623905Y-144660857D01*
X102719143Y-144708476D01*
X102766762Y-144756095D01*
X102814381Y-144851333D01*
X102814381Y-144946572D01*
X102766762Y-145041810D01*
X102719143Y-145089429D01*
X102623905Y-145137048D01*
X102433429Y-145184667D01*
X102195333Y-145184667D01*
X102004857Y-145137048D01*
X101909619Y-145089429D01*
X101862000Y-145041810D01*
X101814381Y-144946572D01*
X101814381Y-143994191D02*
X101814381Y-143898952D01*
X101862000Y-143803714D01*
X101909619Y-143756095D01*
X102004857Y-143708476D01*
X102195333Y-143660857D01*
X102433429Y-143660857D01*
X102623905Y-143708476D01*
X102719143Y-143756095D01*
X102766762Y-143803714D01*
X102814381Y-143898952D01*
X102814381Y-143994191D01*
X102766762Y-144089429D01*
X102719143Y-144137048D01*
X102623905Y-144184667D01*
X102433429Y-144232286D01*
X102195333Y-144232286D01*
X102004857Y-144184667D01*
X101909619Y-144137048D01*
X101862000Y-144089429D01*
X101814381Y-143994191D01*
X102147714Y-143232286D02*
X102814381Y-143232286D01*
X102242952Y-143232286D02*
X102195333Y-143184667D01*
X102147714Y-143089429D01*
X102147714Y-142946571D01*
X102195333Y-142851333D01*
X102290571Y-142803714D01*
X102814381Y-142803714D01*
X102290571Y-141994190D02*
X102290571Y-142327524D01*
X102814381Y-142327524D02*
X101814381Y-142327524D01*
X101814381Y-141851333D01*
X112974381Y-145311619D02*
X112974381Y-145883048D01*
X112974381Y-145597334D02*
X111974381Y-145597334D01*
X112117238Y-145692572D01*
X112212476Y-145787810D01*
X112260095Y-145883048D01*
X111974381Y-144692572D02*
X111974381Y-144597333D01*
X112022000Y-144502095D01*
X112069619Y-144454476D01*
X112164857Y-144406857D01*
X112355333Y-144359238D01*
X112593429Y-144359238D01*
X112783905Y-144406857D01*
X112879143Y-144454476D01*
X112926762Y-144502095D01*
X112974381Y-144597333D01*
X112974381Y-144692572D01*
X112926762Y-144787810D01*
X112879143Y-144835429D01*
X112783905Y-144883048D01*
X112593429Y-144930667D01*
X112355333Y-144930667D01*
X112164857Y-144883048D01*
X112069619Y-144835429D01*
X112022000Y-144787810D01*
X111974381Y-144692572D01*
X111974381Y-143740191D02*
X111974381Y-143644952D01*
X112022000Y-143549714D01*
X112069619Y-143502095D01*
X112164857Y-143454476D01*
X112355333Y-143406857D01*
X112593429Y-143406857D01*
X112783905Y-143454476D01*
X112879143Y-143502095D01*
X112926762Y-143549714D01*
X112974381Y-143644952D01*
X112974381Y-143740191D01*
X112926762Y-143835429D01*
X112879143Y-143883048D01*
X112783905Y-143930667D01*
X112593429Y-143978286D01*
X112355333Y-143978286D01*
X112164857Y-143930667D01*
X112069619Y-143883048D01*
X112022000Y-143835429D01*
X111974381Y-143740191D01*
X112307714Y-142978286D02*
X112974381Y-142978286D01*
X112402952Y-142978286D02*
X112355333Y-142930667D01*
X112307714Y-142835429D01*
X112307714Y-142692571D01*
X112355333Y-142597333D01*
X112450571Y-142549714D01*
X112974381Y-142549714D01*
X112450571Y-141740190D02*
X112450571Y-142073524D01*
X112974381Y-142073524D02*
X111974381Y-142073524D01*
X111974381Y-141597333D01*
X113434762Y-88756763D02*
X113482381Y-88661525D01*
X113482381Y-88471049D01*
X113434762Y-88375810D01*
X113339524Y-88328191D01*
X113291905Y-88328191D01*
X113196667Y-88375810D01*
X113149048Y-88471049D01*
X113149048Y-88613906D01*
X113101429Y-88709144D01*
X113006190Y-88756763D01*
X112958571Y-88756763D01*
X112863333Y-88709144D01*
X112815714Y-88613906D01*
X112815714Y-88471049D01*
X112863333Y-88375810D01*
X113434762Y-87471048D02*
X113482381Y-87566286D01*
X113482381Y-87756763D01*
X113434762Y-87852001D01*
X113387143Y-87899620D01*
X113291905Y-87947239D01*
X113006190Y-87947239D01*
X112910952Y-87899620D01*
X112863333Y-87852001D01*
X112815714Y-87756763D01*
X112815714Y-87566286D01*
X112863333Y-87471048D01*
X113482381Y-87042477D02*
X112482381Y-87042477D01*
X113482381Y-86613905D02*
X112958571Y-86613905D01*
X112863333Y-86661524D01*
X112815714Y-86756762D01*
X112815714Y-86899620D01*
X112863333Y-86994858D01*
X112910952Y-87042477D01*
X113482381Y-85994858D02*
X113434762Y-86090096D01*
X113387143Y-86137715D01*
X113291905Y-86185334D01*
X113006190Y-86185334D01*
X112910952Y-86137715D01*
X112863333Y-86090096D01*
X112815714Y-85994858D01*
X112815714Y-85852000D01*
X112863333Y-85756762D01*
X112910952Y-85709143D01*
X113006190Y-85661524D01*
X113291905Y-85661524D01*
X113387143Y-85709143D01*
X113434762Y-85756762D01*
X113482381Y-85852000D01*
X113482381Y-85994858D01*
X112815714Y-85375810D02*
X112815714Y-84994858D01*
X112482381Y-85232953D02*
X113339524Y-85232953D01*
X113434762Y-85185334D01*
X113482381Y-85090096D01*
X113482381Y-84994858D01*
X112815714Y-84804381D02*
X112815714Y-84423429D01*
X112482381Y-84661524D02*
X113339524Y-84661524D01*
X113434762Y-84613905D01*
X113482381Y-84518667D01*
X113482381Y-84423429D01*
X113482381Y-84090095D02*
X112482381Y-84090095D01*
X113101429Y-83994857D02*
X113482381Y-83709142D01*
X112815714Y-83709142D02*
X113196667Y-84090095D01*
X112815714Y-83375809D02*
X113482381Y-83137714D01*
X112815714Y-82899618D02*
X113482381Y-83137714D01*
X113720476Y-83232952D01*
X113768095Y-83280571D01*
X113815714Y-83375809D01*
X85860000Y-100004476D02*
X85812381Y-100099714D01*
X85812381Y-100242571D01*
X85860000Y-100385429D01*
X85955238Y-100480667D01*
X86050476Y-100528286D01*
X86240952Y-100575905D01*
X86383810Y-100575905D01*
X86574286Y-100528286D01*
X86669524Y-100480667D01*
X86764762Y-100385429D01*
X86812381Y-100242571D01*
X86812381Y-100147333D01*
X86764762Y-100004476D01*
X86717143Y-99956857D01*
X86383810Y-99956857D01*
X86383810Y-100147333D01*
X86764762Y-99575905D02*
X86812381Y-99433048D01*
X86812381Y-99194952D01*
X86764762Y-99099714D01*
X86717143Y-99052095D01*
X86621905Y-99004476D01*
X86526667Y-99004476D01*
X86431429Y-99052095D01*
X86383810Y-99099714D01*
X86336190Y-99194952D01*
X86288571Y-99385429D01*
X86240952Y-99480667D01*
X86193333Y-99528286D01*
X86098095Y-99575905D01*
X86002857Y-99575905D01*
X85907619Y-99528286D01*
X85860000Y-99480667D01*
X85812381Y-99385429D01*
X85812381Y-99147333D01*
X85860000Y-99004476D01*
X85907619Y-98623524D02*
X85860000Y-98575905D01*
X85812381Y-98480667D01*
X85812381Y-98242571D01*
X85860000Y-98147333D01*
X85907619Y-98099714D01*
X86002857Y-98052095D01*
X86098095Y-98052095D01*
X86240952Y-98099714D01*
X86812381Y-98671143D01*
X86812381Y-98052095D01*
X82304000Y-100004476D02*
X82256381Y-100099714D01*
X82256381Y-100242571D01*
X82304000Y-100385429D01*
X82399238Y-100480667D01*
X82494476Y-100528286D01*
X82684952Y-100575905D01*
X82827810Y-100575905D01*
X83018286Y-100528286D01*
X83113524Y-100480667D01*
X83208762Y-100385429D01*
X83256381Y-100242571D01*
X83256381Y-100147333D01*
X83208762Y-100004476D01*
X83161143Y-99956857D01*
X82827810Y-99956857D01*
X82827810Y-100147333D01*
X83208762Y-99575905D02*
X83256381Y-99433048D01*
X83256381Y-99194952D01*
X83208762Y-99099714D01*
X83161143Y-99052095D01*
X83065905Y-99004476D01*
X82970667Y-99004476D01*
X82875429Y-99052095D01*
X82827810Y-99099714D01*
X82780190Y-99194952D01*
X82732571Y-99385429D01*
X82684952Y-99480667D01*
X82637333Y-99528286D01*
X82542095Y-99575905D01*
X82446857Y-99575905D01*
X82351619Y-99528286D01*
X82304000Y-99480667D01*
X82256381Y-99385429D01*
X82256381Y-99147333D01*
X82304000Y-99004476D01*
X82351619Y-98623524D02*
X82304000Y-98575905D01*
X82256381Y-98480667D01*
X82256381Y-98242571D01*
X82304000Y-98147333D01*
X82351619Y-98099714D01*
X82446857Y-98052095D01*
X82542095Y-98052095D01*
X82684952Y-98099714D01*
X83256381Y-98671143D01*
X83256381Y-98052095D01*
X78240000Y-100004476D02*
X78192381Y-100099714D01*
X78192381Y-100242571D01*
X78240000Y-100385429D01*
X78335238Y-100480667D01*
X78430476Y-100528286D01*
X78620952Y-100575905D01*
X78763810Y-100575905D01*
X78954286Y-100528286D01*
X79049524Y-100480667D01*
X79144762Y-100385429D01*
X79192381Y-100242571D01*
X79192381Y-100147333D01*
X79144762Y-100004476D01*
X79097143Y-99956857D01*
X78763810Y-99956857D01*
X78763810Y-100147333D01*
X79144762Y-99575905D02*
X79192381Y-99433048D01*
X79192381Y-99194952D01*
X79144762Y-99099714D01*
X79097143Y-99052095D01*
X79001905Y-99004476D01*
X78906667Y-99004476D01*
X78811429Y-99052095D01*
X78763810Y-99099714D01*
X78716190Y-99194952D01*
X78668571Y-99385429D01*
X78620952Y-99480667D01*
X78573333Y-99528286D01*
X78478095Y-99575905D01*
X78382857Y-99575905D01*
X78287619Y-99528286D01*
X78240000Y-99480667D01*
X78192381Y-99385429D01*
X78192381Y-99147333D01*
X78240000Y-99004476D01*
X78287619Y-98623524D02*
X78240000Y-98575905D01*
X78192381Y-98480667D01*
X78192381Y-98242571D01*
X78240000Y-98147333D01*
X78287619Y-98099714D01*
X78382857Y-98052095D01*
X78478095Y-98052095D01*
X78620952Y-98099714D01*
X79192381Y-98671143D01*
X79192381Y-98052095D01*
X118411810Y-74382381D02*
X118745143Y-75382381D01*
X119078477Y-74382381D01*
X119173715Y-75477619D02*
X119935620Y-75477619D01*
X120173715Y-75382381D02*
X120173715Y-74382381D01*
X120649905Y-75382381D02*
X120649905Y-74382381D01*
X121221334Y-75382381D01*
X121221334Y-74382381D01*
X119022905Y-79700381D02*
X119022905Y-78700381D01*
X119403858Y-78700381D01*
X119499096Y-78748000D01*
X119546715Y-78795619D01*
X119594334Y-78890857D01*
X119594334Y-79033714D01*
X119546715Y-79128952D01*
X119499096Y-79176571D01*
X119403858Y-79224190D01*
X119022905Y-79224190D01*
X120546715Y-79700381D02*
X119975286Y-79700381D01*
X120261000Y-79700381D02*
X120261000Y-78700381D01*
X120165762Y-78843238D01*
X120070524Y-78938476D01*
X119975286Y-78986095D01*
X66302286Y-159964381D02*
X66302286Y-158964381D01*
X66683239Y-158964381D01*
X66778477Y-159012000D01*
X66826096Y-159059619D01*
X66873715Y-159154857D01*
X66873715Y-159297714D01*
X66826096Y-159392952D01*
X66778477Y-159440571D01*
X66683239Y-159488190D01*
X66302286Y-159488190D01*
X67302286Y-159964381D02*
X67302286Y-158964381D01*
X67778476Y-159964381D02*
X67778476Y-158964381D01*
X68349905Y-159964381D01*
X68349905Y-158964381D01*
X68730857Y-158964381D02*
X69397524Y-158964381D01*
X68730857Y-159964381D01*
X69397524Y-159964381D01*
X69730857Y-159678667D02*
X70207048Y-159678667D01*
X69635619Y-159964381D02*
X69968952Y-158964381D01*
X70302286Y-159964381D01*
X70397524Y-160059619D02*
X71159429Y-160059619D01*
X71921334Y-159964381D02*
X71349905Y-159964381D01*
X71635619Y-159964381D02*
X71635619Y-158964381D01*
X71540381Y-159107238D01*
X71445143Y-159202476D01*
X71349905Y-159250095D01*
X76208286Y-159964381D02*
X76208286Y-158964381D01*
X76589239Y-158964381D01*
X76684477Y-159012000D01*
X76732096Y-159059619D01*
X76779715Y-159154857D01*
X76779715Y-159297714D01*
X76732096Y-159392952D01*
X76684477Y-159440571D01*
X76589239Y-159488190D01*
X76208286Y-159488190D01*
X77208286Y-159964381D02*
X77208286Y-158964381D01*
X77684476Y-159964381D02*
X77684476Y-158964381D01*
X78255905Y-159964381D01*
X78255905Y-158964381D01*
X78636857Y-158964381D02*
X79303524Y-158964381D01*
X78636857Y-159964381D01*
X79303524Y-159964381D01*
X79636857Y-159678667D02*
X80113048Y-159678667D01*
X79541619Y-159964381D02*
X79874952Y-158964381D01*
X80208286Y-159964381D01*
X80303524Y-160059619D02*
X81065429Y-160059619D01*
X81255905Y-159059619D02*
X81303524Y-159012000D01*
X81398762Y-158964381D01*
X81636858Y-158964381D01*
X81732096Y-159012000D01*
X81779715Y-159059619D01*
X81827334Y-159154857D01*
X81827334Y-159250095D01*
X81779715Y-159392952D01*
X81208286Y-159964381D01*
X81827334Y-159964381D01*
X96782286Y-159964381D02*
X96782286Y-158964381D01*
X97163239Y-158964381D01*
X97258477Y-159012000D01*
X97306096Y-159059619D01*
X97353715Y-159154857D01*
X97353715Y-159297714D01*
X97306096Y-159392952D01*
X97258477Y-159440571D01*
X97163239Y-159488190D01*
X96782286Y-159488190D01*
X97782286Y-159964381D02*
X97782286Y-158964381D01*
X98258476Y-159964381D02*
X98258476Y-158964381D01*
X98829905Y-159964381D01*
X98829905Y-158964381D01*
X99210857Y-158964381D02*
X99877524Y-158964381D01*
X99210857Y-159964381D01*
X99877524Y-159964381D01*
X100210857Y-159678667D02*
X100687048Y-159678667D01*
X100115619Y-159964381D02*
X100448952Y-158964381D01*
X100782286Y-159964381D01*
X100877524Y-160059619D02*
X101639429Y-160059619D01*
X102306096Y-159297714D02*
X102306096Y-159964381D01*
X102068000Y-158916762D02*
X101829905Y-159631048D01*
X102448953Y-159631048D01*
X106942286Y-159964381D02*
X106942286Y-158964381D01*
X107323239Y-158964381D01*
X107418477Y-159012000D01*
X107466096Y-159059619D01*
X107513715Y-159154857D01*
X107513715Y-159297714D01*
X107466096Y-159392952D01*
X107418477Y-159440571D01*
X107323239Y-159488190D01*
X106942286Y-159488190D01*
X107942286Y-159964381D02*
X107942286Y-158964381D01*
X108418476Y-159964381D02*
X108418476Y-158964381D01*
X108989905Y-159964381D01*
X108989905Y-158964381D01*
X109370857Y-158964381D02*
X110037524Y-158964381D01*
X109370857Y-159964381D01*
X110037524Y-159964381D01*
X110370857Y-159678667D02*
X110847048Y-159678667D01*
X110275619Y-159964381D02*
X110608952Y-158964381D01*
X110942286Y-159964381D01*
X111037524Y-160059619D02*
X111799429Y-160059619D01*
X112513715Y-158964381D02*
X112037524Y-158964381D01*
X111989905Y-159440571D01*
X112037524Y-159392952D01*
X112132762Y-159345333D01*
X112370858Y-159345333D01*
X112466096Y-159392952D01*
X112513715Y-159440571D01*
X112561334Y-159535810D01*
X112561334Y-159773905D01*
X112513715Y-159869143D01*
X112466096Y-159916762D01*
X112370858Y-159964381D01*
X112132762Y-159964381D01*
X112037524Y-159916762D01*
X111989905Y-159869143D01*
X117102286Y-159964381D02*
X117102286Y-158964381D01*
X117483239Y-158964381D01*
X117578477Y-159012000D01*
X117626096Y-159059619D01*
X117673715Y-159154857D01*
X117673715Y-159297714D01*
X117626096Y-159392952D01*
X117578477Y-159440571D01*
X117483239Y-159488190D01*
X117102286Y-159488190D01*
X118102286Y-159964381D02*
X118102286Y-158964381D01*
X118578476Y-159964381D02*
X118578476Y-158964381D01*
X119149905Y-159964381D01*
X119149905Y-158964381D01*
X119530857Y-158964381D02*
X120197524Y-158964381D01*
X119530857Y-159964381D01*
X120197524Y-159964381D01*
X120530857Y-159678667D02*
X121007048Y-159678667D01*
X120435619Y-159964381D02*
X120768952Y-158964381D01*
X121102286Y-159964381D01*
X121197524Y-160059619D02*
X121959429Y-160059619D01*
X122626096Y-158964381D02*
X122435619Y-158964381D01*
X122340381Y-159012000D01*
X122292762Y-159059619D01*
X122197524Y-159202476D01*
X122149905Y-159392952D01*
X122149905Y-159773905D01*
X122197524Y-159869143D01*
X122245143Y-159916762D01*
X122340381Y-159964381D01*
X122530858Y-159964381D01*
X122626096Y-159916762D01*
X122673715Y-159869143D01*
X122721334Y-159773905D01*
X122721334Y-159535810D01*
X122673715Y-159440571D01*
X122626096Y-159392952D01*
X122530858Y-159345333D01*
X122340381Y-159345333D01*
X122245143Y-159392952D01*
X122197524Y-159440571D01*
X122149905Y-159535810D01*
X101862286Y-75382381D02*
X101862286Y-74382381D01*
X102243239Y-74382381D01*
X102338477Y-74430000D01*
X102386096Y-74477619D01*
X102433715Y-74572857D01*
X102433715Y-74715714D01*
X102386096Y-74810952D01*
X102338477Y-74858571D01*
X102243239Y-74906190D01*
X101862286Y-74906190D01*
X102862286Y-75382381D02*
X102862286Y-74382381D01*
X103338476Y-75382381D02*
X103338476Y-74382381D01*
X103909905Y-75382381D01*
X103909905Y-74382381D01*
X104290857Y-74382381D02*
X104957524Y-74382381D01*
X104290857Y-75382381D01*
X104957524Y-75382381D01*
X105290857Y-75096667D02*
X105767048Y-75096667D01*
X105195619Y-75382381D02*
X105528952Y-74382381D01*
X105862286Y-75382381D01*
X105957524Y-75477619D02*
X106719429Y-75477619D01*
X106862286Y-74382381D02*
X107528953Y-74382381D01*
X107100381Y-75382381D01*
X103782905Y-79573381D02*
X103782905Y-78573381D01*
X104163858Y-78573381D01*
X104259096Y-78621000D01*
X104306715Y-78668619D01*
X104354334Y-78763857D01*
X104354334Y-78906714D01*
X104306715Y-79001952D01*
X104259096Y-79049571D01*
X104163858Y-79097190D01*
X103782905Y-79097190D01*
X104925762Y-79001952D02*
X104830524Y-78954333D01*
X104782905Y-78906714D01*
X104735286Y-78811476D01*
X104735286Y-78763857D01*
X104782905Y-78668619D01*
X104830524Y-78621000D01*
X104925762Y-78573381D01*
X105116239Y-78573381D01*
X105211477Y-78621000D01*
X105259096Y-78668619D01*
X105306715Y-78763857D01*
X105306715Y-78811476D01*
X105259096Y-78906714D01*
X105211477Y-78954333D01*
X105116239Y-79001952D01*
X104925762Y-79001952D01*
X104830524Y-79049571D01*
X104782905Y-79097190D01*
X104735286Y-79192429D01*
X104735286Y-79382905D01*
X104782905Y-79478143D01*
X104830524Y-79525762D01*
X104925762Y-79573381D01*
X105116239Y-79573381D01*
X105211477Y-79525762D01*
X105259096Y-79478143D01*
X105306715Y-79382905D01*
X105306715Y-79192429D01*
X105259096Y-79097190D01*
X105211477Y-79049571D01*
X105116239Y-79001952D01*
X66873381Y-142882238D02*
X66873381Y-143453667D01*
X66873381Y-143167953D02*
X65873381Y-143167953D01*
X66016238Y-143263191D01*
X66111476Y-143358429D01*
X66159095Y-143453667D01*
X65873381Y-142263191D02*
X65873381Y-142167952D01*
X65921000Y-142072714D01*
X65968619Y-142025095D01*
X66063857Y-141977476D01*
X66254333Y-141929857D01*
X66492429Y-141929857D01*
X66682905Y-141977476D01*
X66778143Y-142025095D01*
X66825762Y-142072714D01*
X66873381Y-142167952D01*
X66873381Y-142263191D01*
X66825762Y-142358429D01*
X66778143Y-142406048D01*
X66682905Y-142453667D01*
X66492429Y-142501286D01*
X66254333Y-142501286D01*
X66063857Y-142453667D01*
X65968619Y-142406048D01*
X65921000Y-142358429D01*
X65873381Y-142263191D01*
X66873381Y-141501286D02*
X65873381Y-141501286D01*
X66492429Y-141406048D02*
X66873381Y-141120333D01*
X66206714Y-141120333D02*
X66587667Y-141501286D01*
X117673381Y-142882238D02*
X117673381Y-143453667D01*
X117673381Y-143167953D02*
X116673381Y-143167953D01*
X116816238Y-143263191D01*
X116911476Y-143358429D01*
X116959095Y-143453667D01*
X116673381Y-142263191D02*
X116673381Y-142167952D01*
X116721000Y-142072714D01*
X116768619Y-142025095D01*
X116863857Y-141977476D01*
X117054333Y-141929857D01*
X117292429Y-141929857D01*
X117482905Y-141977476D01*
X117578143Y-142025095D01*
X117625762Y-142072714D01*
X117673381Y-142167952D01*
X117673381Y-142263191D01*
X117625762Y-142358429D01*
X117578143Y-142406048D01*
X117482905Y-142453667D01*
X117292429Y-142501286D01*
X117054333Y-142501286D01*
X116863857Y-142453667D01*
X116768619Y-142406048D01*
X116721000Y-142358429D01*
X116673381Y-142263191D01*
X117673381Y-141501286D02*
X116673381Y-141501286D01*
X117292429Y-141406048D02*
X117673381Y-141120333D01*
X117006714Y-141120333D02*
X117387667Y-141501286D01*
X77033381Y-142882238D02*
X77033381Y-143453667D01*
X77033381Y-143167953D02*
X76033381Y-143167953D01*
X76176238Y-143263191D01*
X76271476Y-143358429D01*
X76319095Y-143453667D01*
X76033381Y-142263191D02*
X76033381Y-142167952D01*
X76081000Y-142072714D01*
X76128619Y-142025095D01*
X76223857Y-141977476D01*
X76414333Y-141929857D01*
X76652429Y-141929857D01*
X76842905Y-141977476D01*
X76938143Y-142025095D01*
X76985762Y-142072714D01*
X77033381Y-142167952D01*
X77033381Y-142263191D01*
X76985762Y-142358429D01*
X76938143Y-142406048D01*
X76842905Y-142453667D01*
X76652429Y-142501286D01*
X76414333Y-142501286D01*
X76223857Y-142453667D01*
X76128619Y-142406048D01*
X76081000Y-142358429D01*
X76033381Y-142263191D01*
X77033381Y-141501286D02*
X76033381Y-141501286D01*
X76652429Y-141406048D02*
X77033381Y-141120333D01*
X76366714Y-141120333D02*
X76747667Y-141501286D01*
X87167981Y-142882238D02*
X87167981Y-143453667D01*
X87167981Y-143167953D02*
X86167981Y-143167953D01*
X86310838Y-143263191D01*
X86406076Y-143358429D01*
X86453695Y-143453667D01*
X86167981Y-142263191D02*
X86167981Y-142167952D01*
X86215600Y-142072714D01*
X86263219Y-142025095D01*
X86358457Y-141977476D01*
X86548933Y-141929857D01*
X86787029Y-141929857D01*
X86977505Y-141977476D01*
X87072743Y-142025095D01*
X87120362Y-142072714D01*
X87167981Y-142167952D01*
X87167981Y-142263191D01*
X87120362Y-142358429D01*
X87072743Y-142406048D01*
X86977505Y-142453667D01*
X86787029Y-142501286D01*
X86548933Y-142501286D01*
X86358457Y-142453667D01*
X86263219Y-142406048D01*
X86215600Y-142358429D01*
X86167981Y-142263191D01*
X87167981Y-141501286D02*
X86167981Y-141501286D01*
X86787029Y-141406048D02*
X87167981Y-141120333D01*
X86501314Y-141120333D02*
X86882267Y-141501286D01*
X97353381Y-142882238D02*
X97353381Y-143453667D01*
X97353381Y-143167953D02*
X96353381Y-143167953D01*
X96496238Y-143263191D01*
X96591476Y-143358429D01*
X96639095Y-143453667D01*
X96353381Y-142263191D02*
X96353381Y-142167952D01*
X96401000Y-142072714D01*
X96448619Y-142025095D01*
X96543857Y-141977476D01*
X96734333Y-141929857D01*
X96972429Y-141929857D01*
X97162905Y-141977476D01*
X97258143Y-142025095D01*
X97305762Y-142072714D01*
X97353381Y-142167952D01*
X97353381Y-142263191D01*
X97305762Y-142358429D01*
X97258143Y-142406048D01*
X97162905Y-142453667D01*
X96972429Y-142501286D01*
X96734333Y-142501286D01*
X96543857Y-142453667D01*
X96448619Y-142406048D01*
X96401000Y-142358429D01*
X96353381Y-142263191D01*
X97353381Y-141501286D02*
X96353381Y-141501286D01*
X96972429Y-141406048D02*
X97353381Y-141120333D01*
X96686714Y-141120333D02*
X97067667Y-141501286D01*
X107513381Y-142882238D02*
X107513381Y-143453667D01*
X107513381Y-143167953D02*
X106513381Y-143167953D01*
X106656238Y-143263191D01*
X106751476Y-143358429D01*
X106799095Y-143453667D01*
X106513381Y-142263191D02*
X106513381Y-142167952D01*
X106561000Y-142072714D01*
X106608619Y-142025095D01*
X106703857Y-141977476D01*
X106894333Y-141929857D01*
X107132429Y-141929857D01*
X107322905Y-141977476D01*
X107418143Y-142025095D01*
X107465762Y-142072714D01*
X107513381Y-142167952D01*
X107513381Y-142263191D01*
X107465762Y-142358429D01*
X107418143Y-142406048D01*
X107322905Y-142453667D01*
X107132429Y-142501286D01*
X106894333Y-142501286D01*
X106703857Y-142453667D01*
X106608619Y-142406048D01*
X106561000Y-142358429D01*
X106513381Y-142263191D01*
X107513381Y-141501286D02*
X106513381Y-141501286D01*
X107132429Y-141406048D02*
X107513381Y-141120333D01*
X106846714Y-141120333D02*
X107227667Y-141501286D01*
X121356381Y-107100476D02*
X121356381Y-107576667D01*
X120356381Y-107576667D01*
X121356381Y-106767143D02*
X120356381Y-106767143D01*
X121070667Y-106433809D01*
X120356381Y-106100476D01*
X121356381Y-106100476D01*
X120356381Y-105719524D02*
X120356381Y-105100476D01*
X120737333Y-105433810D01*
X120737333Y-105290952D01*
X120784952Y-105195714D01*
X120832571Y-105148095D01*
X120927810Y-105100476D01*
X121165905Y-105100476D01*
X121261143Y-105148095D01*
X121308762Y-105195714D01*
X121356381Y-105290952D01*
X121356381Y-105576667D01*
X121308762Y-105671905D01*
X121261143Y-105719524D01*
X120356381Y-104195714D02*
X120356381Y-104671905D01*
X120832571Y-104719524D01*
X120784952Y-104671905D01*
X120737333Y-104576667D01*
X120737333Y-104338571D01*
X120784952Y-104243333D01*
X120832571Y-104195714D01*
X120927810Y-104148095D01*
X121165905Y-104148095D01*
X121261143Y-104195714D01*
X121308762Y-104243333D01*
X121356381Y-104338571D01*
X121356381Y-104576667D01*
X121308762Y-104671905D01*
X121261143Y-104719524D01*
X120784952Y-103576667D02*
X120737333Y-103671905D01*
X120689714Y-103719524D01*
X120594476Y-103767143D01*
X120546857Y-103767143D01*
X120451619Y-103719524D01*
X120404000Y-103671905D01*
X120356381Y-103576667D01*
X120356381Y-103386190D01*
X120404000Y-103290952D01*
X120451619Y-103243333D01*
X120546857Y-103195714D01*
X120594476Y-103195714D01*
X120689714Y-103243333D01*
X120737333Y-103290952D01*
X120784952Y-103386190D01*
X120784952Y-103576667D01*
X120832571Y-103671905D01*
X120880190Y-103719524D01*
X120975429Y-103767143D01*
X121165905Y-103767143D01*
X121261143Y-103719524D01*
X121308762Y-103671905D01*
X121356381Y-103576667D01*
X121356381Y-103386190D01*
X121308762Y-103290952D01*
X121261143Y-103243333D01*
X121165905Y-103195714D01*
X120975429Y-103195714D01*
X120880190Y-103243333D01*
X120832571Y-103290952D01*
X120784952Y-103386190D01*
X122666286Y-98877429D02*
X123428191Y-98877429D01*
X123047239Y-99258381D02*
X123047239Y-98496476D01*
X124380572Y-98258381D02*
X123904381Y-98258381D01*
X123856762Y-98734571D01*
X123904381Y-98686952D01*
X123999619Y-98639333D01*
X124237715Y-98639333D01*
X124332953Y-98686952D01*
X124380572Y-98734571D01*
X124428191Y-98829810D01*
X124428191Y-99067905D01*
X124380572Y-99163143D01*
X124332953Y-99210762D01*
X124237715Y-99258381D01*
X123999619Y-99258381D01*
X123904381Y-99210762D01*
X123856762Y-99163143D01*
X124713905Y-98258381D02*
X125047238Y-99258381D01*
X125380572Y-98258381D01*
X63604142Y-82526143D02*
X63556523Y-82573762D01*
X63413666Y-82621381D01*
X63318428Y-82621381D01*
X63175570Y-82573762D01*
X63080332Y-82478524D01*
X63032713Y-82383286D01*
X62985094Y-82192810D01*
X62985094Y-82049952D01*
X63032713Y-81859476D01*
X63080332Y-81764238D01*
X63175570Y-81669000D01*
X63318428Y-81621381D01*
X63413666Y-81621381D01*
X63556523Y-81669000D01*
X63604142Y-81716619D01*
X64175570Y-82621381D02*
X64080332Y-82573762D01*
X64032713Y-82526143D01*
X63985094Y-82430905D01*
X63985094Y-82145190D01*
X64032713Y-82049952D01*
X64080332Y-82002333D01*
X64175570Y-81954714D01*
X64318428Y-81954714D01*
X64413666Y-82002333D01*
X64461285Y-82049952D01*
X64508904Y-82145190D01*
X64508904Y-82430905D01*
X64461285Y-82526143D01*
X64413666Y-82573762D01*
X64318428Y-82621381D01*
X64175570Y-82621381D01*
X64937475Y-81954714D02*
X64937475Y-82621381D01*
X64937475Y-82049952D02*
X64985094Y-82002333D01*
X65080332Y-81954714D01*
X65223190Y-81954714D01*
X65318428Y-82002333D01*
X65366047Y-82097571D01*
X65366047Y-82621381D01*
X65842237Y-81954714D02*
X65842237Y-82621381D01*
X65842237Y-82049952D02*
X65889856Y-82002333D01*
X65985094Y-81954714D01*
X66127952Y-81954714D01*
X66223190Y-82002333D01*
X66270809Y-82097571D01*
X66270809Y-82621381D01*
X66508904Y-82716619D02*
X67270809Y-82716619D01*
X67699380Y-81621381D02*
X67794619Y-81621381D01*
X67889857Y-81669000D01*
X67937476Y-81716619D01*
X67985095Y-81811857D01*
X68032714Y-82002333D01*
X68032714Y-82240429D01*
X67985095Y-82430905D01*
X67937476Y-82526143D01*
X67889857Y-82573762D01*
X67794619Y-82621381D01*
X67699380Y-82621381D01*
X67604142Y-82573762D01*
X67556523Y-82526143D01*
X67508904Y-82430905D01*
X67461285Y-82240429D01*
X67461285Y-82002333D01*
X67508904Y-81811857D01*
X67556523Y-81716619D01*
X67604142Y-81669000D01*
X67699380Y-81621381D01*
X68413666Y-81716619D02*
X68461285Y-81669000D01*
X68556523Y-81621381D01*
X68794619Y-81621381D01*
X68889857Y-81669000D01*
X68937476Y-81716619D01*
X68985095Y-81811857D01*
X68985095Y-81907095D01*
X68937476Y-82049952D01*
X68366047Y-82621381D01*
X68985095Y-82621381D01*
X69318428Y-82621381D02*
X69842238Y-81954714D01*
X69318428Y-81954714D02*
X69842238Y-82621381D01*
X70413666Y-81621381D02*
X70508905Y-81621381D01*
X70604143Y-81669000D01*
X70651762Y-81716619D01*
X70699381Y-81811857D01*
X70747000Y-82002333D01*
X70747000Y-82240429D01*
X70699381Y-82430905D01*
X70651762Y-82526143D01*
X70604143Y-82573762D01*
X70508905Y-82621381D01*
X70413666Y-82621381D01*
X70318428Y-82573762D01*
X70270809Y-82526143D01*
X70223190Y-82430905D01*
X70175571Y-82240429D01*
X70175571Y-82002333D01*
X70223190Y-81811857D01*
X70270809Y-81716619D01*
X70318428Y-81669000D01*
X70413666Y-81621381D01*
X71651762Y-81621381D02*
X71175571Y-81621381D01*
X71127952Y-82097571D01*
X71175571Y-82049952D01*
X71270809Y-82002333D01*
X71508905Y-82002333D01*
X71604143Y-82049952D01*
X71651762Y-82097571D01*
X71699381Y-82192810D01*
X71699381Y-82430905D01*
X71651762Y-82526143D01*
X71604143Y-82573762D01*
X71508905Y-82621381D01*
X71270809Y-82621381D01*
X71175571Y-82573762D01*
X71127952Y-82526143D01*
X71889857Y-82716619D02*
X72651762Y-82716619D01*
X73080333Y-81621381D02*
X73270810Y-81621381D01*
X73366048Y-81669000D01*
X73461286Y-81764238D01*
X73508905Y-81954714D01*
X73508905Y-82288048D01*
X73461286Y-82478524D01*
X73366048Y-82573762D01*
X73270810Y-82621381D01*
X73080333Y-82621381D01*
X72985095Y-82573762D01*
X72889857Y-82478524D01*
X72842238Y-82288048D01*
X72842238Y-81954714D01*
X72889857Y-81764238D01*
X72985095Y-81669000D01*
X73080333Y-81621381D01*
X74366048Y-82621381D02*
X74366048Y-81621381D01*
X74366048Y-82573762D02*
X74270810Y-82621381D01*
X74080333Y-82621381D01*
X73985095Y-82573762D01*
X73937476Y-82526143D01*
X73889857Y-82430905D01*
X73889857Y-82145190D01*
X73937476Y-82049952D01*
X73985095Y-82002333D01*
X74080333Y-81954714D01*
X74270810Y-81954714D01*
X74366048Y-82002333D01*
X75270810Y-82621381D02*
X75270810Y-81621381D01*
X75270810Y-82573762D02*
X75175572Y-82621381D01*
X74985095Y-82621381D01*
X74889857Y-82573762D01*
X74842238Y-82526143D01*
X74794619Y-82430905D01*
X74794619Y-82145190D01*
X74842238Y-82049952D01*
X74889857Y-82002333D01*
X74985095Y-81954714D01*
X75175572Y-81954714D01*
X75270810Y-82002333D01*
X75508905Y-82716619D02*
X76270810Y-82716619D01*
X76508905Y-82097571D02*
X76842239Y-82097571D01*
X76985096Y-82621381D02*
X76508905Y-82621381D01*
X76508905Y-81621381D01*
X76985096Y-81621381D01*
X77318429Y-81954714D02*
X77556524Y-82621381D01*
X77794620Y-81954714D01*
X78556525Y-82573762D02*
X78461287Y-82621381D01*
X78270810Y-82621381D01*
X78175572Y-82573762D01*
X78127953Y-82478524D01*
X78127953Y-82097571D01*
X78175572Y-82002333D01*
X78270810Y-81954714D01*
X78461287Y-81954714D01*
X78556525Y-82002333D01*
X78604144Y-82097571D01*
X78604144Y-82192810D01*
X78127953Y-82288048D01*
X79032715Y-81954714D02*
X79032715Y-82621381D01*
X79032715Y-82049952D02*
X79080334Y-82002333D01*
X79175572Y-81954714D01*
X79318430Y-81954714D01*
X79413668Y-82002333D01*
X79461287Y-82097571D01*
X79461287Y-82621381D01*
X70278667Y-78446381D02*
X70278667Y-79160667D01*
X70231047Y-79303524D01*
X70135809Y-79398762D01*
X69992952Y-79446381D01*
X69897714Y-79446381D01*
X71183429Y-78779714D02*
X71183429Y-79446381D01*
X70945333Y-78398762D02*
X70707238Y-79113048D01*
X71326286Y-79113048D01*
X82400142Y-82526143D02*
X82352523Y-82573762D01*
X82209666Y-82621381D01*
X82114428Y-82621381D01*
X81971570Y-82573762D01*
X81876332Y-82478524D01*
X81828713Y-82383286D01*
X81781094Y-82192810D01*
X81781094Y-82049952D01*
X81828713Y-81859476D01*
X81876332Y-81764238D01*
X81971570Y-81669000D01*
X82114428Y-81621381D01*
X82209666Y-81621381D01*
X82352523Y-81669000D01*
X82400142Y-81716619D01*
X82971570Y-82621381D02*
X82876332Y-82573762D01*
X82828713Y-82526143D01*
X82781094Y-82430905D01*
X82781094Y-82145190D01*
X82828713Y-82049952D01*
X82876332Y-82002333D01*
X82971570Y-81954714D01*
X83114428Y-81954714D01*
X83209666Y-82002333D01*
X83257285Y-82049952D01*
X83304904Y-82145190D01*
X83304904Y-82430905D01*
X83257285Y-82526143D01*
X83209666Y-82573762D01*
X83114428Y-82621381D01*
X82971570Y-82621381D01*
X83733475Y-81954714D02*
X83733475Y-82621381D01*
X83733475Y-82049952D02*
X83781094Y-82002333D01*
X83876332Y-81954714D01*
X84019190Y-81954714D01*
X84114428Y-82002333D01*
X84162047Y-82097571D01*
X84162047Y-82621381D01*
X84638237Y-81954714D02*
X84638237Y-82621381D01*
X84638237Y-82049952D02*
X84685856Y-82002333D01*
X84781094Y-81954714D01*
X84923952Y-81954714D01*
X85019190Y-82002333D01*
X85066809Y-82097571D01*
X85066809Y-82621381D01*
X85304904Y-82716619D02*
X86066809Y-82716619D01*
X86495380Y-81621381D02*
X86590619Y-81621381D01*
X86685857Y-81669000D01*
X86733476Y-81716619D01*
X86781095Y-81811857D01*
X86828714Y-82002333D01*
X86828714Y-82240429D01*
X86781095Y-82430905D01*
X86733476Y-82526143D01*
X86685857Y-82573762D01*
X86590619Y-82621381D01*
X86495380Y-82621381D01*
X86400142Y-82573762D01*
X86352523Y-82526143D01*
X86304904Y-82430905D01*
X86257285Y-82240429D01*
X86257285Y-82002333D01*
X86304904Y-81811857D01*
X86352523Y-81716619D01*
X86400142Y-81669000D01*
X86495380Y-81621381D01*
X87209666Y-81716619D02*
X87257285Y-81669000D01*
X87352523Y-81621381D01*
X87590619Y-81621381D01*
X87685857Y-81669000D01*
X87733476Y-81716619D01*
X87781095Y-81811857D01*
X87781095Y-81907095D01*
X87733476Y-82049952D01*
X87162047Y-82621381D01*
X87781095Y-82621381D01*
X88114428Y-82621381D02*
X88638238Y-81954714D01*
X88114428Y-81954714D02*
X88638238Y-82621381D01*
X89209666Y-81621381D02*
X89304905Y-81621381D01*
X89400143Y-81669000D01*
X89447762Y-81716619D01*
X89495381Y-81811857D01*
X89543000Y-82002333D01*
X89543000Y-82240429D01*
X89495381Y-82430905D01*
X89447762Y-82526143D01*
X89400143Y-82573762D01*
X89304905Y-82621381D01*
X89209666Y-82621381D01*
X89114428Y-82573762D01*
X89066809Y-82526143D01*
X89019190Y-82430905D01*
X88971571Y-82240429D01*
X88971571Y-82002333D01*
X89019190Y-81811857D01*
X89066809Y-81716619D01*
X89114428Y-81669000D01*
X89209666Y-81621381D01*
X90447762Y-81621381D02*
X89971571Y-81621381D01*
X89923952Y-82097571D01*
X89971571Y-82049952D01*
X90066809Y-82002333D01*
X90304905Y-82002333D01*
X90400143Y-82049952D01*
X90447762Y-82097571D01*
X90495381Y-82192810D01*
X90495381Y-82430905D01*
X90447762Y-82526143D01*
X90400143Y-82573762D01*
X90304905Y-82621381D01*
X90066809Y-82621381D01*
X89971571Y-82573762D01*
X89923952Y-82526143D01*
X90685857Y-82716619D02*
X91447762Y-82716619D01*
X91876333Y-81621381D02*
X92066810Y-81621381D01*
X92162048Y-81669000D01*
X92257286Y-81764238D01*
X92304905Y-81954714D01*
X92304905Y-82288048D01*
X92257286Y-82478524D01*
X92162048Y-82573762D01*
X92066810Y-82621381D01*
X91876333Y-82621381D01*
X91781095Y-82573762D01*
X91685857Y-82478524D01*
X91638238Y-82288048D01*
X91638238Y-81954714D01*
X91685857Y-81764238D01*
X91781095Y-81669000D01*
X91876333Y-81621381D01*
X93162048Y-82621381D02*
X93162048Y-81621381D01*
X93162048Y-82573762D02*
X93066810Y-82621381D01*
X92876333Y-82621381D01*
X92781095Y-82573762D01*
X92733476Y-82526143D01*
X92685857Y-82430905D01*
X92685857Y-82145190D01*
X92733476Y-82049952D01*
X92781095Y-82002333D01*
X92876333Y-81954714D01*
X93066810Y-81954714D01*
X93162048Y-82002333D01*
X94066810Y-82621381D02*
X94066810Y-81621381D01*
X94066810Y-82573762D02*
X93971572Y-82621381D01*
X93781095Y-82621381D01*
X93685857Y-82573762D01*
X93638238Y-82526143D01*
X93590619Y-82430905D01*
X93590619Y-82145190D01*
X93638238Y-82049952D01*
X93685857Y-82002333D01*
X93781095Y-81954714D01*
X93971572Y-81954714D01*
X94066810Y-82002333D01*
X94304905Y-82716619D02*
X95066810Y-82716619D01*
X95304905Y-82097571D02*
X95638239Y-82097571D01*
X95781096Y-82621381D02*
X95304905Y-82621381D01*
X95304905Y-81621381D01*
X95781096Y-81621381D01*
X96114429Y-81954714D02*
X96352524Y-82621381D01*
X96590620Y-81954714D01*
X97352525Y-82573762D02*
X97257287Y-82621381D01*
X97066810Y-82621381D01*
X96971572Y-82573762D01*
X96923953Y-82478524D01*
X96923953Y-82097571D01*
X96971572Y-82002333D01*
X97066810Y-81954714D01*
X97257287Y-81954714D01*
X97352525Y-82002333D01*
X97400144Y-82097571D01*
X97400144Y-82192810D01*
X96923953Y-82288048D01*
X97828715Y-81954714D02*
X97828715Y-82621381D01*
X97828715Y-82049952D02*
X97876334Y-82002333D01*
X97971572Y-81954714D01*
X98114430Y-81954714D01*
X98209668Y-82002333D01*
X98257287Y-82097571D01*
X98257287Y-82621381D01*
X89074667Y-78446381D02*
X89074667Y-79160667D01*
X89027047Y-79303524D01*
X88931809Y-79398762D01*
X88788952Y-79446381D01*
X88693714Y-79446381D01*
X90027048Y-78446381D02*
X89550857Y-78446381D01*
X89503238Y-78922571D01*
X89550857Y-78874952D01*
X89646095Y-78827333D01*
X89884191Y-78827333D01*
X89979429Y-78874952D01*
X90027048Y-78922571D01*
X90074667Y-79017810D01*
X90074667Y-79255905D01*
X90027048Y-79351143D01*
X89979429Y-79398762D01*
X89884191Y-79446381D01*
X89646095Y-79446381D01*
X89550857Y-79398762D01*
X89503238Y-79351143D01*
X126023714Y-104925714D02*
X126690381Y-104925714D01*
X125642762Y-105163810D02*
X126357048Y-105401905D01*
X126357048Y-104782857D01*
X126690381Y-104401905D02*
X125690381Y-104401905D01*
X126690381Y-103830476D02*
X126118952Y-104259048D01*
X125690381Y-103830476D02*
X126261810Y-104401905D01*
X125690381Y-103497143D02*
X125690381Y-102830476D01*
X126690381Y-103259048D01*
X125769714Y-120165714D02*
X126436381Y-120165714D01*
X125388762Y-120403810D02*
X126103048Y-120641905D01*
X126103048Y-120022857D01*
X126436381Y-119641905D02*
X125436381Y-119641905D01*
X126436381Y-119070476D02*
X125864952Y-119499048D01*
X125436381Y-119070476D02*
X126007810Y-119641905D01*
X125436381Y-118737143D02*
X125436381Y-118070476D01*
X126436381Y-118499048D01*
X109926381Y-87241047D02*
X109926381Y-87812476D01*
X109926381Y-87526762D02*
X108926381Y-87526762D01*
X109069238Y-87622000D01*
X109164476Y-87717238D01*
X109212095Y-87812476D01*
X109926381Y-86812476D02*
X108926381Y-86812476D01*
X109545429Y-86717238D02*
X109926381Y-86431523D01*
X109259714Y-86431523D02*
X109640667Y-86812476D01*
X101798381Y-87209238D02*
X101798381Y-87780667D01*
X101798381Y-87494953D02*
X100798381Y-87494953D01*
X100941238Y-87590191D01*
X101036476Y-87685429D01*
X101084095Y-87780667D01*
X100798381Y-86590191D02*
X100798381Y-86494952D01*
X100846000Y-86399714D01*
X100893619Y-86352095D01*
X100988857Y-86304476D01*
X101179333Y-86256857D01*
X101417429Y-86256857D01*
X101607905Y-86304476D01*
X101703143Y-86352095D01*
X101750762Y-86399714D01*
X101798381Y-86494952D01*
X101798381Y-86590191D01*
X101750762Y-86685429D01*
X101703143Y-86733048D01*
X101607905Y-86780667D01*
X101417429Y-86828286D01*
X101179333Y-86828286D01*
X100988857Y-86780667D01*
X100893619Y-86733048D01*
X100846000Y-86685429D01*
X100798381Y-86590191D01*
X101798381Y-85828286D02*
X100798381Y-85828286D01*
X101417429Y-85733048D02*
X101798381Y-85447333D01*
X101131714Y-85447333D02*
X101512667Y-85828286D01*
X97575714Y-92225714D02*
X98242381Y-92225714D01*
X97194762Y-92463810D02*
X97909048Y-92701905D01*
X97909048Y-92082857D01*
X98242381Y-91701905D02*
X97242381Y-91701905D01*
X98242381Y-91130476D02*
X97670952Y-91559048D01*
X97242381Y-91130476D02*
X97813810Y-91701905D01*
X97242381Y-90797143D02*
X97242381Y-90130476D01*
X98242381Y-90559048D01*
X87923714Y-92225714D02*
X88590381Y-92225714D01*
X87542762Y-92463810D02*
X88257048Y-92701905D01*
X88257048Y-92082857D01*
X88590381Y-91701905D02*
X87590381Y-91701905D01*
X88590381Y-91130476D02*
X88018952Y-91559048D01*
X87590381Y-91130476D02*
X88161810Y-91701905D01*
X87590381Y-90797143D02*
X87590381Y-90130476D01*
X88590381Y-90559048D01*
X78525714Y-92225714D02*
X79192381Y-92225714D01*
X78144762Y-92463810D02*
X78859048Y-92701905D01*
X78859048Y-92082857D01*
X79192381Y-91701905D02*
X78192381Y-91701905D01*
X79192381Y-91130476D02*
X78620952Y-91559048D01*
X78192381Y-91130476D02*
X78763810Y-91701905D01*
X78192381Y-90797143D02*
X78192381Y-90130476D01*
X79192381Y-90559048D01*
X72080381Y-92352619D02*
X72080381Y-92924048D01*
X72080381Y-92638334D02*
X71080381Y-92638334D01*
X71223238Y-92733572D01*
X71318476Y-92828810D01*
X71366095Y-92924048D01*
X71080381Y-91733572D02*
X71080381Y-91638333D01*
X71128000Y-91543095D01*
X71175619Y-91495476D01*
X71270857Y-91447857D01*
X71461333Y-91400238D01*
X71699429Y-91400238D01*
X71889905Y-91447857D01*
X71985143Y-91495476D01*
X72032762Y-91543095D01*
X72080381Y-91638333D01*
X72080381Y-91733572D01*
X72032762Y-91828810D01*
X71985143Y-91876429D01*
X71889905Y-91924048D01*
X71699429Y-91971667D01*
X71461333Y-91971667D01*
X71270857Y-91924048D01*
X71175619Y-91876429D01*
X71128000Y-91828810D01*
X71080381Y-91733572D01*
X71080381Y-90781191D02*
X71080381Y-90685952D01*
X71128000Y-90590714D01*
X71175619Y-90543095D01*
X71270857Y-90495476D01*
X71461333Y-90447857D01*
X71699429Y-90447857D01*
X71889905Y-90495476D01*
X71985143Y-90543095D01*
X72032762Y-90590714D01*
X72080381Y-90685952D01*
X72080381Y-90781191D01*
X72032762Y-90876429D01*
X71985143Y-90924048D01*
X71889905Y-90971667D01*
X71699429Y-91019286D01*
X71461333Y-91019286D01*
X71270857Y-90971667D01*
X71175619Y-90924048D01*
X71128000Y-90876429D01*
X71080381Y-90781191D01*
X71413714Y-90019286D02*
X72080381Y-90019286D01*
X71508952Y-90019286D02*
X71461333Y-89971667D01*
X71413714Y-89876429D01*
X71413714Y-89733571D01*
X71461333Y-89638333D01*
X71556571Y-89590714D01*
X72080381Y-89590714D01*
X71556571Y-88781190D02*
X71556571Y-89114524D01*
X72080381Y-89114524D02*
X71080381Y-89114524D01*
X71080381Y-88638333D01*
X91003381Y-92352619D02*
X91003381Y-92924048D01*
X91003381Y-92638334D02*
X90003381Y-92638334D01*
X90146238Y-92733572D01*
X90241476Y-92828810D01*
X90289095Y-92924048D01*
X90003381Y-91733572D02*
X90003381Y-91638333D01*
X90051000Y-91543095D01*
X90098619Y-91495476D01*
X90193857Y-91447857D01*
X90384333Y-91400238D01*
X90622429Y-91400238D01*
X90812905Y-91447857D01*
X90908143Y-91495476D01*
X90955762Y-91543095D01*
X91003381Y-91638333D01*
X91003381Y-91733572D01*
X90955762Y-91828810D01*
X90908143Y-91876429D01*
X90812905Y-91924048D01*
X90622429Y-91971667D01*
X90384333Y-91971667D01*
X90193857Y-91924048D01*
X90098619Y-91876429D01*
X90051000Y-91828810D01*
X90003381Y-91733572D01*
X90003381Y-90781191D02*
X90003381Y-90685952D01*
X90051000Y-90590714D01*
X90098619Y-90543095D01*
X90193857Y-90495476D01*
X90384333Y-90447857D01*
X90622429Y-90447857D01*
X90812905Y-90495476D01*
X90908143Y-90543095D01*
X90955762Y-90590714D01*
X91003381Y-90685952D01*
X91003381Y-90781191D01*
X90955762Y-90876429D01*
X90908143Y-90924048D01*
X90812905Y-90971667D01*
X90622429Y-91019286D01*
X90384333Y-91019286D01*
X90193857Y-90971667D01*
X90098619Y-90924048D01*
X90051000Y-90876429D01*
X90003381Y-90781191D01*
X90336714Y-90019286D02*
X91003381Y-90019286D01*
X90431952Y-90019286D02*
X90384333Y-89971667D01*
X90336714Y-89876429D01*
X90336714Y-89733571D01*
X90384333Y-89638333D01*
X90479571Y-89590714D01*
X91003381Y-89590714D01*
X90479571Y-88781190D02*
X90479571Y-89114524D01*
X91003381Y-89114524D02*
X90003381Y-89114524D01*
X90003381Y-88638333D01*
M02*
