M48
;DRILL file {KiCad 4.0.7-e2-6376~61~ubuntu18.04.1} date Sun Sep 22 13:30:04 2019
;FORMAT={-:-/ absolute / inch / decimal}
FMAT,2
INCH,TZ
T1C0.016
T2C0.030
T3C0.032
T4C0.039
T5C0.039
T6C0.060
%
G90
G05
M72
T1
X2.4803Y-5.128
X2.62Y-3.29
X2.628Y-3.6122
X2.7264Y-3.6122
X2.73Y-3.35
X2.83Y-3.39
X2.8346Y-5.3543
X2.84Y-3.515
X2.95Y-2.97
X3.065Y-3.47
X3.0709Y-3.248
X3.1693Y-5.3543
X3.19Y-3.43
X3.23Y-3.515
X3.435Y-3.47
X3.5728Y-5.3543
X3.6Y-3.515
X3.6614Y-4.4882
X3.82Y-3.47
X3.9961Y-5.3543
X4.1437Y-4.4882
X4.185Y-4.97
X4.4094Y-5.3543
X4.42Y-3.74
X4.67Y-4.395
X4.7146Y-5.3543
T2
X2.6071Y-4.1685
X2.6071Y-4.7685
X2.7071Y-4.1685
X2.7071Y-4.7685
X2.8071Y-4.1685
X2.8071Y-4.7685
X2.9071Y-4.1685
X2.9071Y-4.7685
X3.0071Y-4.1685
X3.0071Y-4.7685
X3.1071Y-4.1685
X3.1071Y-4.7685
X3.2071Y-4.1685
X3.2071Y-4.7685
X3.3071Y-4.1685
X3.3071Y-4.7685
X3.4071Y-4.1685
X3.4071Y-4.7685
X3.5071Y-4.1685
X3.5071Y-4.7685
X3.6071Y-4.1685
X3.6071Y-4.7685
X3.7071Y-4.1685
X3.7071Y-4.7685
X3.8071Y-4.1685
X3.8071Y-4.7685
X3.9071Y-4.1685
X3.9071Y-4.7685
X4.0071Y-4.1685
X4.0071Y-4.7685
T3
X4.88Y-3.79
T4
X2.58Y-3.06
X2.58Y-3.16
X2.68Y-3.06
X2.68Y-3.16
X2.78Y-3.06
X2.78Y-3.16
X2.88Y-3.06
X2.88Y-3.16
X2.98Y-3.06
X2.98Y-3.16
X3.32Y-3.06
X3.32Y-3.16
X3.42Y-3.06
X3.42Y-3.16
X3.52Y-3.06
X3.52Y-3.16
X3.62Y-3.06
X3.62Y-3.16
X3.72Y-3.06
X3.72Y-3.16
T5
X2.615Y-5.405
X2.615Y-5.805
X3.015Y-5.405
X3.015Y-5.805
X3.414Y-5.405
X3.414Y-5.805
X3.815Y-5.405
X3.815Y-5.805
X4.2126Y-3.4091
X4.2126Y-3.8091
X4.215Y-5.405
X4.215Y-5.805
X4.615Y-5.405
X4.615Y-5.805
T6
X2.615Y-6.1
X2.815Y-6.1
X3.015Y-6.1
X3.215Y-6.1
X3.415Y-6.1
X3.615Y-6.1
X3.815Y-6.1
X4.015Y-3.115
X4.015Y-6.1
X4.215Y-3.115
X4.215Y-6.1
X4.415Y-6.1
X4.615Y-3.12
X4.615Y-6.1
X4.815Y-3.12
X4.815Y-6.1
T0
M30
