G04 #@! TF.FileFunction,Other,Fab,Bot*
%FSLAX46Y46*%
G04 Gerber Fmt 4.6, Leading zero omitted, Abs format (unit mm)*
G04 Created by KiCad (PCBNEW 4.0.7-e2-6376~61~ubuntu18.04.1) date Mon Dec  9 13:49:04 2019*
%MOMM*%
%LPD*%
G01*
G04 APERTURE LIST*
%ADD10C,0.100000*%
%ADD11C,0.150000*%
%ADD12C,0.105000*%
G04 APERTURE END LIST*
D10*
X50241200Y-35915600D02*
X50241200Y-39725600D01*
X50241200Y-39725600D02*
X62941200Y-39725600D01*
X62941200Y-39725600D02*
X62941200Y-34645600D01*
X62941200Y-34645600D02*
X51511200Y-34645600D01*
X51511200Y-34645600D02*
X50241200Y-35915600D01*
X46917200Y-50352000D02*
X50517200Y-50352000D01*
X50517200Y-45152000D02*
X50517200Y-50352000D01*
X48716180Y-48401440D02*
X48716180Y-49303140D01*
X48716180Y-47250820D02*
X48716180Y-46252600D01*
X49516280Y-48401440D02*
X47916080Y-48401440D01*
X47966880Y-47250820D02*
X49516280Y-47250820D01*
X48716180Y-48401440D02*
X47966880Y-47250820D01*
X48716180Y-48401440D02*
X49516280Y-47250820D01*
X46917200Y-45152000D02*
X46917200Y-50352000D01*
X46917200Y-45152000D02*
X50517200Y-45152000D01*
X104724400Y-52082800D02*
X104724400Y-53682800D01*
X107924400Y-52082800D02*
X104724400Y-52082800D01*
X107924400Y-53682800D02*
X107924400Y-52082800D01*
X104724400Y-53682800D02*
X107924400Y-53682800D01*
X104724400Y-55892800D02*
X104724400Y-57492800D01*
X107924400Y-55892800D02*
X104724400Y-55892800D01*
X107924400Y-57492800D02*
X107924400Y-55892800D01*
X104724400Y-57492800D02*
X107924400Y-57492800D01*
X104724400Y-48323600D02*
X104724400Y-49923600D01*
X107924400Y-48323600D02*
X104724400Y-48323600D01*
X107924400Y-49923600D02*
X107924400Y-48323600D01*
X104724400Y-49923600D02*
X107924400Y-49923600D01*
X104724400Y-59448800D02*
X104724400Y-61048800D01*
X107924400Y-59448800D02*
X104724400Y-59448800D01*
X107924400Y-61048800D02*
X107924400Y-59448800D01*
X104724400Y-61048800D02*
X107924400Y-61048800D01*
X61252000Y-81610400D02*
X59652000Y-81610400D01*
X61252000Y-84810400D02*
X61252000Y-81610400D01*
X59652000Y-84810400D02*
X61252000Y-84810400D01*
X59652000Y-81610400D02*
X59652000Y-84810400D01*
X61252000Y-70129600D02*
X59652000Y-70129600D01*
X61252000Y-73329600D02*
X61252000Y-70129600D01*
X59652000Y-73329600D02*
X61252000Y-73329600D01*
X59652000Y-70129600D02*
X59652000Y-73329600D01*
X53352800Y-73329600D02*
X54952800Y-73329600D01*
X53352800Y-70129600D02*
X53352800Y-73329600D01*
X54952800Y-70129600D02*
X53352800Y-70129600D01*
X54952800Y-73329600D02*
X54952800Y-70129600D01*
D11*
X59980009Y-40717743D02*
X60027628Y-40765362D01*
X60170485Y-40812981D01*
X60265723Y-40812981D01*
X60408581Y-40765362D01*
X60503819Y-40670124D01*
X60551438Y-40574886D01*
X60599057Y-40384410D01*
X60599057Y-40241552D01*
X60551438Y-40051076D01*
X60503819Y-39955838D01*
X60408581Y-39860600D01*
X60265723Y-39812981D01*
X60170485Y-39812981D01*
X60027628Y-39860600D01*
X59980009Y-39908219D01*
X59360962Y-39812981D02*
X59170485Y-39812981D01*
X59075247Y-39860600D01*
X58980009Y-39955838D01*
X58932390Y-40146314D01*
X58932390Y-40479648D01*
X58980009Y-40670124D01*
X59075247Y-40765362D01*
X59170485Y-40812981D01*
X59360962Y-40812981D01*
X59456200Y-40765362D01*
X59551438Y-40670124D01*
X59599057Y-40479648D01*
X59599057Y-40146314D01*
X59551438Y-39955838D01*
X59456200Y-39860600D01*
X59360962Y-39812981D01*
X58503819Y-40812981D02*
X58503819Y-39812981D01*
X57932390Y-40812981D01*
X57932390Y-39812981D01*
X57456200Y-40812981D02*
X57456200Y-39812981D01*
X56884771Y-40812981D01*
X56884771Y-39812981D01*
X56646676Y-40908219D02*
X55884771Y-40908219D01*
X55456200Y-39812981D02*
X55360961Y-39812981D01*
X55265723Y-39860600D01*
X55218104Y-39908219D01*
X55170485Y-40003457D01*
X55122866Y-40193933D01*
X55122866Y-40432029D01*
X55170485Y-40622505D01*
X55218104Y-40717743D01*
X55265723Y-40765362D01*
X55360961Y-40812981D01*
X55456200Y-40812981D01*
X55551438Y-40765362D01*
X55599057Y-40717743D01*
X55646676Y-40622505D01*
X55694295Y-40432029D01*
X55694295Y-40193933D01*
X55646676Y-40003457D01*
X55599057Y-39908219D01*
X55551438Y-39860600D01*
X55456200Y-39812981D01*
X54741914Y-39908219D02*
X54694295Y-39860600D01*
X54599057Y-39812981D01*
X54360961Y-39812981D01*
X54265723Y-39860600D01*
X54218104Y-39908219D01*
X54170485Y-40003457D01*
X54170485Y-40098695D01*
X54218104Y-40241552D01*
X54789533Y-40812981D01*
X54170485Y-40812981D01*
X53837152Y-39812981D02*
X53170485Y-40812981D01*
X53170485Y-39812981D02*
X53837152Y-40812981D01*
X52599057Y-39812981D02*
X52503818Y-39812981D01*
X52408580Y-39860600D01*
X52360961Y-39908219D01*
X52313342Y-40003457D01*
X52265723Y-40193933D01*
X52265723Y-40432029D01*
X52313342Y-40622505D01*
X52360961Y-40717743D01*
X52408580Y-40765362D01*
X52503818Y-40812981D01*
X52599057Y-40812981D01*
X52694295Y-40765362D01*
X52741914Y-40717743D01*
X52789533Y-40622505D01*
X52837152Y-40432029D01*
X52837152Y-40193933D01*
X52789533Y-40003457D01*
X52741914Y-39908219D01*
X52694295Y-39860600D01*
X52599057Y-39812981D01*
X51360961Y-39812981D02*
X51837152Y-39812981D01*
X51884771Y-40289171D01*
X51837152Y-40241552D01*
X51741914Y-40193933D01*
X51503818Y-40193933D01*
X51408580Y-40241552D01*
X51360961Y-40289171D01*
X51313342Y-40384410D01*
X51313342Y-40622505D01*
X51360961Y-40717743D01*
X51408580Y-40765362D01*
X51503818Y-40812981D01*
X51741914Y-40812981D01*
X51837152Y-40765362D01*
X51884771Y-40717743D01*
X57329295Y-37637981D02*
X57329295Y-36637981D01*
X56948342Y-36637981D01*
X56853104Y-36685600D01*
X56805485Y-36733219D01*
X56757866Y-36828457D01*
X56757866Y-36971314D01*
X56805485Y-37066552D01*
X56853104Y-37114171D01*
X56948342Y-37161790D01*
X57329295Y-37161790D01*
X55805485Y-37637981D02*
X56376914Y-37637981D01*
X56091200Y-37637981D02*
X56091200Y-36637981D01*
X56186438Y-36780838D01*
X56281676Y-36876076D01*
X56376914Y-36923695D01*
X46321962Y-44775809D02*
X46369581Y-44918666D01*
X46369581Y-45156762D01*
X46321962Y-45252000D01*
X46274343Y-45299619D01*
X46179105Y-45347238D01*
X46083867Y-45347238D01*
X45988629Y-45299619D01*
X45941010Y-45252000D01*
X45893390Y-45156762D01*
X45845771Y-44966285D01*
X45798152Y-44871047D01*
X45750533Y-44823428D01*
X45655295Y-44775809D01*
X45560057Y-44775809D01*
X45464819Y-44823428D01*
X45417200Y-44871047D01*
X45369581Y-44966285D01*
X45369581Y-45204381D01*
X45417200Y-45347238D01*
X46321962Y-46204381D02*
X46369581Y-46109143D01*
X46369581Y-45918666D01*
X46321962Y-45823428D01*
X46274343Y-45775809D01*
X46179105Y-45728190D01*
X45893390Y-45728190D01*
X45798152Y-45775809D01*
X45750533Y-45823428D01*
X45702914Y-45918666D01*
X45702914Y-46109143D01*
X45750533Y-46204381D01*
X46369581Y-46632952D02*
X45369581Y-46632952D01*
X46369581Y-47061524D02*
X45845771Y-47061524D01*
X45750533Y-47013905D01*
X45702914Y-46918667D01*
X45702914Y-46775809D01*
X45750533Y-46680571D01*
X45798152Y-46632952D01*
X46369581Y-47680571D02*
X46321962Y-47585333D01*
X46274343Y-47537714D01*
X46179105Y-47490095D01*
X45893390Y-47490095D01*
X45798152Y-47537714D01*
X45750533Y-47585333D01*
X45702914Y-47680571D01*
X45702914Y-47823429D01*
X45750533Y-47918667D01*
X45798152Y-47966286D01*
X45893390Y-48013905D01*
X46179105Y-48013905D01*
X46274343Y-47966286D01*
X46321962Y-47918667D01*
X46369581Y-47823429D01*
X46369581Y-47680571D01*
X45702914Y-48299619D02*
X45702914Y-48680571D01*
X45369581Y-48442476D02*
X46226724Y-48442476D01*
X46321962Y-48490095D01*
X46369581Y-48585333D01*
X46369581Y-48680571D01*
X45702914Y-48871048D02*
X45702914Y-49252000D01*
X45369581Y-49013905D02*
X46226724Y-49013905D01*
X46321962Y-49061524D01*
X46369581Y-49156762D01*
X46369581Y-49252000D01*
X46369581Y-49585334D02*
X45369581Y-49585334D01*
X45988629Y-49680572D02*
X46369581Y-49966287D01*
X45702914Y-49966287D02*
X46083867Y-49585334D01*
X45702914Y-50299620D02*
X46369581Y-50537715D01*
X45702914Y-50775811D02*
X46369581Y-50537715D01*
X46607676Y-50442477D01*
X46655295Y-50394858D01*
X46702914Y-50299620D01*
X51869581Y-47013905D02*
X50869581Y-47013905D01*
X50869581Y-47252000D01*
X50917200Y-47394858D01*
X51012438Y-47490096D01*
X51107676Y-47537715D01*
X51298152Y-47585334D01*
X51441010Y-47585334D01*
X51631486Y-47537715D01*
X51726724Y-47490096D01*
X51821962Y-47394858D01*
X51869581Y-47252000D01*
X51869581Y-47013905D01*
X51869581Y-48537715D02*
X51869581Y-47966286D01*
X51869581Y-48252000D02*
X50869581Y-48252000D01*
X51012438Y-48156762D01*
X51107676Y-48061524D01*
X51155295Y-47966286D01*
X75280781Y-80924781D02*
X74280781Y-80924781D01*
X74995067Y-81258115D01*
X74280781Y-81591448D01*
X75280781Y-81591448D01*
X74995067Y-82020019D02*
X74995067Y-82496210D01*
X75280781Y-81924781D02*
X74280781Y-82258114D01*
X75280781Y-82591448D01*
X74280781Y-82829543D02*
X75280781Y-83496210D01*
X74280781Y-83496210D02*
X75280781Y-82829543D01*
X75376019Y-83639067D02*
X75376019Y-84400972D01*
X74614114Y-85067639D02*
X75280781Y-85067639D01*
X74233162Y-84829543D02*
X74947448Y-84591448D01*
X74947448Y-85210496D01*
X74709352Y-85734305D02*
X74661733Y-85639067D01*
X74614114Y-85591448D01*
X74518876Y-85543829D01*
X74471257Y-85543829D01*
X74376019Y-85591448D01*
X74328400Y-85639067D01*
X74280781Y-85734305D01*
X74280781Y-85924782D01*
X74328400Y-86020020D01*
X74376019Y-86067639D01*
X74471257Y-86115258D01*
X74518876Y-86115258D01*
X74614114Y-86067639D01*
X74661733Y-86020020D01*
X74709352Y-85924782D01*
X74709352Y-85734305D01*
X74756971Y-85639067D01*
X74804590Y-85591448D01*
X74899829Y-85543829D01*
X75090305Y-85543829D01*
X75185543Y-85591448D01*
X75233162Y-85639067D01*
X75280781Y-85734305D01*
X75280781Y-85924782D01*
X75233162Y-86020020D01*
X75185543Y-86067639D01*
X75090305Y-86115258D01*
X74899829Y-86115258D01*
X74804590Y-86067639D01*
X74756971Y-86020020D01*
X74709352Y-85924782D01*
X74280781Y-87020020D02*
X74280781Y-86543829D01*
X74756971Y-86496210D01*
X74709352Y-86543829D01*
X74661733Y-86639067D01*
X74661733Y-86877163D01*
X74709352Y-86972401D01*
X74756971Y-87020020D01*
X74852210Y-87067639D01*
X75090305Y-87067639D01*
X75185543Y-87020020D01*
X75233162Y-86972401D01*
X75280781Y-86877163D01*
X75280781Y-86639067D01*
X75233162Y-86543829D01*
X75185543Y-86496210D01*
X107014876Y-51435181D02*
X107586305Y-51435181D01*
X107300591Y-51435181D02*
X107300591Y-50435181D01*
X107395829Y-50578038D01*
X107491067Y-50673276D01*
X107586305Y-50720895D01*
X106395829Y-50435181D02*
X106300590Y-50435181D01*
X106205352Y-50482800D01*
X106157733Y-50530419D01*
X106110114Y-50625657D01*
X106062495Y-50816133D01*
X106062495Y-51054229D01*
X106110114Y-51244705D01*
X106157733Y-51339943D01*
X106205352Y-51387562D01*
X106300590Y-51435181D01*
X106395829Y-51435181D01*
X106491067Y-51387562D01*
X106538686Y-51339943D01*
X106586305Y-51244705D01*
X106633924Y-51054229D01*
X106633924Y-50816133D01*
X106586305Y-50625657D01*
X106538686Y-50530419D01*
X106491067Y-50482800D01*
X106395829Y-50435181D01*
X105633924Y-51435181D02*
X105633924Y-50435181D01*
X105062495Y-51435181D02*
X105491067Y-50863752D01*
X105062495Y-50435181D02*
X105633924Y-51006610D01*
D12*
X106441066Y-53199467D02*
X106674400Y-52866133D01*
X106841066Y-53199467D02*
X106841066Y-52499467D01*
X106574400Y-52499467D01*
X106507733Y-52532800D01*
X106474400Y-52566133D01*
X106441066Y-52632800D01*
X106441066Y-52732800D01*
X106474400Y-52799467D01*
X106507733Y-52832800D01*
X106574400Y-52866133D01*
X106841066Y-52866133D01*
X105774400Y-53199467D02*
X106174400Y-53199467D01*
X105974400Y-53199467D02*
X105974400Y-52499467D01*
X106041066Y-52599467D01*
X106107733Y-52666133D01*
X106174400Y-52699467D01*
D11*
X107014876Y-55245181D02*
X107586305Y-55245181D01*
X107300591Y-55245181D02*
X107300591Y-54245181D01*
X107395829Y-54388038D01*
X107491067Y-54483276D01*
X107586305Y-54530895D01*
X106395829Y-54245181D02*
X106300590Y-54245181D01*
X106205352Y-54292800D01*
X106157733Y-54340419D01*
X106110114Y-54435657D01*
X106062495Y-54626133D01*
X106062495Y-54864229D01*
X106110114Y-55054705D01*
X106157733Y-55149943D01*
X106205352Y-55197562D01*
X106300590Y-55245181D01*
X106395829Y-55245181D01*
X106491067Y-55197562D01*
X106538686Y-55149943D01*
X106586305Y-55054705D01*
X106633924Y-54864229D01*
X106633924Y-54626133D01*
X106586305Y-54435657D01*
X106538686Y-54340419D01*
X106491067Y-54292800D01*
X106395829Y-54245181D01*
X105633924Y-55245181D02*
X105633924Y-54245181D01*
X105062495Y-55245181D02*
X105491067Y-54673752D01*
X105062495Y-54245181D02*
X105633924Y-54816610D01*
D12*
X106441066Y-57009467D02*
X106674400Y-56676133D01*
X106841066Y-57009467D02*
X106841066Y-56309467D01*
X106574400Y-56309467D01*
X106507733Y-56342800D01*
X106474400Y-56376133D01*
X106441066Y-56442800D01*
X106441066Y-56542800D01*
X106474400Y-56609467D01*
X106507733Y-56642800D01*
X106574400Y-56676133D01*
X106841066Y-56676133D01*
X106174400Y-56376133D02*
X106141066Y-56342800D01*
X106074400Y-56309467D01*
X105907733Y-56309467D01*
X105841066Y-56342800D01*
X105807733Y-56376133D01*
X105774400Y-56442800D01*
X105774400Y-56509467D01*
X105807733Y-56609467D01*
X106207733Y-57009467D01*
X105774400Y-57009467D01*
D11*
X107014876Y-47675981D02*
X107586305Y-47675981D01*
X107300591Y-47675981D02*
X107300591Y-46675981D01*
X107395829Y-46818838D01*
X107491067Y-46914076D01*
X107586305Y-46961695D01*
X106395829Y-46675981D02*
X106300590Y-46675981D01*
X106205352Y-46723600D01*
X106157733Y-46771219D01*
X106110114Y-46866457D01*
X106062495Y-47056933D01*
X106062495Y-47295029D01*
X106110114Y-47485505D01*
X106157733Y-47580743D01*
X106205352Y-47628362D01*
X106300590Y-47675981D01*
X106395829Y-47675981D01*
X106491067Y-47628362D01*
X106538686Y-47580743D01*
X106586305Y-47485505D01*
X106633924Y-47295029D01*
X106633924Y-47056933D01*
X106586305Y-46866457D01*
X106538686Y-46771219D01*
X106491067Y-46723600D01*
X106395829Y-46675981D01*
X105633924Y-47675981D02*
X105633924Y-46675981D01*
X105062495Y-47675981D02*
X105491067Y-47104552D01*
X105062495Y-46675981D02*
X105633924Y-47247410D01*
D12*
X106441066Y-49440267D02*
X106674400Y-49106933D01*
X106841066Y-49440267D02*
X106841066Y-48740267D01*
X106574400Y-48740267D01*
X106507733Y-48773600D01*
X106474400Y-48806933D01*
X106441066Y-48873600D01*
X106441066Y-48973600D01*
X106474400Y-49040267D01*
X106507733Y-49073600D01*
X106574400Y-49106933D01*
X106841066Y-49106933D01*
X106207733Y-48740267D02*
X105774400Y-48740267D01*
X106007733Y-49006933D01*
X105907733Y-49006933D01*
X105841066Y-49040267D01*
X105807733Y-49073600D01*
X105774400Y-49140267D01*
X105774400Y-49306933D01*
X105807733Y-49373600D01*
X105841066Y-49406933D01*
X105907733Y-49440267D01*
X106107733Y-49440267D01*
X106174400Y-49406933D01*
X106207733Y-49373600D01*
D11*
X107014876Y-58801181D02*
X107586305Y-58801181D01*
X107300591Y-58801181D02*
X107300591Y-57801181D01*
X107395829Y-57944038D01*
X107491067Y-58039276D01*
X107586305Y-58086895D01*
X106395829Y-57801181D02*
X106300590Y-57801181D01*
X106205352Y-57848800D01*
X106157733Y-57896419D01*
X106110114Y-57991657D01*
X106062495Y-58182133D01*
X106062495Y-58420229D01*
X106110114Y-58610705D01*
X106157733Y-58705943D01*
X106205352Y-58753562D01*
X106300590Y-58801181D01*
X106395829Y-58801181D01*
X106491067Y-58753562D01*
X106538686Y-58705943D01*
X106586305Y-58610705D01*
X106633924Y-58420229D01*
X106633924Y-58182133D01*
X106586305Y-57991657D01*
X106538686Y-57896419D01*
X106491067Y-57848800D01*
X106395829Y-57801181D01*
X105633924Y-58801181D02*
X105633924Y-57801181D01*
X105062495Y-58801181D02*
X105491067Y-58229752D01*
X105062495Y-57801181D02*
X105633924Y-58372610D01*
D12*
X106441066Y-60565467D02*
X106674400Y-60232133D01*
X106841066Y-60565467D02*
X106841066Y-59865467D01*
X106574400Y-59865467D01*
X106507733Y-59898800D01*
X106474400Y-59932133D01*
X106441066Y-59998800D01*
X106441066Y-60098800D01*
X106474400Y-60165467D01*
X106507733Y-60198800D01*
X106574400Y-60232133D01*
X106841066Y-60232133D01*
X105841066Y-60098800D02*
X105841066Y-60565467D01*
X106007733Y-59832133D02*
X106174400Y-60332133D01*
X105741066Y-60332133D01*
D11*
X61899619Y-81948495D02*
X61852000Y-81996114D01*
X61804381Y-82091352D01*
X61804381Y-82329448D01*
X61852000Y-82424686D01*
X61899619Y-82472305D01*
X61994857Y-82519924D01*
X62090095Y-82519924D01*
X62232952Y-82472305D01*
X62804381Y-81900876D01*
X62804381Y-82519924D01*
X61804381Y-83138971D02*
X61804381Y-83234210D01*
X61852000Y-83329448D01*
X61899619Y-83377067D01*
X61994857Y-83424686D01*
X62185333Y-83472305D01*
X62423429Y-83472305D01*
X62613905Y-83424686D01*
X62709143Y-83377067D01*
X62756762Y-83329448D01*
X62804381Y-83234210D01*
X62804381Y-83138971D01*
X62756762Y-83043733D01*
X62709143Y-82996114D01*
X62613905Y-82948495D01*
X62423429Y-82900876D01*
X62185333Y-82900876D01*
X61994857Y-82948495D01*
X61899619Y-82996114D01*
X61852000Y-83043733D01*
X61804381Y-83138971D01*
X62804381Y-83900876D02*
X61804381Y-83900876D01*
X62804381Y-84472305D02*
X62232952Y-84043733D01*
X61804381Y-84472305D02*
X62375810Y-83900876D01*
D12*
X60768667Y-83093734D02*
X60435333Y-82860400D01*
X60768667Y-82693734D02*
X60068667Y-82693734D01*
X60068667Y-82960400D01*
X60102000Y-83027067D01*
X60135333Y-83060400D01*
X60202000Y-83093734D01*
X60302000Y-83093734D01*
X60368667Y-83060400D01*
X60402000Y-83027067D01*
X60435333Y-82960400D01*
X60435333Y-82693734D01*
X60068667Y-83727067D02*
X60068667Y-83393734D01*
X60402000Y-83360400D01*
X60368667Y-83393734D01*
X60335333Y-83460400D01*
X60335333Y-83627067D01*
X60368667Y-83693734D01*
X60402000Y-83727067D01*
X60468667Y-83760400D01*
X60635333Y-83760400D01*
X60702000Y-83727067D01*
X60735333Y-83693734D01*
X60768667Y-83627067D01*
X60768667Y-83460400D01*
X60735333Y-83393734D01*
X60702000Y-83360400D01*
D11*
X61899619Y-70467695D02*
X61852000Y-70515314D01*
X61804381Y-70610552D01*
X61804381Y-70848648D01*
X61852000Y-70943886D01*
X61899619Y-70991505D01*
X61994857Y-71039124D01*
X62090095Y-71039124D01*
X62232952Y-70991505D01*
X62804381Y-70420076D01*
X62804381Y-71039124D01*
X61804381Y-71658171D02*
X61804381Y-71753410D01*
X61852000Y-71848648D01*
X61899619Y-71896267D01*
X61994857Y-71943886D01*
X62185333Y-71991505D01*
X62423429Y-71991505D01*
X62613905Y-71943886D01*
X62709143Y-71896267D01*
X62756762Y-71848648D01*
X62804381Y-71753410D01*
X62804381Y-71658171D01*
X62756762Y-71562933D01*
X62709143Y-71515314D01*
X62613905Y-71467695D01*
X62423429Y-71420076D01*
X62185333Y-71420076D01*
X61994857Y-71467695D01*
X61899619Y-71515314D01*
X61852000Y-71562933D01*
X61804381Y-71658171D01*
X62804381Y-72420076D02*
X61804381Y-72420076D01*
X62804381Y-72991505D02*
X62232952Y-72562933D01*
X61804381Y-72991505D02*
X62375810Y-72420076D01*
D12*
X60768667Y-71612934D02*
X60435333Y-71379600D01*
X60768667Y-71212934D02*
X60068667Y-71212934D01*
X60068667Y-71479600D01*
X60102000Y-71546267D01*
X60135333Y-71579600D01*
X60202000Y-71612934D01*
X60302000Y-71612934D01*
X60368667Y-71579600D01*
X60402000Y-71546267D01*
X60435333Y-71479600D01*
X60435333Y-71212934D01*
X60068667Y-72212934D02*
X60068667Y-72079600D01*
X60102000Y-72012934D01*
X60135333Y-71979600D01*
X60235333Y-71912934D01*
X60368667Y-71879600D01*
X60635333Y-71879600D01*
X60702000Y-71912934D01*
X60735333Y-71946267D01*
X60768667Y-72012934D01*
X60768667Y-72146267D01*
X60735333Y-72212934D01*
X60702000Y-72246267D01*
X60635333Y-72279600D01*
X60468667Y-72279600D01*
X60402000Y-72246267D01*
X60368667Y-72212934D01*
X60335333Y-72146267D01*
X60335333Y-72012934D01*
X60368667Y-71946267D01*
X60402000Y-71912934D01*
X60468667Y-71879600D01*
D11*
X52705181Y-71062934D02*
X52705181Y-70491505D01*
X52705181Y-70777219D02*
X51705181Y-70777219D01*
X51848038Y-70681981D01*
X51943276Y-70586743D01*
X51990895Y-70491505D01*
X51800419Y-71443886D02*
X51752800Y-71491505D01*
X51705181Y-71586743D01*
X51705181Y-71824839D01*
X51752800Y-71920077D01*
X51800419Y-71967696D01*
X51895657Y-72015315D01*
X51990895Y-72015315D01*
X52133752Y-71967696D01*
X52705181Y-71396267D01*
X52705181Y-72015315D01*
X51705181Y-72634362D02*
X51705181Y-72729601D01*
X51752800Y-72824839D01*
X51800419Y-72872458D01*
X51895657Y-72920077D01*
X52086133Y-72967696D01*
X52324229Y-72967696D01*
X52514705Y-72920077D01*
X52609943Y-72872458D01*
X52657562Y-72824839D01*
X52705181Y-72729601D01*
X52705181Y-72634362D01*
X52657562Y-72539124D01*
X52609943Y-72491505D01*
X52514705Y-72443886D01*
X52324229Y-72396267D01*
X52086133Y-72396267D01*
X51895657Y-72443886D01*
X51800419Y-72491505D01*
X51752800Y-72539124D01*
X51705181Y-72634362D01*
D12*
X54469467Y-71612934D02*
X54136133Y-71379600D01*
X54469467Y-71212934D02*
X53769467Y-71212934D01*
X53769467Y-71479600D01*
X53802800Y-71546267D01*
X53836133Y-71579600D01*
X53902800Y-71612934D01*
X54002800Y-71612934D01*
X54069467Y-71579600D01*
X54102800Y-71546267D01*
X54136133Y-71479600D01*
X54136133Y-71212934D01*
X53769467Y-71846267D02*
X53769467Y-72312934D01*
X54469467Y-72012934D01*
M02*
