M48
;DRILL file {KiCad 4.0.7-e2-6376~61~ubuntu18.04.1} date Mon Dec  9 13:51:14 2019
;FORMAT={-:-/ absolute / inch / decimal}
FMAT,2
INCH,TZ
T1C0.031
T2C0.032
T3C0.035
T4C0.039
T5C0.040
%
G90
G05
M72
T1
X2.098Y-2.644
X2.142Y-2.6
X2.228Y-3.024
X2.272Y-3.072
X2.31Y-2.636
X2.506Y-1.91
X2.512Y-1.748
X2.512Y-1.798
X2.576Y-2.24
X2.632Y-2.296
X2.684Y-3.232
X2.684Y-3.39
X3.12Y-3.33
X3.226Y-2.344
T2
X2.004Y-2.268
T3
X4.002Y-2.858
X4.002Y-2.958
X4.27Y-2.858
X4.27Y-2.958
T4
X2.028Y-1.414
X2.028Y-1.514
X2.128Y-1.414
X2.128Y-1.514
X2.228Y-1.414
X2.228Y-1.514
X2.328Y-1.414
X2.328Y-1.514
X2.428Y-1.414
X2.428Y-1.514
T5
X2.8835Y-2.03
X2.8835Y-2.13
X2.8835Y-2.23
X2.8835Y-2.33
X2.8835Y-2.43
X2.8835Y-2.53
X2.8835Y-2.63
X2.8835Y-2.73
X3.7835Y-2.03
X3.7835Y-2.13
X3.7835Y-2.23
X3.7835Y-2.33
X3.7835Y-2.43
X3.7835Y-2.53
X3.7835Y-2.63
X3.7835Y-2.73
T0
M30
