G04 #@! TF.FileFunction,Other,Fab,Top*
%FSLAX46Y46*%
G04 Gerber Fmt 4.6, Leading zero omitted, Abs format (unit mm)*
G04 Created by KiCad (PCBNEW 4.0.7-e2-6376~61~ubuntu18.04.1) date Mon Dec  9 13:49:04 2019*
%MOMM*%
%LPD*%
G01*
G04 APERTURE LIST*
%ADD10C,0.100000*%
%ADD11C,0.150000*%
%ADD12C,0.105000*%
G04 APERTURE END LIST*
D10*
X109623476Y-75363755D02*
G75*
G03X107291810Y-75363200I-1165476J1500555D01*
G01*
X109958000Y-73863200D02*
G75*
G03X109958000Y-73863200I-1500000J0D01*
G01*
X107291810Y-75363200D02*
X109624190Y-75363200D01*
X102816276Y-75363755D02*
G75*
G03X100484610Y-75363200I-1165476J1500555D01*
G01*
X103150800Y-73863200D02*
G75*
G03X103150800Y-73863200I-1500000J0D01*
G01*
X100484610Y-75363200D02*
X102816990Y-75363200D01*
X109258000Y-68910000D02*
X107658000Y-68910000D01*
X109258000Y-65710000D02*
X109258000Y-68910000D01*
X107658000Y-65710000D02*
X109258000Y-65710000D01*
X107658000Y-68910000D02*
X107658000Y-65710000D01*
X102450800Y-68910000D02*
X100850800Y-68910000D01*
X102450800Y-65710000D02*
X102450800Y-68910000D01*
X100850800Y-65710000D02*
X102450800Y-65710000D01*
X100850800Y-68910000D02*
X100850800Y-65710000D01*
D11*
X111870381Y-74506057D02*
X111870381Y-74982248D01*
X110870381Y-74982248D01*
X111346571Y-74172724D02*
X111346571Y-73839390D01*
X111870381Y-73696533D02*
X111870381Y-74172724D01*
X110870381Y-74172724D01*
X110870381Y-73696533D01*
X111870381Y-73267962D02*
X110870381Y-73267962D01*
X110870381Y-73029867D01*
X110918000Y-72887009D01*
X111013238Y-72791771D01*
X111108476Y-72744152D01*
X111298952Y-72696533D01*
X111441810Y-72696533D01*
X111632286Y-72744152D01*
X111727524Y-72791771D01*
X111822762Y-72887009D01*
X111870381Y-73029867D01*
X111870381Y-73267962D01*
X105063181Y-74506057D02*
X105063181Y-74982248D01*
X104063181Y-74982248D01*
X104539371Y-74172724D02*
X104539371Y-73839390D01*
X105063181Y-73696533D02*
X105063181Y-74172724D01*
X104063181Y-74172724D01*
X104063181Y-73696533D01*
X105063181Y-73267962D02*
X104063181Y-73267962D01*
X104063181Y-73029867D01*
X104110800Y-72887009D01*
X104206038Y-72791771D01*
X104301276Y-72744152D01*
X104491752Y-72696533D01*
X104634610Y-72696533D01*
X104825086Y-72744152D01*
X104920324Y-72791771D01*
X105015562Y-72887009D01*
X105063181Y-73029867D01*
X105063181Y-73267962D01*
X49496838Y-59599581D02*
X50068267Y-59599581D01*
X49782552Y-60599581D02*
X49782552Y-59599581D01*
X50782553Y-60551962D02*
X50687315Y-60599581D01*
X50496838Y-60599581D01*
X50401600Y-60551962D01*
X50353981Y-60456724D01*
X50353981Y-60075771D01*
X50401600Y-59980533D01*
X50496838Y-59932914D01*
X50687315Y-59932914D01*
X50782553Y-59980533D01*
X50830172Y-60075771D01*
X50830172Y-60171010D01*
X50353981Y-60266248D01*
X51211124Y-60551962D02*
X51306362Y-60599581D01*
X51496838Y-60599581D01*
X51592077Y-60551962D01*
X51639696Y-60456724D01*
X51639696Y-60409105D01*
X51592077Y-60313867D01*
X51496838Y-60266248D01*
X51353981Y-60266248D01*
X51258743Y-60218629D01*
X51211124Y-60123390D01*
X51211124Y-60075771D01*
X51258743Y-59980533D01*
X51353981Y-59932914D01*
X51496838Y-59932914D01*
X51592077Y-59980533D01*
X51925410Y-59932914D02*
X52306362Y-59932914D01*
X52068267Y-59599581D02*
X52068267Y-60456724D01*
X52115886Y-60551962D01*
X52211124Y-60599581D01*
X52306362Y-60599581D01*
X79138996Y-42124381D02*
X79377091Y-43124381D01*
X79567568Y-42410095D01*
X79758044Y-43124381D01*
X79996139Y-42124381D01*
X80758044Y-43076762D02*
X80662806Y-43124381D01*
X80472329Y-43124381D01*
X80377091Y-43076762D01*
X80329472Y-42981524D01*
X80329472Y-42600571D01*
X80377091Y-42505333D01*
X80472329Y-42457714D01*
X80662806Y-42457714D01*
X80758044Y-42505333D01*
X80805663Y-42600571D01*
X80805663Y-42695810D01*
X80329472Y-42791048D01*
X81234234Y-43124381D02*
X81234234Y-42124381D01*
X81567568Y-42838667D01*
X81900901Y-42124381D01*
X81900901Y-43124381D01*
X82519948Y-43124381D02*
X82424710Y-43076762D01*
X82377091Y-43029143D01*
X82329472Y-42933905D01*
X82329472Y-42648190D01*
X82377091Y-42552952D01*
X82424710Y-42505333D01*
X82519948Y-42457714D01*
X82662806Y-42457714D01*
X82758044Y-42505333D01*
X82805663Y-42552952D01*
X82853282Y-42648190D01*
X82853282Y-42933905D01*
X82805663Y-43029143D01*
X82758044Y-43076762D01*
X82662806Y-43124381D01*
X82519948Y-43124381D01*
X83234234Y-43076762D02*
X83329472Y-43124381D01*
X83519948Y-43124381D01*
X83615187Y-43076762D01*
X83662806Y-42981524D01*
X83662806Y-42933905D01*
X83615187Y-42838667D01*
X83519948Y-42791048D01*
X83377091Y-42791048D01*
X83281853Y-42743429D01*
X83234234Y-42648190D01*
X83234234Y-42600571D01*
X83281853Y-42505333D01*
X83377091Y-42457714D01*
X83519948Y-42457714D01*
X83615187Y-42505333D01*
X83853282Y-43219619D02*
X84615187Y-43219619D01*
X84853282Y-43124381D02*
X84853282Y-42457714D01*
X84853282Y-42552952D02*
X84900901Y-42505333D01*
X84996139Y-42457714D01*
X85138997Y-42457714D01*
X85234235Y-42505333D01*
X85281854Y-42600571D01*
X85281854Y-43124381D01*
X85281854Y-42600571D02*
X85329473Y-42505333D01*
X85424711Y-42457714D01*
X85567568Y-42457714D01*
X85662806Y-42505333D01*
X85710425Y-42600571D01*
X85710425Y-43124381D01*
X86186615Y-43124381D02*
X86186615Y-42457714D01*
X86186615Y-42124381D02*
X86138996Y-42172000D01*
X86186615Y-42219619D01*
X86234234Y-42172000D01*
X86186615Y-42124381D01*
X86186615Y-42219619D01*
X86662805Y-42457714D02*
X86662805Y-43124381D01*
X86662805Y-42552952D02*
X86710424Y-42505333D01*
X86805662Y-42457714D01*
X86948520Y-42457714D01*
X87043758Y-42505333D01*
X87091377Y-42600571D01*
X87091377Y-43124381D01*
X87567567Y-43124381D02*
X87567567Y-42457714D01*
X87567567Y-42124381D02*
X87519948Y-42172000D01*
X87567567Y-42219619D01*
X87615186Y-42172000D01*
X87567567Y-42124381D01*
X87567567Y-42219619D01*
X109905619Y-68548095D02*
X109858000Y-68500476D01*
X109810381Y-68405238D01*
X109810381Y-68167142D01*
X109858000Y-68071904D01*
X109905619Y-68024285D01*
X110000857Y-67976666D01*
X110096095Y-67976666D01*
X110238952Y-68024285D01*
X110810381Y-68595714D01*
X110810381Y-67976666D01*
X109905619Y-67595714D02*
X109858000Y-67548095D01*
X109810381Y-67452857D01*
X109810381Y-67214761D01*
X109858000Y-67119523D01*
X109905619Y-67071904D01*
X110000857Y-67024285D01*
X110096095Y-67024285D01*
X110238952Y-67071904D01*
X110810381Y-67643333D01*
X110810381Y-67024285D01*
X109810381Y-66405238D02*
X109810381Y-66309999D01*
X109858000Y-66214761D01*
X109905619Y-66167142D01*
X110000857Y-66119523D01*
X110191333Y-66071904D01*
X110429429Y-66071904D01*
X110619905Y-66119523D01*
X110715143Y-66167142D01*
X110762762Y-66214761D01*
X110810381Y-66309999D01*
X110810381Y-66405238D01*
X110762762Y-66500476D01*
X110715143Y-66548095D01*
X110619905Y-66595714D01*
X110429429Y-66643333D01*
X110191333Y-66643333D01*
X110000857Y-66595714D01*
X109905619Y-66548095D01*
X109858000Y-66500476D01*
X109810381Y-66405238D01*
D12*
X108774667Y-67426666D02*
X108441333Y-67660000D01*
X108774667Y-67826666D02*
X108074667Y-67826666D01*
X108074667Y-67560000D01*
X108108000Y-67493333D01*
X108141333Y-67460000D01*
X108208000Y-67426666D01*
X108308000Y-67426666D01*
X108374667Y-67460000D01*
X108408000Y-67493333D01*
X108441333Y-67560000D01*
X108441333Y-67826666D01*
X108374667Y-67026666D02*
X108341333Y-67093333D01*
X108308000Y-67126666D01*
X108241333Y-67160000D01*
X108208000Y-67160000D01*
X108141333Y-67126666D01*
X108108000Y-67093333D01*
X108074667Y-67026666D01*
X108074667Y-66893333D01*
X108108000Y-66826666D01*
X108141333Y-66793333D01*
X108208000Y-66760000D01*
X108241333Y-66760000D01*
X108308000Y-66793333D01*
X108341333Y-66826666D01*
X108374667Y-66893333D01*
X108374667Y-67026666D01*
X108408000Y-67093333D01*
X108441333Y-67126666D01*
X108508000Y-67160000D01*
X108641333Y-67160000D01*
X108708000Y-67126666D01*
X108741333Y-67093333D01*
X108774667Y-67026666D01*
X108774667Y-66893333D01*
X108741333Y-66826666D01*
X108708000Y-66793333D01*
X108641333Y-66760000D01*
X108508000Y-66760000D01*
X108441333Y-66793333D01*
X108408000Y-66826666D01*
X108374667Y-66893333D01*
D11*
X103098419Y-68548095D02*
X103050800Y-68500476D01*
X103003181Y-68405238D01*
X103003181Y-68167142D01*
X103050800Y-68071904D01*
X103098419Y-68024285D01*
X103193657Y-67976666D01*
X103288895Y-67976666D01*
X103431752Y-68024285D01*
X104003181Y-68595714D01*
X104003181Y-67976666D01*
X103098419Y-67595714D02*
X103050800Y-67548095D01*
X103003181Y-67452857D01*
X103003181Y-67214761D01*
X103050800Y-67119523D01*
X103098419Y-67071904D01*
X103193657Y-67024285D01*
X103288895Y-67024285D01*
X103431752Y-67071904D01*
X104003181Y-67643333D01*
X104003181Y-67024285D01*
X103003181Y-66405238D02*
X103003181Y-66309999D01*
X103050800Y-66214761D01*
X103098419Y-66167142D01*
X103193657Y-66119523D01*
X103384133Y-66071904D01*
X103622229Y-66071904D01*
X103812705Y-66119523D01*
X103907943Y-66167142D01*
X103955562Y-66214761D01*
X104003181Y-66309999D01*
X104003181Y-66405238D01*
X103955562Y-66500476D01*
X103907943Y-66548095D01*
X103812705Y-66595714D01*
X103622229Y-66643333D01*
X103384133Y-66643333D01*
X103193657Y-66595714D01*
X103098419Y-66548095D01*
X103050800Y-66500476D01*
X103003181Y-66405238D01*
D12*
X101967467Y-67426666D02*
X101634133Y-67660000D01*
X101967467Y-67826666D02*
X101267467Y-67826666D01*
X101267467Y-67560000D01*
X101300800Y-67493333D01*
X101334133Y-67460000D01*
X101400800Y-67426666D01*
X101500800Y-67426666D01*
X101567467Y-67460000D01*
X101600800Y-67493333D01*
X101634133Y-67560000D01*
X101634133Y-67826666D01*
X101967467Y-67093333D02*
X101967467Y-66960000D01*
X101934133Y-66893333D01*
X101900800Y-66860000D01*
X101800800Y-66793333D01*
X101667467Y-66760000D01*
X101400800Y-66760000D01*
X101334133Y-66793333D01*
X101300800Y-66826666D01*
X101267467Y-66893333D01*
X101267467Y-67026666D01*
X101300800Y-67093333D01*
X101334133Y-67126666D01*
X101400800Y-67160000D01*
X101567467Y-67160000D01*
X101634133Y-67126666D01*
X101667467Y-67093333D01*
X101700800Y-67026666D01*
X101700800Y-66893333D01*
X101667467Y-66826666D01*
X101634133Y-66793333D01*
X101567467Y-66760000D01*
M02*
