G04 #@! TF.FileFunction,Copper,L1,Top,Signal*
%FSLAX46Y46*%
G04 Gerber Fmt 4.6, Leading zero omitted, Abs format (unit mm)*
G04 Created by KiCad (PCBNEW 4.0.7-e2-6376~61~ubuntu18.04.1) date Mon Dec  9 13:49:03 2019*
%MOMM*%
%LPD*%
G01*
G04 APERTURE LIST*
%ADD10C,0.100000*%
%ADD11R,1.700000X1.700000*%
%ADD12O,1.700000X1.700000*%
%ADD13R,1.800000X1.800000*%
%ADD14C,1.800000*%
%ADD15C,1.998980*%
%ADD16R,1.700000X2.000000*%
%ADD17C,1.200000*%
%ADD18C,1.200000*%
%ADD19C,0.600000*%
%ADD20C,0.800000*%
%ADD21C,0.254000*%
G04 APERTURE END LIST*
D10*
D11*
X51511200Y-35915600D03*
D12*
X51511200Y-38455600D03*
X54051200Y-35915600D03*
X54051200Y-38455600D03*
X56591200Y-35915600D03*
X56591200Y-38455600D03*
X59131200Y-35915600D03*
X59131200Y-38455600D03*
X61671200Y-35915600D03*
X61671200Y-38455600D03*
D13*
X108458000Y-75133200D03*
D14*
X108458000Y-72593200D03*
D13*
X101650800Y-75133200D03*
D14*
X101650800Y-72593200D03*
D15*
X50901600Y-57607200D03*
D14*
X73240900Y-51562000D03*
X73240900Y-54102000D03*
X73240900Y-56642000D03*
X73240900Y-59182000D03*
X73240900Y-61722000D03*
X73240900Y-64262000D03*
X73240900Y-66802000D03*
X73240900Y-69342000D03*
X96100900Y-69342000D03*
X96100900Y-66802000D03*
X96100900Y-64262000D03*
X96100900Y-61722000D03*
X96100900Y-59182000D03*
X96100900Y-56642000D03*
X96100900Y-54102000D03*
X96100900Y-51562000D03*
D16*
X108458000Y-69310000D03*
X108458000Y-65310000D03*
X101650800Y-69310000D03*
X101650800Y-65310000D03*
D17*
X63804800Y-44399200D03*
X63804800Y-45669200D03*
X65430400Y-56896000D03*
X66852800Y-58318400D03*
X54406800Y-66040000D03*
X53289200Y-67157600D03*
X56591200Y-76809600D03*
X57708800Y-78028800D03*
X81940400Y-59537600D03*
X68173600Y-86106000D03*
X58674000Y-66954400D03*
X68173600Y-82092800D03*
X79248000Y-84582000D03*
X63652400Y-48514000D03*
D18*
X56591200Y-35915600D02*
X59131200Y-35915600D01*
D19*
X59131200Y-35915600D02*
X59131200Y-34239200D01*
X59131200Y-34239200D02*
X59791600Y-33578800D01*
X59791600Y-33578800D02*
X65582800Y-33578800D01*
X65582800Y-33578800D02*
X69443600Y-37439600D01*
X69443600Y-37439600D02*
X69443600Y-38760400D01*
X69443600Y-38760400D02*
X63804800Y-44399200D01*
X63804800Y-45669200D02*
X68072000Y-49936400D01*
X68072000Y-49936400D02*
X68072000Y-54254400D01*
X68072000Y-54254400D02*
X65430400Y-56896000D01*
X66852800Y-58318400D02*
X60807600Y-64363600D01*
X60807600Y-64363600D02*
X56083200Y-64363600D01*
X56083200Y-64363600D02*
X54406800Y-66040000D01*
X53289200Y-67157600D02*
X49733200Y-70713600D01*
X49733200Y-70713600D02*
X49733200Y-75742800D01*
X49733200Y-75742800D02*
X50901600Y-76911200D01*
X50901600Y-76911200D02*
X56489600Y-76911200D01*
X56489600Y-76911200D02*
X56591200Y-76809600D01*
X96100900Y-66802000D02*
X89204800Y-66802000D01*
X89204800Y-66802000D02*
X81940400Y-59537600D01*
D20*
X108458000Y-69310000D02*
X108458000Y-72593200D01*
D19*
X62179200Y-87884000D02*
X62179200Y-88036400D01*
X62230000Y-87934800D02*
X62179200Y-87884000D01*
X62230000Y-88036400D02*
X62230000Y-87934800D01*
X68173600Y-82092800D02*
X62230000Y-88036400D01*
D18*
X50901600Y-57607200D02*
X50901600Y-62534800D01*
X96100900Y-81749900D02*
X96100900Y-69342000D01*
X89814400Y-88036400D02*
X96100900Y-81749900D01*
X55270400Y-88036400D02*
X62179200Y-88036400D01*
X62179200Y-88036400D02*
X62788800Y-88036400D01*
X62788800Y-88036400D02*
X89814400Y-88036400D01*
X47244000Y-80010000D02*
X55270400Y-88036400D01*
X47244000Y-66192400D02*
X47244000Y-80010000D01*
X50901600Y-62534800D02*
X47244000Y-66192400D01*
D20*
X101650800Y-65310000D02*
X100247200Y-65310000D01*
X100247200Y-65310000D02*
X99060000Y-66497200D01*
X99060000Y-66497200D02*
X99060000Y-67868800D01*
X99060000Y-67868800D02*
X97586800Y-69342000D01*
X97586800Y-69342000D02*
X96100900Y-69342000D01*
X73240900Y-56642000D02*
X74879200Y-56642000D01*
X81534000Y-82296000D02*
X79248000Y-84582000D01*
X81534000Y-63296800D02*
X81534000Y-82296000D01*
X74879200Y-56642000D02*
X81534000Y-63296800D01*
X108458000Y-65310000D02*
X108032800Y-65310000D01*
X108032800Y-65310000D02*
X105460800Y-62738000D01*
X105460800Y-62738000D02*
X97624900Y-62738000D01*
X97624900Y-62738000D02*
X96100900Y-64262000D01*
D18*
X51511200Y-35915600D02*
X54051200Y-35915600D01*
D20*
X101650800Y-69310000D02*
X101650800Y-72593200D01*
X56591200Y-38455600D02*
X56591200Y-41503600D01*
X63601600Y-48514000D02*
X63652400Y-48514000D01*
X56591200Y-41503600D02*
X63601600Y-48514000D01*
D21*
G36*
X111913600Y-89206000D02*
X90143187Y-89206000D01*
X90287014Y-89177391D01*
X90687677Y-88909677D01*
X96974177Y-82623177D01*
X97241891Y-82222514D01*
X97335900Y-81749900D01*
X97335900Y-75418950D01*
X100115800Y-75418950D01*
X100115800Y-76159509D01*
X100212473Y-76392898D01*
X100391101Y-76571527D01*
X100624490Y-76668200D01*
X101365050Y-76668200D01*
X101523800Y-76509450D01*
X101523800Y-75260200D01*
X101777800Y-75260200D01*
X101777800Y-76509450D01*
X101936550Y-76668200D01*
X102677110Y-76668200D01*
X102910499Y-76571527D01*
X103089127Y-76392898D01*
X103185800Y-76159509D01*
X103185800Y-75418950D01*
X106923000Y-75418950D01*
X106923000Y-76159509D01*
X107019673Y-76392898D01*
X107198301Y-76571527D01*
X107431690Y-76668200D01*
X108172250Y-76668200D01*
X108331000Y-76509450D01*
X108331000Y-75260200D01*
X108585000Y-75260200D01*
X108585000Y-76509450D01*
X108743750Y-76668200D01*
X109484310Y-76668200D01*
X109717699Y-76571527D01*
X109896327Y-76392898D01*
X109993000Y-76159509D01*
X109993000Y-75418950D01*
X109834250Y-75260200D01*
X108585000Y-75260200D01*
X108331000Y-75260200D01*
X107081750Y-75260200D01*
X106923000Y-75418950D01*
X103185800Y-75418950D01*
X103027050Y-75260200D01*
X101777800Y-75260200D01*
X101523800Y-75260200D01*
X100274550Y-75260200D01*
X100115800Y-75418950D01*
X97335900Y-75418950D01*
X97335900Y-72897191D01*
X100115535Y-72897191D01*
X100348732Y-73461571D01*
X100525892Y-73639041D01*
X100391101Y-73694873D01*
X100212473Y-73873502D01*
X100115800Y-74106891D01*
X100115800Y-74847450D01*
X100274550Y-75006200D01*
X101523800Y-75006200D01*
X101523800Y-74986200D01*
X101777800Y-74986200D01*
X101777800Y-75006200D01*
X103027050Y-75006200D01*
X103185800Y-74847450D01*
X103185800Y-74106891D01*
X103089127Y-73873502D01*
X102910499Y-73694873D01*
X102775806Y-73639081D01*
X102951351Y-73463843D01*
X103185533Y-72899870D01*
X103185535Y-72897191D01*
X106922735Y-72897191D01*
X107155932Y-73461571D01*
X107333092Y-73639041D01*
X107198301Y-73694873D01*
X107019673Y-73873502D01*
X106923000Y-74106891D01*
X106923000Y-74847450D01*
X107081750Y-75006200D01*
X108331000Y-75006200D01*
X108331000Y-74986200D01*
X108585000Y-74986200D01*
X108585000Y-75006200D01*
X109834250Y-75006200D01*
X109993000Y-74847450D01*
X109993000Y-74106891D01*
X109896327Y-73873502D01*
X109717699Y-73694873D01*
X109583006Y-73639081D01*
X109758551Y-73463843D01*
X109992733Y-72899870D01*
X109993265Y-72289209D01*
X109760068Y-71724829D01*
X109493000Y-71457294D01*
X109493000Y-70922630D01*
X109543317Y-70913162D01*
X109759441Y-70774090D01*
X109904431Y-70561890D01*
X109955440Y-70310000D01*
X109955440Y-68310000D01*
X109911162Y-68074683D01*
X109772090Y-67858559D01*
X109559890Y-67713569D01*
X109308000Y-67662560D01*
X107608000Y-67662560D01*
X107372683Y-67706838D01*
X107156559Y-67845910D01*
X107011569Y-68058110D01*
X106960560Y-68310000D01*
X106960560Y-70310000D01*
X107004838Y-70545317D01*
X107143910Y-70761441D01*
X107356110Y-70906431D01*
X107423000Y-70919977D01*
X107423000Y-71457470D01*
X107157449Y-71722557D01*
X106923267Y-72286530D01*
X106922735Y-72897191D01*
X103185535Y-72897191D01*
X103186065Y-72289209D01*
X102952868Y-71724829D01*
X102685800Y-71457294D01*
X102685800Y-70922630D01*
X102736117Y-70913162D01*
X102952241Y-70774090D01*
X103097231Y-70561890D01*
X103148240Y-70310000D01*
X103148240Y-68310000D01*
X103103962Y-68074683D01*
X102964890Y-67858559D01*
X102752690Y-67713569D01*
X102500800Y-67662560D01*
X100800800Y-67662560D01*
X100565483Y-67706838D01*
X100349359Y-67845910D01*
X100204369Y-68058110D01*
X100153360Y-68310000D01*
X100153360Y-70310000D01*
X100197638Y-70545317D01*
X100336710Y-70761441D01*
X100548910Y-70906431D01*
X100615800Y-70919977D01*
X100615800Y-71457470D01*
X100350249Y-71722557D01*
X100116067Y-72286530D01*
X100115535Y-72897191D01*
X97335900Y-72897191D01*
X97335900Y-70377000D01*
X97586795Y-70377000D01*
X97586800Y-70377001D01*
X97982877Y-70298215D01*
X98318656Y-70073856D01*
X99791853Y-68600658D01*
X99791856Y-68600656D01*
X99956809Y-68353785D01*
X100016215Y-68264878D01*
X100095000Y-67868800D01*
X100095000Y-66925912D01*
X100306468Y-66714444D01*
X100336710Y-66761441D01*
X100548910Y-66906431D01*
X100800800Y-66957440D01*
X102500800Y-66957440D01*
X102736117Y-66913162D01*
X102952241Y-66774090D01*
X103097231Y-66561890D01*
X103148240Y-66310000D01*
X103148240Y-64310000D01*
X103103962Y-64074683D01*
X102964890Y-63858559D01*
X102839670Y-63773000D01*
X105032088Y-63773000D01*
X106960560Y-65701471D01*
X106960560Y-66310000D01*
X107004838Y-66545317D01*
X107143910Y-66761441D01*
X107356110Y-66906431D01*
X107608000Y-66957440D01*
X109308000Y-66957440D01*
X109543317Y-66913162D01*
X109759441Y-66774090D01*
X109904431Y-66561890D01*
X109955440Y-66310000D01*
X109955440Y-64310000D01*
X109911162Y-64074683D01*
X109772090Y-63858559D01*
X109559890Y-63713569D01*
X109308000Y-63662560D01*
X107849071Y-63662560D01*
X106192656Y-62006144D01*
X105856877Y-61781785D01*
X105460800Y-61702999D01*
X105460795Y-61703000D01*
X97635917Y-61703000D01*
X97636165Y-61418009D01*
X97402968Y-60853629D01*
X97001718Y-60451677D01*
X97401451Y-60052643D01*
X97635633Y-59488670D01*
X97636165Y-58878009D01*
X97402968Y-58313629D01*
X97001718Y-57911677D01*
X97401451Y-57512643D01*
X97635633Y-56948670D01*
X97636165Y-56338009D01*
X97402968Y-55773629D01*
X97001718Y-55371677D01*
X97401451Y-54972643D01*
X97635633Y-54408670D01*
X97636165Y-53798009D01*
X97402968Y-53233629D01*
X97001718Y-52831677D01*
X97401451Y-52432643D01*
X97635633Y-51868670D01*
X97636165Y-51258009D01*
X97402968Y-50693629D01*
X96971543Y-50261449D01*
X96407570Y-50027267D01*
X95796909Y-50026735D01*
X95232529Y-50259932D01*
X94800349Y-50691357D01*
X94566167Y-51255330D01*
X94565635Y-51865991D01*
X94798832Y-52430371D01*
X95200082Y-52832323D01*
X94800349Y-53231357D01*
X94566167Y-53795330D01*
X94565635Y-54405991D01*
X94798832Y-54970371D01*
X95200082Y-55372323D01*
X94800349Y-55771357D01*
X94566167Y-56335330D01*
X94565635Y-56945991D01*
X94798832Y-57510371D01*
X95200082Y-57912323D01*
X94800349Y-58311357D01*
X94566167Y-58875330D01*
X94565635Y-59485991D01*
X94798832Y-60050371D01*
X95200082Y-60452323D01*
X94800349Y-60851357D01*
X94566167Y-61415330D01*
X94565635Y-62025991D01*
X94798832Y-62590371D01*
X95200082Y-62992323D01*
X94800349Y-63391357D01*
X94566167Y-63955330D01*
X94565635Y-64565991D01*
X94798832Y-65130371D01*
X95230257Y-65562551D01*
X95251094Y-65571203D01*
X95200346Y-65721841D01*
X96100900Y-66622395D01*
X97001454Y-65721841D01*
X96950865Y-65571673D01*
X96969271Y-65564068D01*
X97401451Y-65132643D01*
X97635633Y-64568670D01*
X97635962Y-64190649D01*
X98053611Y-63773000D01*
X100462664Y-63773000D01*
X100349359Y-63845910D01*
X100204369Y-64058110D01*
X100156807Y-64292980D01*
X99851122Y-64353785D01*
X99716629Y-64443651D01*
X99515344Y-64578144D01*
X99515342Y-64578147D01*
X98328144Y-65765344D01*
X98103785Y-66101123D01*
X98024999Y-66497200D01*
X98025000Y-66497205D01*
X98025000Y-67440089D01*
X97197393Y-68267695D01*
X96971543Y-68041449D01*
X96950706Y-68032797D01*
X97001454Y-67882159D01*
X96100900Y-66981605D01*
X95200346Y-67882159D01*
X95250935Y-68032327D01*
X95232529Y-68039932D01*
X94800349Y-68471357D01*
X94566167Y-69035330D01*
X94565635Y-69645991D01*
X94798832Y-70210371D01*
X94865900Y-70277556D01*
X94865900Y-81238346D01*
X89302846Y-86801400D01*
X64787290Y-86801400D01*
X68260813Y-83327877D01*
X68418179Y-83328014D01*
X68872257Y-83140392D01*
X69219971Y-82793285D01*
X69408385Y-82339534D01*
X69408814Y-81848221D01*
X69221192Y-81394143D01*
X68874085Y-81046429D01*
X68420334Y-80858015D01*
X67929021Y-80857586D01*
X67474943Y-81045208D01*
X67127229Y-81392315D01*
X66938815Y-81846066D01*
X66938676Y-82005434D01*
X62142710Y-86801400D01*
X55781954Y-86801400D01*
X48479000Y-79498446D01*
X48479000Y-66703954D01*
X51774877Y-63408077D01*
X52042591Y-63007414D01*
X52136601Y-62534800D01*
X52136600Y-62534795D01*
X52136600Y-58683858D01*
X52286446Y-58534273D01*
X52535806Y-57933747D01*
X52536374Y-57283506D01*
X52288062Y-56682545D01*
X51828673Y-56222354D01*
X51228147Y-55972994D01*
X50577906Y-55972426D01*
X49976945Y-56220738D01*
X49516754Y-56680127D01*
X49267394Y-57280653D01*
X49266826Y-57930894D01*
X49515138Y-58531855D01*
X49666600Y-58683581D01*
X49666600Y-62023246D01*
X46370723Y-65319123D01*
X46103009Y-65719786D01*
X46009000Y-66192400D01*
X46009000Y-80010000D01*
X46103009Y-80482614D01*
X46370723Y-80883277D01*
X54397123Y-88909677D01*
X54797786Y-89177391D01*
X54941613Y-89206000D01*
X45769600Y-89206000D01*
X45769600Y-51865991D01*
X71705635Y-51865991D01*
X71938832Y-52430371D01*
X72340082Y-52832323D01*
X71940349Y-53231357D01*
X71706167Y-53795330D01*
X71705635Y-54405991D01*
X71938832Y-54970371D01*
X72340082Y-55372323D01*
X71940349Y-55771357D01*
X71706167Y-56335330D01*
X71705635Y-56945991D01*
X71938832Y-57510371D01*
X72340082Y-57912323D01*
X71940349Y-58311357D01*
X71706167Y-58875330D01*
X71705635Y-59485991D01*
X71938832Y-60050371D01*
X72340082Y-60452323D01*
X71940349Y-60851357D01*
X71706167Y-61415330D01*
X71705635Y-62025991D01*
X71938832Y-62590371D01*
X72340082Y-62992323D01*
X71940349Y-63391357D01*
X71706167Y-63955330D01*
X71705635Y-64565991D01*
X71938832Y-65130371D01*
X72340082Y-65532323D01*
X71940349Y-65931357D01*
X71706167Y-66495330D01*
X71705635Y-67105991D01*
X71938832Y-67670371D01*
X72340082Y-68072323D01*
X71940349Y-68471357D01*
X71706167Y-69035330D01*
X71705635Y-69645991D01*
X71938832Y-70210371D01*
X72370257Y-70642551D01*
X72934230Y-70876733D01*
X73544891Y-70877265D01*
X74109271Y-70644068D01*
X74541451Y-70212643D01*
X74775633Y-69648670D01*
X74776165Y-69038009D01*
X74542968Y-68473629D01*
X74141718Y-68071677D01*
X74541451Y-67672643D01*
X74775633Y-67108670D01*
X74776165Y-66498009D01*
X74542968Y-65933629D01*
X74141718Y-65531677D01*
X74541451Y-65132643D01*
X74775633Y-64568670D01*
X74776165Y-63958009D01*
X74542968Y-63393629D01*
X74141718Y-62991677D01*
X74541451Y-62592643D01*
X74775633Y-62028670D01*
X74776165Y-61418009D01*
X74542968Y-60853629D01*
X74141718Y-60451677D01*
X74541451Y-60052643D01*
X74775633Y-59488670D01*
X74776165Y-58878009D01*
X74542968Y-58313629D01*
X74141718Y-57911677D01*
X74376806Y-57677000D01*
X74450488Y-57677000D01*
X80499000Y-63725511D01*
X80499000Y-81867289D01*
X79019488Y-83346800D01*
X79003421Y-83346786D01*
X78549343Y-83534408D01*
X78201629Y-83881515D01*
X78013215Y-84335266D01*
X78012786Y-84826579D01*
X78200408Y-85280657D01*
X78547515Y-85628371D01*
X79001266Y-85816785D01*
X79492579Y-85817214D01*
X79946657Y-85629592D01*
X80294371Y-85282485D01*
X80482785Y-84828734D01*
X80482801Y-84810911D01*
X82265853Y-83027858D01*
X82265856Y-83027856D01*
X82400349Y-82826571D01*
X82490215Y-82692078D01*
X82569001Y-82296000D01*
X82569000Y-82295995D01*
X82569000Y-66561336D01*
X94554442Y-66561336D01*
X94580061Y-67171460D01*
X94764257Y-67616148D01*
X95020741Y-67702554D01*
X95921295Y-66802000D01*
X96280505Y-66802000D01*
X97181059Y-67702554D01*
X97437543Y-67616148D01*
X97647358Y-67042664D01*
X97621739Y-66432540D01*
X97437543Y-65987852D01*
X97181059Y-65901446D01*
X96280505Y-66802000D01*
X95921295Y-66802000D01*
X95020741Y-65901446D01*
X94764257Y-65987852D01*
X94554442Y-66561336D01*
X82569000Y-66561336D01*
X82569000Y-63296800D01*
X82561030Y-63256733D01*
X82490215Y-62900722D01*
X82400349Y-62766229D01*
X82265856Y-62564944D01*
X82265853Y-62564942D01*
X75611056Y-55910144D01*
X75275277Y-55685785D01*
X74879200Y-55606999D01*
X74879195Y-55607000D01*
X74376630Y-55607000D01*
X74141718Y-55371677D01*
X74541451Y-54972643D01*
X74775633Y-54408670D01*
X74776165Y-53798009D01*
X74542968Y-53233629D01*
X74141718Y-52831677D01*
X74541451Y-52432643D01*
X74775633Y-51868670D01*
X74776165Y-51258009D01*
X74542968Y-50693629D01*
X74111543Y-50261449D01*
X73547570Y-50027267D01*
X72936909Y-50026735D01*
X72372529Y-50259932D01*
X71940349Y-50691357D01*
X71706167Y-51255330D01*
X71705635Y-51865991D01*
X45769600Y-51865991D01*
X45769600Y-35065600D01*
X50013760Y-35065600D01*
X50013760Y-36765600D01*
X50058038Y-37000917D01*
X50197110Y-37217041D01*
X50409310Y-37362031D01*
X50465654Y-37373441D01*
X50461146Y-37376453D01*
X50139239Y-37858222D01*
X50026200Y-38426507D01*
X50026200Y-38484693D01*
X50139239Y-39052978D01*
X50461146Y-39534747D01*
X50942915Y-39856654D01*
X51511200Y-39969693D01*
X52079485Y-39856654D01*
X52561254Y-39534747D01*
X52781200Y-39205574D01*
X53001146Y-39534747D01*
X53482915Y-39856654D01*
X54051200Y-39969693D01*
X54619485Y-39856654D01*
X55101254Y-39534747D01*
X55321200Y-39205574D01*
X55541146Y-39534747D01*
X55556200Y-39544806D01*
X55556200Y-41503595D01*
X55556199Y-41503600D01*
X55634985Y-41899677D01*
X55859344Y-42235456D01*
X62441632Y-48817743D01*
X62604808Y-49212657D01*
X62951915Y-49560371D01*
X63405666Y-49748785D01*
X63896979Y-49749214D01*
X64351057Y-49561592D01*
X64698771Y-49214485D01*
X64887185Y-48760734D01*
X64887614Y-48269421D01*
X64699992Y-47815343D01*
X64352885Y-47467629D01*
X63899134Y-47279215D01*
X63830466Y-47279155D01*
X57626200Y-41074888D01*
X57626200Y-39544806D01*
X57641254Y-39534747D01*
X57861200Y-39205574D01*
X58081146Y-39534747D01*
X58562915Y-39856654D01*
X59131200Y-39969693D01*
X59699485Y-39856654D01*
X60181254Y-39534747D01*
X60401200Y-39205574D01*
X60621146Y-39534747D01*
X61102915Y-39856654D01*
X61671200Y-39969693D01*
X62239485Y-39856654D01*
X62721254Y-39534747D01*
X63043161Y-39052978D01*
X63156200Y-38484693D01*
X63156200Y-38426507D01*
X63043161Y-37858222D01*
X62721254Y-37376453D01*
X62435622Y-37185600D01*
X62721254Y-36994747D01*
X63043161Y-36512978D01*
X63156200Y-35944693D01*
X63156200Y-35886507D01*
X63043161Y-35318222D01*
X62721254Y-34836453D01*
X62239485Y-34514546D01*
X61671200Y-34401507D01*
X61102915Y-34514546D01*
X60621146Y-34836453D01*
X60393498Y-35177153D01*
X60326383Y-35034242D01*
X59898124Y-34643955D01*
X59488090Y-34474124D01*
X59258200Y-34595445D01*
X59258200Y-35788600D01*
X59278200Y-35788600D01*
X59278200Y-36042600D01*
X59258200Y-36042600D01*
X59258200Y-36062600D01*
X59004200Y-36062600D01*
X59004200Y-36042600D01*
X56718200Y-36042600D01*
X56718200Y-36062600D01*
X56464200Y-36062600D01*
X56464200Y-36042600D01*
X56444200Y-36042600D01*
X56444200Y-35788600D01*
X56464200Y-35788600D01*
X56464200Y-34595445D01*
X56718200Y-34595445D01*
X56718200Y-35788600D01*
X59004200Y-35788600D01*
X59004200Y-34595445D01*
X58774310Y-34474124D01*
X58364276Y-34643955D01*
X57936017Y-35034242D01*
X57861200Y-35193554D01*
X57786383Y-35034242D01*
X57358124Y-34643955D01*
X56948090Y-34474124D01*
X56718200Y-34595445D01*
X56464200Y-34595445D01*
X56234310Y-34474124D01*
X55824276Y-34643955D01*
X55396017Y-35034242D01*
X55328902Y-35177153D01*
X55101254Y-34836453D01*
X54619485Y-34514546D01*
X54051200Y-34401507D01*
X53482915Y-34514546D01*
X53234397Y-34680600D01*
X52868044Y-34680600D01*
X52825290Y-34614159D01*
X52613090Y-34469169D01*
X52361200Y-34418160D01*
X50661200Y-34418160D01*
X50425883Y-34462438D01*
X50209759Y-34601510D01*
X50064769Y-34813710D01*
X50013760Y-35065600D01*
X45769600Y-35065600D01*
X45769600Y-32053600D01*
X111913600Y-32053600D01*
X111913600Y-89206000D01*
X111913600Y-89206000D01*
G37*
X111913600Y-89206000D02*
X90143187Y-89206000D01*
X90287014Y-89177391D01*
X90687677Y-88909677D01*
X96974177Y-82623177D01*
X97241891Y-82222514D01*
X97335900Y-81749900D01*
X97335900Y-75418950D01*
X100115800Y-75418950D01*
X100115800Y-76159509D01*
X100212473Y-76392898D01*
X100391101Y-76571527D01*
X100624490Y-76668200D01*
X101365050Y-76668200D01*
X101523800Y-76509450D01*
X101523800Y-75260200D01*
X101777800Y-75260200D01*
X101777800Y-76509450D01*
X101936550Y-76668200D01*
X102677110Y-76668200D01*
X102910499Y-76571527D01*
X103089127Y-76392898D01*
X103185800Y-76159509D01*
X103185800Y-75418950D01*
X106923000Y-75418950D01*
X106923000Y-76159509D01*
X107019673Y-76392898D01*
X107198301Y-76571527D01*
X107431690Y-76668200D01*
X108172250Y-76668200D01*
X108331000Y-76509450D01*
X108331000Y-75260200D01*
X108585000Y-75260200D01*
X108585000Y-76509450D01*
X108743750Y-76668200D01*
X109484310Y-76668200D01*
X109717699Y-76571527D01*
X109896327Y-76392898D01*
X109993000Y-76159509D01*
X109993000Y-75418950D01*
X109834250Y-75260200D01*
X108585000Y-75260200D01*
X108331000Y-75260200D01*
X107081750Y-75260200D01*
X106923000Y-75418950D01*
X103185800Y-75418950D01*
X103027050Y-75260200D01*
X101777800Y-75260200D01*
X101523800Y-75260200D01*
X100274550Y-75260200D01*
X100115800Y-75418950D01*
X97335900Y-75418950D01*
X97335900Y-72897191D01*
X100115535Y-72897191D01*
X100348732Y-73461571D01*
X100525892Y-73639041D01*
X100391101Y-73694873D01*
X100212473Y-73873502D01*
X100115800Y-74106891D01*
X100115800Y-74847450D01*
X100274550Y-75006200D01*
X101523800Y-75006200D01*
X101523800Y-74986200D01*
X101777800Y-74986200D01*
X101777800Y-75006200D01*
X103027050Y-75006200D01*
X103185800Y-74847450D01*
X103185800Y-74106891D01*
X103089127Y-73873502D01*
X102910499Y-73694873D01*
X102775806Y-73639081D01*
X102951351Y-73463843D01*
X103185533Y-72899870D01*
X103185535Y-72897191D01*
X106922735Y-72897191D01*
X107155932Y-73461571D01*
X107333092Y-73639041D01*
X107198301Y-73694873D01*
X107019673Y-73873502D01*
X106923000Y-74106891D01*
X106923000Y-74847450D01*
X107081750Y-75006200D01*
X108331000Y-75006200D01*
X108331000Y-74986200D01*
X108585000Y-74986200D01*
X108585000Y-75006200D01*
X109834250Y-75006200D01*
X109993000Y-74847450D01*
X109993000Y-74106891D01*
X109896327Y-73873502D01*
X109717699Y-73694873D01*
X109583006Y-73639081D01*
X109758551Y-73463843D01*
X109992733Y-72899870D01*
X109993265Y-72289209D01*
X109760068Y-71724829D01*
X109493000Y-71457294D01*
X109493000Y-70922630D01*
X109543317Y-70913162D01*
X109759441Y-70774090D01*
X109904431Y-70561890D01*
X109955440Y-70310000D01*
X109955440Y-68310000D01*
X109911162Y-68074683D01*
X109772090Y-67858559D01*
X109559890Y-67713569D01*
X109308000Y-67662560D01*
X107608000Y-67662560D01*
X107372683Y-67706838D01*
X107156559Y-67845910D01*
X107011569Y-68058110D01*
X106960560Y-68310000D01*
X106960560Y-70310000D01*
X107004838Y-70545317D01*
X107143910Y-70761441D01*
X107356110Y-70906431D01*
X107423000Y-70919977D01*
X107423000Y-71457470D01*
X107157449Y-71722557D01*
X106923267Y-72286530D01*
X106922735Y-72897191D01*
X103185535Y-72897191D01*
X103186065Y-72289209D01*
X102952868Y-71724829D01*
X102685800Y-71457294D01*
X102685800Y-70922630D01*
X102736117Y-70913162D01*
X102952241Y-70774090D01*
X103097231Y-70561890D01*
X103148240Y-70310000D01*
X103148240Y-68310000D01*
X103103962Y-68074683D01*
X102964890Y-67858559D01*
X102752690Y-67713569D01*
X102500800Y-67662560D01*
X100800800Y-67662560D01*
X100565483Y-67706838D01*
X100349359Y-67845910D01*
X100204369Y-68058110D01*
X100153360Y-68310000D01*
X100153360Y-70310000D01*
X100197638Y-70545317D01*
X100336710Y-70761441D01*
X100548910Y-70906431D01*
X100615800Y-70919977D01*
X100615800Y-71457470D01*
X100350249Y-71722557D01*
X100116067Y-72286530D01*
X100115535Y-72897191D01*
X97335900Y-72897191D01*
X97335900Y-70377000D01*
X97586795Y-70377000D01*
X97586800Y-70377001D01*
X97982877Y-70298215D01*
X98318656Y-70073856D01*
X99791853Y-68600658D01*
X99791856Y-68600656D01*
X99956809Y-68353785D01*
X100016215Y-68264878D01*
X100095000Y-67868800D01*
X100095000Y-66925912D01*
X100306468Y-66714444D01*
X100336710Y-66761441D01*
X100548910Y-66906431D01*
X100800800Y-66957440D01*
X102500800Y-66957440D01*
X102736117Y-66913162D01*
X102952241Y-66774090D01*
X103097231Y-66561890D01*
X103148240Y-66310000D01*
X103148240Y-64310000D01*
X103103962Y-64074683D01*
X102964890Y-63858559D01*
X102839670Y-63773000D01*
X105032088Y-63773000D01*
X106960560Y-65701471D01*
X106960560Y-66310000D01*
X107004838Y-66545317D01*
X107143910Y-66761441D01*
X107356110Y-66906431D01*
X107608000Y-66957440D01*
X109308000Y-66957440D01*
X109543317Y-66913162D01*
X109759441Y-66774090D01*
X109904431Y-66561890D01*
X109955440Y-66310000D01*
X109955440Y-64310000D01*
X109911162Y-64074683D01*
X109772090Y-63858559D01*
X109559890Y-63713569D01*
X109308000Y-63662560D01*
X107849071Y-63662560D01*
X106192656Y-62006144D01*
X105856877Y-61781785D01*
X105460800Y-61702999D01*
X105460795Y-61703000D01*
X97635917Y-61703000D01*
X97636165Y-61418009D01*
X97402968Y-60853629D01*
X97001718Y-60451677D01*
X97401451Y-60052643D01*
X97635633Y-59488670D01*
X97636165Y-58878009D01*
X97402968Y-58313629D01*
X97001718Y-57911677D01*
X97401451Y-57512643D01*
X97635633Y-56948670D01*
X97636165Y-56338009D01*
X97402968Y-55773629D01*
X97001718Y-55371677D01*
X97401451Y-54972643D01*
X97635633Y-54408670D01*
X97636165Y-53798009D01*
X97402968Y-53233629D01*
X97001718Y-52831677D01*
X97401451Y-52432643D01*
X97635633Y-51868670D01*
X97636165Y-51258009D01*
X97402968Y-50693629D01*
X96971543Y-50261449D01*
X96407570Y-50027267D01*
X95796909Y-50026735D01*
X95232529Y-50259932D01*
X94800349Y-50691357D01*
X94566167Y-51255330D01*
X94565635Y-51865991D01*
X94798832Y-52430371D01*
X95200082Y-52832323D01*
X94800349Y-53231357D01*
X94566167Y-53795330D01*
X94565635Y-54405991D01*
X94798832Y-54970371D01*
X95200082Y-55372323D01*
X94800349Y-55771357D01*
X94566167Y-56335330D01*
X94565635Y-56945991D01*
X94798832Y-57510371D01*
X95200082Y-57912323D01*
X94800349Y-58311357D01*
X94566167Y-58875330D01*
X94565635Y-59485991D01*
X94798832Y-60050371D01*
X95200082Y-60452323D01*
X94800349Y-60851357D01*
X94566167Y-61415330D01*
X94565635Y-62025991D01*
X94798832Y-62590371D01*
X95200082Y-62992323D01*
X94800349Y-63391357D01*
X94566167Y-63955330D01*
X94565635Y-64565991D01*
X94798832Y-65130371D01*
X95230257Y-65562551D01*
X95251094Y-65571203D01*
X95200346Y-65721841D01*
X96100900Y-66622395D01*
X97001454Y-65721841D01*
X96950865Y-65571673D01*
X96969271Y-65564068D01*
X97401451Y-65132643D01*
X97635633Y-64568670D01*
X97635962Y-64190649D01*
X98053611Y-63773000D01*
X100462664Y-63773000D01*
X100349359Y-63845910D01*
X100204369Y-64058110D01*
X100156807Y-64292980D01*
X99851122Y-64353785D01*
X99716629Y-64443651D01*
X99515344Y-64578144D01*
X99515342Y-64578147D01*
X98328144Y-65765344D01*
X98103785Y-66101123D01*
X98024999Y-66497200D01*
X98025000Y-66497205D01*
X98025000Y-67440089D01*
X97197393Y-68267695D01*
X96971543Y-68041449D01*
X96950706Y-68032797D01*
X97001454Y-67882159D01*
X96100900Y-66981605D01*
X95200346Y-67882159D01*
X95250935Y-68032327D01*
X95232529Y-68039932D01*
X94800349Y-68471357D01*
X94566167Y-69035330D01*
X94565635Y-69645991D01*
X94798832Y-70210371D01*
X94865900Y-70277556D01*
X94865900Y-81238346D01*
X89302846Y-86801400D01*
X64787290Y-86801400D01*
X68260813Y-83327877D01*
X68418179Y-83328014D01*
X68872257Y-83140392D01*
X69219971Y-82793285D01*
X69408385Y-82339534D01*
X69408814Y-81848221D01*
X69221192Y-81394143D01*
X68874085Y-81046429D01*
X68420334Y-80858015D01*
X67929021Y-80857586D01*
X67474943Y-81045208D01*
X67127229Y-81392315D01*
X66938815Y-81846066D01*
X66938676Y-82005434D01*
X62142710Y-86801400D01*
X55781954Y-86801400D01*
X48479000Y-79498446D01*
X48479000Y-66703954D01*
X51774877Y-63408077D01*
X52042591Y-63007414D01*
X52136601Y-62534800D01*
X52136600Y-62534795D01*
X52136600Y-58683858D01*
X52286446Y-58534273D01*
X52535806Y-57933747D01*
X52536374Y-57283506D01*
X52288062Y-56682545D01*
X51828673Y-56222354D01*
X51228147Y-55972994D01*
X50577906Y-55972426D01*
X49976945Y-56220738D01*
X49516754Y-56680127D01*
X49267394Y-57280653D01*
X49266826Y-57930894D01*
X49515138Y-58531855D01*
X49666600Y-58683581D01*
X49666600Y-62023246D01*
X46370723Y-65319123D01*
X46103009Y-65719786D01*
X46009000Y-66192400D01*
X46009000Y-80010000D01*
X46103009Y-80482614D01*
X46370723Y-80883277D01*
X54397123Y-88909677D01*
X54797786Y-89177391D01*
X54941613Y-89206000D01*
X45769600Y-89206000D01*
X45769600Y-51865991D01*
X71705635Y-51865991D01*
X71938832Y-52430371D01*
X72340082Y-52832323D01*
X71940349Y-53231357D01*
X71706167Y-53795330D01*
X71705635Y-54405991D01*
X71938832Y-54970371D01*
X72340082Y-55372323D01*
X71940349Y-55771357D01*
X71706167Y-56335330D01*
X71705635Y-56945991D01*
X71938832Y-57510371D01*
X72340082Y-57912323D01*
X71940349Y-58311357D01*
X71706167Y-58875330D01*
X71705635Y-59485991D01*
X71938832Y-60050371D01*
X72340082Y-60452323D01*
X71940349Y-60851357D01*
X71706167Y-61415330D01*
X71705635Y-62025991D01*
X71938832Y-62590371D01*
X72340082Y-62992323D01*
X71940349Y-63391357D01*
X71706167Y-63955330D01*
X71705635Y-64565991D01*
X71938832Y-65130371D01*
X72340082Y-65532323D01*
X71940349Y-65931357D01*
X71706167Y-66495330D01*
X71705635Y-67105991D01*
X71938832Y-67670371D01*
X72340082Y-68072323D01*
X71940349Y-68471357D01*
X71706167Y-69035330D01*
X71705635Y-69645991D01*
X71938832Y-70210371D01*
X72370257Y-70642551D01*
X72934230Y-70876733D01*
X73544891Y-70877265D01*
X74109271Y-70644068D01*
X74541451Y-70212643D01*
X74775633Y-69648670D01*
X74776165Y-69038009D01*
X74542968Y-68473629D01*
X74141718Y-68071677D01*
X74541451Y-67672643D01*
X74775633Y-67108670D01*
X74776165Y-66498009D01*
X74542968Y-65933629D01*
X74141718Y-65531677D01*
X74541451Y-65132643D01*
X74775633Y-64568670D01*
X74776165Y-63958009D01*
X74542968Y-63393629D01*
X74141718Y-62991677D01*
X74541451Y-62592643D01*
X74775633Y-62028670D01*
X74776165Y-61418009D01*
X74542968Y-60853629D01*
X74141718Y-60451677D01*
X74541451Y-60052643D01*
X74775633Y-59488670D01*
X74776165Y-58878009D01*
X74542968Y-58313629D01*
X74141718Y-57911677D01*
X74376806Y-57677000D01*
X74450488Y-57677000D01*
X80499000Y-63725511D01*
X80499000Y-81867289D01*
X79019488Y-83346800D01*
X79003421Y-83346786D01*
X78549343Y-83534408D01*
X78201629Y-83881515D01*
X78013215Y-84335266D01*
X78012786Y-84826579D01*
X78200408Y-85280657D01*
X78547515Y-85628371D01*
X79001266Y-85816785D01*
X79492579Y-85817214D01*
X79946657Y-85629592D01*
X80294371Y-85282485D01*
X80482785Y-84828734D01*
X80482801Y-84810911D01*
X82265853Y-83027858D01*
X82265856Y-83027856D01*
X82400349Y-82826571D01*
X82490215Y-82692078D01*
X82569001Y-82296000D01*
X82569000Y-82295995D01*
X82569000Y-66561336D01*
X94554442Y-66561336D01*
X94580061Y-67171460D01*
X94764257Y-67616148D01*
X95020741Y-67702554D01*
X95921295Y-66802000D01*
X96280505Y-66802000D01*
X97181059Y-67702554D01*
X97437543Y-67616148D01*
X97647358Y-67042664D01*
X97621739Y-66432540D01*
X97437543Y-65987852D01*
X97181059Y-65901446D01*
X96280505Y-66802000D01*
X95921295Y-66802000D01*
X95020741Y-65901446D01*
X94764257Y-65987852D01*
X94554442Y-66561336D01*
X82569000Y-66561336D01*
X82569000Y-63296800D01*
X82561030Y-63256733D01*
X82490215Y-62900722D01*
X82400349Y-62766229D01*
X82265856Y-62564944D01*
X82265853Y-62564942D01*
X75611056Y-55910144D01*
X75275277Y-55685785D01*
X74879200Y-55606999D01*
X74879195Y-55607000D01*
X74376630Y-55607000D01*
X74141718Y-55371677D01*
X74541451Y-54972643D01*
X74775633Y-54408670D01*
X74776165Y-53798009D01*
X74542968Y-53233629D01*
X74141718Y-52831677D01*
X74541451Y-52432643D01*
X74775633Y-51868670D01*
X74776165Y-51258009D01*
X74542968Y-50693629D01*
X74111543Y-50261449D01*
X73547570Y-50027267D01*
X72936909Y-50026735D01*
X72372529Y-50259932D01*
X71940349Y-50691357D01*
X71706167Y-51255330D01*
X71705635Y-51865991D01*
X45769600Y-51865991D01*
X45769600Y-35065600D01*
X50013760Y-35065600D01*
X50013760Y-36765600D01*
X50058038Y-37000917D01*
X50197110Y-37217041D01*
X50409310Y-37362031D01*
X50465654Y-37373441D01*
X50461146Y-37376453D01*
X50139239Y-37858222D01*
X50026200Y-38426507D01*
X50026200Y-38484693D01*
X50139239Y-39052978D01*
X50461146Y-39534747D01*
X50942915Y-39856654D01*
X51511200Y-39969693D01*
X52079485Y-39856654D01*
X52561254Y-39534747D01*
X52781200Y-39205574D01*
X53001146Y-39534747D01*
X53482915Y-39856654D01*
X54051200Y-39969693D01*
X54619485Y-39856654D01*
X55101254Y-39534747D01*
X55321200Y-39205574D01*
X55541146Y-39534747D01*
X55556200Y-39544806D01*
X55556200Y-41503595D01*
X55556199Y-41503600D01*
X55634985Y-41899677D01*
X55859344Y-42235456D01*
X62441632Y-48817743D01*
X62604808Y-49212657D01*
X62951915Y-49560371D01*
X63405666Y-49748785D01*
X63896979Y-49749214D01*
X64351057Y-49561592D01*
X64698771Y-49214485D01*
X64887185Y-48760734D01*
X64887614Y-48269421D01*
X64699992Y-47815343D01*
X64352885Y-47467629D01*
X63899134Y-47279215D01*
X63830466Y-47279155D01*
X57626200Y-41074888D01*
X57626200Y-39544806D01*
X57641254Y-39534747D01*
X57861200Y-39205574D01*
X58081146Y-39534747D01*
X58562915Y-39856654D01*
X59131200Y-39969693D01*
X59699485Y-39856654D01*
X60181254Y-39534747D01*
X60401200Y-39205574D01*
X60621146Y-39534747D01*
X61102915Y-39856654D01*
X61671200Y-39969693D01*
X62239485Y-39856654D01*
X62721254Y-39534747D01*
X63043161Y-39052978D01*
X63156200Y-38484693D01*
X63156200Y-38426507D01*
X63043161Y-37858222D01*
X62721254Y-37376453D01*
X62435622Y-37185600D01*
X62721254Y-36994747D01*
X63043161Y-36512978D01*
X63156200Y-35944693D01*
X63156200Y-35886507D01*
X63043161Y-35318222D01*
X62721254Y-34836453D01*
X62239485Y-34514546D01*
X61671200Y-34401507D01*
X61102915Y-34514546D01*
X60621146Y-34836453D01*
X60393498Y-35177153D01*
X60326383Y-35034242D01*
X59898124Y-34643955D01*
X59488090Y-34474124D01*
X59258200Y-34595445D01*
X59258200Y-35788600D01*
X59278200Y-35788600D01*
X59278200Y-36042600D01*
X59258200Y-36042600D01*
X59258200Y-36062600D01*
X59004200Y-36062600D01*
X59004200Y-36042600D01*
X56718200Y-36042600D01*
X56718200Y-36062600D01*
X56464200Y-36062600D01*
X56464200Y-36042600D01*
X56444200Y-36042600D01*
X56444200Y-35788600D01*
X56464200Y-35788600D01*
X56464200Y-34595445D01*
X56718200Y-34595445D01*
X56718200Y-35788600D01*
X59004200Y-35788600D01*
X59004200Y-34595445D01*
X58774310Y-34474124D01*
X58364276Y-34643955D01*
X57936017Y-35034242D01*
X57861200Y-35193554D01*
X57786383Y-35034242D01*
X57358124Y-34643955D01*
X56948090Y-34474124D01*
X56718200Y-34595445D01*
X56464200Y-34595445D01*
X56234310Y-34474124D01*
X55824276Y-34643955D01*
X55396017Y-35034242D01*
X55328902Y-35177153D01*
X55101254Y-34836453D01*
X54619485Y-34514546D01*
X54051200Y-34401507D01*
X53482915Y-34514546D01*
X53234397Y-34680600D01*
X52868044Y-34680600D01*
X52825290Y-34614159D01*
X52613090Y-34469169D01*
X52361200Y-34418160D01*
X50661200Y-34418160D01*
X50425883Y-34462438D01*
X50209759Y-34601510D01*
X50064769Y-34813710D01*
X50013760Y-35065600D01*
X45769600Y-35065600D01*
X45769600Y-32053600D01*
X111913600Y-32053600D01*
X111913600Y-89206000D01*
M02*
