G04 #@! TF.FileFunction,Legend,Top*
%FSLAX46Y46*%
G04 Gerber Fmt 4.6, Leading zero omitted, Abs format (unit mm)*
G04 Created by KiCad (PCBNEW 4.0.7-e2-6376~61~ubuntu18.04.1) date Mon Dec  9 13:49:04 2019*
%MOMM*%
%LPD*%
G01*
G04 APERTURE LIST*
%ADD10C,0.100000*%
%ADD11C,0.120000*%
%ADD12C,0.150000*%
G04 APERTURE END LIST*
D10*
D11*
X107379392Y-72190865D02*
G75*
G03X107222484Y-75423200I1078608J-1672335D01*
G01*
X109536608Y-72190865D02*
G75*
G02X109693516Y-75423200I-1078608J-1672335D01*
G01*
X107378163Y-72822070D02*
G75*
G03X107378000Y-74904161I1079837J-1041130D01*
G01*
X109537837Y-72822070D02*
G75*
G02X109538000Y-74904161I-1079837J-1041130D01*
G01*
X107222000Y-75423200D02*
X107378000Y-75423200D01*
X109538000Y-75423200D02*
X109694000Y-75423200D01*
X100572192Y-72190865D02*
G75*
G03X100415284Y-75423200I1078608J-1672335D01*
G01*
X102729408Y-72190865D02*
G75*
G02X102886316Y-75423200I-1078608J-1672335D01*
G01*
X100570963Y-72822070D02*
G75*
G03X100570800Y-74904161I1079837J-1041130D01*
G01*
X102730637Y-72822070D02*
G75*
G02X102730800Y-74904161I-1079837J-1041130D01*
G01*
X100414800Y-75423200D02*
X100570800Y-75423200D01*
X102730800Y-75423200D02*
X102886800Y-75423200D01*
D10*
X73853428Y-77999228D02*
X79664720Y-77999228D01*
X79664720Y-77999228D02*
X79691051Y-76715795D01*
X79691051Y-76715795D02*
X88522273Y-76722483D01*
X88522273Y-76722483D02*
X88520297Y-77924736D01*
X88520297Y-77924736D02*
X97601093Y-77898658D01*
X97601093Y-77898658D02*
X97587095Y-46728507D01*
X97587095Y-46728507D02*
X97354284Y-46125714D01*
X97354284Y-46125714D02*
X97070801Y-45580833D01*
X97070801Y-45580833D02*
X96736153Y-45094423D01*
X96736153Y-45094423D02*
X96349853Y-44667048D01*
X96349853Y-44667048D02*
X95911412Y-44299259D01*
X95911412Y-44299259D02*
X95420340Y-43991623D01*
X95420340Y-43991623D02*
X94876150Y-43744690D01*
X94876150Y-43744690D02*
X94278353Y-43559024D01*
X94278353Y-43559024D02*
X75240440Y-43530266D01*
X75240440Y-43530266D02*
X74621076Y-43764259D01*
X74621076Y-43764259D02*
X74032882Y-44048742D01*
X74032882Y-44048742D02*
X73489455Y-44398257D01*
X73489455Y-44398257D02*
X73004397Y-44827342D01*
X73004397Y-44827342D02*
X72591305Y-45350540D01*
X72591305Y-45350540D02*
X72263778Y-45982387D01*
X72263778Y-45982387D02*
X72035418Y-46737425D01*
X72035418Y-46737425D02*
X71919822Y-47630193D01*
X71919822Y-47630193D02*
X71894874Y-70185285D01*
X71894874Y-70185285D02*
X73838420Y-71146181D01*
X73838420Y-71146181D02*
X73868214Y-77954524D01*
X87850550Y-71773451D02*
X80710969Y-71773451D01*
X80710969Y-71773451D02*
X80710969Y-77587188D01*
X80710969Y-77587188D02*
X87850550Y-77587188D01*
X87850550Y-77587188D02*
X87850550Y-71773451D01*
X73927300Y-71124349D02*
X75479522Y-71124349D01*
X75479522Y-71124349D02*
X76008689Y-71653515D01*
X76008689Y-71653515D02*
X77261050Y-71653515D01*
X77261050Y-71653515D02*
X77261050Y-76715876D01*
X77261050Y-76715876D02*
X75973411Y-76715876D01*
X75973411Y-76715876D02*
X75444244Y-77209765D01*
X75444244Y-77209765D02*
X73874383Y-77209765D01*
X73874383Y-77209765D02*
X73927300Y-71124349D01*
X73892022Y-73205738D02*
X73239383Y-73205738D01*
X73239383Y-73205738D02*
X73239383Y-75198932D01*
X73239383Y-75198932D02*
X73856744Y-75198932D01*
D11*
X109528000Y-66310000D02*
X109528000Y-68310000D01*
X107388000Y-68310000D02*
X107388000Y-66310000D01*
X102720800Y-66310000D02*
X102720800Y-68310000D01*
X100580800Y-68310000D02*
X100580800Y-66310000D01*
D12*
X105950381Y-74601295D02*
X104950381Y-74601295D01*
X104950381Y-74363200D01*
X104998000Y-74220342D01*
X105093238Y-74125104D01*
X105188476Y-74077485D01*
X105378952Y-74029866D01*
X105521810Y-74029866D01*
X105712286Y-74077485D01*
X105807524Y-74125104D01*
X105902762Y-74220342D01*
X105950381Y-74363200D01*
X105950381Y-74601295D01*
X105045619Y-73648914D02*
X104998000Y-73601295D01*
X104950381Y-73506057D01*
X104950381Y-73267961D01*
X104998000Y-73172723D01*
X105045619Y-73125104D01*
X105140857Y-73077485D01*
X105236095Y-73077485D01*
X105378952Y-73125104D01*
X105950381Y-73696533D01*
X105950381Y-73077485D01*
X99143181Y-74601295D02*
X98143181Y-74601295D01*
X98143181Y-74363200D01*
X98190800Y-74220342D01*
X98286038Y-74125104D01*
X98381276Y-74077485D01*
X98571752Y-74029866D01*
X98714610Y-74029866D01*
X98905086Y-74077485D01*
X99000324Y-74125104D01*
X99095562Y-74220342D01*
X99143181Y-74363200D01*
X99143181Y-74601295D01*
X98143181Y-73696533D02*
X98143181Y-73077485D01*
X98524133Y-73410819D01*
X98524133Y-73267961D01*
X98571752Y-73172723D01*
X98619371Y-73125104D01*
X98714610Y-73077485D01*
X98952705Y-73077485D01*
X99047943Y-73125104D01*
X99095562Y-73172723D01*
X99143181Y-73267961D01*
X99143181Y-73553676D01*
X99095562Y-73648914D01*
X99047943Y-73696533D01*
X50568267Y-54519581D02*
X50568267Y-55233867D01*
X50520647Y-55376724D01*
X50425409Y-55471962D01*
X50282552Y-55519581D01*
X50187314Y-55519581D01*
X51568267Y-55519581D02*
X50996838Y-55519581D01*
X51282552Y-55519581D02*
X51282552Y-54519581D01*
X51187314Y-54662438D01*
X51092076Y-54757676D01*
X50996838Y-54805295D01*
X82638995Y-79984381D02*
X82638995Y-80793905D01*
X82686614Y-80889143D01*
X82734233Y-80936762D01*
X82829471Y-80984381D01*
X83019948Y-80984381D01*
X83115186Y-80936762D01*
X83162805Y-80889143D01*
X83210424Y-80793905D01*
X83210424Y-79984381D01*
X84210424Y-80984381D02*
X83638995Y-80984381D01*
X83924709Y-80984381D02*
X83924709Y-79984381D01*
X83829471Y-80127238D01*
X83734233Y-80222476D01*
X83638995Y-80270095D01*
X77813757Y-44839143D02*
X78528043Y-47839143D01*
X79099472Y-45696286D01*
X79670900Y-47839143D01*
X80385186Y-44839143D01*
X82670900Y-47696286D02*
X82385186Y-47839143D01*
X81813757Y-47839143D01*
X81528043Y-47696286D01*
X81385186Y-47410571D01*
X81385186Y-46267714D01*
X81528043Y-45982000D01*
X81813757Y-45839143D01*
X82385186Y-45839143D01*
X82670900Y-45982000D01*
X82813757Y-46267714D01*
X82813757Y-46553429D01*
X81385186Y-46839143D01*
X84099472Y-47839143D02*
X84099472Y-44839143D01*
X85099472Y-46982000D01*
X86099472Y-44839143D01*
X86099472Y-47839143D01*
X87956614Y-47839143D02*
X87670900Y-47696286D01*
X87528043Y-47553429D01*
X87385186Y-47267714D01*
X87385186Y-46410571D01*
X87528043Y-46124857D01*
X87670900Y-45982000D01*
X87956614Y-45839143D01*
X88385186Y-45839143D01*
X88670900Y-45982000D01*
X88813757Y-46124857D01*
X88956614Y-46410571D01*
X88956614Y-47267714D01*
X88813757Y-47553429D01*
X88670900Y-47696286D01*
X88385186Y-47839143D01*
X87956614Y-47839143D01*
X90099472Y-47696286D02*
X90385186Y-47839143D01*
X90956614Y-47839143D01*
X91242329Y-47696286D01*
X91385186Y-47410571D01*
X91385186Y-47267714D01*
X91242329Y-46982000D01*
X90956614Y-46839143D01*
X90528043Y-46839143D01*
X90242329Y-46696286D01*
X90099472Y-46410571D01*
X90099472Y-46267714D01*
X90242329Y-45982000D01*
X90528043Y-45839143D01*
X90956614Y-45839143D01*
X91242329Y-45982000D01*
X107060381Y-67476666D02*
X106584190Y-67810000D01*
X107060381Y-68048095D02*
X106060381Y-68048095D01*
X106060381Y-67667142D01*
X106108000Y-67571904D01*
X106155619Y-67524285D01*
X106250857Y-67476666D01*
X106393714Y-67476666D01*
X106488952Y-67524285D01*
X106536571Y-67571904D01*
X106584190Y-67667142D01*
X106584190Y-68048095D01*
X106488952Y-66905238D02*
X106441333Y-67000476D01*
X106393714Y-67048095D01*
X106298476Y-67095714D01*
X106250857Y-67095714D01*
X106155619Y-67048095D01*
X106108000Y-67000476D01*
X106060381Y-66905238D01*
X106060381Y-66714761D01*
X106108000Y-66619523D01*
X106155619Y-66571904D01*
X106250857Y-66524285D01*
X106298476Y-66524285D01*
X106393714Y-66571904D01*
X106441333Y-66619523D01*
X106488952Y-66714761D01*
X106488952Y-66905238D01*
X106536571Y-67000476D01*
X106584190Y-67048095D01*
X106679429Y-67095714D01*
X106869905Y-67095714D01*
X106965143Y-67048095D01*
X107012762Y-67000476D01*
X107060381Y-66905238D01*
X107060381Y-66714761D01*
X107012762Y-66619523D01*
X106965143Y-66571904D01*
X106869905Y-66524285D01*
X106679429Y-66524285D01*
X106584190Y-66571904D01*
X106536571Y-66619523D01*
X106488952Y-66714761D01*
X100253181Y-67476666D02*
X99776990Y-67810000D01*
X100253181Y-68048095D02*
X99253181Y-68048095D01*
X99253181Y-67667142D01*
X99300800Y-67571904D01*
X99348419Y-67524285D01*
X99443657Y-67476666D01*
X99586514Y-67476666D01*
X99681752Y-67524285D01*
X99729371Y-67571904D01*
X99776990Y-67667142D01*
X99776990Y-68048095D01*
X100253181Y-67000476D02*
X100253181Y-66810000D01*
X100205562Y-66714761D01*
X100157943Y-66667142D01*
X100015086Y-66571904D01*
X99824610Y-66524285D01*
X99443657Y-66524285D01*
X99348419Y-66571904D01*
X99300800Y-66619523D01*
X99253181Y-66714761D01*
X99253181Y-66905238D01*
X99300800Y-67000476D01*
X99348419Y-67048095D01*
X99443657Y-67095714D01*
X99681752Y-67095714D01*
X99776990Y-67048095D01*
X99824610Y-67000476D01*
X99872229Y-66905238D01*
X99872229Y-66714761D01*
X99824610Y-66619523D01*
X99776990Y-66571904D01*
X99681752Y-66524285D01*
M02*
