G04 #@! TF.FileFunction,Copper,L2,Bot,Signal*
%FSLAX46Y46*%
G04 Gerber Fmt 4.6, Leading zero omitted, Abs format (unit mm)*
G04 Created by KiCad (PCBNEW 4.0.7-e2-6376~61~ubuntu18.04.1) date Mon Dec  9 13:49:03 2019*
%MOMM*%
%LPD*%
G01*
G04 APERTURE LIST*
%ADD10C,0.100000*%
%ADD11R,1.700000X1.700000*%
%ADD12O,1.700000X1.700000*%
%ADD13R,3.000000X2.000000*%
%ADD14R,1.800000X1.800000*%
%ADD15C,1.800000*%
%ADD16C,1.998980*%
%ADD17R,1.143000X0.508000*%
%ADD18R,2.000000X1.700000*%
%ADD19R,1.700000X2.000000*%
%ADD20C,1.200000*%
%ADD21C,0.600000*%
%ADD22C,1.200000*%
%ADD23C,0.800000*%
%ADD24C,1.000000*%
%ADD25C,0.254000*%
G04 APERTURE END LIST*
D10*
D11*
X51511200Y-35915600D03*
D12*
X51511200Y-38455600D03*
X54051200Y-35915600D03*
X54051200Y-38455600D03*
X56591200Y-35915600D03*
X56591200Y-38455600D03*
X59131200Y-35915600D03*
X59131200Y-38455600D03*
X61671200Y-35915600D03*
X61671200Y-38455600D03*
D13*
X48717200Y-50077000D03*
X48717200Y-45427000D03*
D14*
X108458000Y-75133200D03*
D15*
X108458000Y-72593200D03*
D14*
X101650800Y-75133200D03*
D15*
X101650800Y-72593200D03*
D16*
X50901600Y-57607200D03*
D17*
X70383400Y-82067400D03*
X70383400Y-83337400D03*
X70383400Y-84607400D03*
X70383400Y-85877400D03*
X76733400Y-85877400D03*
X76733400Y-84607400D03*
X76733400Y-83337400D03*
X76733400Y-82067400D03*
D15*
X73240900Y-51562000D03*
X73240900Y-54102000D03*
X73240900Y-56642000D03*
X73240900Y-59182000D03*
X73240900Y-61722000D03*
X73240900Y-64262000D03*
X73240900Y-66802000D03*
X73240900Y-69342000D03*
X96100900Y-69342000D03*
X96100900Y-66802000D03*
X96100900Y-64262000D03*
X96100900Y-61722000D03*
X96100900Y-59182000D03*
X96100900Y-56642000D03*
X96100900Y-54102000D03*
X96100900Y-51562000D03*
D18*
X104324400Y-52882800D03*
X108324400Y-52882800D03*
X104324400Y-56692800D03*
X108324400Y-56692800D03*
X104324400Y-49123600D03*
X108324400Y-49123600D03*
X104324400Y-60248800D03*
X108324400Y-60248800D03*
D19*
X60452000Y-81210400D03*
X60452000Y-85210400D03*
X60452000Y-69729600D03*
X60452000Y-73729600D03*
X54152800Y-73729600D03*
X54152800Y-69729600D03*
D20*
X63804800Y-44399200D03*
X63804800Y-45669200D03*
X65430400Y-56896000D03*
X66852800Y-58318400D03*
X54406800Y-66040000D03*
X53289200Y-67157600D03*
X56591200Y-76809600D03*
X57708800Y-78028800D03*
X81940400Y-59537600D03*
X68173600Y-86106000D03*
X58674000Y-66954400D03*
X68173600Y-82092800D03*
X79248000Y-84582000D03*
X63652400Y-48514000D03*
D21*
X63804800Y-44399200D02*
X63804800Y-45669200D01*
X65430400Y-56896000D02*
X66852800Y-58318400D01*
X54406800Y-66040000D02*
X53289200Y-67157600D01*
X56591200Y-76809600D02*
X57708800Y-77927200D01*
X57708800Y-77927200D02*
X57708800Y-78028800D01*
X70383400Y-85877400D02*
X68402200Y-85877400D01*
X68402200Y-85877400D02*
X68173600Y-86106000D01*
X60452000Y-69729600D02*
X60452000Y-68732400D01*
X60452000Y-68732400D02*
X58674000Y-66954400D01*
X70383400Y-82067400D02*
X68199000Y-82067400D01*
X68199000Y-82067400D02*
X68173600Y-82092800D01*
D22*
X50901600Y-57607200D02*
X50901600Y-52261400D01*
X50901600Y-52261400D02*
X48717200Y-50077000D01*
D23*
X60452000Y-85210400D02*
X60452000Y-86715600D01*
X60452000Y-86715600D02*
X59182000Y-87985600D01*
X96100900Y-69342000D02*
X97688400Y-69342000D01*
X97688400Y-69342000D02*
X99212400Y-67818000D01*
X99212400Y-67818000D02*
X99212400Y-63957200D01*
X99212400Y-63957200D02*
X100482400Y-62687200D01*
X100482400Y-62687200D02*
X107848400Y-62687200D01*
X107848400Y-62687200D02*
X108324400Y-62211200D01*
X108324400Y-62211200D02*
X108324400Y-60248800D01*
X108324400Y-56692800D02*
X108324400Y-60248800D01*
X108324400Y-52882800D02*
X108324400Y-56692800D01*
X108324400Y-49123600D02*
X108324400Y-52882800D01*
D22*
X96100900Y-69342000D02*
X96100900Y-81648300D01*
X96100900Y-81648300D02*
X89763600Y-87985600D01*
X89763600Y-87985600D02*
X59182000Y-87985600D01*
X47193200Y-51601000D02*
X48717200Y-50077000D01*
X59182000Y-87985600D02*
X55067200Y-87985600D01*
X55067200Y-87985600D02*
X47193200Y-80111600D01*
X47193200Y-80111600D02*
X47193200Y-51601000D01*
D23*
X96100900Y-59182000D02*
X98602800Y-59182000D01*
X101092000Y-56692800D02*
X104324400Y-56692800D01*
X98602800Y-59182000D02*
X101092000Y-56692800D01*
D21*
X76733400Y-83337400D02*
X89179400Y-83337400D01*
X94945200Y-59182000D02*
X96100900Y-59182000D01*
X92557600Y-61569600D02*
X94945200Y-59182000D01*
X92557600Y-79959200D02*
X92557600Y-61569600D01*
X89179400Y-83337400D02*
X92557600Y-79959200D01*
D23*
X79222600Y-84607400D02*
X76733400Y-84607400D01*
X79248000Y-84582000D02*
X79222600Y-84607400D01*
X104324400Y-49123600D02*
X100685600Y-49123600D01*
X87680800Y-56438800D02*
X73444100Y-56438800D01*
X94488000Y-49631600D02*
X87680800Y-56438800D01*
X100177600Y-49631600D02*
X94488000Y-49631600D01*
X100685600Y-49123600D02*
X100177600Y-49631600D01*
X73444100Y-56438800D02*
X73240900Y-56642000D01*
D22*
X51511200Y-35915600D02*
X48920400Y-35915600D01*
X47294800Y-44004600D02*
X48717200Y-45427000D01*
X47294800Y-37541200D02*
X47294800Y-44004600D01*
X48920400Y-35915600D02*
X47294800Y-37541200D01*
D23*
X67818000Y-61722000D02*
X73240900Y-61722000D01*
X63652400Y-57556400D02*
X67818000Y-61722000D01*
X63652400Y-48514000D02*
X63652400Y-57556400D01*
D21*
X70383400Y-84607400D02*
X64795400Y-84607400D01*
X61398400Y-81210400D02*
X60452000Y-81210400D01*
X64795400Y-84607400D02*
X61398400Y-81210400D01*
D24*
X54152800Y-73729600D02*
X54152800Y-78028800D01*
X57334400Y-81210400D02*
X60452000Y-81210400D01*
X54152800Y-78028800D02*
X57334400Y-81210400D01*
X51511200Y-38455600D02*
X51511200Y-42926000D01*
X52952400Y-73729600D02*
X54152800Y-73729600D01*
X50647600Y-71424800D02*
X52952400Y-73729600D01*
X50647600Y-67513200D02*
X50647600Y-71424800D01*
X54457600Y-63703200D02*
X50647600Y-67513200D01*
X54457600Y-45872400D02*
X54457600Y-63703200D01*
X51511200Y-42926000D02*
X54457600Y-45872400D01*
D21*
X70383400Y-83337400D02*
X66675000Y-83337400D01*
X60452000Y-77114400D02*
X60452000Y-73729600D01*
X66675000Y-83337400D02*
X60452000Y-77114400D01*
D24*
X60452000Y-73729600D02*
X58946800Y-73729600D01*
X56489600Y-71272400D02*
X56489600Y-67392800D01*
X58946800Y-73729600D02*
X56489600Y-71272400D01*
X54051200Y-38455600D02*
X54051200Y-42316400D01*
X54051200Y-42316400D02*
X56591200Y-44856400D01*
X56591200Y-44856400D02*
X56591200Y-67291200D01*
X56591200Y-67291200D02*
X56489600Y-67392800D01*
X56489600Y-67392800D02*
X54152800Y-69729600D01*
X54051200Y-69628000D02*
X54152800Y-69729600D01*
X61671200Y-38455600D02*
X61671200Y-62433200D01*
X95046800Y-51562000D02*
X96100900Y-51562000D01*
X87071200Y-59537600D02*
X95046800Y-51562000D01*
X87071200Y-75946000D02*
X87071200Y-59537600D01*
X85953600Y-77063600D02*
X87071200Y-75946000D01*
X69138800Y-77063600D02*
X85953600Y-77063600D01*
X65684400Y-73609200D02*
X69138800Y-77063600D01*
X65684400Y-66446400D02*
X65684400Y-73609200D01*
X61671200Y-62433200D02*
X65684400Y-66446400D01*
D23*
X61671200Y-35915600D02*
X63246000Y-35915600D01*
X70104000Y-59182000D02*
X73240900Y-59182000D01*
X65735200Y-54813200D02*
X70104000Y-59182000D01*
X65735200Y-38404800D02*
X65735200Y-54813200D01*
X63246000Y-35915600D02*
X65735200Y-38404800D01*
D24*
X96100900Y-54102000D02*
X95453200Y-54102000D01*
X95453200Y-54102000D02*
X89306400Y-60248800D01*
X89306400Y-60248800D02*
X89306400Y-77571600D01*
X89306400Y-77571600D02*
X87477600Y-79400400D01*
X87477600Y-79400400D02*
X68122800Y-79400400D01*
X68122800Y-79400400D02*
X63398400Y-74676000D01*
X63398400Y-74676000D02*
X63398400Y-67614800D01*
X63398400Y-67614800D02*
X59131200Y-63347600D01*
X59131200Y-63347600D02*
X59131200Y-38455600D01*
D23*
X96100900Y-56642000D02*
X97993200Y-56642000D01*
X101752400Y-52882800D02*
X104324400Y-52882800D01*
X97993200Y-56642000D02*
X101752400Y-52882800D01*
D21*
X96100900Y-56642000D02*
X95707200Y-56642000D01*
X95707200Y-56642000D02*
X91186000Y-61163200D01*
X91186000Y-61163200D02*
X91186000Y-79603600D01*
X91186000Y-79603600D02*
X88722200Y-82067400D01*
X88722200Y-82067400D02*
X76733400Y-82067400D01*
D23*
X96100900Y-61722000D02*
X99212400Y-61722000D01*
X100685600Y-60248800D02*
X104324400Y-60248800D01*
X99212400Y-61722000D02*
X100685600Y-60248800D01*
D21*
X96100900Y-61722000D02*
X94742000Y-61722000D01*
X88468200Y-85877400D02*
X76733400Y-85877400D01*
X93929200Y-80416400D02*
X88468200Y-85877400D01*
X93929200Y-62534800D02*
X93929200Y-80416400D01*
X94742000Y-61722000D02*
X93929200Y-62534800D01*
D25*
G36*
X111913600Y-89206000D02*
X89836999Y-89206000D01*
X90236214Y-89126591D01*
X90636877Y-88858877D01*
X96974177Y-82521577D01*
X97241891Y-82120914D01*
X97335900Y-81648300D01*
X97335900Y-75418950D01*
X100115800Y-75418950D01*
X100115800Y-76159509D01*
X100212473Y-76392898D01*
X100391101Y-76571527D01*
X100624490Y-76668200D01*
X101365050Y-76668200D01*
X101523800Y-76509450D01*
X101523800Y-75260200D01*
X101777800Y-75260200D01*
X101777800Y-76509450D01*
X101936550Y-76668200D01*
X102677110Y-76668200D01*
X102910499Y-76571527D01*
X103089127Y-76392898D01*
X103185800Y-76159509D01*
X103185800Y-75418950D01*
X106923000Y-75418950D01*
X106923000Y-76159509D01*
X107019673Y-76392898D01*
X107198301Y-76571527D01*
X107431690Y-76668200D01*
X108172250Y-76668200D01*
X108331000Y-76509450D01*
X108331000Y-75260200D01*
X108585000Y-75260200D01*
X108585000Y-76509450D01*
X108743750Y-76668200D01*
X109484310Y-76668200D01*
X109717699Y-76571527D01*
X109896327Y-76392898D01*
X109993000Y-76159509D01*
X109993000Y-75418950D01*
X109834250Y-75260200D01*
X108585000Y-75260200D01*
X108331000Y-75260200D01*
X107081750Y-75260200D01*
X106923000Y-75418950D01*
X103185800Y-75418950D01*
X103027050Y-75260200D01*
X101777800Y-75260200D01*
X101523800Y-75260200D01*
X100274550Y-75260200D01*
X100115800Y-75418950D01*
X97335900Y-75418950D01*
X97335900Y-72897191D01*
X100115535Y-72897191D01*
X100348732Y-73461571D01*
X100525892Y-73639041D01*
X100391101Y-73694873D01*
X100212473Y-73873502D01*
X100115800Y-74106891D01*
X100115800Y-74847450D01*
X100274550Y-75006200D01*
X101523800Y-75006200D01*
X101523800Y-74986200D01*
X101777800Y-74986200D01*
X101777800Y-75006200D01*
X103027050Y-75006200D01*
X103185800Y-74847450D01*
X103185800Y-74106891D01*
X103089127Y-73873502D01*
X102910499Y-73694873D01*
X102775806Y-73639081D01*
X102951351Y-73463843D01*
X103185533Y-72899870D01*
X103185535Y-72897191D01*
X106922735Y-72897191D01*
X107155932Y-73461571D01*
X107333092Y-73639041D01*
X107198301Y-73694873D01*
X107019673Y-73873502D01*
X106923000Y-74106891D01*
X106923000Y-74847450D01*
X107081750Y-75006200D01*
X108331000Y-75006200D01*
X108331000Y-74986200D01*
X108585000Y-74986200D01*
X108585000Y-75006200D01*
X109834250Y-75006200D01*
X109993000Y-74847450D01*
X109993000Y-74106891D01*
X109896327Y-73873502D01*
X109717699Y-73694873D01*
X109583006Y-73639081D01*
X109758551Y-73463843D01*
X109992733Y-72899870D01*
X109993265Y-72289209D01*
X109760068Y-71724829D01*
X109328643Y-71292649D01*
X108764670Y-71058467D01*
X108154009Y-71057935D01*
X107589629Y-71291132D01*
X107157449Y-71722557D01*
X106923267Y-72286530D01*
X106922735Y-72897191D01*
X103185535Y-72897191D01*
X103186065Y-72289209D01*
X102952868Y-71724829D01*
X102521443Y-71292649D01*
X101957470Y-71058467D01*
X101346809Y-71057935D01*
X100782429Y-71291132D01*
X100350249Y-71722557D01*
X100116067Y-72286530D01*
X100115535Y-72897191D01*
X97335900Y-72897191D01*
X97335900Y-70377000D01*
X97688395Y-70377000D01*
X97688400Y-70377001D01*
X98084477Y-70298215D01*
X98420256Y-70073856D01*
X99944253Y-68549858D01*
X99944256Y-68549856D01*
X100142374Y-68253350D01*
X100168615Y-68214078D01*
X100247400Y-67818000D01*
X100247400Y-64385912D01*
X100911111Y-63722200D01*
X107848395Y-63722200D01*
X107848400Y-63722201D01*
X108244477Y-63643415D01*
X108580256Y-63419056D01*
X109056253Y-62943058D01*
X109056256Y-62943056D01*
X109280615Y-62607277D01*
X109301039Y-62504600D01*
X109359401Y-62211200D01*
X109359400Y-62211195D01*
X109359400Y-61739654D01*
X109559717Y-61701962D01*
X109775841Y-61562890D01*
X109920831Y-61350690D01*
X109971840Y-61098800D01*
X109971840Y-59398800D01*
X109927562Y-59163483D01*
X109788490Y-58947359D01*
X109576290Y-58802369D01*
X109359400Y-58758448D01*
X109359400Y-58183654D01*
X109559717Y-58145962D01*
X109775841Y-58006890D01*
X109920831Y-57794690D01*
X109971840Y-57542800D01*
X109971840Y-55842800D01*
X109927562Y-55607483D01*
X109788490Y-55391359D01*
X109576290Y-55246369D01*
X109359400Y-55202448D01*
X109359400Y-54373654D01*
X109559717Y-54335962D01*
X109775841Y-54196890D01*
X109920831Y-53984690D01*
X109971840Y-53732800D01*
X109971840Y-52032800D01*
X109927562Y-51797483D01*
X109788490Y-51581359D01*
X109576290Y-51436369D01*
X109359400Y-51392448D01*
X109359400Y-50614454D01*
X109559717Y-50576762D01*
X109775841Y-50437690D01*
X109920831Y-50225490D01*
X109971840Y-49973600D01*
X109971840Y-48273600D01*
X109927562Y-48038283D01*
X109788490Y-47822159D01*
X109576290Y-47677169D01*
X109324400Y-47626160D01*
X107324400Y-47626160D01*
X107089083Y-47670438D01*
X106872959Y-47809510D01*
X106727969Y-48021710D01*
X106676960Y-48273600D01*
X106676960Y-49973600D01*
X106721238Y-50208917D01*
X106860310Y-50425041D01*
X107072510Y-50570031D01*
X107289400Y-50613952D01*
X107289400Y-51391946D01*
X107089083Y-51429638D01*
X106872959Y-51568710D01*
X106727969Y-51780910D01*
X106676960Y-52032800D01*
X106676960Y-53732800D01*
X106721238Y-53968117D01*
X106860310Y-54184241D01*
X107072510Y-54329231D01*
X107289400Y-54373152D01*
X107289400Y-55201946D01*
X107089083Y-55239638D01*
X106872959Y-55378710D01*
X106727969Y-55590910D01*
X106676960Y-55842800D01*
X106676960Y-57542800D01*
X106721238Y-57778117D01*
X106860310Y-57994241D01*
X107072510Y-58139231D01*
X107289400Y-58183152D01*
X107289400Y-58757946D01*
X107089083Y-58795638D01*
X106872959Y-58934710D01*
X106727969Y-59146910D01*
X106676960Y-59398800D01*
X106676960Y-61098800D01*
X106721238Y-61334117D01*
X106860310Y-61550241D01*
X107009532Y-61652200D01*
X105637049Y-61652200D01*
X105775841Y-61562890D01*
X105920831Y-61350690D01*
X105971840Y-61098800D01*
X105971840Y-59398800D01*
X105927562Y-59163483D01*
X105788490Y-58947359D01*
X105576290Y-58802369D01*
X105324400Y-58751360D01*
X103324400Y-58751360D01*
X103089083Y-58795638D01*
X102872959Y-58934710D01*
X102727969Y-59146910D01*
X102714423Y-59213800D01*
X100685600Y-59213800D01*
X100289522Y-59292585D01*
X100155029Y-59382451D01*
X99953744Y-59516944D01*
X99953742Y-59516947D01*
X98783688Y-60687000D01*
X97236630Y-60687000D01*
X97001718Y-60451677D01*
X97236806Y-60217000D01*
X98602795Y-60217000D01*
X98602800Y-60217001D01*
X98998877Y-60138215D01*
X99334656Y-59913856D01*
X101520711Y-57727800D01*
X102711770Y-57727800D01*
X102721238Y-57778117D01*
X102860310Y-57994241D01*
X103072510Y-58139231D01*
X103324400Y-58190240D01*
X105324400Y-58190240D01*
X105559717Y-58145962D01*
X105775841Y-58006890D01*
X105920831Y-57794690D01*
X105971840Y-57542800D01*
X105971840Y-55842800D01*
X105927562Y-55607483D01*
X105788490Y-55391359D01*
X105576290Y-55246369D01*
X105324400Y-55195360D01*
X103324400Y-55195360D01*
X103089083Y-55239638D01*
X102872959Y-55378710D01*
X102727969Y-55590910D01*
X102714423Y-55657800D01*
X101092000Y-55657800D01*
X100695922Y-55736585D01*
X100561429Y-55826451D01*
X100360144Y-55960944D01*
X100360142Y-55960947D01*
X98174088Y-58147000D01*
X97236630Y-58147000D01*
X97001718Y-57911677D01*
X97236806Y-57677000D01*
X97993195Y-57677000D01*
X97993200Y-57677001D01*
X98389277Y-57598215D01*
X98725056Y-57373856D01*
X102181111Y-53917800D01*
X102711770Y-53917800D01*
X102721238Y-53968117D01*
X102860310Y-54184241D01*
X103072510Y-54329231D01*
X103324400Y-54380240D01*
X105324400Y-54380240D01*
X105559717Y-54335962D01*
X105775841Y-54196890D01*
X105920831Y-53984690D01*
X105971840Y-53732800D01*
X105971840Y-52032800D01*
X105927562Y-51797483D01*
X105788490Y-51581359D01*
X105576290Y-51436369D01*
X105324400Y-51385360D01*
X103324400Y-51385360D01*
X103089083Y-51429638D01*
X102872959Y-51568710D01*
X102727969Y-51780910D01*
X102714423Y-51847800D01*
X101752405Y-51847800D01*
X101752400Y-51847799D01*
X101356323Y-51926585D01*
X101020544Y-52150944D01*
X101020542Y-52150947D01*
X97564488Y-55607000D01*
X97236630Y-55607000D01*
X97001718Y-55371677D01*
X97401451Y-54972643D01*
X97635633Y-54408670D01*
X97636165Y-53798009D01*
X97402968Y-53233629D01*
X97001718Y-52831677D01*
X97401451Y-52432643D01*
X97635633Y-51868670D01*
X97636165Y-51258009D01*
X97402968Y-50693629D01*
X97375986Y-50666600D01*
X100177595Y-50666600D01*
X100177600Y-50666601D01*
X100573677Y-50587815D01*
X100909456Y-50363456D01*
X101114312Y-50158600D01*
X102711770Y-50158600D01*
X102721238Y-50208917D01*
X102860310Y-50425041D01*
X103072510Y-50570031D01*
X103324400Y-50621040D01*
X105324400Y-50621040D01*
X105559717Y-50576762D01*
X105775841Y-50437690D01*
X105920831Y-50225490D01*
X105971840Y-49973600D01*
X105971840Y-48273600D01*
X105927562Y-48038283D01*
X105788490Y-47822159D01*
X105576290Y-47677169D01*
X105324400Y-47626160D01*
X103324400Y-47626160D01*
X103089083Y-47670438D01*
X102872959Y-47809510D01*
X102727969Y-48021710D01*
X102714423Y-48088600D01*
X100685600Y-48088600D01*
X100289523Y-48167385D01*
X99953744Y-48391744D01*
X99953742Y-48391747D01*
X99748889Y-48596600D01*
X94488005Y-48596600D01*
X94488000Y-48596599D01*
X94091923Y-48675385D01*
X93756144Y-48899744D01*
X93756142Y-48899747D01*
X87252088Y-55403800D01*
X74173785Y-55403800D01*
X74141718Y-55371677D01*
X74541451Y-54972643D01*
X74775633Y-54408670D01*
X74776165Y-53798009D01*
X74542968Y-53233629D01*
X74141718Y-52831677D01*
X74541451Y-52432643D01*
X74775633Y-51868670D01*
X74776165Y-51258009D01*
X74542968Y-50693629D01*
X74111543Y-50261449D01*
X73547570Y-50027267D01*
X72936909Y-50026735D01*
X72372529Y-50259932D01*
X71940349Y-50691357D01*
X71706167Y-51255330D01*
X71705635Y-51865991D01*
X71938832Y-52430371D01*
X72340082Y-52832323D01*
X71940349Y-53231357D01*
X71706167Y-53795330D01*
X71705635Y-54405991D01*
X71938832Y-54970371D01*
X72340082Y-55372323D01*
X71940349Y-55771357D01*
X71706167Y-56335330D01*
X71705635Y-56945991D01*
X71938832Y-57510371D01*
X72340082Y-57912323D01*
X72104994Y-58147000D01*
X70532711Y-58147000D01*
X66770200Y-54384488D01*
X66770200Y-38404800D01*
X66691415Y-38008723D01*
X66691415Y-38008722D01*
X66590854Y-37858222D01*
X66467056Y-37672944D01*
X66467053Y-37672942D01*
X63977856Y-35183744D01*
X63642077Y-34959385D01*
X63246000Y-34880599D01*
X63245995Y-34880600D01*
X62750752Y-34880600D01*
X62721254Y-34836453D01*
X62239485Y-34514546D01*
X61671200Y-34401507D01*
X61102915Y-34514546D01*
X60621146Y-34836453D01*
X60393498Y-35177153D01*
X60326383Y-35034242D01*
X59898124Y-34643955D01*
X59488090Y-34474124D01*
X59258200Y-34595445D01*
X59258200Y-35788600D01*
X59278200Y-35788600D01*
X59278200Y-36042600D01*
X59258200Y-36042600D01*
X59258200Y-36062600D01*
X59004200Y-36062600D01*
X59004200Y-36042600D01*
X56718200Y-36042600D01*
X56718200Y-36062600D01*
X56464200Y-36062600D01*
X56464200Y-36042600D01*
X56444200Y-36042600D01*
X56444200Y-35788600D01*
X56464200Y-35788600D01*
X56464200Y-34595445D01*
X56718200Y-34595445D01*
X56718200Y-35788600D01*
X59004200Y-35788600D01*
X59004200Y-34595445D01*
X58774310Y-34474124D01*
X58364276Y-34643955D01*
X57936017Y-35034242D01*
X57861200Y-35193554D01*
X57786383Y-35034242D01*
X57358124Y-34643955D01*
X56948090Y-34474124D01*
X56718200Y-34595445D01*
X56464200Y-34595445D01*
X56234310Y-34474124D01*
X55824276Y-34643955D01*
X55396017Y-35034242D01*
X55328902Y-35177153D01*
X55101254Y-34836453D01*
X54619485Y-34514546D01*
X54051200Y-34401507D01*
X53482915Y-34514546D01*
X53001146Y-34836453D01*
X52973350Y-34878052D01*
X52964362Y-34830283D01*
X52825290Y-34614159D01*
X52613090Y-34469169D01*
X52361200Y-34418160D01*
X50661200Y-34418160D01*
X50425883Y-34462438D01*
X50209759Y-34601510D01*
X50155719Y-34680600D01*
X48920400Y-34680600D01*
X48447786Y-34774609D01*
X48047123Y-35042323D01*
X46421523Y-36667923D01*
X46153809Y-37068586D01*
X46059800Y-37541200D01*
X46059800Y-44004600D01*
X46153809Y-44477214D01*
X46421523Y-44877877D01*
X46569760Y-45026114D01*
X46569760Y-46427000D01*
X46614038Y-46662317D01*
X46753110Y-46878441D01*
X46965310Y-47023431D01*
X47217200Y-47074440D01*
X50217200Y-47074440D01*
X50452517Y-47030162D01*
X50668641Y-46891090D01*
X50813631Y-46678890D01*
X50864640Y-46427000D01*
X50864640Y-44427000D01*
X50820362Y-44191683D01*
X50681290Y-43975559D01*
X50469090Y-43830569D01*
X50217200Y-43779560D01*
X48816314Y-43779560D01*
X48529800Y-43493046D01*
X48529800Y-38052754D01*
X49431954Y-37150600D01*
X50154356Y-37150600D01*
X50197110Y-37217041D01*
X50409310Y-37362031D01*
X50465654Y-37373441D01*
X50461146Y-37376453D01*
X50139239Y-37858222D01*
X50026200Y-38426507D01*
X50026200Y-38484693D01*
X50139239Y-39052978D01*
X50376200Y-39407616D01*
X50376200Y-42926000D01*
X50462597Y-43360346D01*
X50703846Y-43721400D01*
X50708634Y-43728566D01*
X53322600Y-46342532D01*
X53322600Y-63233068D01*
X49845034Y-66710634D01*
X49598997Y-67078854D01*
X49512600Y-67513200D01*
X49512600Y-71424800D01*
X49598997Y-71859146D01*
X49777596Y-72126438D01*
X49845034Y-72227366D01*
X52149834Y-74532166D01*
X52518054Y-74778203D01*
X52670200Y-74808467D01*
X52699638Y-74964917D01*
X52838710Y-75181041D01*
X53017800Y-75303408D01*
X53017800Y-78028800D01*
X53104197Y-78463146D01*
X53350234Y-78831366D01*
X56531834Y-82012966D01*
X56900054Y-82259003D01*
X57334400Y-82345400D01*
X58979962Y-82345400D01*
X58998838Y-82445717D01*
X59137910Y-82661841D01*
X59350110Y-82806831D01*
X59602000Y-82857840D01*
X61302000Y-82857840D01*
X61537317Y-82813562D01*
X61623692Y-82757982D01*
X64134255Y-85268545D01*
X64437591Y-85471227D01*
X64795400Y-85542400D01*
X69176900Y-85542400D01*
X69176900Y-85591650D01*
X69335650Y-85750400D01*
X70256400Y-85750400D01*
X70256400Y-85730400D01*
X70510400Y-85730400D01*
X70510400Y-85750400D01*
X71431150Y-85750400D01*
X71589900Y-85591650D01*
X71589900Y-85497091D01*
X71493227Y-85263702D01*
X71466691Y-85237165D01*
X71551331Y-85113290D01*
X71602340Y-84861400D01*
X71602340Y-84353400D01*
X71558062Y-84118083D01*
X71463734Y-83971493D01*
X71551331Y-83843290D01*
X71602340Y-83591400D01*
X71602340Y-83083400D01*
X71558062Y-82848083D01*
X71463734Y-82701493D01*
X71551331Y-82573290D01*
X71602340Y-82321400D01*
X71602340Y-81813400D01*
X71558062Y-81578083D01*
X71418990Y-81361959D01*
X71206790Y-81216969D01*
X70954900Y-81165960D01*
X70552117Y-81165960D01*
X70383400Y-81132400D01*
X68959906Y-81132400D01*
X68874085Y-81046429D01*
X68420334Y-80858015D01*
X67929021Y-80857586D01*
X67474943Y-81045208D01*
X67127229Y-81392315D01*
X66938815Y-81846066D01*
X66938437Y-82278547D01*
X61387000Y-76727110D01*
X61387000Y-75361046D01*
X61537317Y-75332762D01*
X61753441Y-75193690D01*
X61898431Y-74981490D01*
X61949440Y-74729600D01*
X61949440Y-72729600D01*
X61905162Y-72494283D01*
X61766090Y-72278159D01*
X61553890Y-72133169D01*
X61302000Y-72082160D01*
X59602000Y-72082160D01*
X59366683Y-72126438D01*
X59150559Y-72265510D01*
X59125101Y-72302769D01*
X57624600Y-70802268D01*
X57624600Y-70015350D01*
X58967000Y-70015350D01*
X58967000Y-70855909D01*
X59063673Y-71089298D01*
X59242301Y-71267927D01*
X59475690Y-71364600D01*
X60166250Y-71364600D01*
X60325000Y-71205850D01*
X60325000Y-69856600D01*
X60579000Y-69856600D01*
X60579000Y-71205850D01*
X60737750Y-71364600D01*
X61428310Y-71364600D01*
X61661699Y-71267927D01*
X61840327Y-71089298D01*
X61937000Y-70855909D01*
X61937000Y-70015350D01*
X61778250Y-69856600D01*
X60579000Y-69856600D01*
X60325000Y-69856600D01*
X59125750Y-69856600D01*
X58967000Y-70015350D01*
X57624600Y-70015350D01*
X57624600Y-68603291D01*
X58967000Y-68603291D01*
X58967000Y-69443850D01*
X59125750Y-69602600D01*
X60325000Y-69602600D01*
X60325000Y-68253350D01*
X60579000Y-68253350D01*
X60579000Y-69602600D01*
X61778250Y-69602600D01*
X61937000Y-69443850D01*
X61937000Y-68603291D01*
X61840327Y-68369902D01*
X61661699Y-68191273D01*
X61428310Y-68094600D01*
X60737750Y-68094600D01*
X60579000Y-68253350D01*
X60325000Y-68253350D01*
X60166250Y-68094600D01*
X59475690Y-68094600D01*
X59242301Y-68191273D01*
X59063673Y-68369902D01*
X58967000Y-68603291D01*
X57624600Y-68603291D01*
X57624600Y-67748299D01*
X57639803Y-67725546D01*
X57726200Y-67291200D01*
X57726200Y-44856400D01*
X57639803Y-44422054D01*
X57485874Y-44191683D01*
X57393766Y-44053833D01*
X55186200Y-41846268D01*
X55186200Y-39407616D01*
X55321200Y-39205574D01*
X55541146Y-39534747D01*
X56022915Y-39856654D01*
X56591200Y-39969693D01*
X57159485Y-39856654D01*
X57641254Y-39534747D01*
X57861200Y-39205574D01*
X57996200Y-39407616D01*
X57996200Y-63347600D01*
X58082597Y-63781946D01*
X58198449Y-63955330D01*
X58328634Y-64150166D01*
X62263400Y-68084932D01*
X62263400Y-74676000D01*
X62349797Y-75110346D01*
X62556000Y-75418950D01*
X62595834Y-75478566D01*
X67320234Y-80202967D01*
X67688455Y-80449004D01*
X68122800Y-80535400D01*
X87477600Y-80535400D01*
X87911946Y-80449003D01*
X88280166Y-80202966D01*
X90108966Y-78374166D01*
X90251000Y-78161597D01*
X90251000Y-79216310D01*
X88334910Y-81132400D01*
X76733400Y-81132400D01*
X76564683Y-81165960D01*
X76161900Y-81165960D01*
X75926583Y-81210238D01*
X75710459Y-81349310D01*
X75565469Y-81561510D01*
X75514460Y-81813400D01*
X75514460Y-82321400D01*
X75558738Y-82556717D01*
X75653066Y-82703307D01*
X75565469Y-82831510D01*
X75514460Y-83083400D01*
X75514460Y-83591400D01*
X75558738Y-83826717D01*
X75653066Y-83973307D01*
X75565469Y-84101510D01*
X75514460Y-84353400D01*
X75514460Y-84861400D01*
X75558738Y-85096717D01*
X75653066Y-85243307D01*
X75565469Y-85371510D01*
X75514460Y-85623400D01*
X75514460Y-86131400D01*
X75558738Y-86366717D01*
X75697810Y-86582841D01*
X75910010Y-86727831D01*
X76022447Y-86750600D01*
X71119355Y-86750600D01*
X71314599Y-86669727D01*
X71493227Y-86491098D01*
X71589900Y-86257709D01*
X71589900Y-86163150D01*
X71431150Y-86004400D01*
X70510400Y-86004400D01*
X70510400Y-86024400D01*
X70256400Y-86024400D01*
X70256400Y-86004400D01*
X69335650Y-86004400D01*
X69176900Y-86163150D01*
X69176900Y-86257709D01*
X69273573Y-86491098D01*
X69452201Y-86669727D01*
X69647445Y-86750600D01*
X61635163Y-86750600D01*
X61753441Y-86674490D01*
X61898431Y-86462290D01*
X61949440Y-86210400D01*
X61949440Y-84210400D01*
X61905162Y-83975083D01*
X61766090Y-83758959D01*
X61553890Y-83613969D01*
X61302000Y-83562960D01*
X59602000Y-83562960D01*
X59366683Y-83607238D01*
X59150559Y-83746310D01*
X59005569Y-83958510D01*
X58954560Y-84210400D01*
X58954560Y-86210400D01*
X58998838Y-86445717D01*
X59100376Y-86603512D01*
X58953288Y-86750600D01*
X55578754Y-86750600D01*
X48428200Y-79600046D01*
X48428200Y-52112554D01*
X48717200Y-51823554D01*
X49666600Y-52772954D01*
X49666600Y-56530542D01*
X49516754Y-56680127D01*
X49267394Y-57280653D01*
X49266826Y-57930894D01*
X49515138Y-58531855D01*
X49974527Y-58992046D01*
X50575053Y-59241406D01*
X51225294Y-59241974D01*
X51826255Y-58993662D01*
X52286446Y-58534273D01*
X52535806Y-57933747D01*
X52536374Y-57283506D01*
X52288062Y-56682545D01*
X52136600Y-56530819D01*
X52136600Y-52261400D01*
X52042591Y-51788786D01*
X51774877Y-51388123D01*
X50864640Y-50477886D01*
X50864640Y-49077000D01*
X50820362Y-48841683D01*
X50681290Y-48625559D01*
X50469090Y-48480569D01*
X50217200Y-48429560D01*
X47217200Y-48429560D01*
X46981883Y-48473838D01*
X46765759Y-48612910D01*
X46620769Y-48825110D01*
X46569760Y-49077000D01*
X46569760Y-50477886D01*
X46319923Y-50727723D01*
X46052209Y-51128386D01*
X45958200Y-51601000D01*
X45958200Y-80111600D01*
X46052209Y-80584214D01*
X46319923Y-80984877D01*
X54193923Y-88858877D01*
X54594586Y-89126591D01*
X54993801Y-89206000D01*
X45769600Y-89206000D01*
X45769600Y-32053600D01*
X111913600Y-32053600D01*
X111913600Y-89206000D01*
X111913600Y-89206000D01*
G37*
X111913600Y-89206000D02*
X89836999Y-89206000D01*
X90236214Y-89126591D01*
X90636877Y-88858877D01*
X96974177Y-82521577D01*
X97241891Y-82120914D01*
X97335900Y-81648300D01*
X97335900Y-75418950D01*
X100115800Y-75418950D01*
X100115800Y-76159509D01*
X100212473Y-76392898D01*
X100391101Y-76571527D01*
X100624490Y-76668200D01*
X101365050Y-76668200D01*
X101523800Y-76509450D01*
X101523800Y-75260200D01*
X101777800Y-75260200D01*
X101777800Y-76509450D01*
X101936550Y-76668200D01*
X102677110Y-76668200D01*
X102910499Y-76571527D01*
X103089127Y-76392898D01*
X103185800Y-76159509D01*
X103185800Y-75418950D01*
X106923000Y-75418950D01*
X106923000Y-76159509D01*
X107019673Y-76392898D01*
X107198301Y-76571527D01*
X107431690Y-76668200D01*
X108172250Y-76668200D01*
X108331000Y-76509450D01*
X108331000Y-75260200D01*
X108585000Y-75260200D01*
X108585000Y-76509450D01*
X108743750Y-76668200D01*
X109484310Y-76668200D01*
X109717699Y-76571527D01*
X109896327Y-76392898D01*
X109993000Y-76159509D01*
X109993000Y-75418950D01*
X109834250Y-75260200D01*
X108585000Y-75260200D01*
X108331000Y-75260200D01*
X107081750Y-75260200D01*
X106923000Y-75418950D01*
X103185800Y-75418950D01*
X103027050Y-75260200D01*
X101777800Y-75260200D01*
X101523800Y-75260200D01*
X100274550Y-75260200D01*
X100115800Y-75418950D01*
X97335900Y-75418950D01*
X97335900Y-72897191D01*
X100115535Y-72897191D01*
X100348732Y-73461571D01*
X100525892Y-73639041D01*
X100391101Y-73694873D01*
X100212473Y-73873502D01*
X100115800Y-74106891D01*
X100115800Y-74847450D01*
X100274550Y-75006200D01*
X101523800Y-75006200D01*
X101523800Y-74986200D01*
X101777800Y-74986200D01*
X101777800Y-75006200D01*
X103027050Y-75006200D01*
X103185800Y-74847450D01*
X103185800Y-74106891D01*
X103089127Y-73873502D01*
X102910499Y-73694873D01*
X102775806Y-73639081D01*
X102951351Y-73463843D01*
X103185533Y-72899870D01*
X103185535Y-72897191D01*
X106922735Y-72897191D01*
X107155932Y-73461571D01*
X107333092Y-73639041D01*
X107198301Y-73694873D01*
X107019673Y-73873502D01*
X106923000Y-74106891D01*
X106923000Y-74847450D01*
X107081750Y-75006200D01*
X108331000Y-75006200D01*
X108331000Y-74986200D01*
X108585000Y-74986200D01*
X108585000Y-75006200D01*
X109834250Y-75006200D01*
X109993000Y-74847450D01*
X109993000Y-74106891D01*
X109896327Y-73873502D01*
X109717699Y-73694873D01*
X109583006Y-73639081D01*
X109758551Y-73463843D01*
X109992733Y-72899870D01*
X109993265Y-72289209D01*
X109760068Y-71724829D01*
X109328643Y-71292649D01*
X108764670Y-71058467D01*
X108154009Y-71057935D01*
X107589629Y-71291132D01*
X107157449Y-71722557D01*
X106923267Y-72286530D01*
X106922735Y-72897191D01*
X103185535Y-72897191D01*
X103186065Y-72289209D01*
X102952868Y-71724829D01*
X102521443Y-71292649D01*
X101957470Y-71058467D01*
X101346809Y-71057935D01*
X100782429Y-71291132D01*
X100350249Y-71722557D01*
X100116067Y-72286530D01*
X100115535Y-72897191D01*
X97335900Y-72897191D01*
X97335900Y-70377000D01*
X97688395Y-70377000D01*
X97688400Y-70377001D01*
X98084477Y-70298215D01*
X98420256Y-70073856D01*
X99944253Y-68549858D01*
X99944256Y-68549856D01*
X100142374Y-68253350D01*
X100168615Y-68214078D01*
X100247400Y-67818000D01*
X100247400Y-64385912D01*
X100911111Y-63722200D01*
X107848395Y-63722200D01*
X107848400Y-63722201D01*
X108244477Y-63643415D01*
X108580256Y-63419056D01*
X109056253Y-62943058D01*
X109056256Y-62943056D01*
X109280615Y-62607277D01*
X109301039Y-62504600D01*
X109359401Y-62211200D01*
X109359400Y-62211195D01*
X109359400Y-61739654D01*
X109559717Y-61701962D01*
X109775841Y-61562890D01*
X109920831Y-61350690D01*
X109971840Y-61098800D01*
X109971840Y-59398800D01*
X109927562Y-59163483D01*
X109788490Y-58947359D01*
X109576290Y-58802369D01*
X109359400Y-58758448D01*
X109359400Y-58183654D01*
X109559717Y-58145962D01*
X109775841Y-58006890D01*
X109920831Y-57794690D01*
X109971840Y-57542800D01*
X109971840Y-55842800D01*
X109927562Y-55607483D01*
X109788490Y-55391359D01*
X109576290Y-55246369D01*
X109359400Y-55202448D01*
X109359400Y-54373654D01*
X109559717Y-54335962D01*
X109775841Y-54196890D01*
X109920831Y-53984690D01*
X109971840Y-53732800D01*
X109971840Y-52032800D01*
X109927562Y-51797483D01*
X109788490Y-51581359D01*
X109576290Y-51436369D01*
X109359400Y-51392448D01*
X109359400Y-50614454D01*
X109559717Y-50576762D01*
X109775841Y-50437690D01*
X109920831Y-50225490D01*
X109971840Y-49973600D01*
X109971840Y-48273600D01*
X109927562Y-48038283D01*
X109788490Y-47822159D01*
X109576290Y-47677169D01*
X109324400Y-47626160D01*
X107324400Y-47626160D01*
X107089083Y-47670438D01*
X106872959Y-47809510D01*
X106727969Y-48021710D01*
X106676960Y-48273600D01*
X106676960Y-49973600D01*
X106721238Y-50208917D01*
X106860310Y-50425041D01*
X107072510Y-50570031D01*
X107289400Y-50613952D01*
X107289400Y-51391946D01*
X107089083Y-51429638D01*
X106872959Y-51568710D01*
X106727969Y-51780910D01*
X106676960Y-52032800D01*
X106676960Y-53732800D01*
X106721238Y-53968117D01*
X106860310Y-54184241D01*
X107072510Y-54329231D01*
X107289400Y-54373152D01*
X107289400Y-55201946D01*
X107089083Y-55239638D01*
X106872959Y-55378710D01*
X106727969Y-55590910D01*
X106676960Y-55842800D01*
X106676960Y-57542800D01*
X106721238Y-57778117D01*
X106860310Y-57994241D01*
X107072510Y-58139231D01*
X107289400Y-58183152D01*
X107289400Y-58757946D01*
X107089083Y-58795638D01*
X106872959Y-58934710D01*
X106727969Y-59146910D01*
X106676960Y-59398800D01*
X106676960Y-61098800D01*
X106721238Y-61334117D01*
X106860310Y-61550241D01*
X107009532Y-61652200D01*
X105637049Y-61652200D01*
X105775841Y-61562890D01*
X105920831Y-61350690D01*
X105971840Y-61098800D01*
X105971840Y-59398800D01*
X105927562Y-59163483D01*
X105788490Y-58947359D01*
X105576290Y-58802369D01*
X105324400Y-58751360D01*
X103324400Y-58751360D01*
X103089083Y-58795638D01*
X102872959Y-58934710D01*
X102727969Y-59146910D01*
X102714423Y-59213800D01*
X100685600Y-59213800D01*
X100289522Y-59292585D01*
X100155029Y-59382451D01*
X99953744Y-59516944D01*
X99953742Y-59516947D01*
X98783688Y-60687000D01*
X97236630Y-60687000D01*
X97001718Y-60451677D01*
X97236806Y-60217000D01*
X98602795Y-60217000D01*
X98602800Y-60217001D01*
X98998877Y-60138215D01*
X99334656Y-59913856D01*
X101520711Y-57727800D01*
X102711770Y-57727800D01*
X102721238Y-57778117D01*
X102860310Y-57994241D01*
X103072510Y-58139231D01*
X103324400Y-58190240D01*
X105324400Y-58190240D01*
X105559717Y-58145962D01*
X105775841Y-58006890D01*
X105920831Y-57794690D01*
X105971840Y-57542800D01*
X105971840Y-55842800D01*
X105927562Y-55607483D01*
X105788490Y-55391359D01*
X105576290Y-55246369D01*
X105324400Y-55195360D01*
X103324400Y-55195360D01*
X103089083Y-55239638D01*
X102872959Y-55378710D01*
X102727969Y-55590910D01*
X102714423Y-55657800D01*
X101092000Y-55657800D01*
X100695922Y-55736585D01*
X100561429Y-55826451D01*
X100360144Y-55960944D01*
X100360142Y-55960947D01*
X98174088Y-58147000D01*
X97236630Y-58147000D01*
X97001718Y-57911677D01*
X97236806Y-57677000D01*
X97993195Y-57677000D01*
X97993200Y-57677001D01*
X98389277Y-57598215D01*
X98725056Y-57373856D01*
X102181111Y-53917800D01*
X102711770Y-53917800D01*
X102721238Y-53968117D01*
X102860310Y-54184241D01*
X103072510Y-54329231D01*
X103324400Y-54380240D01*
X105324400Y-54380240D01*
X105559717Y-54335962D01*
X105775841Y-54196890D01*
X105920831Y-53984690D01*
X105971840Y-53732800D01*
X105971840Y-52032800D01*
X105927562Y-51797483D01*
X105788490Y-51581359D01*
X105576290Y-51436369D01*
X105324400Y-51385360D01*
X103324400Y-51385360D01*
X103089083Y-51429638D01*
X102872959Y-51568710D01*
X102727969Y-51780910D01*
X102714423Y-51847800D01*
X101752405Y-51847800D01*
X101752400Y-51847799D01*
X101356323Y-51926585D01*
X101020544Y-52150944D01*
X101020542Y-52150947D01*
X97564488Y-55607000D01*
X97236630Y-55607000D01*
X97001718Y-55371677D01*
X97401451Y-54972643D01*
X97635633Y-54408670D01*
X97636165Y-53798009D01*
X97402968Y-53233629D01*
X97001718Y-52831677D01*
X97401451Y-52432643D01*
X97635633Y-51868670D01*
X97636165Y-51258009D01*
X97402968Y-50693629D01*
X97375986Y-50666600D01*
X100177595Y-50666600D01*
X100177600Y-50666601D01*
X100573677Y-50587815D01*
X100909456Y-50363456D01*
X101114312Y-50158600D01*
X102711770Y-50158600D01*
X102721238Y-50208917D01*
X102860310Y-50425041D01*
X103072510Y-50570031D01*
X103324400Y-50621040D01*
X105324400Y-50621040D01*
X105559717Y-50576762D01*
X105775841Y-50437690D01*
X105920831Y-50225490D01*
X105971840Y-49973600D01*
X105971840Y-48273600D01*
X105927562Y-48038283D01*
X105788490Y-47822159D01*
X105576290Y-47677169D01*
X105324400Y-47626160D01*
X103324400Y-47626160D01*
X103089083Y-47670438D01*
X102872959Y-47809510D01*
X102727969Y-48021710D01*
X102714423Y-48088600D01*
X100685600Y-48088600D01*
X100289523Y-48167385D01*
X99953744Y-48391744D01*
X99953742Y-48391747D01*
X99748889Y-48596600D01*
X94488005Y-48596600D01*
X94488000Y-48596599D01*
X94091923Y-48675385D01*
X93756144Y-48899744D01*
X93756142Y-48899747D01*
X87252088Y-55403800D01*
X74173785Y-55403800D01*
X74141718Y-55371677D01*
X74541451Y-54972643D01*
X74775633Y-54408670D01*
X74776165Y-53798009D01*
X74542968Y-53233629D01*
X74141718Y-52831677D01*
X74541451Y-52432643D01*
X74775633Y-51868670D01*
X74776165Y-51258009D01*
X74542968Y-50693629D01*
X74111543Y-50261449D01*
X73547570Y-50027267D01*
X72936909Y-50026735D01*
X72372529Y-50259932D01*
X71940349Y-50691357D01*
X71706167Y-51255330D01*
X71705635Y-51865991D01*
X71938832Y-52430371D01*
X72340082Y-52832323D01*
X71940349Y-53231357D01*
X71706167Y-53795330D01*
X71705635Y-54405991D01*
X71938832Y-54970371D01*
X72340082Y-55372323D01*
X71940349Y-55771357D01*
X71706167Y-56335330D01*
X71705635Y-56945991D01*
X71938832Y-57510371D01*
X72340082Y-57912323D01*
X72104994Y-58147000D01*
X70532711Y-58147000D01*
X66770200Y-54384488D01*
X66770200Y-38404800D01*
X66691415Y-38008723D01*
X66691415Y-38008722D01*
X66590854Y-37858222D01*
X66467056Y-37672944D01*
X66467053Y-37672942D01*
X63977856Y-35183744D01*
X63642077Y-34959385D01*
X63246000Y-34880599D01*
X63245995Y-34880600D01*
X62750752Y-34880600D01*
X62721254Y-34836453D01*
X62239485Y-34514546D01*
X61671200Y-34401507D01*
X61102915Y-34514546D01*
X60621146Y-34836453D01*
X60393498Y-35177153D01*
X60326383Y-35034242D01*
X59898124Y-34643955D01*
X59488090Y-34474124D01*
X59258200Y-34595445D01*
X59258200Y-35788600D01*
X59278200Y-35788600D01*
X59278200Y-36042600D01*
X59258200Y-36042600D01*
X59258200Y-36062600D01*
X59004200Y-36062600D01*
X59004200Y-36042600D01*
X56718200Y-36042600D01*
X56718200Y-36062600D01*
X56464200Y-36062600D01*
X56464200Y-36042600D01*
X56444200Y-36042600D01*
X56444200Y-35788600D01*
X56464200Y-35788600D01*
X56464200Y-34595445D01*
X56718200Y-34595445D01*
X56718200Y-35788600D01*
X59004200Y-35788600D01*
X59004200Y-34595445D01*
X58774310Y-34474124D01*
X58364276Y-34643955D01*
X57936017Y-35034242D01*
X57861200Y-35193554D01*
X57786383Y-35034242D01*
X57358124Y-34643955D01*
X56948090Y-34474124D01*
X56718200Y-34595445D01*
X56464200Y-34595445D01*
X56234310Y-34474124D01*
X55824276Y-34643955D01*
X55396017Y-35034242D01*
X55328902Y-35177153D01*
X55101254Y-34836453D01*
X54619485Y-34514546D01*
X54051200Y-34401507D01*
X53482915Y-34514546D01*
X53001146Y-34836453D01*
X52973350Y-34878052D01*
X52964362Y-34830283D01*
X52825290Y-34614159D01*
X52613090Y-34469169D01*
X52361200Y-34418160D01*
X50661200Y-34418160D01*
X50425883Y-34462438D01*
X50209759Y-34601510D01*
X50155719Y-34680600D01*
X48920400Y-34680600D01*
X48447786Y-34774609D01*
X48047123Y-35042323D01*
X46421523Y-36667923D01*
X46153809Y-37068586D01*
X46059800Y-37541200D01*
X46059800Y-44004600D01*
X46153809Y-44477214D01*
X46421523Y-44877877D01*
X46569760Y-45026114D01*
X46569760Y-46427000D01*
X46614038Y-46662317D01*
X46753110Y-46878441D01*
X46965310Y-47023431D01*
X47217200Y-47074440D01*
X50217200Y-47074440D01*
X50452517Y-47030162D01*
X50668641Y-46891090D01*
X50813631Y-46678890D01*
X50864640Y-46427000D01*
X50864640Y-44427000D01*
X50820362Y-44191683D01*
X50681290Y-43975559D01*
X50469090Y-43830569D01*
X50217200Y-43779560D01*
X48816314Y-43779560D01*
X48529800Y-43493046D01*
X48529800Y-38052754D01*
X49431954Y-37150600D01*
X50154356Y-37150600D01*
X50197110Y-37217041D01*
X50409310Y-37362031D01*
X50465654Y-37373441D01*
X50461146Y-37376453D01*
X50139239Y-37858222D01*
X50026200Y-38426507D01*
X50026200Y-38484693D01*
X50139239Y-39052978D01*
X50376200Y-39407616D01*
X50376200Y-42926000D01*
X50462597Y-43360346D01*
X50703846Y-43721400D01*
X50708634Y-43728566D01*
X53322600Y-46342532D01*
X53322600Y-63233068D01*
X49845034Y-66710634D01*
X49598997Y-67078854D01*
X49512600Y-67513200D01*
X49512600Y-71424800D01*
X49598997Y-71859146D01*
X49777596Y-72126438D01*
X49845034Y-72227366D01*
X52149834Y-74532166D01*
X52518054Y-74778203D01*
X52670200Y-74808467D01*
X52699638Y-74964917D01*
X52838710Y-75181041D01*
X53017800Y-75303408D01*
X53017800Y-78028800D01*
X53104197Y-78463146D01*
X53350234Y-78831366D01*
X56531834Y-82012966D01*
X56900054Y-82259003D01*
X57334400Y-82345400D01*
X58979962Y-82345400D01*
X58998838Y-82445717D01*
X59137910Y-82661841D01*
X59350110Y-82806831D01*
X59602000Y-82857840D01*
X61302000Y-82857840D01*
X61537317Y-82813562D01*
X61623692Y-82757982D01*
X64134255Y-85268545D01*
X64437591Y-85471227D01*
X64795400Y-85542400D01*
X69176900Y-85542400D01*
X69176900Y-85591650D01*
X69335650Y-85750400D01*
X70256400Y-85750400D01*
X70256400Y-85730400D01*
X70510400Y-85730400D01*
X70510400Y-85750400D01*
X71431150Y-85750400D01*
X71589900Y-85591650D01*
X71589900Y-85497091D01*
X71493227Y-85263702D01*
X71466691Y-85237165D01*
X71551331Y-85113290D01*
X71602340Y-84861400D01*
X71602340Y-84353400D01*
X71558062Y-84118083D01*
X71463734Y-83971493D01*
X71551331Y-83843290D01*
X71602340Y-83591400D01*
X71602340Y-83083400D01*
X71558062Y-82848083D01*
X71463734Y-82701493D01*
X71551331Y-82573290D01*
X71602340Y-82321400D01*
X71602340Y-81813400D01*
X71558062Y-81578083D01*
X71418990Y-81361959D01*
X71206790Y-81216969D01*
X70954900Y-81165960D01*
X70552117Y-81165960D01*
X70383400Y-81132400D01*
X68959906Y-81132400D01*
X68874085Y-81046429D01*
X68420334Y-80858015D01*
X67929021Y-80857586D01*
X67474943Y-81045208D01*
X67127229Y-81392315D01*
X66938815Y-81846066D01*
X66938437Y-82278547D01*
X61387000Y-76727110D01*
X61387000Y-75361046D01*
X61537317Y-75332762D01*
X61753441Y-75193690D01*
X61898431Y-74981490D01*
X61949440Y-74729600D01*
X61949440Y-72729600D01*
X61905162Y-72494283D01*
X61766090Y-72278159D01*
X61553890Y-72133169D01*
X61302000Y-72082160D01*
X59602000Y-72082160D01*
X59366683Y-72126438D01*
X59150559Y-72265510D01*
X59125101Y-72302769D01*
X57624600Y-70802268D01*
X57624600Y-70015350D01*
X58967000Y-70015350D01*
X58967000Y-70855909D01*
X59063673Y-71089298D01*
X59242301Y-71267927D01*
X59475690Y-71364600D01*
X60166250Y-71364600D01*
X60325000Y-71205850D01*
X60325000Y-69856600D01*
X60579000Y-69856600D01*
X60579000Y-71205850D01*
X60737750Y-71364600D01*
X61428310Y-71364600D01*
X61661699Y-71267927D01*
X61840327Y-71089298D01*
X61937000Y-70855909D01*
X61937000Y-70015350D01*
X61778250Y-69856600D01*
X60579000Y-69856600D01*
X60325000Y-69856600D01*
X59125750Y-69856600D01*
X58967000Y-70015350D01*
X57624600Y-70015350D01*
X57624600Y-68603291D01*
X58967000Y-68603291D01*
X58967000Y-69443850D01*
X59125750Y-69602600D01*
X60325000Y-69602600D01*
X60325000Y-68253350D01*
X60579000Y-68253350D01*
X60579000Y-69602600D01*
X61778250Y-69602600D01*
X61937000Y-69443850D01*
X61937000Y-68603291D01*
X61840327Y-68369902D01*
X61661699Y-68191273D01*
X61428310Y-68094600D01*
X60737750Y-68094600D01*
X60579000Y-68253350D01*
X60325000Y-68253350D01*
X60166250Y-68094600D01*
X59475690Y-68094600D01*
X59242301Y-68191273D01*
X59063673Y-68369902D01*
X58967000Y-68603291D01*
X57624600Y-68603291D01*
X57624600Y-67748299D01*
X57639803Y-67725546D01*
X57726200Y-67291200D01*
X57726200Y-44856400D01*
X57639803Y-44422054D01*
X57485874Y-44191683D01*
X57393766Y-44053833D01*
X55186200Y-41846268D01*
X55186200Y-39407616D01*
X55321200Y-39205574D01*
X55541146Y-39534747D01*
X56022915Y-39856654D01*
X56591200Y-39969693D01*
X57159485Y-39856654D01*
X57641254Y-39534747D01*
X57861200Y-39205574D01*
X57996200Y-39407616D01*
X57996200Y-63347600D01*
X58082597Y-63781946D01*
X58198449Y-63955330D01*
X58328634Y-64150166D01*
X62263400Y-68084932D01*
X62263400Y-74676000D01*
X62349797Y-75110346D01*
X62556000Y-75418950D01*
X62595834Y-75478566D01*
X67320234Y-80202967D01*
X67688455Y-80449004D01*
X68122800Y-80535400D01*
X87477600Y-80535400D01*
X87911946Y-80449003D01*
X88280166Y-80202966D01*
X90108966Y-78374166D01*
X90251000Y-78161597D01*
X90251000Y-79216310D01*
X88334910Y-81132400D01*
X76733400Y-81132400D01*
X76564683Y-81165960D01*
X76161900Y-81165960D01*
X75926583Y-81210238D01*
X75710459Y-81349310D01*
X75565469Y-81561510D01*
X75514460Y-81813400D01*
X75514460Y-82321400D01*
X75558738Y-82556717D01*
X75653066Y-82703307D01*
X75565469Y-82831510D01*
X75514460Y-83083400D01*
X75514460Y-83591400D01*
X75558738Y-83826717D01*
X75653066Y-83973307D01*
X75565469Y-84101510D01*
X75514460Y-84353400D01*
X75514460Y-84861400D01*
X75558738Y-85096717D01*
X75653066Y-85243307D01*
X75565469Y-85371510D01*
X75514460Y-85623400D01*
X75514460Y-86131400D01*
X75558738Y-86366717D01*
X75697810Y-86582841D01*
X75910010Y-86727831D01*
X76022447Y-86750600D01*
X71119355Y-86750600D01*
X71314599Y-86669727D01*
X71493227Y-86491098D01*
X71589900Y-86257709D01*
X71589900Y-86163150D01*
X71431150Y-86004400D01*
X70510400Y-86004400D01*
X70510400Y-86024400D01*
X70256400Y-86024400D01*
X70256400Y-86004400D01*
X69335650Y-86004400D01*
X69176900Y-86163150D01*
X69176900Y-86257709D01*
X69273573Y-86491098D01*
X69452201Y-86669727D01*
X69647445Y-86750600D01*
X61635163Y-86750600D01*
X61753441Y-86674490D01*
X61898431Y-86462290D01*
X61949440Y-86210400D01*
X61949440Y-84210400D01*
X61905162Y-83975083D01*
X61766090Y-83758959D01*
X61553890Y-83613969D01*
X61302000Y-83562960D01*
X59602000Y-83562960D01*
X59366683Y-83607238D01*
X59150559Y-83746310D01*
X59005569Y-83958510D01*
X58954560Y-84210400D01*
X58954560Y-86210400D01*
X58998838Y-86445717D01*
X59100376Y-86603512D01*
X58953288Y-86750600D01*
X55578754Y-86750600D01*
X48428200Y-79600046D01*
X48428200Y-52112554D01*
X48717200Y-51823554D01*
X49666600Y-52772954D01*
X49666600Y-56530542D01*
X49516754Y-56680127D01*
X49267394Y-57280653D01*
X49266826Y-57930894D01*
X49515138Y-58531855D01*
X49974527Y-58992046D01*
X50575053Y-59241406D01*
X51225294Y-59241974D01*
X51826255Y-58993662D01*
X52286446Y-58534273D01*
X52535806Y-57933747D01*
X52536374Y-57283506D01*
X52288062Y-56682545D01*
X52136600Y-56530819D01*
X52136600Y-52261400D01*
X52042591Y-51788786D01*
X51774877Y-51388123D01*
X50864640Y-50477886D01*
X50864640Y-49077000D01*
X50820362Y-48841683D01*
X50681290Y-48625559D01*
X50469090Y-48480569D01*
X50217200Y-48429560D01*
X47217200Y-48429560D01*
X46981883Y-48473838D01*
X46765759Y-48612910D01*
X46620769Y-48825110D01*
X46569760Y-49077000D01*
X46569760Y-50477886D01*
X46319923Y-50727723D01*
X46052209Y-51128386D01*
X45958200Y-51601000D01*
X45958200Y-80111600D01*
X46052209Y-80584214D01*
X46319923Y-80984877D01*
X54193923Y-88858877D01*
X54594586Y-89126591D01*
X54993801Y-89206000D01*
X45769600Y-89206000D01*
X45769600Y-32053600D01*
X111913600Y-32053600D01*
X111913600Y-89206000D01*
G36*
X55456200Y-66821068D02*
X54195108Y-68082160D01*
X53302800Y-68082160D01*
X53067483Y-68126438D01*
X52851359Y-68265510D01*
X52706369Y-68477710D01*
X52655360Y-68729600D01*
X52655360Y-70729600D01*
X52699638Y-70964917D01*
X52838710Y-71181041D01*
X53050910Y-71326031D01*
X53302800Y-71377040D01*
X55002800Y-71377040D01*
X55238117Y-71332762D01*
X55354600Y-71257807D01*
X55354600Y-71272400D01*
X55440997Y-71706746D01*
X55451562Y-71722557D01*
X55687034Y-72074966D01*
X58144234Y-74532167D01*
X58512455Y-74778204D01*
X58946800Y-74864600D01*
X58979962Y-74864600D01*
X58998838Y-74964917D01*
X59137910Y-75181041D01*
X59350110Y-75326031D01*
X59517000Y-75359827D01*
X59517000Y-77114400D01*
X59588173Y-77472209D01*
X59790855Y-77775545D01*
X65687710Y-83672400D01*
X65182690Y-83672400D01*
X62059545Y-80549255D01*
X61949440Y-80475685D01*
X61949440Y-80210400D01*
X61905162Y-79975083D01*
X61766090Y-79758959D01*
X61553890Y-79613969D01*
X61302000Y-79562960D01*
X59602000Y-79562960D01*
X59366683Y-79607238D01*
X59150559Y-79746310D01*
X59005569Y-79958510D01*
X58981898Y-80075400D01*
X57804532Y-80075400D01*
X55287800Y-77558668D01*
X55287800Y-75300792D01*
X55454241Y-75193690D01*
X55599231Y-74981490D01*
X55650240Y-74729600D01*
X55650240Y-72729600D01*
X55605962Y-72494283D01*
X55466890Y-72278159D01*
X55254690Y-72133169D01*
X55002800Y-72082160D01*
X53302800Y-72082160D01*
X53067483Y-72126438D01*
X52998658Y-72170726D01*
X51782600Y-70954668D01*
X51782600Y-67983332D01*
X55260166Y-64505766D01*
X55456200Y-64212381D01*
X55456200Y-66821068D01*
X55456200Y-66821068D01*
G37*
X55456200Y-66821068D02*
X54195108Y-68082160D01*
X53302800Y-68082160D01*
X53067483Y-68126438D01*
X52851359Y-68265510D01*
X52706369Y-68477710D01*
X52655360Y-68729600D01*
X52655360Y-70729600D01*
X52699638Y-70964917D01*
X52838710Y-71181041D01*
X53050910Y-71326031D01*
X53302800Y-71377040D01*
X55002800Y-71377040D01*
X55238117Y-71332762D01*
X55354600Y-71257807D01*
X55354600Y-71272400D01*
X55440997Y-71706746D01*
X55451562Y-71722557D01*
X55687034Y-72074966D01*
X58144234Y-74532167D01*
X58512455Y-74778204D01*
X58946800Y-74864600D01*
X58979962Y-74864600D01*
X58998838Y-74964917D01*
X59137910Y-75181041D01*
X59350110Y-75326031D01*
X59517000Y-75359827D01*
X59517000Y-77114400D01*
X59588173Y-77472209D01*
X59790855Y-77775545D01*
X65687710Y-83672400D01*
X65182690Y-83672400D01*
X62059545Y-80549255D01*
X61949440Y-80475685D01*
X61949440Y-80210400D01*
X61905162Y-79975083D01*
X61766090Y-79758959D01*
X61553890Y-79613969D01*
X61302000Y-79562960D01*
X59602000Y-79562960D01*
X59366683Y-79607238D01*
X59150559Y-79746310D01*
X59005569Y-79958510D01*
X58981898Y-80075400D01*
X57804532Y-80075400D01*
X55287800Y-77558668D01*
X55287800Y-75300792D01*
X55454241Y-75193690D01*
X55599231Y-74981490D01*
X55650240Y-74729600D01*
X55650240Y-72729600D01*
X55605962Y-72494283D01*
X55466890Y-72278159D01*
X55254690Y-72133169D01*
X55002800Y-72082160D01*
X53302800Y-72082160D01*
X53067483Y-72126438D01*
X52998658Y-72170726D01*
X51782600Y-70954668D01*
X51782600Y-67983332D01*
X55260166Y-64505766D01*
X55456200Y-64212381D01*
X55456200Y-66821068D01*
G36*
X86268634Y-58735034D02*
X86022597Y-59103254D01*
X85936200Y-59537600D01*
X85936200Y-75475868D01*
X85483468Y-75928600D01*
X69608932Y-75928600D01*
X66819400Y-73139068D01*
X66819400Y-66446400D01*
X66733003Y-66012054D01*
X66486966Y-65643834D01*
X62806200Y-61963068D01*
X62806200Y-58117127D01*
X62920544Y-58288256D01*
X67086144Y-62453856D01*
X67421923Y-62678215D01*
X67818000Y-62757001D01*
X67818005Y-62757000D01*
X72105170Y-62757000D01*
X72340082Y-62992323D01*
X71940349Y-63391357D01*
X71706167Y-63955330D01*
X71705635Y-64565991D01*
X71938832Y-65130371D01*
X72340082Y-65532323D01*
X71940349Y-65931357D01*
X71706167Y-66495330D01*
X71705635Y-67105991D01*
X71938832Y-67670371D01*
X72340082Y-68072323D01*
X71940349Y-68471357D01*
X71706167Y-69035330D01*
X71705635Y-69645991D01*
X71938832Y-70210371D01*
X72370257Y-70642551D01*
X72934230Y-70876733D01*
X73544891Y-70877265D01*
X74109271Y-70644068D01*
X74541451Y-70212643D01*
X74775633Y-69648670D01*
X74776165Y-69038009D01*
X74542968Y-68473629D01*
X74141718Y-68071677D01*
X74541451Y-67672643D01*
X74775633Y-67108670D01*
X74776165Y-66498009D01*
X74542968Y-65933629D01*
X74141718Y-65531677D01*
X74541451Y-65132643D01*
X74775633Y-64568670D01*
X74776165Y-63958009D01*
X74542968Y-63393629D01*
X74141718Y-62991677D01*
X74541451Y-62592643D01*
X74775633Y-62028670D01*
X74776165Y-61418009D01*
X74542968Y-60853629D01*
X74141718Y-60451677D01*
X74541451Y-60052643D01*
X74775633Y-59488670D01*
X74776165Y-58878009D01*
X74542968Y-58313629D01*
X74141718Y-57911677D01*
X74541451Y-57512643D01*
X74557580Y-57473800D01*
X87529868Y-57473800D01*
X86268634Y-58735034D01*
X86268634Y-58735034D01*
G37*
X86268634Y-58735034D02*
X86022597Y-59103254D01*
X85936200Y-59537600D01*
X85936200Y-75475868D01*
X85483468Y-75928600D01*
X69608932Y-75928600D01*
X66819400Y-73139068D01*
X66819400Y-66446400D01*
X66733003Y-66012054D01*
X66486966Y-65643834D01*
X62806200Y-61963068D01*
X62806200Y-58117127D01*
X62920544Y-58288256D01*
X67086144Y-62453856D01*
X67421923Y-62678215D01*
X67818000Y-62757001D01*
X67818005Y-62757000D01*
X72105170Y-62757000D01*
X72340082Y-62992323D01*
X71940349Y-63391357D01*
X71706167Y-63955330D01*
X71705635Y-64565991D01*
X71938832Y-65130371D01*
X72340082Y-65532323D01*
X71940349Y-65931357D01*
X71706167Y-66495330D01*
X71705635Y-67105991D01*
X71938832Y-67670371D01*
X72340082Y-68072323D01*
X71940349Y-68471357D01*
X71706167Y-69035330D01*
X71705635Y-69645991D01*
X71938832Y-70210371D01*
X72370257Y-70642551D01*
X72934230Y-70876733D01*
X73544891Y-70877265D01*
X74109271Y-70644068D01*
X74541451Y-70212643D01*
X74775633Y-69648670D01*
X74776165Y-69038009D01*
X74542968Y-68473629D01*
X74141718Y-68071677D01*
X74541451Y-67672643D01*
X74775633Y-67108670D01*
X74776165Y-66498009D01*
X74542968Y-65933629D01*
X74141718Y-65531677D01*
X74541451Y-65132643D01*
X74775633Y-64568670D01*
X74776165Y-63958009D01*
X74542968Y-63393629D01*
X74141718Y-62991677D01*
X74541451Y-62592643D01*
X74775633Y-62028670D01*
X74776165Y-61418009D01*
X74542968Y-60853629D01*
X74141718Y-60451677D01*
X74541451Y-60052643D01*
X74775633Y-59488670D01*
X74776165Y-58878009D01*
X74542968Y-58313629D01*
X74141718Y-57911677D01*
X74541451Y-57512643D01*
X74557580Y-57473800D01*
X87529868Y-57473800D01*
X86268634Y-58735034D01*
G36*
X98480544Y-63225344D02*
X98256185Y-63561123D01*
X98177399Y-63957200D01*
X98177400Y-63957205D01*
X98177400Y-67389289D01*
X97259688Y-68307000D01*
X97236630Y-68307000D01*
X96971543Y-68041449D01*
X96950706Y-68032797D01*
X97001454Y-67882159D01*
X96100900Y-66981605D01*
X95200346Y-67882159D01*
X95250935Y-68032327D01*
X95232529Y-68039932D01*
X94864200Y-68407618D01*
X94864200Y-67649817D01*
X95020741Y-67702554D01*
X95921295Y-66802000D01*
X96280505Y-66802000D01*
X97181059Y-67702554D01*
X97437543Y-67616148D01*
X97647358Y-67042664D01*
X97621739Y-66432540D01*
X97437543Y-65987852D01*
X97181059Y-65901446D01*
X96280505Y-66802000D01*
X95921295Y-66802000D01*
X95020741Y-65901446D01*
X94864200Y-65954183D01*
X94864200Y-65195853D01*
X95230257Y-65562551D01*
X95251094Y-65571203D01*
X95200346Y-65721841D01*
X96100900Y-66622395D01*
X97001454Y-65721841D01*
X96950865Y-65571673D01*
X96969271Y-65564068D01*
X97401451Y-65132643D01*
X97635633Y-64568670D01*
X97636165Y-63958009D01*
X97402968Y-63393629D01*
X97001718Y-62991677D01*
X97236806Y-62757000D01*
X98948888Y-62757000D01*
X98480544Y-63225344D01*
X98480544Y-63225344D01*
G37*
X98480544Y-63225344D02*
X98256185Y-63561123D01*
X98177399Y-63957200D01*
X98177400Y-63957205D01*
X98177400Y-67389289D01*
X97259688Y-68307000D01*
X97236630Y-68307000D01*
X96971543Y-68041449D01*
X96950706Y-68032797D01*
X97001454Y-67882159D01*
X96100900Y-66981605D01*
X95200346Y-67882159D01*
X95250935Y-68032327D01*
X95232529Y-68039932D01*
X94864200Y-68407618D01*
X94864200Y-67649817D01*
X95020741Y-67702554D01*
X95921295Y-66802000D01*
X96280505Y-66802000D01*
X97181059Y-67702554D01*
X97437543Y-67616148D01*
X97647358Y-67042664D01*
X97621739Y-66432540D01*
X97437543Y-65987852D01*
X97181059Y-65901446D01*
X96280505Y-66802000D01*
X95921295Y-66802000D01*
X95020741Y-65901446D01*
X94864200Y-65954183D01*
X94864200Y-65195853D01*
X95230257Y-65562551D01*
X95251094Y-65571203D01*
X95200346Y-65721841D01*
X96100900Y-66622395D01*
X97001454Y-65721841D01*
X96950865Y-65571673D01*
X96969271Y-65564068D01*
X97401451Y-65132643D01*
X97635633Y-64568670D01*
X97636165Y-63958009D01*
X97402968Y-63393629D01*
X97001718Y-62991677D01*
X97236806Y-62757000D01*
X98948888Y-62757000D01*
X98480544Y-63225344D01*
G36*
X64700200Y-54813195D02*
X64700199Y-54813200D01*
X64778985Y-55209277D01*
X65003344Y-55545056D01*
X69372142Y-59913853D01*
X69372144Y-59913856D01*
X69569654Y-60045827D01*
X69707922Y-60138215D01*
X70104000Y-60217001D01*
X70104005Y-60217000D01*
X72105170Y-60217000D01*
X72340082Y-60452323D01*
X72104994Y-60687000D01*
X68246712Y-60687000D01*
X64687400Y-57127688D01*
X64687400Y-49225836D01*
X64698771Y-49214485D01*
X64700200Y-49211044D01*
X64700200Y-54813195D01*
X64700200Y-54813195D01*
G37*
X64700200Y-54813195D02*
X64700199Y-54813200D01*
X64778985Y-55209277D01*
X65003344Y-55545056D01*
X69372142Y-59913853D01*
X69372144Y-59913856D01*
X69569654Y-60045827D01*
X69707922Y-60138215D01*
X70104000Y-60217001D01*
X70104005Y-60217000D01*
X72105170Y-60217000D01*
X72340082Y-60452323D01*
X72104994Y-60687000D01*
X68246712Y-60687000D01*
X64687400Y-57127688D01*
X64687400Y-49225836D01*
X64698771Y-49214485D01*
X64700200Y-49211044D01*
X64700200Y-54813195D01*
G36*
X64700200Y-38833511D02*
X64700200Y-47815846D01*
X64699992Y-47815343D01*
X64352885Y-47467629D01*
X63899134Y-47279215D01*
X63407821Y-47278786D01*
X62953743Y-47466408D01*
X62806200Y-47613693D01*
X62806200Y-39407616D01*
X63043161Y-39052978D01*
X63156200Y-38484693D01*
X63156200Y-38426507D01*
X63043161Y-37858222D01*
X62721254Y-37376453D01*
X62435622Y-37185600D01*
X62721254Y-36994747D01*
X62750752Y-36950600D01*
X62817288Y-36950600D01*
X64700200Y-38833511D01*
X64700200Y-38833511D01*
G37*
X64700200Y-38833511D02*
X64700200Y-47815846D01*
X64699992Y-47815343D01*
X64352885Y-47467629D01*
X63899134Y-47279215D01*
X63407821Y-47278786D01*
X62953743Y-47466408D01*
X62806200Y-47613693D01*
X62806200Y-39407616D01*
X63043161Y-39052978D01*
X63156200Y-38484693D01*
X63156200Y-38426507D01*
X63043161Y-37858222D01*
X62721254Y-37376453D01*
X62435622Y-37185600D01*
X62721254Y-36994747D01*
X62750752Y-36950600D01*
X62817288Y-36950600D01*
X64700200Y-38833511D01*
M02*
